<svg width="587" height="280" viewBox="0 0 587 280" fill="none" xmlns="http://www.w3.org/2000/svg">
<circle cx="178.103" cy="85.7179" r="18.0595" transform="rotate(-162.315 178.103 85.7179)" fill="#FFEB8D"/>
<circle cx="207.713" cy="125.271" r="18.0595" transform="rotate(-77.2277 207.713 125.271)" fill="#D792F8"/>
<circle cx="192.747" cy="176.759" r="18.0595" transform="rotate(-1.89591 192.747 176.759)" fill="#FFEB8D"/>
<circle cx="67.816" cy="53.8244" r="18.0595" transform="rotate(-53.0443 67.816 53.8244)" fill="#9D96F1"/>
<circle cx="19.0452" cy="152.327" r="18.0595" transform="rotate(-93.2218 19.0452 152.327)" fill="#FFEB8D"/>
<circle cx="94.8812" cy="255.028" r="18.0595" transform="rotate(-150.17 94.8812 255.028)" fill="#D792F8"/>
<circle cx="157.685" cy="48.9015" r="18.0595" transform="rotate(-162.315 157.685 48.9015)" fill="#FFEB8D"/>
<circle cx="242.646" cy="101.774" r="18.0595" transform="rotate(-77.2277 242.646 101.774)" fill="#D792F8"/>
<circle cx="224.325" cy="204.604" r="18.0595" transform="rotate(-1.89591 224.325 204.604)" fill="#FFEB8D"/>
<circle cx="109.31" cy="46.6994" r="18.0595" transform="rotate(-53.0443 109.31 46.6994)" fill="#9D96F1"/>
<circle cx="46.1546" cy="120.114" r="18.0595" transform="rotate(-93.2218 46.1546 120.114)" fill="#FFEB8D"/>
<circle cx="82.6663" cy="214.739" r="18.0595" transform="rotate(-150.17 82.6663 214.739)" fill="#D792F8"/>
<circle cx="211.858" cy="59.7784" r="18.0595" transform="rotate(-162.315 211.858 59.7784)" fill="#FFEB8D"/>
<circle cx="236.447" cy="156.681" r="18.0595" transform="rotate(-77.2277 236.447 156.681)" fill="#D792F8"/>
<circle cx="169.637" cy="212.513" r="18.0595" transform="rotate(-1.89591 169.637 212.513)" fill="#FFEB8D"/>
<circle cx="81.1656" cy="94.2502" r="18.0595" transform="rotate(-53.0443 81.1656 94.2502)" fill="#9D96F1"/>
<circle cx="55.3265" cy="174.603" r="18.0595" transform="rotate(-93.2218 55.3265 174.603)" fill="#FFEB8D"/>
<circle cx="133.338" cy="236.768" r="18.0595" transform="rotate(-150.17 133.338 236.768)" fill="#D792F8"/>
<circle cx="190.921" cy="22.6925" r="18.0595" transform="rotate(-162.315 190.921 22.6925)" fill="#FFEB8D"/>
<circle cx="271.605" cy="132.646" r="18.0595" transform="rotate(-77.2277 271.605 132.646)" fill="#D792F8"/>
<circle cx="201.794" cy="240.436" r="18.0595" transform="rotate(-1.89591 201.794 240.436)" fill="#FFEB8D"/>
<circle cx="123.084" cy="86.7248" r="18.0595" transform="rotate(-53.0443 123.084 86.7248)" fill="#9D96F1"/>
<circle cx="82.4984" cy="141.81" r="18.0595" transform="rotate(-93.2218 82.4984 141.81)" fill="#FFEB8D"/>
<circle cx="120.672" cy="196.108" r="18.0595" transform="rotate(-150.17 120.672 196.108)" fill="#D792F8"/>
<circle cx="471.103" cy="85.7179" r="18.0595" transform="rotate(-162.315 471.103 85.7179)" fill="#FFEB8D"/>
<circle cx="500.713" cy="125.271" r="18.0595" transform="rotate(-77.2277 500.713 125.271)" fill="#9D96F1"/>
<circle cx="485.747" cy="176.759" r="18.0595" transform="rotate(-1.89591 485.747 176.759)" fill="#FFEB8D"/>
<circle cx="360.816" cy="53.8244" r="18.0595" transform="rotate(-53.0443 360.816 53.8244)" fill="#D792F8"/>
<circle cx="312.045" cy="152.327" r="18.0595" transform="rotate(-93.2218 312.045 152.327)" fill="#FFEB8D"/>
<circle cx="387.881" cy="255.028" r="18.0595" transform="rotate(-150.17 387.881 255.028)" fill="#9D96F1"/>
<circle cx="450.685" cy="48.9015" r="18.0595" transform="rotate(-162.315 450.685 48.9015)" fill="#FFEB8D"/>
<circle cx="535.646" cy="101.774" r="18.0595" transform="rotate(-77.2277 535.646 101.774)" fill="#9D96F1"/>
<circle cx="517.325" cy="204.604" r="18.0595" transform="rotate(-1.89591 517.325 204.604)" fill="#FFEB8D"/>
<circle cx="402.31" cy="46.6994" r="18.0595" transform="rotate(-53.0443 402.31 46.6994)" fill="#D792F8"/>
<circle cx="339.155" cy="120.114" r="18.0595" transform="rotate(-93.2218 339.155 120.114)" fill="#FFEB8D"/>
<circle cx="375.666" cy="214.739" r="18.0595" transform="rotate(-150.17 375.666 214.739)" fill="#9D96F1"/>
<circle cx="504.858" cy="59.7784" r="18.0595" transform="rotate(-162.315 504.858 59.7784)" fill="#FFEB8D"/>
<circle cx="529.447" cy="156.681" r="18.0595" transform="rotate(-77.2277 529.447 156.681)" fill="#9D96F1"/>
<circle cx="462.637" cy="212.513" r="18.0595" transform="rotate(-1.89591 462.637 212.513)" fill="#FFEB8D"/>
<circle cx="374.166" cy="94.2502" r="18.0595" transform="rotate(-53.0443 374.166 94.2502)" fill="#D792F8"/>
<circle cx="348.326" cy="174.603" r="18.0595" transform="rotate(-93.2218 348.326 174.603)" fill="#FFEB8D"/>
<circle cx="426.338" cy="236.768" r="18.0595" transform="rotate(-150.17 426.338 236.768)" fill="#9D96F1"/>
<circle cx="483.921" cy="22.6925" r="18.0595" transform="rotate(-162.315 483.921 22.6925)" fill="#FFEB8D"/>
<circle cx="564.605" cy="132.646" r="18.0595" transform="rotate(-77.2277 564.605 132.646)" fill="#9D96F1"/>
<circle cx="494.794" cy="240.436" r="18.0595" transform="rotate(-1.89591 494.794 240.436)" fill="#FFEB8D"/>
<circle cx="416.084" cy="86.7248" r="18.0595" transform="rotate(-53.0443 416.084 86.7248)" fill="#D792F8"/>
<circle cx="375.498" cy="141.81" r="18.0595" transform="rotate(-93.2218 375.498 141.81)" fill="#FFEB8D"/>
<circle cx="413.672" cy="196.108" r="18.0595" transform="rotate(-150.17 413.672 196.108)" fill="#9D96F1"/>
</svg>
