<svg width="619" height="305" viewBox="0 0 619 305" fill="none" xmlns="http://www.w3.org/2000/svg">
<circle cx="45.553" cy="45.5531" r="32.2723" transform="rotate(131.452 45.553 45.5531)" fill="#9D96F1"/>
<circle cx="96.5745" cy="103.77" r="32.2723" transform="rotate(131.452 96.5745 103.77)" fill="#9D96F1"/>
<circle cx="210.387" cy="102.461" r="32.2723" transform="rotate(131.452 210.387 102.461)" fill="#FFC36E"/>
<circle cx="264.028" cy="45.5531" r="32.2723" transform="rotate(131.452 264.028 45.5531)" fill="#FFC36E"/>
<circle cx="209.082" cy="200.579" r="32.2723" transform="rotate(131.452 209.082 200.579)" fill="#FFC36E"/>
<circle cx="261.41" cy="259.448" r="32.2723" transform="rotate(131.452 261.41 259.448)" fill="#9D96F1"/>
<circle cx="99.1898" cy="199.924" r="32.2723" transform="rotate(131.452 99.1898 199.924)" fill="#9D96F1"/>
<circle cx="48.8265" cy="256.178" r="32.2723" transform="rotate(131.452 48.8265 256.178)" fill="#FFC36E"/>
<circle cx="354.553" cy="45.5531" r="32.2723" transform="rotate(131.452 354.553 45.5531)" fill="#FFC36E"/>
<circle cx="405.575" cy="103.77" r="32.2723" transform="rotate(131.452 405.575 103.77)" fill="#FFC36E"/>
<circle cx="519.387" cy="102.461" r="32.2723" transform="rotate(131.452 519.387 102.461)" fill="#9D96F1"/>
<circle cx="573.028" cy="45.5531" r="32.2723" transform="rotate(131.452 573.028 45.5531)" fill="#9D96F1"/>
<circle cx="518.082" cy="200.579" r="32.2723" transform="rotate(131.452 518.082 200.579)" fill="#9D96F1"/>
<circle cx="570.41" cy="259.448" r="32.2723" transform="rotate(131.452 570.41 259.448)" fill="#FFC36E"/>
<circle cx="408.19" cy="199.924" r="32.2723" transform="rotate(131.452 408.19 199.924)" fill="#FFC36E"/>
<circle cx="357.826" cy="256.178" r="32.2723" transform="rotate(131.452 357.826 256.178)" fill="#9D96F1"/>
</svg>
