<svg width="80" height="210" viewBox="0 0 80 210" fill="none" xmlns="http://www.w3.org/2000/svg">
<rect width="80" height="210" fill="#FFA7BF"/>
<path d="M41.2489 17.1248C41.8518 23.1691 47.2402 27.5811 53.2846 26.9787C59.3296 26.3763 63.7411 20.9875 63.1389 14.9426C62.536 8.89772 57.1476 4.48637 51.1032 5.08877C45.0582 5.69117 40.6466 11.0799 41.2489 17.1248Z" fill="white"/>
<path d="M41.1766 88.1248C41.7795 94.1691 47.1679 98.5811 53.2123 97.9787C59.2573 97.3763 63.6689 91.9875 63.0666 85.9426C62.4637 79.8977 57.0753 75.4864 51.0309 76.0888C44.9859 76.6912 40.5744 82.0799 41.1766 88.1248Z" fill="white"/>
<path d="M41.1044 159.125C41.7073 165.169 47.0957 169.581 53.14 168.979C59.185 168.376 63.5966 162.988 62.9943 156.943C62.3914 150.898 57.003 146.486 50.9587 147.089C44.9137 147.691 40.5021 153.08 41.1044 159.125Z" fill="white"/>
<path d="M55.2313 35.1379C55.8342 41.1828 61.2226 45.5947 67.2676 44.9923C73.312 44.3899 77.7236 39.0012 77.1213 32.9563C76.519 26.9114 71.13 22.5 65.0856 23.1024C59.0406 23.7048 54.6291 29.0936 55.2313 35.1379Z" fill="white"/>
<path d="M55.1591 106.138C55.762 112.183 61.1503 116.595 67.1953 115.992C73.2397 115.39 77.6513 110.001 77.049 103.956C76.4467 97.9114 71.0577 93.5 65.0134 94.1024C58.9684 94.7048 54.5568 100.094 55.1591 106.138Z" fill="white"/>
<path d="M55.0868 177.138C55.6897 183.183 61.0781 187.595 67.1231 186.992C73.1674 186.39 77.579 181.001 76.9767 174.956C76.3745 168.911 70.9855 164.5 64.9411 165.102C58.8961 165.705 54.4845 171.094 55.0868 177.138Z" fill="white"/>
<path d="M42.2137 54.0838C42.8113 60.1304 47.9715 64.5629 53.7388 63.9834C59.5066 63.4039 63.6975 58.0314 63.0999 51.9848C62.5017 45.9376 57.3415 41.5051 51.5743 42.0852C45.8065 42.6647 41.6155 48.0366 42.2137 54.0838Z" fill="white"/>
<path d="M42.1415 125.084C42.7391 131.13 47.8993 135.563 53.6665 134.983C59.4343 134.404 63.6253 129.031 63.0277 122.985C62.4294 116.938 57.2693 112.505 51.502 113.085C45.7342 113.665 41.5432 119.037 42.1415 125.084Z" fill="white"/>
<path d="M42.0692 196.084C42.6668 202.13 47.827 206.563 53.5942 205.983C59.3621 205.404 63.553 200.031 62.9554 193.985C62.3572 187.938 57.197 183.505 51.4298 184.085C45.6619 184.665 41.471 190.037 42.0692 196.084Z" fill="white"/>
<path d="M20.2411 24.1033C20.844 30.1482 26.2324 34.5596 32.2768 33.9572C38.3217 33.3548 42.7333 27.966 42.131 21.9218C41.5281 15.8769 36.1398 11.4649 30.0954 12.0673C24.0504 12.6697 19.6388 18.0584 20.2411 24.1033Z" fill="white"/>
<path d="M20.1688 95.1033C20.7717 101.148 26.1601 105.56 32.2045 104.957C38.2495 104.355 42.6611 98.966 42.0588 92.9218C41.4559 86.8769 36.0675 82.4649 30.0231 83.0673C23.9781 83.6697 19.5666 89.0584 20.1688 95.1033Z" fill="white"/>
<path d="M20.0966 166.103C20.6995 172.148 26.0878 176.56 32.1322 175.957C38.1772 175.355 42.5888 169.966 41.9865 163.922C41.3836 157.877 35.9952 153.465 29.9509 154.067C23.9059 154.67 19.4943 160.058 20.0966 166.103Z" fill="white"/>
<path d="M21.2152 47.1043C21.7898 53.1486 26.9332 57.5603 32.7036 56.9576C38.4733 56.355 42.6853 50.966 42.1101 44.9211C41.5354 38.8769 36.3921 34.4652 30.6217 35.0678C24.8519 35.6705 20.64 41.0595 21.2152 47.1043Z" fill="white"/>
<path d="M21.1429 118.104C21.7176 124.149 26.8609 128.56 32.6313 127.958C38.4011 127.355 42.613 121.966 42.0378 115.921C41.4632 109.877 36.3198 105.465 30.5494 106.068C24.7797 106.671 20.5677 112.059 21.1429 118.104Z" fill="white"/>
<path d="M21.0707 189.104C21.6453 195.149 26.7887 199.56 32.559 198.958C38.3288 198.355 42.5407 192.966 41.9655 186.921C41.3909 180.877 36.2475 176.465 30.4772 177.068C24.7074 177.671 20.4955 183.059 21.0707 189.104Z" fill="white"/>
</svg>
