<svg width="306" height="302" viewBox="0 0 306 302" fill="none" xmlns="http://www.w3.org/2000/svg">
<circle cx="31.1499" cy="34.9371" r="22.1138" transform="rotate(-50.1388 31.1499 34.9371)" fill="#95E7E2"/>
<circle cx="274.383" cy="36.0764" r="22.1138" transform="rotate(45.6405 274.383 36.0764)" fill="#95E7E2"/>
<circle cx="105.046" cy="32.0953" r="22.1138" transform="rotate(-50.1388 105.046 32.0953)" fill="#95E7E2"/>
<circle cx="31.2725" cy="267.283" r="22.1138" transform="rotate(-135.603 31.2725 267.283)" fill="#95E7E2"/>
<circle cx="271.886" cy="268.672" r="22.1138" transform="rotate(131.452 271.886 268.672)" fill="#95E7E2"/>
<circle cx="269.77" cy="109.885" r="22.1138" transform="rotate(45.6405 269.77 109.885)" fill="#95E7E2"/>
<circle cx="34.2842" cy="193.392" r="22.1138" transform="rotate(-135.603 34.2842 193.392)" fill="#95E7E2"/>
<circle cx="197.937" cy="269.461" r="22.1138" transform="rotate(131.452 197.937 269.461)" fill="#95E7E2"/>
<circle cx="70.939" cy="72.359" r="22.1138" transform="rotate(-50.1388 70.939 72.359)" fill="#95E7E2"/>
<circle cx="233.145" cy="71.8967" r="22.1138" transform="rotate(45.6405 233.145 71.8967)" fill="#95E7E2"/>
<circle cx="71.7256" cy="230.576" r="22.1138" transform="rotate(-135.603 71.7256 230.576)" fill="#95E7E2"/>
<circle cx="233.148" cy="230.16" r="22.1138" transform="rotate(131.452 233.148 230.16)" fill="#95E7E2"/>
<circle cx="88.4663" cy="124.941" r="22.1138" transform="rotate(-50.1388 88.4663 124.941)" fill="#95E7E2"/>
<circle cx="179.068" cy="84.0393" r="22.1138" transform="rotate(45.6405 179.068 84.0393)" fill="#95E7E2"/>
<circle cx="125.526" cy="217.263" r="22.1138" transform="rotate(-135.603 125.526 217.263)" fill="#95E7E2"/>
<circle cx="217.085" cy="177.111" r="22.1138" transform="rotate(131.452 217.085 177.111)" fill="#95E7E2"/>
<circle cx="125.416" cy="83.7282" r="22.1138" transform="rotate(-50.1388 125.416 83.7282)" fill="#95E7E2"/>
<circle cx="216.35" cy="124.949" r="22.1138" transform="rotate(45.6405 216.35 124.949)" fill="#95E7E2"/>
<circle cx="87.3662" cy="177.171" r="22.1138" transform="rotate(-135.603 87.3662 177.171)" fill="#95E7E2"/>
<circle cx="179.011" cy="217.283" r="22.1138" transform="rotate(131.452 179.011 217.283)" fill="#95E7E2"/>
<circle cx="33.9937" cy="110.73" r="22.1138" transform="rotate(-50.1388 33.9937 110.73)" fill="#95E7E2"/>
<circle cx="198.691" cy="31.2717" r="22.1138" transform="rotate(45.6405 198.691 31.2717)" fill="#95E7E2"/>
<circle cx="107.052" cy="270.445" r="22.1138" transform="rotate(-135.603 107.052 270.445)" fill="#95E7E2"/>
<circle cx="271.15" cy="192.83" r="22.1138" transform="rotate(131.452 271.15 192.83)" fill="#95E7E2"/>
</svg>
