<svg width="627" height="304" viewBox="0 0 627 304" fill="none" xmlns="http://www.w3.org/2000/svg">
<circle cx="45.6337" cy="45.6343" r="32.33" transform="rotate(131.452 45.6337 45.6343)" fill="#95E7E2"/>
<circle cx="96.747" cy="103.955" r="32.33" transform="rotate(131.452 96.747 103.955)" fill="#EDF399"/>
<circle cx="210.765" cy="102.642" r="32.33" transform="rotate(131.452 210.765 102.642)" fill="#EDF399"/>
<circle cx="264.499" cy="45.6343" r="32.33" transform="rotate(131.452 264.499 45.6343)" fill="#EDF399"/>
<circle cx="209.456" cy="200.935" r="32.33" transform="rotate(131.452 209.456 200.935)" fill="#95E7E2"/>
<circle cx="267.63" cy="257.863" r="32.33" transform="rotate(131.452 267.63 257.863)" fill="#EDF399"/>
<circle cx="99.3681" cy="200.281" r="32.33" transform="rotate(131.452 99.3681 200.281)" fill="#EDF399"/>
<circle cx="48.913" cy="256.636" r="32.33" transform="rotate(131.452 48.913 256.636)" fill="#EDF399"/>
<circle cx="358.634" cy="45.6343" r="32.33" transform="rotate(131.452 358.634 45.6343)" fill="#EDF399"/>
<circle cx="409.747" cy="103.955" r="32.33" transform="rotate(131.452 409.747 103.955)" fill="#95E7E2"/>
<circle cx="523.765" cy="102.642" r="32.33" transform="rotate(131.452 523.765 102.642)" fill="#95E7E2"/>
<circle cx="577.499" cy="45.6343" r="32.33" transform="rotate(131.452 577.499 45.6343)" fill="#EDF399"/>
<circle cx="522.456" cy="200.935" r="32.33" transform="rotate(131.452 522.456 200.935)" fill="#EDF399"/>
<circle cx="580.63" cy="257.863" r="32.33" transform="rotate(131.452 580.63 257.863)" fill="#EDF399"/>
<circle cx="412.368" cy="200.281" r="32.33" transform="rotate(131.452 412.368 200.281)" fill="#EDF399"/>
<circle cx="361.913" cy="256.636" r="32.33" transform="rotate(131.452 361.913 256.636)" fill="#95E7E2"/>
</svg>
