<svg width="563" height="307" viewBox="0 0 563 307" fill="none" xmlns="http://www.w3.org/2000/svg">
<ellipse cx="21.0855" cy="21.1783" rx="21.0855" ry="21.1783" transform="matrix(-0.675143 0.737687 -0.761054 -0.648688 60.707 27.4766)" fill="#FFC36E"/>
<ellipse cx="21.0855" cy="21.1783" rx="21.0855" ry="21.1783" transform="matrix(-0.675143 0.737687 -0.761054 -0.648688 68.0195 73.5508)" fill="#FFC36E"/>
<ellipse cx="21.0855" cy="21.1783" rx="21.0855" ry="21.1783" transform="matrix(-0.675143 0.737687 -0.761054 -0.648688 113.611 85.1719)" fill="#FFC36E"/>
<ellipse cx="21.0855" cy="21.1783" rx="21.0855" ry="21.1783" transform="matrix(-0.675143 0.737687 -0.761054 -0.648688 106.729 132.076)" fill="#FFC36E"/>
<ellipse cx="21.0855" cy="21.1783" rx="21.0855" ry="21.1783" transform="matrix(-0.675143 0.737687 -0.761054 -0.648688 182.43 127.094)" fill="#9D96F1"/>
<ellipse cx="20.9247" cy="21.3372" rx="20.9247" ry="21.3372" transform="matrix(0.488074 -0.872802 0.886928 0.461908 87.2695 185.539)" fill="#FFC36E"/>
<ellipse cx="21.0974" cy="21.1665" rx="21.0974" ry="21.1665" transform="matrix(-0.686846 -0.726803 0.75067 -0.660677 174.359 207.648)" fill="#9D96F1"/>
<ellipse cx="21.0855" cy="21.1783" rx="21.0855" ry="21.1783" transform="matrix(-0.675143 0.737687 -0.761054 -0.648688 223.719 97.625)" fill="#9D96F1"/>
<ellipse cx="20.9247" cy="21.3372" rx="20.9247" ry="21.3372" transform="matrix(0.488074 -0.872802 0.886928 0.461908 53.9727 223.271)" fill="#FFC36E"/>
<ellipse cx="21.0974" cy="21.1665" rx="21.0974" ry="21.1665" transform="matrix(-0.686846 -0.726803 0.75067 -0.660677 200.273 250.438)" fill="#9D96F1"/>
<ellipse cx="21.0855" cy="21.1783" rx="21.0855" ry="21.1783" transform="matrix(-0.675143 0.737687 -0.761054 -0.648688 227.59 49.4746)" fill="#9D96F1"/>
<ellipse cx="20.9247" cy="21.3372" rx="20.9247" ry="21.3372" transform="matrix(0.488074 -0.872802 0.886928 0.461908 61.5098 271.016)" fill="#FFC36E"/>
<ellipse cx="21.0974" cy="21.1665" rx="21.0974" ry="21.1665" transform="matrix(-0.686846 -0.726803 0.75067 -0.660677 249.457 259.338)" fill="#FFC36E"/>
<ellipse cx="21.0855" cy="21.1783" rx="21.0855" ry="21.1783" transform="matrix(-0.675143 0.737687 -0.761054 -0.648688 277.053 49.4746)" fill="#FFC36E"/>
<ellipse cx="20.9247" cy="21.3372" rx="20.9247" ry="21.3372" transform="matrix(0.488074 -0.872802 0.886928 0.461908 13.332 281.832)" fill="#FFC36E"/>
<ellipse cx="21.0974" cy="21.1665" rx="21.0974" ry="21.1665" transform="matrix(-0.686846 -0.726803 0.75067 -0.660677 244.129 306.795)" fill="#FFC36E"/>
<ellipse cx="21.0855" cy="21.1783" rx="21.0855" ry="21.1783" transform="matrix(-0.675143 0.737687 -0.761054 -0.648688 341.707 27.4766)" fill="#FFC36E"/>
<ellipse cx="21.0855" cy="21.1783" rx="21.0855" ry="21.1783" transform="matrix(-0.675143 0.737687 -0.761054 -0.648688 349.02 73.5508)" fill="#FFC36E"/>
<ellipse cx="21.0855" cy="21.1783" rx="21.0855" ry="21.1783" transform="matrix(-0.675143 0.737687 -0.761054 -0.648688 394.611 85.1719)" fill="#FFC36E"/>
<ellipse cx="21.0855" cy="21.1783" rx="21.0855" ry="21.1783" transform="matrix(-0.675143 0.737687 -0.761054 -0.648688 387.729 132.076)" fill="#FFC36E"/>
<ellipse cx="21.0855" cy="21.1783" rx="21.0855" ry="21.1783" transform="matrix(-0.675143 0.737687 -0.761054 -0.648688 463.43 127.094)" fill="#9D96F1"/>
<ellipse cx="20.9247" cy="21.3372" rx="20.9247" ry="21.3372" transform="matrix(0.488074 -0.872802 0.886928 0.461908 368.27 185.539)" fill="#FFC36E"/>
<ellipse cx="21.0974" cy="21.1665" rx="21.0974" ry="21.1665" transform="matrix(-0.686846 -0.726803 0.75067 -0.660677 455.359 207.648)" fill="#9D96F1"/>
<ellipse cx="21.0855" cy="21.1783" rx="21.0855" ry="21.1783" transform="matrix(-0.675143 0.737687 -0.761054 -0.648688 504.719 97.625)" fill="#9D96F1"/>
<ellipse cx="20.9247" cy="21.3372" rx="20.9247" ry="21.3372" transform="matrix(0.488074 -0.872802 0.886928 0.461908 334.973 223.271)" fill="#FFC36E"/>
<ellipse cx="21.0974" cy="21.1665" rx="21.0974" ry="21.1665" transform="matrix(-0.686846 -0.726803 0.75067 -0.660677 481.273 250.438)" fill="#9D96F1"/>
<ellipse cx="21.0855" cy="21.1783" rx="21.0855" ry="21.1783" transform="matrix(-0.675143 0.737687 -0.761054 -0.648688 508.59 49.4746)" fill="#9D96F1"/>
<ellipse cx="20.9247" cy="21.3372" rx="20.9247" ry="21.3372" transform="matrix(0.488074 -0.872802 0.886928 0.461908 342.51 271.016)" fill="#FFC36E"/>
<ellipse cx="21.0974" cy="21.1665" rx="21.0974" ry="21.1665" transform="matrix(-0.686846 -0.726803 0.75067 -0.660677 530.457 259.338)" fill="#FFC36E"/>
<ellipse cx="21.0855" cy="21.1783" rx="21.0855" ry="21.1783" transform="matrix(-0.675143 0.737687 -0.761054 -0.648688 558.053 49.4746)" fill="#FFC36E"/>
<ellipse cx="20.9247" cy="21.3372" rx="20.9247" ry="21.3372" transform="matrix(0.488074 -0.872802 0.886928 0.461908 294.332 281.832)" fill="#FFC36E"/>
<ellipse cx="21.0974" cy="21.1665" rx="21.0974" ry="21.1665" transform="matrix(-0.686846 -0.726803 0.75067 -0.660677 525.129 306.795)" fill="#FFC36E"/>
</svg>
