<svg width="310" height="314" viewBox="0 0 310 314" fill="none" xmlns="http://www.w3.org/2000/svg">
<circle cx="180.061" cy="91.6786" r="19.6071" transform="rotate(-172.979 180.061 91.6786)" fill="#9D96F1"/>
<circle cx="219.602" cy="127.928" r="19.6071" transform="rotate(-87.8925 219.602 127.928)" fill="#FFC36E"/>
<circle cx="213.982" cy="185.87" r="19.6071" transform="rotate(-12.5607 213.982 185.87)" fill="#D792F8"/>
<circle cx="55.986" cy="79.8068" r="19.6071" transform="rotate(-63.7091 55.986 79.8068)" fill="#FFC36E"/>
<circle cx="23.7404" cy="194.702" r="19.6071" transform="rotate(-103.887 23.7404 194.702)" fill="#FFC36E"/>
<circle cx="125.286" cy="289.043" r="19.6071" transform="rotate(-160.835 125.286 289.043)" fill="#D792F8"/>
<circle cx="150.88" cy="56.4989" r="19.6071" transform="rotate(-172.979 150.88 56.4989)" fill="#9D96F1"/>
<circle cx="252.153" cy="95.8421" r="19.6071" transform="rotate(-87.8925 252.153 95.8421)" fill="#FFC36E"/>
<circle cx="253.265" cy="209.235" r="19.6071" transform="rotate(-12.5607 253.265 209.235)" fill="#FFC36E"/>
<circle cx="98.8239" cy="63.8693" r="19.6071" transform="rotate(-63.7091 98.8239 63.8693)" fill="#9D96F1"/>
<circle cx="46.1916" cy="154.889" r="19.6071" transform="rotate(-103.887 46.1916 154.889)" fill="#FFC36E"/>
<circle cx="104.161" cy="248.508" r="19.6071" transform="rotate(-160.835 104.161 248.508)" fill="#D792F8"/>
<circle cx="210.866" cy="57.2176" r="19.6071" transform="rotate(-172.979 210.866 57.2176)" fill="#9D96F1"/>
<circle cx="256.573" cy="155.666" r="19.6071" transform="rotate(-87.8925 256.573 155.666)" fill="#FFC36E"/>
<circle cx="196.509" cy="228.659" r="19.6071" transform="rotate(-12.5607 196.509 228.659)" fill="#D792F8"/>
<circle cx="78.3493" cy="120.256" r="19.6071" transform="rotate(-63.7091 78.3493 120.256)" fill="#D792F8"/>
<circle cx="66.9259" cy="211.182" r="19.6071" transform="rotate(-103.887 66.9259 211.182)" fill="#D792F8"/>
<circle cx="162.649" cy="261.834" r="19.6071" transform="rotate(-160.835 162.649 261.834)" fill="#D792F8"/>
<circle cx="181.075" cy="21.8563" r="19.6071" transform="rotate(-172.979 181.075 21.8563)" fill="#FFC36E"/>
<circle cx="289.254" cy="122.959" r="19.6071" transform="rotate(-87.8925 289.254 122.959)" fill="#FFC36E"/>
<circle cx="236.427" cy="251.991" r="19.6071" transform="rotate(-12.5607 236.427 251.991)" fill="#FFC36E"/>
<circle cx="121.56" cy="103.805" r="19.6071" transform="rotate(-63.7091 121.56 103.805)" fill="#9D96F1"/>
<circle cx="89.3283" cy="170.733" r="19.6071" transform="rotate(-103.887 89.3283 170.733)" fill="#D792F8"/>
<circle cx="140.965" cy="220.996" r="19.6071" transform="rotate(-160.835 140.965 220.996)" fill="#D792F8"/>
</svg>
