<svg width="65" height="210" viewBox="0 0 65 210" fill="none" xmlns="http://www.w3.org/2000/svg">
<rect width="65" height="210" fill="#FFA7BF"/>
<path d="M26.2489 17.1248C26.8518 23.1691 32.2402 27.5811 38.2846 26.9787C44.3296 26.3763 48.7411 20.9875 48.1389 14.9426C47.536 8.89772 42.1476 4.48637 36.1032 5.08877C30.0582 5.69117 25.6466 11.0799 26.2489 17.1248Z" fill="white"/>
<path d="M26.1766 88.1248C26.7795 94.1691 32.1679 98.5811 38.2123 97.9787C44.2573 97.3763 48.6689 91.9875 48.0666 85.9426C47.4637 79.8977 42.0753 75.4864 36.0309 76.0888C29.9859 76.6912 25.5744 82.0799 26.1766 88.1248Z" fill="white"/>
<path d="M26.1044 159.125C26.7073 165.169 32.0957 169.581 38.14 168.979C44.185 168.376 48.5966 162.988 47.9943 156.943C47.3914 150.898 42.003 146.486 35.9587 147.089C29.9137 147.691 25.5021 153.08 26.1044 159.125Z" fill="white"/>
<path d="M40.2313 35.1379C40.8342 41.1828 46.2226 45.5947 52.2676 44.9923C58.312 44.3899 62.7236 39.0012 62.1213 32.9563C61.519 26.9114 56.13 22.5 50.0856 23.1024C44.0406 23.7048 39.6291 29.0936 40.2313 35.1379Z" fill="white"/>
<path d="M40.1591 106.138C40.762 112.183 46.1503 116.595 52.1953 115.992C58.2397 115.39 62.6513 110.001 62.049 103.956C61.4467 97.9114 56.0577 93.5 50.0134 94.1024C43.9684 94.7048 39.5568 100.094 40.1591 106.138Z" fill="white"/>
<path d="M40.0868 177.138C40.6897 183.183 46.0781 187.595 52.1231 186.992C58.1674 186.39 62.579 181.001 61.9767 174.956C61.3745 168.911 55.9855 164.5 49.9411 165.102C43.8961 165.705 39.4845 171.094 40.0868 177.138Z" fill="white"/>
<path d="M27.2137 54.0838C27.8113 60.1304 32.9715 64.5629 38.7388 63.9834C44.5066 63.4039 48.6975 58.0314 48.0999 51.9848C47.5017 45.9376 42.3415 41.5051 36.5743 42.0852C30.8065 42.6647 26.6155 48.0366 27.2137 54.0838Z" fill="white"/>
<path d="M27.1415 125.084C27.7391 131.13 32.8993 135.563 38.6665 134.983C44.4343 134.404 48.6253 129.031 48.0277 122.985C47.4294 116.938 42.2693 112.505 36.502 113.085C30.7342 113.665 26.5432 119.037 27.1415 125.084Z" fill="white"/>
<path d="M27.0692 196.084C27.6668 202.13 32.827 206.563 38.5942 205.983C44.3621 205.404 48.553 200.031 47.9554 193.985C47.3572 187.938 42.197 183.505 36.4298 184.085C30.6619 184.665 26.471 190.037 27.0692 196.084Z" fill="white"/>
<path d="M5.2411 24.1033C5.844 30.1482 11.2324 34.5596 17.2768 33.9572C23.3217 33.3548 27.7333 27.966 27.131 21.9218C26.5281 15.8769 21.1398 11.4649 15.0954 12.0673C9.0504 12.6697 4.63882 18.0584 5.2411 24.1033Z" fill="white"/>
<path d="M5.16884 95.1033C5.77173 101.148 11.1601 105.56 17.2045 104.957C23.2495 104.355 27.6611 98.966 27.0588 92.9218C26.4559 86.8769 21.0675 82.4649 15.0231 83.0673C8.97813 83.6697 4.56655 89.0584 5.16884 95.1033Z" fill="white"/>
<path d="M5.09657 166.103C5.69947 172.148 11.0878 176.56 17.1322 175.957C23.1772 175.355 27.5888 169.966 26.9865 163.922C26.3836 157.877 20.9952 153.465 14.9509 154.067C8.90586 154.67 4.49429 160.058 5.09657 166.103Z" fill="white"/>
<path d="M6.21521 47.1043C6.78985 53.1486 11.9332 57.5603 17.7036 56.9576C23.4733 56.355 27.6853 50.966 27.1101 44.9211C26.5354 38.8769 21.3921 34.4652 15.6217 35.0678C9.85195 35.6705 5.63999 41.0595 6.21521 47.1043Z" fill="white"/>
<path d="M6.14294 118.104C6.71758 124.149 11.8609 128.56 17.6313 127.958C23.4011 127.355 27.613 121.966 27.0378 115.921C26.4632 109.877 21.3198 105.465 15.5494 106.068C9.77968 106.671 5.56772 112.059 6.14294 118.104Z" fill="white"/>
<path d="M6.07068 189.104C6.64531 195.149 11.7887 199.56 17.559 198.958C23.3288 198.355 27.5407 192.966 26.9655 186.921C26.3909 180.877 21.2475 176.465 15.4772 177.068C9.70742 177.671 5.49545 183.059 6.07068 189.104Z" fill="white"/>
</svg>
