<svg width="340" height="324" viewBox="0 0 340 324" fill="none" xmlns="http://www.w3.org/2000/svg">
<ellipse cx="14.4692" cy="14.4523" rx="14.4692" ry="14.4523" transform="matrix(0.638451 -0.769662 0.765526 0.643405 0 24.7578)" fill="#FFC36E"/>
<ellipse cx="10.7979" cy="10.7853" rx="10.7979" ry="10.7853" transform="matrix(0.638451 -0.769662 0.765526 0.643405 191.732 194.4)" fill="#FFC36E"/>
<ellipse cx="14.4618" cy="14.4597" rx="14.4618" ry="14.4597" transform="matrix(0.69681 0.717256 -0.712671 0.701498 179.064 3.15234)" fill="#FFC36E"/>
<ellipse cx="10.7924" cy="10.7908" rx="10.7924" ry="10.7908" transform="matrix(0.69681 0.717256 -0.712671 0.701498 324.959 178.633)" fill="#FFC36E"/>
<ellipse cx="14.4692" cy="14.4523" rx="14.4692" ry="14.4523" transform="matrix(0.638451 -0.769662 0.765526 0.643405 48.166 22.8965)" fill="#FFC36E"/>
<ellipse cx="10.7979" cy="10.7853" rx="10.7979" ry="10.7853" transform="matrix(0.638451 -0.769662 0.765526 0.643405 227.275 193.35)" fill="#FFC36E"/>
<ellipse cx="14.4597" cy="14.4617" rx="14.4597" ry="14.4617" transform="matrix(-0.712211 -0.701966 0.697281 -0.716798 20.5977 195.871)" fill="#95E7E2"/>
<ellipse cx="10.7908" cy="10.7923" rx="10.7908" ry="10.7923" transform="matrix(-0.712211 -0.701966 0.697281 -0.716798 206.699 322.451)" fill="#FFC36E"/>
<ellipse cx="14.4666" cy="14.4549" rx="14.4666" ry="14.4549" transform="matrix(-0.659548 0.751663 -0.747354 -0.664426 197.551 174.998)" fill="#FFC36E"/>
<ellipse cx="10.796" cy="10.7872" rx="10.796" ry="10.7872" transform="matrix(-0.659548 0.751663 -0.747354 -0.664426 338.754 306.873)" fill="#FFC36E"/>
<ellipse cx="14.4618" cy="14.4597" rx="14.4618" ry="14.4597" transform="matrix(0.69681 0.717256 -0.712671 0.701498 176.059 51.5742)" fill="#FFC36E"/>
<ellipse cx="10.7924" cy="10.7908" rx="10.7924" ry="10.7908" transform="matrix(0.69681 0.717256 -0.712671 0.701498 322.717 214.768)" fill="#D792F8"/>
<ellipse cx="14.4597" cy="14.4617" rx="14.4597" ry="14.4617" transform="matrix(-0.712211 -0.701966 0.697281 -0.716798 22.5605 147.395)" fill="#95E7E2"/>
<ellipse cx="10.7908" cy="10.7923" rx="10.7908" ry="10.7923" transform="matrix(-0.712211 -0.701966 0.697281 -0.716798 208.162 286.275)" fill="#FFC36E"/>
<ellipse cx="14.4666" cy="14.4549" rx="14.4666" ry="14.4549" transform="matrix(-0.659548 0.751663 -0.747354 -0.664426 149.355 175.516)" fill="#FFC36E"/>
<ellipse cx="10.796" cy="10.7872" rx="10.796" ry="10.7872" transform="matrix(-0.659548 0.751663 -0.747354 -0.664426 302.787 307.26)" fill="#FFC36E"/>
<ellipse cx="14.4692" cy="14.4523" rx="14.4692" ry="14.4523" transform="matrix(0.638451 -0.769662 0.765526 0.643405 25.9375 49.3105)" fill="#FFC36E"/>
<ellipse cx="10.7979" cy="10.7853" rx="10.7979" ry="10.7853" transform="matrix(0.638451 -0.769662 0.765526 0.643405 211.086 212.723)" fill="#FFC36E"/>
<ellipse cx="14.4618" cy="14.4597" rx="14.4618" ry="14.4597" transform="matrix(0.69681 0.717256 -0.712671 0.701498 152.184 26.6523)" fill="#FFC36E"/>
<ellipse cx="10.7924" cy="10.7908" rx="10.7924" ry="10.7908" transform="matrix(0.69681 0.717256 -0.712671 0.701498 304.9 196.17)" fill="#FFC36E"/>
<ellipse cx="14.4597" cy="14.4617" rx="14.4597" ry="14.4617" transform="matrix(-0.712211 -0.701966 0.697281 -0.716798 46.9609 171.791)" fill="#95E7E2"/>
<ellipse cx="10.7908" cy="10.7923" rx="10.7908" ry="10.7923" transform="matrix(-0.712211 -0.701966 0.697281 -0.716798 226.375 304.48)" fill="#FFC36E"/>
<ellipse cx="14.4666" cy="14.4549" rx="14.4666" ry="14.4549" transform="matrix(-0.659548 0.751663 -0.747354 -0.664426 172.305 149.73)" fill="#FFC36E"/>
<ellipse cx="10.796" cy="10.7872" rx="10.796" ry="10.7872" transform="matrix(-0.659548 0.751663 -0.747354 -0.664426 319.912 288.018)" fill="#FFC36E"/>
<ellipse cx="14.4692" cy="14.4523" rx="14.4692" ry="14.4523" transform="matrix(0.638451 -0.769662 0.765526 0.643405 37.3594 83.8066)" fill="#FFC36E"/>
<ellipse cx="10.7979" cy="10.7853" rx="10.7979" ry="10.7853" transform="matrix(0.638451 -0.769662 0.765526 0.643405 219.209 238.82)" fill="#FFC36E"/>
<ellipse cx="14.4618" cy="14.4597" rx="14.4618" ry="14.4597" transform="matrix(0.69681 0.717256 -0.712671 0.701498 116.939 34.6191)" fill="#FFC36E"/>
<ellipse cx="10.7924" cy="10.7908" rx="10.7924" ry="10.7908" transform="matrix(0.69681 0.717256 -0.712671 0.701498 278.596 202.113)" fill="#FFC36E"/>
<ellipse cx="14.4597" cy="14.4617" rx="14.4597" ry="14.4617" transform="matrix(-0.712211 -0.701966 0.697281 -0.716798 82.0312 163.057)" fill="#FFC36E"/>
<ellipse cx="10.7908" cy="10.7923" rx="10.7908" ry="10.7923" transform="matrix(-0.712211 -0.701966 0.697281 -0.716798 252.543 297.963)" fill="#FFC36E"/>
<ellipse cx="14.4666" cy="14.4549" rx="14.4666" ry="14.4549" transform="matrix(-0.659548 0.751663 -0.747354 -0.664426 161.838 114.928)" fill="#FFC36E"/>
<ellipse cx="10.796" cy="10.7872" rx="10.796" ry="10.7872" transform="matrix(-0.659548 0.751663 -0.747354 -0.664426 312.102 262.047)" fill="#D792F8"/>
<ellipse cx="14.4692" cy="14.4523" rx="14.4692" ry="14.4523" transform="matrix(0.638451 -0.769662 0.765526 0.643405 61.4395 56.7676)" fill="#FFC36E"/>
<ellipse cx="10.7979" cy="10.7853" rx="10.7979" ry="10.7853" transform="matrix(0.638451 -0.769662 0.765526 0.643405 237.18 218.645)" fill="#FFC36E"/>
<ellipse cx="14.4618" cy="14.4597" rx="14.4618" ry="14.4597" transform="matrix(0.69681 0.717256 -0.712671 0.701498 141.242 61.459)" fill="#FFC36E"/>
<ellipse cx="10.7924" cy="10.7908" rx="10.7924" ry="10.7908" transform="matrix(0.69681 0.717256 -0.712671 0.701498 296.732 222.145)" fill="#D792F8"/>
<ellipse cx="14.4597" cy="14.4617" rx="14.4597" ry="14.4617" transform="matrix(-0.712211 -0.701966 0.697281 -0.716798 57.1562 136.752)" fill="#95E7E2"/>
<ellipse cx="10.7908" cy="10.7923" rx="10.7908" ry="10.7923" transform="matrix(-0.712211 -0.701966 0.697281 -0.716798 233.982 278.332)" fill="#FFC36E"/>
<ellipse cx="14.4666" cy="14.4549" rx="14.4666" ry="14.4549" transform="matrix(-0.659548 0.751663 -0.747354 -0.664426 137.02 141.281)" fill="#FFC36E"/>
<ellipse cx="10.796" cy="10.7872" rx="10.796" ry="10.7872" transform="matrix(-0.659548 0.751663 -0.747354 -0.664426 293.582 281.715)" fill="#D792F8"/>
<ellipse cx="14.4692" cy="14.4523" rx="14.4692" ry="14.4523" transform="matrix(0.638451 -0.769662 0.765526 0.643405 1.85156 74.4824)" fill="#FFC36E"/>
<ellipse cx="10.7979" cy="10.7853" rx="10.7979" ry="10.7853" transform="matrix(0.638451 -0.769662 0.765526 0.643405 192.711 231.863)" fill="#FFC36E"/>
<ellipse cx="14.4618" cy="14.4597" rx="14.4618" ry="14.4597" transform="matrix(0.69681 0.717256 -0.712671 0.701498 129.73 0)" fill="#FFC36E"/>
<ellipse cx="10.7924" cy="10.7908" rx="10.7924" ry="10.7908" transform="matrix(0.69681 0.717256 -0.712671 0.701498 288.139 176.279)" fill="#FFC36E"/>
<ellipse cx="14.4597" cy="14.4617" rx="14.4597" ry="14.4617" transform="matrix(-0.712211 -0.701966 0.697281 -0.716798 69.9883 197.945)" fill="#95E7E2"/>
<ellipse cx="10.7908" cy="10.7923" rx="10.7908" ry="10.7923" transform="matrix(-0.712211 -0.701966 0.697281 -0.716798 243.561 324)" fill="#FFC36E"/>
<ellipse cx="14.4666" cy="14.4549" rx="14.4666" ry="14.4549" transform="matrix(-0.659548 0.751663 -0.747354 -0.664426 197.072 125.24)" fill="#FFC36E"/>
<ellipse cx="10.796" cy="10.7872" rx="10.796" ry="10.7872" transform="matrix(-0.659548 0.751663 -0.747354 -0.664426 338.395 269.742)" fill="#D792F8"/>
</svg>
