<svg width="67" height="1772" viewBox="0 0 67 1772" fill="none" xmlns="http://www.w3.org/2000/svg">
<path d="M28.6239 13.0877C29.2268 19.132 34.6152 23.544 40.6596 22.9416C46.7046 22.3392 51.1161 16.9504 50.5139 10.9055C49.911 4.86061 44.5226 0.449258 38.4782 1.05166C32.4332 1.65406 28.0216 7.0428 28.6239 13.0877Z" fill="white"/>
<path d="M28.5516 84.0877C29.1545 90.132 34.5429 94.544 40.5873 93.9416C46.6323 93.3392 51.0439 87.9504 50.4416 81.9055C49.8387 75.8606 44.4503 71.4493 38.4059 72.0517C32.3609 72.6541 27.9494 78.0428 28.5516 84.0877Z" fill="white"/>
<path d="M28.4794 155.088C29.0823 161.132 34.4707 165.544 40.515 164.942C46.56 164.339 50.9716 158.95 50.3693 152.906C49.7664 146.861 44.378 142.449 38.3337 143.052C32.2887 143.654 27.8771 149.043 28.4794 155.088Z" fill="white"/>
<path d="M42.6063 31.1008C43.2092 37.1457 48.5976 41.5576 54.6426 40.9552C60.687 40.3528 65.0986 34.9641 64.4963 28.9192C63.894 22.8743 58.505 18.4629 52.4606 19.0653C46.4156 19.6677 42.0041 25.0565 42.6063 31.1008Z" fill="white"/>
<path d="M42.5341 102.101C43.137 108.146 48.5253 112.558 54.5703 111.955C60.6147 111.353 65.0263 105.964 64.424 99.9192C63.8217 93.8743 58.4327 89.4629 52.3884 90.0653C46.3434 90.6677 41.9318 96.0565 42.5341 102.101Z" fill="white"/>
<path d="M42.4618 173.101C43.0647 179.146 48.4531 183.558 54.4981 182.955C60.5424 182.353 64.954 176.964 64.3517 170.919C63.7495 164.874 58.3605 160.463 52.3161 161.065C46.2711 161.668 41.8595 167.056 42.4618 173.101Z" fill="white"/>
<path d="M29.5887 50.0467C30.1863 56.0932 35.3465 60.5258 41.1138 59.9463C46.8816 59.3668 51.0725 53.9942 50.4749 47.9477C49.8767 41.9005 44.7165 37.468 38.9493 38.0481C33.1815 38.6276 28.9905 43.9995 29.5887 50.0467Z" fill="white"/>
<path d="M29.5165 121.047C30.1141 127.093 35.2743 131.526 41.0415 130.946C46.8093 130.367 51.0003 124.994 50.4027 118.948C49.8044 112.9 44.6443 108.468 38.877 109.048C33.1092 109.628 28.9182 114.999 29.5165 121.047Z" fill="white"/>
<path d="M29.4442 192.047C30.0418 198.093 35.202 202.526 40.9692 201.946C46.7371 201.367 50.928 195.994 50.3304 189.948C49.7322 183.9 44.572 179.468 38.8048 180.048C33.0369 180.628 28.846 185.999 29.4442 192.047Z" fill="white"/>
<path d="M7.6161 20.0662C8.219 26.1111 13.6074 30.5225 19.6518 29.9201C25.6967 29.3177 30.1083 23.9289 29.506 17.8846C28.9031 11.8397 23.5148 7.42777 17.4704 8.03017C11.4254 8.63257 7.01382 14.0213 7.6161 20.0662Z" fill="white"/>
<path d="M7.54384 91.0662C8.14673 97.1111 13.5351 101.522 19.5795 100.92C25.6245 100.318 30.0361 94.9289 29.4338 88.8846C28.8309 82.8397 23.4425 78.4278 17.3981 79.0302C11.3531 79.6326 6.94155 85.0213 7.54384 91.0662Z" fill="white"/>
<path d="M7.47157 162.066C8.07447 168.111 13.4628 172.522 19.5072 171.92C25.5522 171.318 29.9638 165.929 29.3615 159.885C28.7586 153.84 23.3702 149.428 17.3259 150.03C11.2809 150.633 6.86929 156.021 7.47157 162.066Z" fill="white"/>
<path d="M8.59021 43.0672C9.16485 49.1115 14.3082 53.5232 20.0786 52.9205C25.8483 52.3179 30.0603 46.9289 29.4851 40.884C28.9104 34.8398 23.7671 30.428 17.9967 31.0307C12.2269 31.6334 8.01499 37.0224 8.59021 43.0672Z" fill="white"/>
<path d="M8.51794 114.067C9.09258 120.111 14.2359 124.523 20.0063 123.921C25.7761 123.318 29.988 117.929 29.4128 111.884C28.8382 105.84 23.6948 101.428 17.9244 102.031C12.1547 102.633 7.94272 108.022 8.51794 114.067Z" fill="white"/>
<path d="M8.44568 185.067C9.02031 191.111 14.1637 195.523 19.934 194.921C25.7038 194.318 29.9157 188.929 29.3405 182.884C28.7659 176.84 23.6225 172.428 17.8522 173.031C12.0824 173.633 7.87045 179.022 8.44568 185.067Z" fill="white"/>
<path d="M29.4071 227.088C30.01 233.132 35.3984 237.544 41.4428 236.942C47.4878 236.339 51.8993 230.95 51.2971 224.906C50.6942 218.861 45.3058 214.449 39.2614 215.052C33.2164 215.654 28.8048 221.043 29.4071 227.088Z" fill="white"/>
<path d="M29.3349 298.088C29.9377 304.132 35.3261 308.544 41.3705 307.942C47.4155 307.339 51.8271 301.95 51.2248 295.906C50.6219 289.861 45.2335 285.449 39.1891 286.052C33.1441 286.654 28.7326 292.043 29.3349 298.088Z" fill="white"/>
<path d="M29.2626 369.088C29.8655 375.132 35.2539 379.544 41.2982 378.942C47.3432 378.339 51.7548 372.95 51.1525 366.906C50.5496 360.861 45.1612 356.449 39.1169 357.052C33.0719 357.654 28.6603 363.043 29.2626 369.088Z" fill="white"/>
<path d="M43.3895 245.101C43.9924 251.146 49.3808 255.558 55.4258 254.955C61.4702 254.353 65.8818 248.964 65.2795 242.919C64.6772 236.874 59.2882 232.463 53.2438 233.065C47.1988 233.668 42.7873 239.056 43.3895 245.101Z" fill="white"/>
<path d="M43.3173 316.101C43.9202 322.146 49.3085 326.558 55.3535 325.955C61.3979 325.353 65.8095 319.964 65.2072 313.919C64.6049 307.874 59.2159 303.463 53.1716 304.065C47.1266 304.668 42.715 310.056 43.3173 316.101Z" fill="white"/>
<path d="M43.245 387.101C43.8479 393.146 49.2363 397.558 55.2813 396.955C61.3256 396.353 65.7372 390.964 65.1349 384.919C64.5327 378.874 59.1437 374.463 53.0993 375.065C47.0543 375.668 42.6427 381.056 43.245 387.101Z" fill="white"/>
<path d="M30.3719 264.047C30.9695 270.093 36.1297 274.526 41.897 273.946C47.6648 273.367 51.8557 267.994 51.2581 261.948C50.6599 255.9 45.4997 251.468 39.7325 252.048C33.9647 252.628 29.7737 257.999 30.3719 264.047Z" fill="white"/>
<path d="M30.2997 335.047C30.8973 341.093 36.0575 345.526 41.8247 344.946C47.5925 344.367 51.7835 338.994 51.1859 332.948C50.5876 326.9 45.4275 322.468 39.6602 323.048C33.8924 323.628 29.7014 328.999 30.2997 335.047Z" fill="white"/>
<path d="M30.2274 406.047C30.825 412.093 35.9852 416.526 41.7524 415.946C47.5203 415.367 51.7112 409.994 51.1136 403.948C50.5154 397.9 45.3552 393.468 39.588 394.048C33.8201 394.628 29.6292 399.999 30.2274 406.047Z" fill="white"/>
<path d="M8.3993 234.066C9.0022 240.111 14.3906 244.522 20.435 243.92C26.4799 243.318 30.8915 237.929 30.2892 231.885C29.6863 225.84 24.298 221.428 18.2536 222.03C12.2086 222.633 7.79702 228.021 8.3993 234.066Z" fill="white"/>
<path d="M8.32704 305.066C8.92993 311.111 14.3183 315.522 20.3627 314.92C26.4077 314.318 30.8193 308.929 30.217 302.885C29.6141 296.84 24.2257 292.428 18.1813 293.03C12.1363 293.633 7.72476 299.021 8.32704 305.066Z" fill="white"/>
<path d="M8.25477 376.066C8.85767 382.111 14.2461 386.522 20.2904 385.92C26.3354 385.318 30.747 379.929 30.1447 373.885C29.5418 367.84 24.1534 363.428 18.1091 364.03C12.0641 364.633 7.65249 370.021 8.25477 376.066Z" fill="white"/>
<path d="M9.37341 257.067C9.94805 263.111 15.0914 267.523 20.8618 266.921C26.6315 266.318 30.8435 260.929 30.2683 254.884C29.6936 248.84 24.5503 244.428 18.7799 245.031C13.0102 245.633 8.79819 251.022 9.37341 257.067Z" fill="white"/>
<path d="M9.30115 328.067C9.87578 334.111 15.0191 338.523 20.7895 337.921C26.5593 337.318 30.7712 331.929 30.196 325.884C29.6214 319.84 24.478 315.428 18.7077 316.031C12.9379 316.633 8.72592 322.022 9.30115 328.067Z" fill="white"/>
<path d="M9.22888 399.067C9.80352 405.111 14.9469 409.523 20.7172 408.921C26.487 408.318 30.699 402.929 30.1237 396.884C29.5491 390.84 24.4057 386.428 18.6354 387.031C12.8656 387.633 8.65366 393.022 9.22888 399.067Z" fill="white"/>
<path d="M30.1884 441.09C30.7913 447.134 36.1796 451.546 42.224 450.944C48.269 450.341 52.6806 444.952 52.0783 438.907C51.4754 432.863 46.087 428.451 40.0427 429.054C33.9977 429.656 29.5861 435.045 30.1884 441.09Z" fill="#FEEC88"/>
<path d="M30.1161 512.09C30.719 518.134 36.1074 522.546 42.1518 521.944C48.1967 521.341 52.6083 515.952 52.006 509.907C51.4031 503.863 46.0148 499.451 39.9704 500.054C33.9254 500.656 29.5138 506.045 30.1161 512.09Z" fill="white"/>
<path d="M30.0438 583.09C30.6467 589.134 36.0351 593.546 42.0795 592.944C48.1245 592.341 52.5361 586.952 51.9338 580.907C51.3309 574.863 45.9425 570.451 39.8981 571.054C33.8531 571.656 29.4416 577.045 30.0438 583.09Z" fill="white"/>
<path d="M44.1708 459.103C44.7737 465.148 50.1621 469.56 56.2071 468.957C62.2514 468.355 66.663 462.966 66.0607 456.921C65.4584 450.876 60.0695 446.465 54.0251 447.067C47.9801 447.67 43.5685 453.058 44.1708 459.103Z" fill="#FEEC88"/>
<path d="M44.0985 530.103C44.7014 536.148 50.0898 540.56 56.1348 539.957C62.1792 539.355 66.5907 533.966 65.9885 527.921C65.3862 521.876 59.9972 517.465 53.9528 518.067C47.9078 518.67 43.4962 524.058 44.0985 530.103Z" fill="white"/>
<path d="M44.0263 601.103C44.6292 607.148 50.0175 611.56 56.0625 610.957C62.1069 610.355 66.5185 604.966 65.9162 598.921C65.3139 592.876 59.9249 588.465 53.8805 589.067C47.8356 589.67 43.424 595.058 44.0263 601.103Z" fill="white"/>
<path d="M31.1532 478.049C31.7508 484.095 36.911 488.528 42.6782 487.948C48.446 487.369 52.637 481.996 52.0394 475.95C51.4412 469.902 46.281 465.47 40.5138 466.05C34.7459 466.63 30.555 472.001 31.1532 478.049Z" fill="#FEEC88"/>
<path d="M31.0809 549.049C31.6785 555.095 36.8387 559.528 42.6059 558.948C48.3738 558.369 52.5647 552.996 51.9671 546.95C51.3689 540.902 46.2087 536.47 40.4415 537.05C34.6736 537.63 30.4827 543.001 31.0809 549.049Z" fill="white"/>
<path d="M31.0086 620.049C31.6063 626.095 36.7664 630.528 42.5337 629.948C48.3015 629.369 52.4925 623.996 51.8949 617.95C51.2966 611.902 46.1364 607.47 40.3692 608.05C34.6014 608.63 30.4104 614.001 31.0086 620.049Z" fill="white"/>
<path d="M9.18055 448.068C9.78345 454.113 15.1718 458.524 21.2162 457.922C27.2612 457.32 31.6728 451.931 31.0705 445.887C30.4676 439.842 25.0792 435.43 19.0348 436.032C12.9898 436.635 8.57827 442.023 9.18055 448.068Z" fill="#FEEC88"/>
<path d="M9.10829 519.068C9.71118 525.113 15.0996 529.524 21.1439 528.922C27.1889 528.32 31.6005 522.931 30.9982 516.887C30.3953 510.842 25.0069 506.43 18.9626 507.032C12.9176 507.635 8.50601 513.023 9.10829 519.068Z" fill="white"/>
<path d="M9.03602 590.068C9.63892 596.113 15.0273 600.524 21.0717 599.922C27.1167 599.32 31.5282 593.931 30.926 587.887C30.3231 581.842 24.9347 577.43 18.8903 578.032C12.8453 578.635 8.43374 584.023 9.03602 590.068Z" fill="white"/>
<path d="M10.1547 471.069C10.7293 477.113 15.8726 481.525 21.643 480.922C27.4128 480.32 31.6247 474.931 31.0495 468.886C30.4749 462.842 25.3315 458.43 19.5612 459.033C13.7914 459.635 9.57944 465.024 10.1547 471.069Z" fill="#FEEC88"/>
<path d="M10.0824 542.069C10.657 548.113 15.8004 552.525 21.5707 551.922C27.3405 551.32 31.5525 545.931 30.9772 539.886C30.4026 533.842 25.2593 529.43 19.4889 530.033C13.7191 530.635 9.50717 536.024 10.0824 542.069Z" fill="white"/>
<path d="M10.0101 613.069C10.5848 619.113 15.7281 623.525 21.4985 622.922C27.2682 622.32 31.4802 616.931 30.905 610.886C30.3303 604.842 25.187 600.43 19.4166 601.033C13.6469 601.635 9.43491 607.024 10.0101 613.069Z" fill="white"/>
<path d="M28.8915 655.224C29.455 661.272 34.8146 665.719 40.8627 665.156C46.9115 664.593 51.3581 659.233 50.7951 653.184C50.2316 647.135 44.872 642.689 38.8239 643.252C32.7751 643.815 28.3285 649.175 28.8915 655.224Z" fill="white"/>
<path d="M28.3583 726.222C28.9218 732.27 34.2814 736.717 40.3295 736.154C46.3783 735.591 50.8249 730.231 50.2619 724.182C49.6984 718.134 44.3388 713.687 38.2907 714.25C32.2419 714.813 27.7953 720.173 28.3583 726.222Z" fill="white"/>
<path d="M27.8231 797.22C28.3867 803.268 33.7462 807.715 39.7944 807.152C45.8432 806.589 50.2897 801.229 49.7268 795.18C49.1632 789.132 43.8037 784.685 37.7555 785.248C31.7067 785.811 27.2602 791.171 27.8231 797.22Z" fill="white"/>
<path d="M42.7567 673.329C43.3202 679.377 48.6798 683.824 54.7286 683.261C60.7768 682.698 65.2233 677.338 64.6604 671.29C64.0975 665.241 58.7373 660.795 52.6891 661.358C46.6403 661.921 42.1938 667.281 42.7567 673.329Z" fill="white"/>
<path d="M42.2215 744.327C42.7851 750.375 48.1446 754.822 54.1934 754.259C60.2416 753.696 64.6882 748.336 64.1252 742.288C63.5623 736.239 58.2021 731.793 52.154 732.356C46.1052 732.919 41.6586 738.279 42.2215 744.327Z" fill="white"/>
<path d="M41.6864 815.325C42.2499 821.373 47.6095 825.82 53.6583 825.257C59.7064 824.694 64.153 819.334 63.5901 813.286C63.0271 807.237 57.667 802.791 51.6188 803.354C45.57 803.917 41.1235 809.277 41.6864 815.325Z" fill="white"/>
<path d="M29.6163 692.189C30.1745 698.24 35.3058 702.706 41.0767 702.164C46.8481 701.622 51.074 696.277 50.5157 690.226C49.9569 684.175 44.8256 679.709 39.0547 680.252C33.2833 680.794 29.0574 686.138 29.6163 692.189Z" fill="white"/>
<path d="M29.0811 763.185C29.6394 769.236 34.7706 773.702 40.5415 773.16C46.313 772.618 50.5388 767.273 49.9806 761.222C49.4217 755.171 44.2905 750.705 38.5196 751.248C32.7481 751.79 28.5223 757.134 29.0811 763.185Z" fill="white"/>
<path d="M28.546 834.183C29.1042 840.234 34.2355 844.7 40.0063 844.158C45.7778 843.616 50.0037 838.271 49.4454 832.22C48.8865 826.17 43.7553 821.703 37.9844 822.246C32.213 822.788 27.9871 828.133 28.546 834.183Z" fill="white"/>
<path d="M7.84069 662.066C8.40423 668.114 13.7638 672.561 19.812 671.998C25.8607 671.435 30.3073 666.075 29.7444 660.027C29.1808 653.978 23.8213 649.531 17.7731 650.094C11.7243 650.657 7.27776 656.017 7.84069 662.066Z" fill="white"/>
<path d="M7.30553 733.064C7.86907 739.112 13.2286 743.559 19.2768 742.996C25.3256 742.433 29.7721 737.073 29.2092 731.025C28.6457 724.976 23.2861 720.529 17.2379 721.092C11.1892 721.655 6.7426 727.015 7.30553 733.064Z" fill="white"/>
<path d="M6.77037 804.062C7.33392 810.11 12.6935 814.557 18.7416 813.994C24.7904 813.431 29.237 808.071 28.674 802.023C28.1105 795.974 22.7509 791.527 16.7028 792.09C10.654 792.653 6.20744 798.013 6.77037 804.062Z" fill="white"/>
<path d="M8.66438 685.073C9.19967 691.121 14.3142 695.566 20.0884 695.001C25.8619 694.436 30.1089 689.074 29.573 683.026C29.0377 676.978 23.9232 672.533 18.149 673.098C12.3754 673.663 8.1285 679.025 8.66438 685.073Z" fill="white"/>
<path d="M8.12922 756.071C8.66451 762.119 13.779 766.564 19.5532 765.999C25.3268 765.434 29.5737 760.073 29.0378 754.024C28.5025 747.976 23.388 743.531 17.6139 744.096C11.8403 744.661 7.59335 750.023 8.12922 756.071Z" fill="white"/>
<path d="M7.59602 827.069C8.13131 833.117 13.2458 837.562 19.02 836.997C24.7936 836.432 29.0405 831.071 28.5046 825.022C27.9693 818.974 22.8548 814.529 17.0807 815.094C11.3071 815.659 7.06014 821.021 7.59602 827.069Z" fill="white"/>
<path d="M28.2801 869.226C28.8437 875.274 34.2032 879.721 40.2514 879.158C46.3002 878.595 50.7467 873.235 50.1838 867.186C49.6203 861.137 44.2607 856.691 38.2125 857.254C32.1638 857.817 27.7172 863.177 28.2801 869.226Z" fill="white"/>
<path d="M27.7469 940.224C28.3105 946.272 33.67 950.719 39.7182 950.156C45.767 949.593 50.2135 944.233 49.6506 938.184C49.0871 932.135 43.7275 927.689 37.6793 928.252C31.6306 928.815 27.184 934.175 27.7469 940.224Z" fill="white"/>
<path d="M27.2118 1011.22C27.7753 1017.27 33.1349 1021.72 39.1831 1021.15C45.2318 1020.59 49.6784 1015.23 49.1155 1009.18C48.5519 1003.13 43.1924 998.687 37.1442 999.25C31.0954 999.813 26.6489 1005.17 27.2118 1011.22Z" fill="white"/>
<path d="M42.1454 887.331C42.7089 893.379 48.0685 897.826 54.1173 897.263C60.1654 896.7 64.612 891.34 64.0491 885.292C63.4861 879.243 58.1259 874.797 52.0778 875.36C46.029 875.923 41.5824 881.283 42.1454 887.331Z" fill="white"/>
<path d="M41.6102 958.329C42.1738 964.377 47.5333 968.824 53.5821 968.261C59.6303 967.698 64.0768 962.338 63.5139 956.29C62.951 950.241 57.5908 945.795 51.5426 946.358C45.4938 946.921 41.0473 952.281 41.6102 958.329Z" fill="white"/>
<path d="M41.0751 1029.33C41.6386 1035.38 46.9982 1039.82 53.0469 1039.26C59.0951 1038.7 63.5417 1033.34 62.9787 1027.29C62.4158 1021.24 57.0556 1016.79 51.0075 1017.36C44.9587 1017.92 40.5121 1023.28 41.0751 1029.33Z" fill="white"/>
<path d="M29.005 906.191C29.5632 912.242 34.6944 916.708 40.4653 916.166C46.2368 915.624 50.4626 910.279 49.9044 904.228C49.3455 898.177 44.2143 893.711 38.4434 894.254C32.6719 894.796 28.4461 900.14 29.005 906.191Z" fill="white"/>
<path d="M28.4698 977.187C29.0281 983.238 34.1593 987.704 39.9302 987.162C45.7017 986.62 49.9275 981.275 49.3692 975.224C48.8104 969.173 43.6791 964.707 37.9083 965.25C32.1368 965.792 27.911 971.136 28.4698 977.187Z" fill="white"/>
<path d="M27.9347 1048.19C28.4929 1054.24 33.6241 1058.7 39.395 1058.16C45.1665 1057.62 49.3923 1052.27 48.8341 1046.22C48.2752 1040.17 43.144 1035.71 37.3731 1036.25C31.6016 1036.79 27.3758 1042.13 27.9347 1048.19Z" fill="white"/>
<path d="M7.22936 876.068C7.7929 882.116 13.1525 886.563 19.2006 886C25.2494 885.437 29.696 880.077 29.133 874.029C28.5695 867.98 23.2099 863.533 17.1618 864.096C11.113 864.659 6.66643 870.019 7.22936 876.068Z" fill="white"/>
<path d="M6.6942 947.066C7.25775 953.114 12.6173 957.561 18.6655 956.998C24.7143 956.435 29.1608 951.075 28.5979 945.027C28.0343 938.978 22.6748 934.531 16.6266 935.094C10.5778 935.657 6.13127 941.017 6.6942 947.066Z" fill="white"/>
<path d="M6.15905 1018.06C6.72259 1024.11 12.0822 1028.56 18.1303 1028C24.1791 1027.43 28.6257 1022.07 28.0627 1016.02C27.4992 1009.98 22.1396 1005.53 16.0914 1006.09C10.0427 1006.66 5.59612 1012.02 6.15905 1018.06Z" fill="white"/>
<path d="M8.05305 899.075C8.58834 905.123 13.7029 909.568 19.477 909.003C25.2506 908.438 29.4975 903.076 28.9617 897.028C28.4264 890.98 23.3118 886.535 17.5377 887.1C11.7641 887.665 7.51718 893.027 8.05305 899.075Z" fill="white"/>
<path d="M7.51789 970.073C8.05318 976.121 13.1677 980.566 18.9419 980.001C24.7154 979.436 28.9624 974.074 28.4265 968.026C27.8912 961.978 22.7767 957.533 17.0025 958.098C11.229 958.663 6.98202 964.025 7.51789 970.073Z" fill="white"/>
<path d="M6.98469 1041.07C7.51998 1047.12 12.6345 1051.56 18.4087 1051C24.1822 1050.43 28.4292 1045.07 27.8933 1039.02C27.358 1032.98 22.2435 1028.53 16.4693 1029.1C10.6958 1029.66 6.44882 1035.02 6.98469 1041.07Z" fill="white"/>
<path d="M27.6708 1083.23C28.2343 1089.28 33.5939 1093.72 39.642 1093.16C45.6908 1092.6 50.1374 1087.24 49.5744 1081.19C49.0109 1075.14 43.6513 1070.69 37.6032 1071.26C31.5544 1071.82 27.1078 1077.18 27.6708 1083.23Z" fill="white"/>
<path d="M27.1376 1154.23C27.7011 1160.27 33.0607 1164.72 39.1088 1164.16C45.1576 1163.59 49.6042 1158.23 49.0412 1152.19C48.4777 1146.14 43.1181 1141.69 37.07 1142.25C31.0212 1142.82 26.5746 1148.18 27.1376 1154.23Z" fill="white"/>
<path d="M41.536 1101.33C42.0995 1107.38 47.4591 1111.83 53.5079 1111.27C59.5561 1110.7 64.0026 1105.34 63.4397 1099.29C62.8767 1093.24 57.5166 1088.8 51.4684 1089.36C45.4196 1089.92 40.9731 1095.28 41.536 1101.33Z" fill="white"/>
<path d="M41.0008 1172.33C41.5644 1178.38 46.9239 1182.83 52.9727 1182.26C59.0209 1181.7 63.4674 1176.34 62.9045 1170.29C62.3416 1164.24 56.9814 1159.8 50.9332 1160.36C44.8845 1160.92 40.4379 1166.28 41.0008 1172.33Z" fill="white"/>
<path d="M28.3956 1120.19C28.9538 1126.24 34.0851 1130.71 39.8559 1130.17C45.6274 1129.63 49.8533 1124.28 49.295 1118.23C48.7362 1112.18 43.6049 1107.71 37.834 1108.26C32.0626 1108.8 27.8367 1114.14 28.3956 1120.19Z" fill="white"/>
<path d="M27.8604 1191.19C28.4187 1197.24 33.5499 1201.71 39.3208 1201.16C45.0923 1200.62 49.3181 1195.28 48.7599 1189.23C48.201 1183.18 43.0698 1178.71 37.2989 1179.25C31.5274 1179.79 27.3016 1185.14 27.8604 1191.19Z" fill="white"/>
<path d="M6.61998 1090.07C7.18353 1096.12 12.5431 1100.56 18.5913 1100C24.64 1099.44 29.0866 1094.08 28.5237 1088.03C27.9601 1081.98 22.6006 1077.53 16.5524 1078.1C10.5036 1078.66 6.05705 1084.02 6.61998 1090.07Z" fill="white"/>
<path d="M6.08483 1161.07C6.64837 1167.12 12.0079 1171.56 18.0561 1171C24.1049 1170.44 28.5514 1165.08 27.9885 1159.03C27.425 1152.98 22.0654 1148.53 16.0172 1149.1C9.96845 1149.66 5.5219 1155.02 6.08483 1161.07Z" fill="white"/>
<path d="M7.44367 1113.08C7.97896 1119.12 13.0935 1123.57 18.8676 1123C24.6412 1122.44 28.8882 1117.08 28.3523 1111.03C27.817 1104.98 22.7025 1100.54 16.9283 1101.1C11.1547 1101.67 6.9078 1107.03 7.44367 1113.08Z" fill="white"/>
<path d="M6.90852 1184.08C7.44381 1190.12 12.5583 1194.57 18.3325 1194C24.1061 1193.44 28.353 1188.08 27.8171 1182.03C27.2818 1175.98 22.1673 1171.53 16.3932 1172.1C10.6196 1172.67 6.37264 1178.03 6.90852 1184.08Z" fill="white"/>
<path d="M25.163 1225.26C25.7265 1231.31 31.0861 1235.75 37.1342 1235.19C43.183 1234.63 47.6296 1229.27 47.0666 1223.22C46.5031 1217.17 41.1435 1212.72 35.0954 1213.29C29.0466 1213.85 24.6 1219.21 25.163 1225.26Z" fill="#EDF399"/>
<path d="M24.6297 1296.26C25.1933 1302.31 30.5529 1306.75 36.601 1306.19C42.6498 1305.63 47.0964 1300.27 46.5334 1294.22C45.9699 1288.17 40.6103 1283.72 34.5622 1284.29C28.5134 1284.85 24.0668 1290.21 24.6297 1296.26Z" fill="#EDF399"/>
<path d="M24.0946 1367.26C24.6581 1373.3 30.0177 1377.75 36.0659 1377.19C42.1146 1376.62 46.5612 1371.26 45.9983 1365.22C45.4347 1359.17 40.0752 1354.72 34.027 1355.28C27.9782 1355.85 23.5317 1361.21 24.0946 1367.26Z" fill="#EDF399"/>
<path d="M39.0282 1243.36C39.5917 1249.41 44.9513 1253.86 51.0001 1253.3C57.0482 1252.73 61.4948 1247.37 60.9319 1241.32C60.3689 1235.28 55.0088 1230.83 48.9606 1231.39C42.9118 1231.96 38.4653 1237.32 39.0282 1243.36Z" fill="#EDF399"/>
<path d="M38.493 1314.36C39.0566 1320.41 44.4161 1324.86 50.4649 1324.29C56.5131 1323.73 60.9596 1318.37 60.3967 1312.32C59.8338 1306.27 54.4736 1301.83 48.4254 1302.39C42.3767 1302.95 37.9301 1308.31 38.493 1314.36Z" fill="#EDF399"/>
<path d="M37.9579 1385.36C38.5214 1391.41 43.881 1395.86 49.9298 1395.29C55.9779 1394.73 60.4245 1389.37 59.8616 1383.32C59.2986 1377.27 53.9384 1372.83 47.8903 1373.39C41.8415 1373.95 37.3949 1379.31 37.9579 1385.36Z" fill="#EDF399"/>
<path d="M25.8878 1262.22C26.446 1268.27 31.5773 1272.74 37.3481 1272.2C43.1196 1271.66 47.3454 1266.31 46.7872 1260.26C46.2283 1254.21 41.0971 1249.74 35.3262 1250.29C29.5547 1250.83 25.3289 1256.17 25.8878 1262.22Z" fill="#EDF399"/>
<path d="M25.3526 1333.22C25.9109 1339.27 31.0421 1343.74 36.813 1343.19C42.5845 1342.65 46.8103 1337.31 46.252 1331.26C45.6932 1325.21 40.562 1320.74 34.7911 1321.28C29.0196 1321.83 24.7938 1327.17 25.3526 1333.22Z" fill="#EDF399"/>
<path d="M24.8175 1404.22C25.3757 1410.27 30.5069 1414.73 36.2778 1414.19C42.0493 1413.65 46.2751 1408.31 45.7169 1402.26C45.158 1396.2 40.0268 1391.74 34.2559 1392.28C28.4844 1392.82 24.2586 1398.17 24.8175 1404.22Z" fill="#EDF399"/>
<path d="M4.11217 1232.1C4.67571 1238.15 10.0353 1242.6 16.0834 1242.03C22.1322 1241.47 26.5788 1236.11 26.0158 1230.06C25.4523 1224.01 20.0927 1219.57 14.0446 1220.13C7.99579 1220.69 3.54924 1226.05 4.11217 1232.1Z" fill="#EDF399"/>
<path d="M3.57701 1303.1C4.14056 1309.15 9.50012 1313.59 15.5483 1313.03C21.5971 1312.47 26.0436 1307.11 25.4807 1301.06C24.9171 1295.01 19.5576 1290.56 13.5094 1291.13C7.46064 1291.69 3.01409 1297.05 3.57701 1303.1Z" fill="#EDF399"/>
<path d="M3.04186 1374.1C3.6054 1380.15 8.96496 1384.59 15.0131 1384.03C21.0619 1383.47 25.5085 1378.11 24.9455 1372.06C24.382 1366.01 19.0224 1361.56 12.9743 1362.13C6.92548 1362.69 2.47893 1368.05 3.04186 1374.1Z" fill="#EDF399"/>
<path d="M4.93586 1255.11C5.47115 1261.16 10.5857 1265.6 16.3598 1265.04C22.1334 1264.47 26.3803 1259.11 25.8445 1253.06C25.3092 1247.01 20.1947 1242.57 14.4205 1243.13C8.64693 1243.7 4.39999 1249.06 4.93586 1255.11Z" fill="#EDF399"/>
<path d="M4.4007 1326.11C4.93599 1332.15 10.0505 1336.6 15.8247 1336.03C21.5982 1335.47 25.8452 1330.11 25.3093 1324.06C24.774 1318.01 19.6595 1313.57 13.8853 1314.13C8.11177 1314.7 3.86483 1320.06 4.4007 1326.11Z" fill="#EDF399"/>
<path d="M3.8675 1397.1C4.40279 1403.15 9.51732 1407.6 15.2915 1407.03C21.065 1406.47 25.312 1401.11 24.7761 1395.06C24.2408 1389.01 19.1263 1384.56 13.3521 1385.13C7.57857 1385.69 3.33163 1391.06 3.8675 1397.1Z" fill="#EDF399"/>
<path d="M24.5516 1439.26C25.1152 1445.31 30.4747 1449.76 36.5229 1449.19C42.5717 1448.63 47.0182 1443.27 46.4553 1437.22C45.8918 1431.17 40.5322 1426.73 34.484 1427.29C28.4352 1427.85 23.9887 1433.21 24.5516 1439.26Z" fill="white"/>
<path d="M24.0184 1510.26C24.582 1516.31 29.9415 1520.75 35.9897 1520.19C42.0385 1519.63 46.485 1514.27 45.9221 1508.22C45.3586 1502.17 39.999 1497.72 33.9508 1498.29C27.902 1498.85 23.4555 1504.21 24.0184 1510.26Z" fill="white"/>
<path d="M23.4833 1581.26C24.0468 1587.31 29.4064 1591.75 35.4545 1591.19C41.5033 1590.63 45.9499 1585.27 45.3869 1579.22C44.8234 1573.17 39.4638 1568.72 33.4157 1569.29C27.3669 1569.85 22.9203 1575.21 23.4833 1581.26Z" fill="white"/>
<path d="M38.4169 1457.37C38.9804 1463.41 44.34 1467.86 50.3887 1467.3C56.4369 1466.74 60.8835 1461.38 60.3205 1455.33C59.7576 1449.28 54.3974 1444.83 48.3493 1445.39C42.3005 1445.96 37.8539 1451.32 38.4169 1457.37Z" fill="white"/>
<path d="M37.8817 1528.36C38.4452 1534.41 43.8048 1538.86 49.8536 1538.3C55.9018 1537.73 60.3483 1532.37 59.7854 1526.32C59.2225 1520.28 53.8623 1515.83 47.8141 1516.39C41.7653 1516.96 37.3188 1522.32 37.8817 1528.36Z" fill="white"/>
<path d="M37.3465 1599.36C37.9101 1605.41 43.2696 1609.86 49.3184 1609.29C55.3666 1608.73 59.8132 1603.37 59.2502 1597.32C58.6873 1591.27 53.3271 1586.83 47.279 1587.39C41.2302 1587.95 36.7836 1593.31 37.3465 1599.36Z" fill="white"/>
<path d="M25.2764 1476.23C25.8347 1482.28 30.9659 1486.74 36.7368 1486.2C42.5083 1485.66 46.7341 1480.31 46.1759 1474.26C45.617 1468.21 40.4858 1463.75 34.7149 1464.29C28.9434 1464.83 24.7176 1470.18 25.2764 1476.23Z" fill="white"/>
<path d="M24.7413 1547.22C25.2995 1553.27 30.4308 1557.74 36.2017 1557.2C41.9731 1556.65 46.199 1551.31 45.6407 1545.26C45.0819 1539.21 39.9506 1534.74 34.1797 1535.29C28.4083 1535.83 24.1824 1541.17 24.7413 1547.22Z" fill="white"/>
<path d="M24.2061 1618.22C24.7644 1624.27 29.8956 1628.74 35.6665 1628.19C41.438 1627.65 45.6638 1622.31 45.1056 1616.26C44.5467 1610.21 39.4155 1605.74 33.6446 1606.28C27.8731 1606.83 23.6473 1612.17 24.2061 1618.22Z" fill="white"/>
<path d="M3.50084 1446.1C4.06439 1452.15 9.42395 1456.6 15.4721 1456.03C21.5209 1455.47 25.9674 1450.11 25.4045 1444.06C24.841 1438.01 19.4814 1433.57 13.4332 1434.13C7.38446 1434.69 2.93791 1440.05 3.50084 1446.1Z" fill="white"/>
<path d="M2.96569 1517.1C3.52923 1523.15 8.88879 1527.6 14.937 1527.03C20.9857 1526.47 25.4323 1521.11 24.8694 1515.06C24.3058 1509.01 18.9463 1504.57 12.8981 1505.13C6.84931 1505.69 2.40276 1511.05 2.96569 1517.1Z" fill="white"/>
<path d="M2.43053 1588.1C2.99407 1594.15 8.35364 1598.59 14.4018 1598.03C20.4506 1597.47 24.8971 1592.11 24.3342 1586.06C23.7707 1580.01 18.4111 1575.56 12.3629 1576.13C6.31415 1576.69 1.8676 1582.05 2.43053 1588.1Z" fill="white"/>
<path d="M4.32453 1469.11C4.85982 1475.16 9.97435 1479.6 15.7485 1479.04C21.5221 1478.47 25.769 1473.11 25.2331 1467.06C24.6979 1461.02 19.5833 1456.57 13.8092 1457.14C8.0356 1457.7 3.78866 1463.06 4.32453 1469.11Z" fill="white"/>
<path d="M3.78938 1540.11C4.32467 1546.16 9.4392 1550.6 15.2134 1550.04C20.9869 1549.47 25.2339 1544.11 24.698 1538.06C24.1627 1532.01 19.0482 1527.57 13.274 1528.13C7.50045 1528.7 3.2535 1534.06 3.78938 1540.11Z" fill="white"/>
<path d="M3.25617 1611.11C3.79146 1617.15 8.90599 1621.6 14.6801 1621.03C20.4537 1620.47 24.7007 1615.11 24.1648 1609.06C23.6295 1603.01 18.515 1598.57 12.7408 1599.13C6.96724 1599.7 2.7203 1605.06 3.25617 1611.11Z" fill="white"/>
<path d="M23.9422 1653.26C24.5058 1659.31 29.8654 1663.76 35.9135 1663.19C41.9623 1662.63 46.4089 1657.27 45.8459 1651.22C45.2824 1645.17 39.9228 1640.73 33.8747 1641.29C27.8259 1641.85 23.3793 1647.21 23.9422 1653.26Z" fill="white"/>
<path d="M23.409 1724.26C23.9726 1730.31 29.3322 1734.76 35.3803 1734.19C41.4291 1733.63 45.8757 1728.27 45.3127 1722.22C44.7492 1716.17 39.3896 1711.73 33.3414 1712.29C27.2927 1712.85 22.8461 1718.21 23.409 1724.26Z" fill="white"/>
<path d="M37.8075 1671.37C38.371 1677.42 43.7306 1681.86 49.7794 1681.3C55.8275 1680.74 60.2741 1675.38 59.7112 1669.33C59.1482 1663.28 53.7881 1658.83 47.7399 1659.4C41.6911 1659.96 37.2446 1665.32 37.8075 1671.37Z" fill="white"/>
<path d="M37.2723 1742.37C37.8359 1748.41 43.1954 1752.86 49.2442 1752.3C55.2924 1751.74 59.7389 1746.38 59.176 1740.33C58.6131 1734.28 53.2529 1729.83 47.2047 1730.39C41.156 1730.96 36.7094 1736.32 37.2723 1742.37Z" fill="white"/>
<path d="M24.6671 1690.23C25.2253 1696.28 30.3566 1700.74 36.1274 1700.2C41.8989 1699.66 46.1247 1694.32 45.5665 1688.27C45.0076 1682.21 39.8764 1677.75 34.1055 1678.29C28.334 1678.83 24.1082 1684.18 24.6671 1690.23Z" fill="white"/>
<path d="M24.1319 1761.22C24.6902 1767.27 29.8214 1771.74 35.5923 1771.2C41.3638 1770.66 45.5896 1765.31 45.0313 1759.26C44.4725 1753.21 39.3413 1748.74 33.5704 1749.29C27.7989 1749.83 23.5731 1755.17 24.1319 1761.22Z" fill="white"/>
<path d="M2.89147 1660.1C3.45501 1666.15 8.81457 1670.6 14.8627 1670.04C20.9115 1669.47 25.3581 1664.11 24.7951 1658.07C24.2316 1652.02 18.872 1647.57 12.8239 1648.13C6.77509 1648.7 2.32854 1654.06 2.89147 1660.1Z" fill="white"/>
<path d="M2.35631 1731.1C2.91986 1737.15 8.27942 1741.6 14.3276 1741.03C20.3764 1740.47 24.8229 1735.11 24.26 1729.06C23.6964 1723.01 18.3369 1718.57 12.2887 1719.13C6.23993 1719.69 1.79338 1725.05 2.35631 1731.1Z" fill="white"/>
<path d="M3.71516 1683.11C4.25045 1689.16 9.36498 1693.61 15.1391 1693.04C20.9127 1692.47 25.1596 1687.11 24.6238 1681.07C24.0885 1675.02 18.974 1670.57 13.1998 1671.14C7.42623 1671.7 3.17929 1677.06 3.71516 1683.11Z" fill="white"/>
<path d="M3.18 1754.11C3.71529 1760.16 8.82982 1764.6 14.604 1764.04C20.3775 1763.47 24.6245 1758.11 24.0886 1752.06C23.5533 1746.02 18.4388 1741.57 12.6646 1742.14C6.89107 1742.7 2.64413 1748.06 3.18 1754.11Z" fill="white"/>
</svg>
