<svg width="318" height="317" viewBox="0 0 318 317" fill="none" xmlns="http://www.w3.org/2000/svg">
<circle cx="79.0169" cy="35.523" r="25.1662" transform="rotate(131.452 79.0169 35.523)" fill="#FEEC88"/>
<circle cx="237.687" cy="35.523" r="25.1662" transform="rotate(131.452 237.687 35.523)" fill="#FEEC88"/>
<circle cx="237.687" cy="192.291" r="25.1662" transform="rotate(131.452 237.687 192.291)" fill="#95E7E2"/>
<circle cx="79.0169" cy="192.291" r="25.1662" transform="rotate(131.452 79.0169 192.291)" fill="#95E7E2"/>
<circle cx="35.5228" cy="71.0796" r="25.1662" transform="rotate(131.452 35.5228 71.0796)" fill="#FEEC88"/>
<circle cx="194.195" cy="71.0796" r="25.1662" transform="rotate(131.452 194.195 71.0796)" fill="#FEEC88"/>
<circle cx="194.195" cy="227.849" r="25.1662" transform="rotate(131.452 194.195 227.849)" fill="#95E7E2"/>
<circle cx="35.5228" cy="227.849" r="25.1662" transform="rotate(131.452 35.5228 227.849)" fill="#95E7E2"/>
<circle cx="122.831" cy="71.0796" r="25.1662" transform="rotate(131.452 122.831 71.0796)" fill="#FEEC88"/>
<circle cx="281.499" cy="71.0796" r="25.1662" transform="rotate(131.452 281.499 71.0796)" fill="#FEEC88"/>
<circle cx="281.499" cy="227.849" r="25.1662" transform="rotate(131.452 281.499 227.849)" fill="#95E7E2"/>
<circle cx="122.831" cy="227.849" r="25.1662" transform="rotate(131.452 122.831 227.849)" fill="#95E7E2"/>
<circle cx="51.7142" cy="124.097" r="25.1662" transform="rotate(131.452 51.7142 124.097)" fill="#FEEC88"/>
<circle cx="210.386" cy="124.097" r="25.1662" transform="rotate(131.452 210.386 124.097)" fill="#FEEC88"/>
<circle cx="210.386" cy="280.867" r="25.1662" transform="rotate(131.452 210.386 280.867)" fill="#95E7E2"/>
<circle cx="51.7142" cy="280.867" r="25.1662" transform="rotate(131.452 51.7142 280.867)" fill="#95E7E2"/>
<circle cx="106.638" cy="124.097" r="25.1662" transform="rotate(131.452 106.638 124.097)" fill="#FEEC88"/>
<circle cx="265.308" cy="124.097" r="25.1662" transform="rotate(131.452 265.308 124.097)" fill="#FEEC88"/>
<circle cx="265.308" cy="280.867" r="25.1662" transform="rotate(131.452 265.308 280.867)" fill="#95E7E2"/>
<circle cx="106.638" cy="280.867" r="25.1662" transform="rotate(131.452 106.638 280.867)" fill="#95E7E2"/>
</svg>
