<svg width="64" height="1850" viewBox="0 0 64 1850" fill="none" xmlns="http://www.w3.org/2000/svg">
<path d="M21.6825 12.1248C22.2854 18.1691 27.6738 22.5811 33.7182 21.9787C39.7632 21.3763 44.1747 15.9875 43.5724 9.94262C42.9696 3.89772 37.5812 -0.513633 31.5368 0.0887681C25.4918 0.691168 21.0802 6.07991 21.6825 12.1248Z" fill="white"/>
<path d="M21.6102 83.1248C22.2131 89.1691 27.6015 93.5811 33.6459 92.9787C39.6909 92.3763 44.1025 86.9875 43.5002 80.9426C42.8973 74.8977 37.5089 70.4864 31.4645 71.0888C25.4195 71.6912 21.008 77.0799 21.6102 83.1248Z" fill="white"/>
<path d="M21.538 154.125C22.1409 160.169 27.5293 164.581 33.5736 163.979C39.6186 163.376 44.0302 157.988 43.4279 151.943C42.825 145.898 37.4366 141.486 31.3923 142.089C25.3473 142.691 20.9357 148.08 21.538 154.125Z" fill="white"/>
<path d="M35.6649 30.1379C36.2678 36.1828 41.6562 40.5947 47.7012 39.9923C53.7456 39.3899 58.1571 34.0012 57.5549 27.9563C56.9526 21.9114 51.5636 17.5 45.5192 18.1024C39.4742 18.7048 35.0626 24.0936 35.6649 30.1379Z" fill="white"/>
<path d="M35.5927 101.138C36.1956 107.183 41.5839 111.595 47.6289 110.992C53.6733 110.39 58.0849 105.001 57.4826 98.9563C56.8803 92.9114 51.4913 88.5 45.447 89.1024C39.402 89.7048 34.9904 95.0936 35.5927 101.138Z" fill="white"/>
<path d="M35.5204 172.138C36.1233 178.183 41.5117 182.595 47.5567 181.992C53.601 181.39 58.0126 176.001 57.4103 169.956C56.8081 163.911 51.4191 159.5 45.3747 160.102C39.3297 160.705 34.9181 166.094 35.5204 172.138Z" fill="white"/>
<path d="M22.6473 49.0838C23.2449 55.1304 28.4051 59.5629 34.1723 58.9834C39.9402 58.4039 44.1311 53.0314 43.5335 46.9848C42.9353 40.9376 37.7751 36.5051 32.0079 37.0852C26.2401 37.6647 22.0491 43.0366 22.6473 49.0838Z" fill="white"/>
<path d="M22.5751 120.084C23.1727 126.13 28.3329 130.563 34.1001 129.983C39.8679 129.404 44.0589 124.031 43.4613 117.985C42.863 111.938 37.7029 107.505 31.9356 108.085C26.1678 108.665 21.9768 114.037 22.5751 120.084Z" fill="white"/>
<path d="M22.5028 191.084C23.1004 197.13 28.2606 201.563 34.0278 200.983C39.7957 200.404 43.9866 195.031 43.389 188.985C42.7908 182.938 37.6306 178.505 31.8634 179.085C26.0955 179.665 21.9046 185.037 22.5028 191.084Z" fill="white"/>
<path d="M0.674695 19.1033C1.27759 25.1482 6.66597 29.5596 12.7103 28.9572C18.7553 28.3548 23.1669 22.966 22.5646 16.9218C21.9617 10.8769 16.5734 6.46488 10.529 7.06728C4.48399 7.66968 0.0724136 13.0584 0.674695 19.1033Z" fill="white"/>
<path d="M0.602429 90.1033C1.20533 96.1482 6.59371 100.56 12.6381 99.9572C18.6831 99.3548 23.0946 93.966 22.4924 87.9218C21.8895 81.8769 16.5011 77.4649 10.4567 78.0673C4.41172 78.6697 0.000147991 84.0584 0.602429 90.1033Z" fill="white"/>
<path d="M0.530163 161.103C1.13306 167.148 6.52144 171.56 12.5658 170.957C18.6108 170.355 23.0224 164.966 22.4201 158.922C21.8172 152.877 16.4288 148.465 10.3844 149.067C4.33946 149.67 -0.0721176 155.058 0.530163 161.103Z" fill="white"/>
<path d="M1.6488 42.1043C2.22344 48.1486 7.36679 52.5603 13.1371 51.9576C18.9069 51.355 23.1189 45.966 22.5437 39.9211C21.969 33.8769 16.8257 29.4652 11.0553 30.0678C5.28554 30.6705 1.07358 36.0595 1.6488 42.1043Z" fill="white"/>
<path d="M1.57654 113.104C2.15117 119.149 7.29452 123.56 13.0649 122.958C18.8346 122.355 23.0466 116.966 22.4714 110.921C21.8967 104.877 16.7534 100.465 10.983 101.068C5.21328 101.671 1.00131 107.059 1.57654 113.104Z" fill="white"/>
<path d="M1.50427 184.104C2.07891 190.149 7.22226 194.56 12.9926 193.958C18.7624 193.355 22.9743 187.966 22.3991 181.921C21.8245 175.877 16.6811 171.465 10.9108 172.068C5.14101 172.671 0.929049 178.059 1.50427 184.104Z" fill="white"/>
<path d="M22.4657 226.125C23.0686 232.169 28.457 236.581 34.5014 235.979C40.5464 235.376 44.9579 229.988 44.3556 223.943C43.7528 217.898 38.3644 213.486 32.32 214.089C26.275 214.691 21.8634 220.08 22.4657 226.125Z" fill="white"/>
<path d="M22.3934 297.125C22.9963 303.169 28.3847 307.581 34.4291 306.979C40.4741 306.376 44.8857 300.988 44.2834 294.943C43.6805 288.898 38.2921 284.486 32.2477 285.089C26.2027 285.691 21.7912 291.08 22.3934 297.125Z" fill="white"/>
<path d="M22.3212 368.125C22.9241 374.169 28.3125 378.581 34.3568 377.979C40.4018 377.376 44.8134 371.988 44.2111 365.943C43.6082 359.898 38.2198 355.486 32.1755 356.089C26.1305 356.691 21.7189 362.08 22.3212 368.125Z" fill="white"/>
<path d="M36.4481 244.138C37.051 250.183 42.4394 254.595 48.4844 253.992C54.5288 253.39 58.9404 248.001 58.3381 241.956C57.7358 235.911 52.3468 231.5 46.3024 232.102C40.2574 232.705 35.8458 238.094 36.4481 244.138Z" fill="white"/>
<path d="M36.3759 315.138C36.9788 321.183 42.3671 325.595 48.4121 324.992C54.4565 324.39 58.8681 319.001 58.2658 312.956C57.6635 306.911 52.2745 302.5 46.2302 303.102C40.1852 303.705 35.7736 309.094 36.3759 315.138Z" fill="white"/>
<path d="M36.3036 386.138C36.9065 392.183 42.2949 396.595 48.3399 395.992C54.3842 395.39 58.7958 390.001 58.1935 383.956C57.5913 377.911 52.2023 373.5 46.1579 374.102C40.1129 374.705 35.7013 380.094 36.3036 386.138Z" fill="white"/>
<path d="M23.4305 263.084C24.0281 269.13 29.1883 273.563 34.9556 272.983C40.7234 272.404 44.9143 267.031 44.3167 260.985C43.7185 254.938 38.5583 250.505 32.7911 251.085C27.0233 251.665 22.8323 257.037 23.4305 263.084Z" fill="white"/>
<path d="M23.3583 334.084C23.9559 340.13 29.1161 344.563 34.8833 343.983C40.6511 343.404 44.8421 338.031 44.2445 331.985C43.6462 325.938 38.4861 321.505 32.7188 322.085C26.951 322.665 22.76 328.037 23.3583 334.084Z" fill="white"/>
<path d="M23.286 405.084C23.8836 411.13 29.0438 415.563 34.811 414.983C40.5789 414.404 44.7698 409.031 44.1722 402.985C43.574 396.938 38.4138 392.505 32.6466 393.085C26.8787 393.665 22.6878 399.037 23.286 405.084Z" fill="white"/>
<path d="M1.4579 233.103C2.06079 239.148 7.44918 243.56 13.4936 242.957C19.5385 242.355 23.9501 236.966 23.3478 230.922C22.7449 224.877 17.3566 220.465 11.3122 221.067C5.26719 221.67 0.855617 227.058 1.4579 233.103Z" fill="white"/>
<path d="M1.38563 304.103C1.98853 310.148 7.37691 314.56 13.4213 313.957C19.4663 313.355 23.8779 307.966 23.2756 301.922C22.6727 295.877 17.2843 291.465 11.2399 292.067C5.19493 292.67 0.783351 298.058 1.38563 304.103Z" fill="white"/>
<path d="M1.31337 375.103C1.91626 381.148 7.30465 385.56 13.349 384.957C19.394 384.355 23.8056 378.966 23.2033 372.922C22.6004 366.877 17.212 362.465 11.1677 363.067C5.12266 363.67 0.711085 369.058 1.31337 375.103Z" fill="white"/>
<path d="M2.43201 256.104C3.00664 262.149 8.14999 266.56 13.9203 265.958C19.6901 265.355 23.9021 259.966 23.3269 253.921C22.7522 247.877 17.6089 243.465 11.8385 244.068C6.06874 244.671 1.85678 250.059 2.43201 256.104Z" fill="white"/>
<path d="M2.35974 327.104C2.93438 333.149 8.07773 337.56 13.8481 336.958C19.6178 336.355 23.8298 330.966 23.2546 324.921C22.68 318.877 17.5366 314.465 11.7662 315.068C5.99648 315.671 1.78452 321.059 2.35974 327.104Z" fill="white"/>
<path d="M2.28747 398.104C2.86211 404.149 8.00546 408.56 13.7758 407.958C19.5456 407.355 23.7575 401.966 23.1823 395.921C22.6077 389.877 17.4643 385.465 11.694 386.068C5.92421 386.671 1.71225 392.059 2.28747 398.104Z" fill="white"/>
<path d="M23.247 440.127C23.8499 446.171 29.2382 450.583 35.2826 449.981C41.3276 449.378 45.7392 443.989 45.1369 437.945C44.534 431.9 39.1456 427.488 33.1012 428.091C27.0563 428.693 22.6447 434.082 23.247 440.127Z" fill="white"/>
<path d="M23.1747 511.127C23.7776 517.171 29.166 521.583 35.2103 520.981C41.2553 520.378 45.6669 514.989 45.0646 508.945C44.4617 502.9 39.0734 498.488 33.029 499.091C26.984 499.693 22.5724 505.082 23.1747 511.127Z" fill="#EDF399"/>
<path d="M23.1024 582.127C23.7053 588.171 29.0937 592.583 35.1381 591.981C41.1831 591.378 45.5946 585.989 44.9924 579.945C44.3895 573.9 39.0011 569.488 32.9567 570.091C26.9117 570.693 22.5001 576.082 23.1024 582.127Z" fill="white"/>
<path d="M37.2294 458.14C37.8323 464.185 43.2207 468.597 49.2656 467.994C55.31 467.392 59.7216 462.003 59.1193 455.958C58.517 449.913 53.128 445.502 47.0837 446.104C41.0387 446.707 36.6271 452.096 37.2294 458.14Z" fill="white"/>
<path d="M37.1571 529.14C37.76 535.185 43.1484 539.597 49.1934 538.994C55.2378 538.392 59.6493 533.003 59.0471 526.958C58.4448 520.913 53.0558 516.502 47.0114 517.104C40.9664 517.707 36.5548 523.096 37.1571 529.14Z" fill="#EDF399"/>
<path d="M37.0848 600.14C37.6877 606.185 43.0761 610.597 49.1211 609.994C55.1655 609.392 59.5771 604.003 58.9748 597.958C58.3725 591.913 52.9835 587.502 46.9391 588.104C40.8941 588.707 36.4826 594.096 37.0848 600.14Z" fill="white"/>
<path d="M24.2118 477.086C24.8094 483.132 29.9696 487.565 35.7368 486.985C41.5046 486.406 45.6956 481.033 45.098 474.987C44.4998 468.94 39.3396 464.507 33.5723 465.087C27.8045 465.667 23.6136 471.039 24.2118 477.086Z" fill="white"/>
<path d="M24.1395 548.086C24.7371 554.132 29.8973 558.565 35.6645 557.985C41.4324 557.406 45.6233 552.033 45.0257 545.987C44.4275 539.94 39.2673 535.507 33.5001 536.087C27.7322 536.667 23.5413 542.039 24.1395 548.086Z" fill="#EDF399"/>
<path d="M24.0672 619.086C24.6649 625.132 29.825 629.565 35.5923 628.985C41.3601 628.406 45.5511 623.033 44.9534 616.987C44.3552 610.94 39.195 606.507 33.4278 607.087C27.66 607.667 23.469 613.039 24.0672 619.086Z" fill="white"/>
<path d="M2.23915 447.105C2.84204 453.15 8.23043 457.562 14.2748 456.959C20.3198 456.357 24.7314 450.968 24.1291 444.924C23.5262 438.879 18.1378 434.467 12.0934 435.069C6.04844 435.672 1.63687 441.06 2.23915 447.105Z" fill="white"/>
<path d="M2.16688 518.105C2.76978 524.15 8.15816 528.562 14.2025 527.959C20.2475 527.357 24.6591 521.968 24.0568 515.924C23.4539 509.879 18.0655 505.467 12.0212 506.069C5.97618 506.672 1.5646 512.06 2.16688 518.105Z" fill="#EDF399"/>
<path d="M2.09462 589.105C2.69751 595.15 8.0859 599.562 14.1303 598.959C20.1753 598.357 24.5868 592.968 23.9846 586.924C23.3817 580.879 17.9933 576.467 11.9489 577.069C5.90391 577.672 1.49234 583.06 2.09462 589.105Z" fill="white"/>
<path d="M3.21326 470.106C3.78789 476.151 8.93124 480.562 14.7016 479.96C20.4714 479.357 24.6833 473.968 24.1081 467.923C23.5335 461.879 18.3901 457.467 12.6198 458.07C6.84999 458.672 2.63803 464.061 3.21326 470.106Z" fill="white"/>
<path d="M3.14099 541.106C3.71563 547.151 8.85898 551.562 14.6293 550.96C20.3991 550.357 24.6111 544.968 24.0358 538.923C23.4612 532.879 18.3179 528.467 12.5475 529.07C6.77773 529.672 2.56577 535.061 3.14099 541.106Z" fill="#EDF399"/>
<path d="M3.06872 612.106C3.64336 618.151 8.78671 622.562 14.5571 621.96C20.3268 621.357 24.5388 615.968 23.9636 609.923C23.3889 603.879 18.2456 599.467 12.4752 600.07C6.70546 600.672 2.4935 606.061 3.06872 612.106Z" fill="white"/>
<path d="M25.163 655.259C25.7265 661.307 31.0861 665.754 37.1342 665.191C43.183 664.628 47.6296 659.268 47.0666 653.219C46.5031 647.171 41.1435 642.724 35.0954 643.287C29.0466 643.85 24.6 649.21 25.163 655.259Z" fill="white"/>
<path d="M24.6297 726.257C25.1933 732.305 30.5529 736.752 36.601 736.189C42.6498 735.626 47.0964 730.266 46.5334 724.217C45.9699 718.169 40.6103 713.722 34.5622 714.285C28.5134 714.848 24.0668 720.208 24.6297 726.257Z" fill="white"/>
<path d="M24.0946 797.255C24.6581 803.303 30.0177 807.75 36.0659 807.187C42.1146 806.624 46.5612 801.264 45.9983 795.215C45.4347 789.167 40.0752 784.72 34.027 785.283C27.9782 785.846 23.5317 791.206 24.0946 797.255Z" fill="white"/>
<path d="M39.0282 673.364C39.5917 679.413 44.9513 683.86 51.0001 683.296C57.0482 682.733 61.4948 677.373 60.9319 671.325C60.3689 665.276 55.0088 660.83 48.9606 661.393C42.9118 661.956 38.4653 667.316 39.0282 673.364Z" fill="white"/>
<path d="M38.493 744.362C39.0566 750.411 44.4161 754.858 50.4649 754.295C56.5131 753.731 60.9596 748.372 60.3967 742.323C59.8338 736.274 54.4736 731.828 48.4254 732.391C42.3767 732.954 37.9301 738.314 38.493 744.362Z" fill="white"/>
<path d="M37.9579 815.36C38.5214 821.409 43.881 825.856 49.9298 825.293C55.9779 824.73 60.4245 819.37 59.8616 813.321C59.2986 807.272 53.9384 802.826 47.8903 803.389C41.8415 803.952 37.3949 809.312 37.9579 815.36Z" fill="white"/>
<path d="M25.8878 692.225C26.446 698.275 31.5773 702.741 37.3481 702.199C43.1196 701.657 47.3454 696.312 46.7872 690.261C46.2283 684.211 41.0971 679.745 35.3262 680.287C29.5547 680.829 25.3289 686.174 25.8878 692.225Z" fill="white"/>
<path d="M25.3526 763.221C25.9109 769.271 31.0421 773.737 36.813 773.195C42.5845 772.653 46.8103 767.308 46.252 761.258C45.6932 755.207 40.562 750.741 34.7911 751.283C29.0196 751.825 24.7938 757.17 25.3526 763.221Z" fill="white"/>
<path d="M24.8175 834.219C25.3757 840.269 30.5069 844.735 36.2778 844.193C42.0493 843.651 46.2751 838.306 45.7169 832.256C45.158 826.205 40.0268 821.739 34.2559 822.281C28.4844 822.823 24.2586 828.168 24.8175 834.219Z" fill="white"/>
<path d="M4.11217 662.101C4.67571 668.15 10.0353 672.596 16.0834 672.033C22.1322 671.47 26.5788 666.11 26.0158 660.062C25.4523 654.013 20.0927 649.566 14.0446 650.129C7.99579 650.692 3.54924 656.052 4.11217 662.101Z" fill="white"/>
<path d="M3.57701 733.099C4.14056 739.148 9.50012 743.594 15.5483 743.031C21.5971 742.468 26.0436 737.108 25.4807 731.06C24.9171 725.011 19.5576 720.564 13.5094 721.127C7.46064 721.69 3.01409 727.05 3.57701 733.099Z" fill="white"/>
<path d="M3.04186 804.097C3.6054 810.146 8.96496 814.592 15.0131 814.029C21.0619 813.466 25.5085 808.106 24.9455 802.058C24.382 796.009 19.0224 791.562 12.9743 792.125C6.92548 792.688 2.47893 798.048 3.04186 804.097Z" fill="white"/>
<path d="M4.93586 685.108C5.47115 691.156 10.5857 695.601 16.3598 695.036C22.1334 694.471 26.3803 689.11 25.8445 683.061C25.3092 677.013 20.1947 672.568 14.4205 673.133C8.64693 673.698 4.39999 679.06 4.93586 685.108Z" fill="white"/>
<path d="M4.4007 756.106C4.93599 762.154 10.0505 766.599 15.8247 766.034C21.5982 765.469 25.8452 760.108 25.3093 754.059C24.774 748.011 19.6595 743.566 13.8853 744.131C8.11177 744.696 3.86483 750.058 4.4007 756.106Z" fill="white"/>
<path d="M3.8675 827.104C4.40279 833.152 9.51732 837.597 15.2915 837.032C21.065 836.467 25.312 831.106 24.7761 825.057C24.2408 819.009 19.1263 814.564 13.3521 815.129C7.57857 815.694 3.33163 821.056 3.8675 827.104Z" fill="white"/>
<path d="M24.5516 869.261C25.1152 875.309 30.4747 879.756 36.5229 879.193C42.5717 878.63 47.0182 873.27 46.4553 867.221C45.8918 861.173 40.5322 856.726 34.484 857.289C28.4352 857.852 23.9887 863.212 24.5516 869.261Z" fill="white"/>
<path d="M24.0184 940.259C24.582 946.307 29.9415 950.754 35.9897 950.191C42.0385 949.628 46.485 944.268 45.9221 938.219C45.3586 932.171 39.999 927.724 33.9508 928.287C27.902 928.85 23.4555 934.21 24.0184 940.259Z" fill="white"/>
<path d="M23.4833 1011.26C24.0468 1017.31 29.4064 1021.75 35.4545 1021.19C41.5033 1020.63 45.9499 1015.27 45.3869 1009.22C44.8234 1003.17 39.4638 998.722 33.4157 999.285C27.3669 999.848 22.9203 1005.21 23.4833 1011.26Z" fill="white"/>
<path d="M38.4169 887.366C38.9804 893.415 44.34 897.861 50.3887 897.298C56.4369 896.735 60.8835 891.375 60.3205 885.327C59.7576 879.278 54.3974 874.832 48.3493 875.395C42.3005 875.958 37.8539 881.318 38.4169 887.366Z" fill="white"/>
<path d="M37.8817 958.364C38.4452 964.413 43.8048 968.86 49.8536 968.296C55.9018 967.733 60.3483 962.373 59.7854 956.325C59.2225 950.276 53.8623 945.83 47.8141 946.393C41.7653 946.956 37.3188 952.316 37.8817 958.364Z" fill="white"/>
<path d="M37.3465 1029.36C37.9101 1035.41 43.2696 1039.86 49.3184 1039.29C55.3666 1038.73 59.8132 1033.37 59.2502 1027.32C58.6873 1021.27 53.3271 1016.83 47.279 1017.39C41.2302 1017.95 36.7836 1023.31 37.3465 1029.36Z" fill="white"/>
<path d="M25.2764 906.226C25.8347 912.277 30.9659 916.743 36.7368 916.201C42.5083 915.659 46.7341 910.314 46.1759 904.263C45.617 898.212 40.4858 893.746 34.7149 894.289C28.9434 894.831 24.7176 900.176 25.2764 906.226Z" fill="white"/>
<path d="M24.7413 977.223C25.2995 983.273 30.4308 987.739 36.2017 987.197C41.9731 986.655 46.199 981.31 45.6407 975.26C45.0819 969.209 39.9506 964.743 34.1797 965.285C28.4083 965.827 24.1824 971.172 24.7413 977.223Z" fill="white"/>
<path d="M24.2061 1048.22C24.7644 1054.27 29.8956 1058.74 35.6665 1058.19C41.438 1057.65 45.6638 1052.31 45.1056 1046.26C44.5467 1040.21 39.4155 1035.74 33.6446 1036.28C27.8731 1036.83 23.6473 1042.17 24.2061 1048.22Z" fill="white"/>
<path d="M3.50084 876.103C4.06439 882.151 9.42395 886.598 15.4721 886.035C21.5209 885.472 25.9674 880.112 25.4045 874.064C24.841 868.015 19.4814 863.568 13.4332 864.131C7.38446 864.694 2.93791 870.054 3.50084 876.103Z" fill="white"/>
<path d="M2.96569 947.101C3.52923 953.15 8.88879 957.596 14.937 957.033C20.9857 956.47 25.4323 951.11 24.8694 945.062C24.3058 939.013 18.9463 934.566 12.8981 935.129C6.84931 935.692 2.40276 941.052 2.96569 947.101Z" fill="white"/>
<path d="M2.43053 1018.1C2.99407 1024.15 8.35364 1028.59 14.4018 1028.03C20.4506 1027.47 24.8971 1022.11 24.3342 1016.06C23.7707 1010.01 18.4111 1005.56 12.3629 1006.13C6.31415 1006.69 1.8676 1012.05 2.43053 1018.1Z" fill="white"/>
<path d="M4.32453 899.11C4.85982 905.158 9.97435 909.603 15.7485 909.038C21.5221 908.473 25.769 903.112 25.2331 897.063C24.6979 891.015 19.5833 886.57 13.8092 887.135C8.0356 887.7 3.78866 893.062 4.32453 899.11Z" fill="white"/>
<path d="M3.78938 970.108C4.32467 976.156 9.4392 980.601 15.2134 980.036C20.9869 979.471 25.2339 974.11 24.698 968.061C24.1627 962.013 19.0482 957.568 13.274 958.133C7.50045 958.698 3.2535 964.06 3.78938 970.108Z" fill="white"/>
<path d="M3.25617 1041.11C3.79146 1047.15 8.90599 1051.6 14.6801 1051.03C20.4537 1050.47 24.7007 1045.11 24.1648 1039.06C23.6295 1033.01 18.515 1028.57 12.7408 1029.13C6.96724 1029.7 2.7203 1035.06 3.25617 1041.11Z" fill="white"/>
<path d="M23.9422 1083.26C24.5058 1089.31 29.8654 1093.76 35.9135 1093.19C41.9623 1092.63 46.4089 1087.27 45.8459 1081.22C45.2824 1075.17 39.9228 1070.73 33.8747 1071.29C27.8259 1071.85 23.3793 1077.21 23.9422 1083.26Z" fill="#FEEC88"/>
<path d="M23.409 1154.26C23.9726 1160.31 29.3322 1164.76 35.3803 1164.19C41.4291 1163.63 45.8757 1158.27 45.3127 1152.22C44.7492 1146.17 39.3896 1141.73 33.3414 1142.29C27.2927 1142.85 22.8461 1148.21 23.409 1154.26Z" fill="#FEEC88"/>
<path d="M37.8075 1101.37C38.371 1107.42 43.7306 1111.86 49.7794 1111.3C55.8275 1110.74 60.2741 1105.38 59.7112 1099.33C59.1482 1093.28 53.7881 1088.83 47.7399 1089.4C41.6911 1089.96 37.2446 1095.32 37.8075 1101.37Z" fill="#FEEC88"/>
<path d="M37.2723 1172.37C37.8359 1178.41 43.1954 1182.86 49.2442 1182.3C55.2924 1181.74 59.7389 1176.38 59.176 1170.33C58.6131 1164.28 53.2529 1159.83 47.2047 1160.39C41.156 1160.96 36.7094 1166.32 37.2723 1172.37Z" fill="#FEEC88"/>
<path d="M24.6671 1120.23C25.2253 1126.28 30.3566 1130.74 36.1274 1130.2C41.8989 1129.66 46.1247 1124.32 45.5665 1118.27C45.0076 1112.21 39.8764 1107.75 34.1055 1108.29C28.334 1108.83 24.1082 1114.18 24.6671 1120.23Z" fill="#FEEC88"/>
<path d="M24.1319 1191.22C24.6902 1197.27 29.8214 1201.74 35.5923 1201.2C41.3638 1200.66 45.5896 1195.31 45.0313 1189.26C44.4725 1183.21 39.3413 1178.74 33.5704 1179.29C27.7989 1179.83 23.5731 1185.17 24.1319 1191.22Z" fill="#FEEC88"/>
<path d="M2.89147 1090.1C3.45501 1096.15 8.81457 1100.6 14.8627 1100.04C20.9115 1099.47 25.3581 1094.11 24.7951 1088.07C24.2316 1082.02 18.872 1077.57 12.8239 1078.13C6.77509 1078.7 2.32854 1084.06 2.89147 1090.1Z" fill="#FEEC88"/>
<path d="M2.35631 1161.1C2.91986 1167.15 8.27942 1171.6 14.3276 1171.03C20.3764 1170.47 24.8229 1165.11 24.26 1159.06C23.6964 1153.01 18.3369 1148.57 12.2887 1149.13C6.23993 1149.69 1.79338 1155.05 2.35631 1161.1Z" fill="#FEEC88"/>
<path d="M3.71516 1113.11C4.25045 1119.16 9.36498 1123.61 15.1391 1123.04C20.9127 1122.47 25.1596 1117.11 24.6238 1111.07C24.0885 1105.02 18.974 1100.57 13.1998 1101.14C7.42623 1101.7 3.17929 1107.06 3.71516 1113.11Z" fill="#FEEC88"/>
<path d="M3.18 1184.11C3.71529 1190.16 8.82982 1194.6 14.604 1194.04C20.3775 1193.47 24.6245 1188.11 24.0886 1182.06C23.5533 1176.02 18.4388 1171.57 12.6646 1172.14C6.89107 1172.7 2.64413 1178.06 3.18 1184.11Z" fill="#FEEC88"/>
<path d="M24.0868 1227.26C24.6503 1233.31 30.0099 1237.76 36.0581 1237.19C42.1068 1236.63 46.5534 1231.27 45.9905 1225.22C45.4269 1219.17 40.0674 1214.73 34.0192 1215.29C27.9704 1215.85 23.5239 1221.21 24.0868 1227.26Z" fill="white"/>
<path d="M23.5536 1298.26C24.1171 1304.31 29.4767 1308.75 35.5248 1308.19C41.5736 1307.63 46.0202 1302.27 45.4573 1296.22C44.8937 1290.17 39.5341 1285.72 33.486 1286.29C27.4372 1286.85 22.9906 1292.21 23.5536 1298.26Z" fill="white"/>
<path d="M23.0184 1369.26C23.582 1375.31 28.9415 1379.75 34.9897 1379.19C41.0385 1378.63 45.485 1373.27 44.9221 1367.22C44.3586 1361.17 38.999 1356.72 32.9508 1357.29C26.902 1357.85 22.4555 1363.21 23.0184 1369.26Z" fill="white"/>
<path d="M37.952 1245.37C38.5156 1251.41 43.8751 1255.86 49.9239 1255.3C55.9721 1254.74 60.4186 1249.38 59.8557 1243.33C59.2928 1237.28 53.9326 1232.83 47.8844 1233.39C41.8356 1233.96 37.3891 1239.32 37.952 1245.37Z" fill="white"/>
<path d="M37.4169 1316.36C37.9804 1322.41 43.34 1326.86 49.3887 1326.3C55.4369 1325.73 59.8835 1320.37 59.3205 1314.32C58.7576 1308.28 53.3974 1303.83 47.3493 1304.39C41.3005 1304.96 36.8539 1310.32 37.4169 1316.36Z" fill="white"/>
<path d="M36.8817 1387.36C37.4452 1393.41 42.8048 1397.86 48.8536 1397.29C54.9018 1396.73 59.3483 1391.37 58.7854 1385.32C58.2225 1379.27 52.8623 1374.83 46.8141 1375.39C40.7653 1375.95 36.3188 1381.31 36.8817 1387.36Z" fill="white"/>
<path d="M24.8116 1264.23C25.3699 1270.28 30.5011 1274.74 36.272 1274.2C42.0435 1273.66 46.2693 1268.31 45.711 1262.26C45.1522 1256.21 40.0209 1251.75 34.2501 1252.29C28.4786 1252.83 24.2527 1258.18 24.8116 1264.23Z" fill="white"/>
<path d="M24.2764 1335.22C24.8347 1341.27 29.9659 1345.74 35.7368 1345.2C41.5083 1344.65 45.7341 1339.31 45.1759 1333.26C44.617 1327.21 39.4858 1322.74 33.7149 1323.29C27.9434 1323.83 23.7176 1329.17 24.2764 1335.22Z" fill="white"/>
<path d="M23.7413 1406.22C24.2995 1412.27 29.4308 1416.74 35.2017 1416.19C40.9731 1415.65 45.199 1410.31 44.6407 1404.26C44.0819 1398.21 38.9506 1393.74 33.1797 1394.28C27.4083 1394.83 23.1824 1400.17 23.7413 1406.22Z" fill="white"/>
<path d="M3.036 1234.1C3.59954 1240.15 8.9591 1244.6 15.0073 1244.03C21.0561 1243.47 25.5026 1238.11 24.9397 1232.06C24.3761 1226.01 19.0166 1221.57 12.9684 1222.13C6.91962 1222.69 2.47307 1228.05 3.036 1234.1Z" fill="white"/>
<path d="M2.50084 1305.1C3.06439 1311.15 8.42395 1315.6 14.4721 1315.03C20.5209 1314.47 24.9674 1309.11 24.4045 1303.06C23.841 1297.01 18.4814 1292.57 12.4332 1293.13C6.38446 1293.69 1.93791 1299.05 2.50084 1305.1Z" fill="white"/>
<path d="M1.96569 1376.1C2.52923 1382.15 7.88879 1386.59 13.937 1386.03C19.9857 1385.47 24.4323 1380.11 23.8694 1374.06C23.3058 1368.01 17.9463 1363.56 11.8981 1364.13C5.84931 1364.69 1.40276 1370.05 1.96569 1376.1Z" fill="white"/>
<path d="M3.85969 1257.11C4.39498 1263.16 9.50951 1267.6 15.2837 1267.04C21.0572 1266.47 25.3042 1261.11 24.7683 1255.06C24.233 1249.02 19.1185 1244.57 13.3443 1245.14C7.57076 1245.7 3.32382 1251.06 3.85969 1257.11Z" fill="white"/>
<path d="M3.32453 1328.11C3.85982 1334.16 8.97435 1338.6 14.7485 1338.04C20.5221 1337.47 24.769 1332.11 24.2331 1326.06C23.6979 1320.01 18.5833 1315.57 12.8092 1316.13C7.0356 1316.7 2.78866 1322.06 3.32453 1328.11Z" fill="white"/>
<path d="M2.79133 1399.11C3.32662 1405.15 8.44115 1409.6 14.2153 1409.03C19.9889 1408.47 24.2358 1403.11 23.6999 1397.06C23.1647 1391.01 18.0501 1386.57 12.276 1387.13C6.5024 1387.7 2.25546 1393.06 2.79133 1399.11Z" fill="white"/>
<path d="M23.4755 1441.26C24.039 1447.31 29.3986 1451.76 35.4467 1451.19C41.4955 1450.63 45.9421 1445.27 45.3791 1439.22C44.8156 1433.17 39.456 1428.73 33.4079 1429.29C27.3591 1429.85 22.9125 1435.21 23.4755 1441.26Z" fill="white"/>
<path d="M22.9422 1512.26C23.5058 1518.31 28.8654 1522.76 34.9135 1522.19C40.9623 1521.63 45.4089 1516.27 44.8459 1510.22C44.2824 1504.17 38.9228 1499.73 32.8747 1500.29C26.8259 1500.85 22.3793 1506.21 22.9422 1512.26Z" fill="white"/>
<path d="M22.4071 1583.26C22.9706 1589.31 28.3302 1593.75 34.3784 1593.19C40.4271 1592.63 44.8737 1587.27 44.3108 1581.22C43.7472 1575.17 38.3877 1570.72 32.3395 1571.29C26.2907 1571.85 21.8442 1577.21 22.4071 1583.26Z" fill="white"/>
<path d="M37.3407 1459.37C37.9042 1465.42 43.2638 1469.86 49.3126 1469.3C55.3607 1468.74 59.8073 1463.38 59.2444 1457.33C58.6814 1451.28 53.3213 1446.83 47.2731 1447.4C41.2243 1447.96 36.7778 1453.32 37.3407 1459.37Z" fill="white"/>
<path d="M36.8055 1530.37C37.3691 1536.41 42.7286 1540.86 48.7774 1540.3C54.8256 1539.74 59.2721 1534.38 58.7092 1528.33C58.1463 1522.28 52.7861 1517.83 46.7379 1518.39C40.6892 1518.96 36.2426 1524.32 36.8055 1530.37Z" fill="white"/>
<path d="M36.2704 1601.36C36.8339 1607.41 42.1935 1611.86 48.2423 1611.3C54.2904 1610.73 58.737 1605.37 58.1741 1599.32C57.6111 1593.28 52.2509 1588.83 46.2028 1589.39C40.154 1589.96 35.7074 1595.32 36.2704 1601.36Z" fill="white"/>
<path d="M24.2003 1478.23C24.7585 1484.28 29.8898 1488.74 35.6606 1488.2C41.4321 1487.66 45.6579 1482.32 45.0997 1476.27C44.5408 1470.21 39.4096 1465.75 33.6387 1466.29C27.8672 1466.83 23.6414 1472.18 24.2003 1478.23Z" fill="white"/>
<path d="M23.6651 1549.22C24.2234 1555.27 29.3546 1559.74 35.1255 1559.2C40.897 1558.66 45.1228 1553.31 44.5645 1547.26C44.0057 1541.21 38.8745 1536.74 33.1036 1537.29C27.3321 1537.83 23.1063 1543.17 23.6651 1549.22Z" fill="white"/>
<path d="M23.13 1620.22C23.6882 1626.27 28.8194 1630.74 34.5903 1630.2C40.3618 1629.65 44.5876 1624.31 44.0294 1618.26C43.4705 1612.21 38.3393 1607.74 32.5684 1608.29C26.7969 1608.83 22.5711 1614.17 23.13 1620.22Z" fill="white"/>
<path d="M2.42467 1448.1C2.98821 1454.15 8.34778 1458.6 14.3959 1458.04C20.4447 1457.47 24.8913 1452.11 24.3283 1446.07C23.7648 1440.02 18.4052 1435.57 12.3571 1436.13C6.30829 1436.7 1.86174 1442.06 2.42467 1448.1Z" fill="white"/>
<path d="M1.88951 1519.1C2.45306 1525.15 7.81262 1529.6 13.8608 1529.03C19.9096 1528.47 24.3561 1523.11 23.7932 1517.06C23.2296 1511.01 17.8701 1506.57 11.8219 1507.13C5.77314 1507.69 1.32659 1513.05 1.88951 1519.1Z" fill="white"/>
<path d="M1.35436 1590.1C1.9179 1596.15 7.27746 1600.6 13.3256 1600.03C19.3744 1599.47 23.821 1594.11 23.258 1588.06C22.6945 1582.01 17.3349 1577.57 11.2868 1578.13C5.23798 1578.69 0.791429 1584.05 1.35436 1590.1Z" fill="white"/>
<path d="M3.24836 1471.11C3.78365 1477.16 8.89818 1481.61 14.6723 1481.04C20.4459 1480.47 24.6928 1475.11 24.157 1469.07C23.6217 1463.02 18.5072 1458.57 12.733 1459.14C6.95943 1459.7 2.71249 1465.06 3.24836 1471.11Z" fill="white"/>
<path d="M2.7132 1542.11C3.24849 1548.16 8.36302 1552.6 14.1372 1552.04C19.9107 1551.47 24.1577 1546.11 23.6218 1540.06C23.0865 1534.02 17.972 1529.57 12.1978 1530.14C6.42427 1530.7 2.17733 1536.06 2.7132 1542.11Z" fill="white"/>
<path d="M2.18 1613.11C2.71529 1619.16 7.82982 1623.6 13.604 1623.04C19.3775 1622.47 23.6245 1617.11 23.0886 1611.06C22.5533 1605.01 17.4388 1600.57 11.6646 1601.13C5.89107 1601.7 1.64413 1607.06 2.18 1613.11Z" fill="white"/>
<path d="M22.9422 1657.26C23.5058 1663.31 28.8654 1667.76 34.9135 1667.19C40.9623 1666.63 45.4089 1661.27 44.8459 1655.22C44.2824 1649.17 38.9228 1644.73 32.8747 1645.29C26.8259 1645.85 22.3793 1651.21 22.9422 1657.26Z" fill="#EDF399"/>
<path d="M22.409 1728.26C22.9726 1734.31 28.3322 1738.75 34.3803 1738.19C40.4291 1737.63 44.8757 1732.27 44.3127 1726.22C43.7492 1720.17 38.3896 1715.72 32.3414 1716.29C26.2927 1716.85 21.8461 1722.21 22.409 1728.26Z" fill="#EDF399"/>
<path d="M36.8075 1675.37C37.371 1681.41 42.7306 1685.86 48.7794 1685.3C54.8275 1684.74 59.2741 1679.38 58.7112 1673.33C58.1482 1667.28 52.7881 1662.83 46.7399 1663.39C40.6911 1663.96 36.2446 1669.32 36.8075 1675.37Z" fill="#EDF399"/>
<path d="M36.2723 1746.36C36.8359 1752.41 42.1954 1756.86 48.2442 1756.3C54.2924 1755.73 58.7389 1750.37 58.176 1744.32C57.6131 1738.28 52.2529 1733.83 46.2047 1734.39C40.156 1734.96 35.7094 1740.32 36.2723 1746.36Z" fill="#EDF399"/>
<path d="M23.6671 1694.23C24.2253 1700.28 29.3566 1704.74 35.1274 1704.2C40.8989 1703.66 45.1247 1698.31 44.5665 1692.26C44.0076 1686.21 38.8764 1681.75 33.1055 1682.29C27.334 1682.83 23.1082 1688.18 23.6671 1694.23Z" fill="#EDF399"/>
<path d="M23.1319 1765.22C23.6902 1771.27 28.8214 1775.74 34.5923 1775.2C40.3638 1774.65 44.5896 1769.31 44.0313 1763.26C43.4725 1757.21 38.3413 1752.74 32.5704 1753.29C26.7989 1753.83 22.5731 1759.17 23.1319 1765.22Z" fill="#EDF399"/>
<path d="M1.89147 1664.1C2.45501 1670.15 7.81457 1674.6 13.8627 1674.03C19.9115 1673.47 24.3581 1668.11 23.7951 1662.06C23.2316 1656.01 17.872 1651.57 11.8239 1652.13C5.77509 1652.69 1.32854 1658.05 1.89147 1664.1Z" fill="#EDF399"/>
<path d="M1.35631 1735.1C1.91986 1741.15 7.27942 1745.6 13.3276 1745.03C19.3764 1744.47 23.8229 1739.11 23.26 1733.06C22.6964 1727.01 17.3369 1722.57 11.2887 1723.13C5.23993 1723.69 0.793382 1729.05 1.35631 1735.1Z" fill="#EDF399"/>
<path d="M2.71516 1687.11C3.25045 1693.16 8.36498 1697.6 14.1391 1697.04C19.9127 1696.47 24.1596 1691.11 23.6238 1685.06C23.0885 1679.02 17.974 1674.57 12.1998 1675.14C6.42623 1675.7 2.17929 1681.06 2.71516 1687.11Z" fill="#EDF399"/>
<path d="M2.18 1758.11C2.71529 1764.16 7.82982 1768.6 13.604 1768.04C19.3775 1767.47 23.6245 1762.11 23.0886 1756.06C22.5533 1750.01 17.4388 1745.57 11.6646 1746.13C5.89107 1746.7 1.64413 1752.06 2.18 1758.11Z" fill="#EDF399"/>
<path d="M23.1825 1798.1C23.746 1804.15 29.1056 1808.6 35.1538 1808.03C41.2025 1807.47 45.6491 1802.11 45.0862 1796.06C44.5226 1790.01 39.1631 1785.57 33.1149 1786.13C27.0661 1786.69 22.6196 1792.05 23.1825 1798.1Z" fill="#EDF399"/>
<path d="M37.0458 1816.21C37.6093 1822.26 42.9689 1826.7 49.0176 1826.14C55.0658 1825.58 59.5124 1820.22 58.9494 1814.17C58.3865 1808.12 53.0263 1803.67 46.9782 1804.24C40.9294 1804.8 36.4828 1810.16 37.0458 1816.21Z" fill="#EDF399"/>
<path d="M23.9054 1835.06C24.4636 1841.11 29.5948 1845.58 35.3657 1845.04C41.1372 1844.5 45.363 1839.15 44.8048 1833.1C44.2459 1827.05 39.1147 1822.58 33.3438 1823.13C27.5723 1823.67 23.3465 1829.01 23.9054 1835.06Z" fill="#EDF399"/>
<path d="M2.12975 1804.94C2.69329 1810.99 8.05285 1815.44 14.101 1814.87C20.1498 1814.31 24.5964 1808.95 24.0334 1802.9C23.4699 1796.85 18.1103 1792.41 12.0622 1792.97C6.01337 1793.53 1.56682 1798.89 2.12975 1804.94Z" fill="#EDF399"/>
<path d="M2.95344 1827.95C3.48873 1834 8.60326 1838.44 14.3774 1837.88C20.151 1837.31 24.3979 1831.95 23.8621 1825.9C23.3268 1819.86 18.2122 1815.41 12.4381 1815.98C6.66451 1816.54 2.41757 1821.9 2.95344 1827.95Z" fill="#EDF399"/>
</svg>
