<svg width="1228" height="94" viewBox="0 0 1228 94" fill="none" xmlns="http://www.w3.org/2000/svg">
<path d="M12.075 76.6C10.575 76.6 9.4 76.2 8.55 75.4C7.75 74.55 7.35 73.35 7.35 71.8V46.375H3.9C2.7 46.375 1.775 46.075 1.125 45.475C0.475 44.825 0.15 43.95 0.15 42.85C0.15 41.7 0.475 40.825 1.125 40.225C1.775 39.625 2.7 39.325 3.9 39.325H10.05L7.35 41.8V39.25C7.35 34.1 8.65 30.25 11.25 27.7C13.85 25.1 17.6 23.575 22.5 23.125L25.05 22.9C26.05 22.8 26.85 22.975 27.45 23.425C28.05 23.825 28.45 24.375 28.65 25.075C28.85 25.725 28.875 26.4 28.725 27.1C28.575 27.8 28.25 28.425 27.75 28.975C27.3 29.475 26.7 29.75 25.95 29.8L24.9 29.875C22.05 30.075 19.975 30.8 18.675 32.05C17.375 33.3 16.725 35.2 16.725 37.75V40.525L15.525 39.325H23.1C24.3 39.325 25.225 39.625 25.875 40.225C26.525 40.825 26.85 41.7 26.85 42.85C26.85 43.95 26.525 44.825 25.875 45.475C25.225 46.075 24.3 46.375 23.1 46.375H16.725V71.8C16.725 75 15.175 76.6 12.075 76.6ZM44.7 76.75C40.55 76.75 37.425 75.575 35.325 73.225C33.225 70.825 32.175 67.325 32.175 62.725V27.25C32.175 25.7 32.575 24.525 33.375 23.725C34.175 22.925 35.325 22.525 36.825 22.525C38.325 22.525 39.475 22.925 40.275 23.725C41.125 24.525 41.55 25.7 41.55 27.25V62.275C41.55 64.575 42.025 66.275 42.975 67.375C43.975 68.475 45.375 69.025 47.175 69.025C47.575 69.025 47.95 69.025 48.3 69.025C48.65 68.975 49 68.925 49.35 68.875C50.05 68.775 50.525 68.975 50.775 69.475C51.025 69.925 51.15 70.875 51.15 72.325C51.15 73.575 50.9 74.55 50.4 75.25C49.9 75.95 49.075 76.375 47.925 76.525C47.425 76.575 46.9 76.625 46.35 76.675C45.8 76.725 45.25 76.75 44.7 76.75ZM72.4301 76.75C68.6301 76.75 65.3301 75.975 62.5301 74.425C59.7301 72.875 57.5551 70.675 56.0051 67.825C54.4551 64.925 53.6801 61.525 53.6801 57.625C53.6801 54.675 54.1051 52.05 54.9551 49.75C55.8551 47.4 57.1301 45.4 58.7801 43.75C60.4301 42.05 62.4051 40.775 64.7051 39.925C67.0051 39.025 69.5801 38.575 72.4301 38.575C76.2301 38.575 79.5301 39.35 82.3301 40.9C85.1301 42.45 87.3051 44.65 88.8551 47.5C90.4051 50.35 91.1801 53.725 91.1801 57.625C91.1801 60.575 90.7301 63.225 89.8301 65.575C88.9801 67.925 87.7301 69.95 86.0801 71.65C84.4301 73.3 82.4551 74.575 80.1551 75.475C77.8551 76.325 75.2801 76.75 72.4301 76.75ZM72.4301 69.625C74.2801 69.625 75.9051 69.175 77.3051 68.275C78.7051 67.375 79.7801 66.05 80.5301 64.3C81.3301 62.5 81.7301 60.275 81.7301 57.625C81.7301 53.625 80.8801 50.65 79.1801 48.7C77.4801 46.7 75.2301 45.7 72.4301 45.7C70.5801 45.7 68.9551 46.15 67.5551 47.05C66.1551 47.9 65.0551 49.225 64.2551 51.025C63.5051 52.775 63.1301 54.975 63.1301 57.625C63.1301 61.575 63.9801 64.575 65.6801 66.625C67.3801 68.625 69.6301 69.625 72.4301 69.625ZM136.079 76.75C132.829 76.75 130.104 76.2 127.904 75.1C125.754 74 124.154 72.4 123.104 70.3C122.054 68.15 121.529 65.5 121.529 62.35V46.375H117.629C116.429 46.375 115.504 46.075 114.854 45.475C114.204 44.825 113.879 43.95 113.879 42.85C113.879 41.7 114.204 40.825 114.854 40.225C115.504 39.625 116.429 39.325 117.629 39.325H121.529V32.5C121.529 30.95 121.929 29.775 122.729 28.975C123.579 28.175 124.754 27.775 126.254 27.775C127.754 27.775 128.904 28.175 129.704 28.975C130.504 29.775 130.904 30.95 130.904 32.5V39.325H138.854C140.054 39.325 140.979 39.625 141.629 40.225C142.279 40.825 142.604 41.7 142.604 42.85C142.604 43.95 142.279 44.825 141.629 45.475C140.979 46.075 140.054 46.375 138.854 46.375H130.904V61.825C130.904 64.225 131.429 66.025 132.479 67.225C133.529 68.425 135.229 69.025 137.579 69.025C138.429 69.025 139.179 68.95 139.829 68.8C140.479 68.65 141.054 68.55 141.554 68.5C142.154 68.45 142.654 68.65 143.054 69.1C143.454 69.5 143.654 70.35 143.654 71.65C143.654 72.65 143.479 73.55 143.129 74.35C142.829 75.1 142.254 75.625 141.404 75.925C140.754 76.125 139.904 76.3 138.854 76.45C137.804 76.65 136.879 76.75 136.079 76.75ZM153.666 76.6C152.166 76.6 151.016 76.2 150.216 75.4C149.416 74.55 149.016 73.35 149.016 71.8V27.25C149.016 25.7 149.416 24.525 150.216 23.725C151.016 22.925 152.166 22.525 153.666 22.525C155.166 22.525 156.316 22.925 157.116 23.725C157.966 24.525 158.391 25.7 158.391 27.25V46.675H157.341C158.441 44.025 160.141 42.025 162.441 40.675C164.791 39.275 167.441 38.575 170.391 38.575C173.341 38.575 175.766 39.125 177.666 40.225C179.566 41.325 180.991 43 181.941 45.25C182.891 47.45 183.366 50.25 183.366 53.65V71.8C183.366 73.35 182.966 74.55 182.166 75.4C181.366 76.2 180.216 76.6 178.716 76.6C177.216 76.6 176.041 76.2 175.191 75.4C174.391 74.55 173.991 73.35 173.991 71.8V54.1C173.991 51.25 173.441 49.175 172.341 47.875C171.291 46.575 169.641 45.925 167.391 45.925C164.641 45.925 162.441 46.8 160.791 48.55C159.191 50.25 158.391 52.525 158.391 55.375V71.8C158.391 75 156.816 76.6 153.666 76.6ZM210.963 76.75C206.813 76.75 203.238 75.975 200.238 74.425C197.238 72.875 194.913 70.675 193.263 67.825C191.663 64.975 190.863 61.6 190.863 57.7C190.863 53.9 191.638 50.575 193.188 47.725C194.788 44.875 196.963 42.65 199.713 41.05C202.513 39.4 205.688 38.575 209.238 38.575C211.838 38.575 214.163 39 216.213 39.85C218.313 40.7 220.088 41.925 221.538 43.525C223.038 45.125 224.163 47.075 224.913 49.375C225.713 51.625 226.113 54.175 226.113 57.025C226.113 57.925 225.788 58.625 225.138 59.125C224.538 59.575 223.663 59.8 222.513 59.8H198.438V54.4H219.513L218.313 55.525C218.313 53.225 217.963 51.3 217.263 49.75C216.613 48.2 215.638 47.025 214.338 46.225C213.088 45.375 211.513 44.95 209.613 44.95C207.513 44.95 205.713 45.45 204.213 46.45C202.763 47.4 201.638 48.775 200.838 50.575C200.088 52.325 199.713 54.425 199.713 56.875V57.4C199.713 61.5 200.663 64.575 202.563 66.625C204.513 68.625 207.363 69.625 211.113 69.625C212.413 69.625 213.863 69.475 215.463 69.175C217.113 68.825 218.663 68.25 220.113 67.45C221.163 66.85 222.088 66.6 222.888 66.7C223.688 66.75 224.313 67.025 224.763 67.525C225.263 68.025 225.563 68.65 225.663 69.4C225.763 70.1 225.613 70.825 225.213 71.575C224.863 72.325 224.238 72.975 223.338 73.525C221.588 74.625 219.563 75.45 217.263 76C215.013 76.5 212.913 76.75 210.963 76.75ZM245.612 76.75C242.962 76.75 240.587 76.25 238.487 75.25C236.437 74.2 234.812 72.8 233.612 71.05C232.462 69.3 231.887 67.325 231.887 65.125C231.887 62.425 232.587 60.3 233.987 58.75C235.387 57.15 237.662 56 240.812 55.3C243.962 54.6 248.187 54.25 253.487 54.25H257.237V59.65H253.562C250.462 59.65 247.987 59.8 246.137 60.1C244.287 60.4 242.962 60.925 242.162 61.675C241.412 62.375 241.037 63.375 241.037 64.675C241.037 66.325 241.612 67.675 242.762 68.725C243.912 69.775 245.512 70.3 247.562 70.3C249.212 70.3 250.662 69.925 251.912 69.175C253.212 68.375 254.237 67.3 254.987 65.95C255.737 64.6 256.112 63.05 256.112 61.3V52.675C256.112 50.175 255.562 48.375 254.462 47.275C253.362 46.175 251.512 45.625 248.912 45.625C247.462 45.625 245.887 45.8 244.187 46.15C242.537 46.5 240.787 47.1 238.937 47.95C237.987 48.4 237.137 48.525 236.387 48.325C235.687 48.125 235.137 47.725 234.737 47.125C234.337 46.475 234.137 45.775 234.137 45.025C234.137 44.275 234.337 43.55 234.737 42.85C235.137 42.1 235.812 41.55 236.762 41.2C239.062 40.25 241.262 39.575 243.362 39.175C245.512 38.775 247.462 38.575 249.212 38.575C252.812 38.575 255.762 39.125 258.062 40.225C260.412 41.325 262.162 43 263.312 45.25C264.462 47.45 265.037 50.3 265.037 53.8V71.8C265.037 73.35 264.662 74.55 263.912 75.4C263.162 76.2 262.087 76.6 260.687 76.6C259.287 76.6 258.187 76.2 257.387 75.4C256.637 74.55 256.262 73.35 256.262 71.8V68.2H256.862C256.512 69.95 255.812 71.475 254.762 72.775C253.762 74.025 252.487 75 250.937 75.7C249.387 76.4 247.612 76.75 245.612 76.75ZM291.353 76.75C288.103 76.75 285.378 76.2 283.178 75.1C281.028 74 279.428 72.4 278.378 70.3C277.328 68.15 276.803 65.5 276.803 62.35V46.375H272.903C271.703 46.375 270.778 46.075 270.128 45.475C269.478 44.825 269.153 43.95 269.153 42.85C269.153 41.7 269.478 40.825 270.128 40.225C270.778 39.625 271.703 39.325 272.903 39.325H276.803V32.5C276.803 30.95 277.203 29.775 278.003 28.975C278.853 28.175 280.028 27.775 281.528 27.775C283.028 27.775 284.178 28.175 284.978 28.975C285.778 29.775 286.178 30.95 286.178 32.5V39.325H294.128C295.328 39.325 296.253 39.625 296.903 40.225C297.553 40.825 297.878 41.7 297.878 42.85C297.878 43.95 297.553 44.825 296.903 45.475C296.253 46.075 295.328 46.375 294.128 46.375H286.178V61.825C286.178 64.225 286.703 66.025 287.753 67.225C288.803 68.425 290.503 69.025 292.853 69.025C293.703 69.025 294.453 68.95 295.103 68.8C295.753 68.65 296.328 68.55 296.828 68.5C297.428 68.45 297.928 68.65 298.328 69.1C298.728 69.5 298.928 70.35 298.928 71.65C298.928 72.65 298.753 73.55 298.403 74.35C298.103 75.1 297.528 75.625 296.678 75.925C296.028 76.125 295.178 76.3 294.128 76.45C293.078 76.65 292.153 76.75 291.353 76.75ZM321.046 76.75C316.896 76.75 313.321 75.975 310.321 74.425C307.321 72.875 304.996 70.675 303.346 67.825C301.746 64.975 300.946 61.6 300.946 57.7C300.946 53.9 301.721 50.575 303.271 47.725C304.871 44.875 307.046 42.65 309.796 41.05C312.596 39.4 315.771 38.575 319.321 38.575C321.921 38.575 324.246 39 326.296 39.85C328.396 40.7 330.171 41.925 331.621 43.525C333.121 45.125 334.246 47.075 334.996 49.375C335.796 51.625 336.196 54.175 336.196 57.025C336.196 57.925 335.871 58.625 335.221 59.125C334.621 59.575 333.746 59.8 332.596 59.8H308.521V54.4H329.596L328.396 55.525C328.396 53.225 328.046 51.3 327.346 49.75C326.696 48.2 325.721 47.025 324.421 46.225C323.171 45.375 321.596 44.95 319.696 44.95C317.596 44.95 315.796 45.45 314.296 46.45C312.846 47.4 311.721 48.775 310.921 50.575C310.171 52.325 309.796 54.425 309.796 56.875V57.4C309.796 61.5 310.746 64.575 312.646 66.625C314.596 68.625 317.446 69.625 321.196 69.625C322.496 69.625 323.946 69.475 325.546 69.175C327.196 68.825 328.746 68.25 330.196 67.45C331.246 66.85 332.171 66.6 332.971 66.7C333.771 66.75 334.396 67.025 334.846 67.525C335.346 68.025 335.646 68.65 335.746 69.4C335.846 70.1 335.696 70.825 335.296 71.575C334.946 72.325 334.321 72.975 333.421 73.525C331.671 74.625 329.646 75.45 327.346 76C325.096 76.5 322.996 76.75 321.046 76.75ZM348.42 76.6C346.87 76.6 345.67 76.2 344.82 75.4C344.02 74.55 343.62 73.35 343.62 71.8V43.45C343.62 41.9 344.02 40.725 344.82 39.925C345.62 39.125 346.745 38.725 348.195 38.725C349.645 38.725 350.77 39.125 351.57 39.925C352.37 40.725 352.77 41.9 352.77 43.45V48.175H352.02C352.72 45.175 354.095 42.9 356.145 41.35C358.195 39.8 360.92 38.875 364.32 38.575C365.37 38.475 366.195 38.75 366.795 39.4C367.445 40 367.82 40.95 367.92 42.25C368.02 43.5 367.72 44.525 367.02 45.325C366.37 46.075 365.37 46.525 364.02 46.675L362.37 46.825C359.32 47.125 357.02 48.075 355.47 49.675C353.92 51.225 353.145 53.425 353.145 56.275V71.8C353.145 73.35 352.745 74.55 351.945 75.4C351.145 76.2 349.97 76.6 348.42 76.6Z" fill="white"/>
<path d="M642.075 80.6C640.575 80.6 639.4 80.2 638.55 79.4C637.75 78.55 637.35 77.35 637.35 75.8V50.375H633.9C632.7 50.375 631.775 50.075 631.125 49.475C630.475 48.825 630.15 47.95 630.15 46.85C630.15 45.7 630.475 44.825 631.125 44.225C631.775 43.625 632.7 43.325 633.9 43.325H640.05L637.35 45.8V43.25C637.35 38.1 638.65 34.25 641.25 31.7C643.85 29.1 647.6 27.575 652.5 27.125L655.05 26.9C656.05 26.8 656.85 26.975 657.45 27.425C658.05 27.825 658.45 28.375 658.65 29.075C658.85 29.725 658.875 30.4 658.725 31.1C658.575 31.8 658.25 32.425 657.75 32.975C657.3 33.475 656.7 33.75 655.95 33.8L654.9 33.875C652.05 34.075 649.975 34.8 648.675 36.05C647.375 37.3 646.725 39.2 646.725 41.75V44.525L645.525 43.325H653.1C654.3 43.325 655.225 43.625 655.875 44.225C656.525 44.825 656.85 45.7 656.85 46.85C656.85 47.95 656.525 48.825 655.875 49.475C655.225 50.075 654.3 50.375 653.1 50.375H646.725V75.8C646.725 79 645.175 80.6 642.075 80.6ZM674.7 80.75C670.55 80.75 667.425 79.575 665.325 77.225C663.225 74.825 662.175 71.325 662.175 66.725V31.25C662.175 29.7 662.575 28.525 663.375 27.725C664.175 26.925 665.325 26.525 666.825 26.525C668.325 26.525 669.475 26.925 670.275 27.725C671.125 28.525 671.55 29.7 671.55 31.25V66.275C671.55 68.575 672.025 70.275 672.975 71.375C673.975 72.475 675.375 73.025 677.175 73.025C677.575 73.025 677.95 73.025 678.3 73.025C678.65 72.975 679 72.925 679.35 72.875C680.05 72.775 680.525 72.975 680.775 73.475C681.025 73.925 681.15 74.875 681.15 76.325C681.15 77.575 680.9 78.55 680.4 79.25C679.9 79.95 679.075 80.375 677.925 80.525C677.425 80.575 676.9 80.625 676.35 80.675C675.8 80.725 675.25 80.75 674.7 80.75ZM702.43 80.75C698.63 80.75 695.33 79.975 692.53 78.425C689.73 76.875 687.555 74.675 686.005 71.825C684.455 68.925 683.68 65.525 683.68 61.625C683.68 58.675 684.105 56.05 684.955 53.75C685.855 51.4 687.13 49.4 688.78 47.75C690.43 46.05 692.405 44.775 694.705 43.925C697.005 43.025 699.58 42.575 702.43 42.575C706.23 42.575 709.53 43.35 712.33 44.9C715.13 46.45 717.305 48.65 718.855 51.5C720.405 54.35 721.18 57.725 721.18 61.625C721.18 64.575 720.73 67.225 719.83 69.575C718.98 71.925 717.73 73.95 716.08 75.65C714.43 77.3 712.455 78.575 710.155 79.475C707.855 80.325 705.28 80.75 702.43 80.75ZM702.43 73.625C704.28 73.625 705.905 73.175 707.305 72.275C708.705 71.375 709.78 70.05 710.53 68.3C711.33 66.5 711.73 64.275 711.73 61.625C711.73 57.625 710.88 54.65 709.18 52.7C707.48 50.7 705.23 49.7 702.43 49.7C700.58 49.7 698.955 50.15 697.555 51.05C696.155 51.9 695.055 53.225 694.255 55.025C693.505 56.775 693.13 58.975 693.13 61.625C693.13 65.575 693.98 68.575 695.68 70.625C697.38 72.625 699.63 73.625 702.43 73.625ZM766.079 80.75C762.829 80.75 760.104 80.2 757.904 79.1C755.754 78 754.154 76.4 753.104 74.3C752.054 72.15 751.529 69.5 751.529 66.35V50.375H747.629C746.429 50.375 745.504 50.075 744.854 49.475C744.204 48.825 743.879 47.95 743.879 46.85C743.879 45.7 744.204 44.825 744.854 44.225C745.504 43.625 746.429 43.325 747.629 43.325H751.529V36.5C751.529 34.95 751.929 33.775 752.729 32.975C753.579 32.175 754.754 31.775 756.254 31.775C757.754 31.775 758.904 32.175 759.704 32.975C760.504 33.775 760.904 34.95 760.904 36.5V43.325H768.854C770.054 43.325 770.979 43.625 771.629 44.225C772.279 44.825 772.604 45.7 772.604 46.85C772.604 47.95 772.279 48.825 771.629 49.475C770.979 50.075 770.054 50.375 768.854 50.375H760.904V65.825C760.904 68.225 761.429 70.025 762.479 71.225C763.529 72.425 765.229 73.025 767.579 73.025C768.429 73.025 769.179 72.95 769.829 72.8C770.479 72.65 771.054 72.55 771.554 72.5C772.154 72.45 772.654 72.65 773.054 73.1C773.454 73.5 773.654 74.35 773.654 75.65C773.654 76.65 773.479 77.55 773.129 78.35C772.829 79.1 772.254 79.625 771.404 79.925C770.754 80.125 769.904 80.3 768.854 80.45C767.804 80.65 766.879 80.75 766.079 80.75ZM783.666 80.6C782.166 80.6 781.016 80.2 780.216 79.4C779.416 78.55 779.016 77.35 779.016 75.8V31.25C779.016 29.7 779.416 28.525 780.216 27.725C781.016 26.925 782.166 26.525 783.666 26.525C785.166 26.525 786.316 26.925 787.116 27.725C787.966 28.525 788.391 29.7 788.391 31.25V50.675H787.341C788.441 48.025 790.141 46.025 792.441 44.675C794.791 43.275 797.441 42.575 800.391 42.575C803.341 42.575 805.766 43.125 807.666 44.225C809.566 45.325 810.991 47 811.941 49.25C812.891 51.45 813.366 54.25 813.366 57.65V75.8C813.366 77.35 812.966 78.55 812.166 79.4C811.366 80.2 810.216 80.6 808.716 80.6C807.216 80.6 806.041 80.2 805.191 79.4C804.391 78.55 803.991 77.35 803.991 75.8V58.1C803.991 55.25 803.441 53.175 802.341 51.875C801.291 50.575 799.641 49.925 797.391 49.925C794.641 49.925 792.441 50.8 790.791 52.55C789.191 54.25 788.391 56.525 788.391 59.375V75.8C788.391 79 786.816 80.6 783.666 80.6ZM840.963 80.75C836.813 80.75 833.238 79.975 830.238 78.425C827.238 76.875 824.913 74.675 823.263 71.825C821.663 68.975 820.863 65.6 820.863 61.7C820.863 57.9 821.638 54.575 823.188 51.725C824.788 48.875 826.963 46.65 829.713 45.05C832.513 43.4 835.688 42.575 839.238 42.575C841.838 42.575 844.163 43 846.213 43.85C848.313 44.7 850.088 45.925 851.538 47.525C853.038 49.125 854.163 51.075 854.913 53.375C855.713 55.625 856.113 58.175 856.113 61.025C856.113 61.925 855.788 62.625 855.138 63.125C854.538 63.575 853.663 63.8 852.513 63.8H828.438V58.4H849.513L848.313 59.525C848.313 57.225 847.963 55.3 847.263 53.75C846.613 52.2 845.638 51.025 844.338 50.225C843.088 49.375 841.513 48.95 839.613 48.95C837.513 48.95 835.713 49.45 834.213 50.45C832.763 51.4 831.638 52.775 830.838 54.575C830.088 56.325 829.713 58.425 829.713 60.875V61.4C829.713 65.5 830.663 68.575 832.563 70.625C834.513 72.625 837.363 73.625 841.113 73.625C842.413 73.625 843.863 73.475 845.463 73.175C847.113 72.825 848.663 72.25 850.113 71.45C851.163 70.85 852.088 70.6 852.888 70.7C853.688 70.75 854.313 71.025 854.763 71.525C855.263 72.025 855.563 72.65 855.663 73.4C855.763 74.1 855.613 74.825 855.213 75.575C854.863 76.325 854.238 76.975 853.338 77.525C851.588 78.625 849.563 79.45 847.263 80C845.013 80.5 842.913 80.75 840.963 80.75ZM875.612 80.75C872.962 80.75 870.587 80.25 868.487 79.25C866.437 78.2 864.812 76.8 863.612 75.05C862.462 73.3 861.887 71.325 861.887 69.125C861.887 66.425 862.587 64.3 863.987 62.75C865.387 61.15 867.662 60 870.812 59.3C873.962 58.6 878.187 58.25 883.487 58.25H887.237V63.65H883.562C880.462 63.65 877.987 63.8 876.137 64.1C874.287 64.4 872.962 64.925 872.162 65.675C871.412 66.375 871.037 67.375 871.037 68.675C871.037 70.325 871.612 71.675 872.762 72.725C873.912 73.775 875.512 74.3 877.562 74.3C879.212 74.3 880.662 73.925 881.912 73.175C883.212 72.375 884.237 71.3 884.987 69.95C885.737 68.6 886.112 67.05 886.112 65.3V56.675C886.112 54.175 885.562 52.375 884.462 51.275C883.362 50.175 881.512 49.625 878.912 49.625C877.462 49.625 875.887 49.8 874.187 50.15C872.537 50.5 870.787 51.1 868.937 51.95C867.987 52.4 867.137 52.525 866.387 52.325C865.687 52.125 865.137 51.725 864.737 51.125C864.337 50.475 864.137 49.775 864.137 49.025C864.137 48.275 864.337 47.55 864.737 46.85C865.137 46.1 865.812 45.55 866.762 45.2C869.062 44.25 871.262 43.575 873.362 43.175C875.512 42.775 877.462 42.575 879.212 42.575C882.812 42.575 885.762 43.125 888.062 44.225C890.412 45.325 892.162 47 893.312 49.25C894.462 51.45 895.037 54.3 895.037 57.8V75.8C895.037 77.35 894.662 78.55 893.912 79.4C893.162 80.2 892.087 80.6 890.687 80.6C889.287 80.6 888.187 80.2 887.387 79.4C886.637 78.55 886.262 77.35 886.262 75.8V72.2H886.862C886.512 73.95 885.812 75.475 884.762 76.775C883.762 78.025 882.487 79 880.937 79.7C879.387 80.4 877.612 80.75 875.612 80.75ZM921.353 80.75C918.103 80.75 915.378 80.2 913.178 79.1C911.028 78 909.428 76.4 908.378 74.3C907.328 72.15 906.803 69.5 906.803 66.35V50.375H902.903C901.703 50.375 900.778 50.075 900.128 49.475C899.478 48.825 899.153 47.95 899.153 46.85C899.153 45.7 899.478 44.825 900.128 44.225C900.778 43.625 901.703 43.325 902.903 43.325H906.803V36.5C906.803 34.95 907.203 33.775 908.003 32.975C908.853 32.175 910.028 31.775 911.528 31.775C913.028 31.775 914.178 32.175 914.978 32.975C915.778 33.775 916.178 34.95 916.178 36.5V43.325H924.128C925.328 43.325 926.253 43.625 926.903 44.225C927.553 44.825 927.878 45.7 927.878 46.85C927.878 47.95 927.553 48.825 926.903 49.475C926.253 50.075 925.328 50.375 924.128 50.375H916.178V65.825C916.178 68.225 916.703 70.025 917.753 71.225C918.803 72.425 920.503 73.025 922.853 73.025C923.703 73.025 924.453 72.95 925.103 72.8C925.753 72.65 926.328 72.55 926.828 72.5C927.428 72.45 927.928 72.65 928.328 73.1C928.728 73.5 928.928 74.35 928.928 75.65C928.928 76.65 928.753 77.55 928.403 78.35C928.103 79.1 927.528 79.625 926.678 79.925C926.028 80.125 925.178 80.3 924.128 80.45C923.078 80.65 922.153 80.75 921.353 80.75ZM951.046 80.75C946.896 80.75 943.321 79.975 940.321 78.425C937.321 76.875 934.996 74.675 933.346 71.825C931.746 68.975 930.946 65.6 930.946 61.7C930.946 57.9 931.721 54.575 933.271 51.725C934.871 48.875 937.046 46.65 939.796 45.05C942.596 43.4 945.771 42.575 949.321 42.575C951.921 42.575 954.246 43 956.296 43.85C958.396 44.7 960.171 45.925 961.621 47.525C963.121 49.125 964.246 51.075 964.996 53.375C965.796 55.625 966.196 58.175 966.196 61.025C966.196 61.925 965.871 62.625 965.221 63.125C964.621 63.575 963.746 63.8 962.596 63.8H938.521V58.4H959.596L958.396 59.525C958.396 57.225 958.046 55.3 957.346 53.75C956.696 52.2 955.721 51.025 954.421 50.225C953.171 49.375 951.596 48.95 949.696 48.95C947.596 48.95 945.796 49.45 944.296 50.45C942.846 51.4 941.721 52.775 940.921 54.575C940.171 56.325 939.796 58.425 939.796 60.875V61.4C939.796 65.5 940.746 68.575 942.646 70.625C944.596 72.625 947.446 73.625 951.196 73.625C952.496 73.625 953.946 73.475 955.546 73.175C957.196 72.825 958.746 72.25 960.196 71.45C961.246 70.85 962.171 70.6 962.971 70.7C963.771 70.75 964.396 71.025 964.846 71.525C965.346 72.025 965.646 72.65 965.746 73.4C965.846 74.1 965.696 74.825 965.296 75.575C964.946 76.325 964.321 76.975 963.421 77.525C961.671 78.625 959.646 79.45 957.346 80C955.096 80.5 952.996 80.75 951.046 80.75ZM978.42 80.6C976.87 80.6 975.67 80.2 974.82 79.4C974.02 78.55 973.62 77.35 973.62 75.8V47.45C973.62 45.9 974.02 44.725 974.82 43.925C975.62 43.125 976.745 42.725 978.195 42.725C979.645 42.725 980.77 43.125 981.57 43.925C982.37 44.725 982.77 45.9 982.77 47.45V52.175H982.02C982.72 49.175 984.095 46.9 986.145 45.35C988.195 43.8 990.92 42.875 994.32 42.575C995.37 42.475 996.195 42.75 996.795 43.4C997.445 44 997.82 44.95 997.92 46.25C998.02 47.5 997.72 48.525 997.02 49.325C996.37 50.075 995.37 50.525 994.02 50.675L992.37 50.825C989.32 51.125 987.02 52.075 985.47 53.675C983.92 55.225 983.145 57.425 983.145 60.275V75.8C983.145 77.35 982.745 78.55 981.945 79.4C981.145 80.2 979.97 80.6 978.42 80.6Z" fill="white"/>
<path d="M407.102 59.9439C413.146 59.3348 417.552 53.9419 416.944 47.8982C416.335 41.8538 410.942 37.4477 404.898 38.0561C398.853 38.6652 394.448 44.0581 395.056 50.1018C395.665 56.1462 401.058 60.5523 407.102 59.9439Z" fill="white"/>
<path d="M478.102 59.9439C484.146 59.3348 488.552 53.9419 487.944 47.8982C487.335 41.8538 481.942 37.4477 475.898 38.0561C469.853 38.6652 465.448 44.0581 466.056 50.1018C466.665 56.1462 472.058 60.5523 478.102 59.9439Z" fill="white"/>
<path d="M549.102 59.9439C555.146 59.3348 559.552 53.9419 558.944 47.8982C558.335 41.8538 552.942 37.4477 546.898 38.0561C540.853 38.6652 536.448 44.0581 537.056 50.1018C537.665 56.1462 543.058 60.5523 549.102 59.9439Z" fill="white"/>
<path d="M425.102 45.9439C431.146 45.3348 435.552 39.9419 434.944 33.8976C434.335 27.8538 428.942 23.4477 422.898 24.0561C416.853 24.6646 412.448 30.0581 413.056 36.1018C413.665 42.1462 419.058 46.5523 425.102 45.9439Z" fill="white"/>
<path d="M496.102 45.9439C502.146 45.3348 506.552 39.9419 505.944 33.8976C505.335 27.8538 499.942 23.4477 493.898 24.0561C487.853 24.6646 483.448 30.0581 484.056 36.1018C484.665 42.1462 490.058 46.5523 496.102 45.9439Z" fill="white"/>
<path d="M567.102 45.9439C573.146 45.3348 577.552 39.9419 576.944 33.8976C576.335 27.8538 570.942 23.4477 564.898 24.0561C558.853 24.6646 554.448 30.0581 555.056 36.1018C555.665 42.1462 561.058 46.5523 567.102 45.9439Z" fill="white"/>
<path d="M444.06 58.942C450.106 58.3382 454.533 53.1735 453.948 47.4069C453.363 41.6396 447.986 37.4541 441.94 38.0579C435.893 38.6623 431.466 43.827 432.052 49.5936C432.637 55.3609 438.014 59.5464 444.06 58.942Z" fill="white"/>
<path d="M515.06 58.942C521.106 58.3382 525.533 53.1735 524.948 47.4069C524.363 41.6396 518.986 37.4541 512.94 38.0579C506.893 38.6623 502.466 43.827 503.052 49.5936C503.637 55.3609 509.014 59.5464 515.06 58.942Z" fill="white"/>
<path d="M586.06 58.942C592.106 58.3382 596.533 53.1735 595.948 47.4069C595.363 41.6396 589.986 37.4541 583.94 38.0579C577.893 38.6623 573.466 43.827 574.052 49.5936C574.637 55.3609 580.014 59.5464 586.06 58.942Z" fill="white"/>
<path d="M414.102 80.9439C420.147 80.3348 424.552 74.9419 423.944 68.8982C423.335 62.8538 417.942 58.4477 411.898 59.0561C405.854 59.6652 401.448 65.0581 402.056 71.1018C402.665 77.1462 408.058 81.5523 414.102 80.9439Z" fill="white"/>
<path d="M485.102 80.9439C491.147 80.3348 495.552 74.9419 494.944 68.8982C494.335 62.8538 488.942 58.4477 482.898 59.0561C476.854 59.6652 472.448 65.0581 473.056 71.1018C473.665 77.1462 479.058 81.5523 485.102 80.9439Z" fill="white"/>
<path d="M556.102 80.9439C562.147 80.3348 566.552 74.9419 565.944 68.8982C565.335 62.8538 559.942 58.4477 553.898 59.0561C547.854 59.6652 543.448 65.0581 544.056 71.1018C544.665 77.1462 550.058 81.5523 556.102 80.9439Z" fill="white"/>
<path d="M437.102 79.9463C443.146 79.3655 447.552 74.2177 446.944 68.4479C446.335 62.6788 440.942 58.4723 434.898 59.0537C428.854 59.6345 424.448 64.7823 425.056 70.5521C425.665 76.3212 431.058 80.5277 437.102 79.9463Z" fill="white"/>
<path d="M508.102 79.9463C514.146 79.3655 518.552 74.2177 517.944 68.4479C517.335 62.6788 511.942 58.4723 505.898 59.0537C499.854 59.6345 495.448 64.7823 496.056 70.5521C496.665 76.3212 502.058 80.5277 508.102 79.9463Z" fill="white"/>
<path d="M579.102 79.9463C585.146 79.3655 589.552 74.2177 588.944 68.4479C588.335 62.6788 582.942 58.4723 576.898 59.0537C570.854 59.6345 566.448 64.7823 567.056 70.5521C567.665 76.3212 573.058 80.5277 579.102 79.9463Z" fill="white"/>
<path d="M1039.1 61.9439C1045.15 61.3348 1049.55 55.9419 1048.94 49.8982C1048.34 43.8538 1042.94 39.4477 1036.9 40.0561C1030.85 40.6652 1026.45 46.0581 1027.06 52.1018C1027.66 58.1462 1033.06 62.5523 1039.1 61.9439Z" fill="white"/>
<path d="M1110.1 61.9439C1116.15 61.3348 1120.55 55.9419 1119.94 49.8982C1119.34 43.8538 1113.94 39.4477 1107.9 40.0561C1101.85 40.6652 1097.45 46.0581 1098.06 52.1018C1098.66 58.1462 1104.06 62.5523 1110.1 61.9439Z" fill="white"/>
<path d="M1181.1 61.9439C1187.15 61.3348 1191.55 55.9419 1190.94 49.8982C1190.34 43.8538 1184.94 39.4477 1178.9 40.0561C1172.85 40.6652 1168.45 46.0581 1169.06 52.1018C1169.66 58.1462 1175.06 62.5523 1181.1 61.9439Z" fill="white"/>
<path d="M1057.1 47.9439C1063.15 47.3348 1067.55 41.9419 1066.94 35.8976C1066.34 29.8538 1060.94 25.4477 1054.9 26.0561C1048.85 26.6646 1044.45 32.0581 1045.06 38.1018C1045.66 44.1462 1051.06 48.5523 1057.1 47.9439Z" fill="white"/>
<path d="M1128.1 47.9439C1134.15 47.3348 1138.55 41.9419 1137.94 35.8976C1137.34 29.8538 1131.94 25.4477 1125.9 26.0561C1119.85 26.6646 1115.45 32.0581 1116.06 38.1018C1116.66 44.1462 1122.06 48.5523 1128.1 47.9439Z" fill="white"/>
<path d="M1199.1 47.9439C1205.15 47.3348 1209.55 41.9419 1208.94 35.8976C1208.34 29.8538 1202.94 25.4477 1196.9 26.0561C1190.85 26.6646 1186.45 32.0581 1187.06 38.1018C1187.66 44.1462 1193.06 48.5523 1199.1 47.9439Z" fill="white"/>
<path d="M1076.06 60.942C1082.11 60.3382 1086.53 55.1735 1085.95 49.4069C1085.36 43.6396 1079.99 39.4541 1073.94 40.0579C1067.89 40.6623 1063.47 45.827 1064.05 51.5936C1064.64 57.3609 1070.01 61.5464 1076.06 60.942Z" fill="white"/>
<path d="M1147.06 60.942C1153.11 60.3382 1157.53 55.1735 1156.95 49.4069C1156.36 43.6396 1150.99 39.4541 1144.94 40.0579C1138.89 40.6623 1134.47 45.827 1135.05 51.5936C1135.64 57.3609 1141.01 61.5464 1147.06 60.942Z" fill="white"/>
<path d="M1218.06 60.942C1224.11 60.3382 1228.53 55.1735 1227.95 49.4069C1227.36 43.6396 1221.99 39.4541 1215.94 40.0579C1209.89 40.6623 1205.47 45.827 1206.05 51.5936C1206.64 57.3609 1212.01 61.5464 1218.06 60.942Z" fill="white"/>
<path d="M1046.1 82.9439C1052.15 82.3348 1056.55 76.9419 1055.94 70.8982C1055.34 64.8538 1049.94 60.4477 1043.9 61.0561C1037.85 61.6652 1033.45 67.0581 1034.06 73.1018C1034.66 79.1462 1040.06 83.5523 1046.1 82.9439Z" fill="white"/>
<path d="M1117.1 82.9439C1123.15 82.3348 1127.55 76.9419 1126.94 70.8982C1126.34 64.8538 1120.94 60.4477 1114.9 61.0561C1108.85 61.6652 1104.45 67.0581 1105.06 73.1018C1105.66 79.1462 1111.06 83.5523 1117.1 82.9439Z" fill="white"/>
<path d="M1188.1 82.9439C1194.15 82.3348 1198.55 76.9419 1197.94 70.8982C1197.34 64.8538 1191.94 60.4477 1185.9 61.0561C1179.85 61.6652 1175.45 67.0581 1176.06 73.1018C1176.66 79.1462 1182.06 83.5523 1188.1 82.9439Z" fill="white"/>
<path d="M1069.1 81.9463C1075.15 81.3655 1079.55 76.2177 1078.94 70.4479C1078.34 64.6788 1072.94 60.4723 1066.9 61.0537C1060.85 61.6345 1056.45 66.7823 1057.06 72.5521C1057.66 78.3212 1063.06 82.5277 1069.1 81.9463Z" fill="white"/>
<path d="M1140.1 81.9463C1146.15 81.3655 1150.55 76.2177 1149.94 70.4479C1149.34 64.6788 1143.94 60.4723 1137.9 61.0537C1131.85 61.6345 1127.45 66.7823 1128.06 72.5521C1128.66 78.3212 1134.06 82.5277 1140.1 81.9463Z" fill="white"/>
<path d="M1211.1 81.9463C1217.15 81.3655 1221.55 76.2177 1220.94 70.4479C1220.34 64.6788 1214.94 60.4723 1208.9 61.0537C1202.85 61.6345 1198.45 66.7823 1199.06 72.5521C1199.66 78.3212 1205.06 82.5277 1211.1 81.9463Z" fill="white"/>
</svg>
