<svg width="608" height="316" viewBox="0 0 608 316" fill="none" xmlns="http://www.w3.org/2000/svg">
<circle cx="172.107" cy="90.0362" r="19.6071" transform="rotate(-177.725 172.107 90.0362)" fill="#9D96F1"/>
<circle cx="214.51" cy="122.892" r="19.6071" transform="rotate(-92.638 214.51 122.892)" fill="#9D96F1"/>
<circle cx="213.702" cy="181.1" r="19.6071" transform="rotate(-17.3062 213.702 181.1)" fill="#EDF399"/>
<circle cx="47.4747" cy="88.4712" r="19.6071" transform="rotate(-68.4546 47.4747 88.4712)" fill="#D792F8"/>
<circle cx="24.8445" cy="205.641" r="19.6071" transform="rotate(-108.632 24.8445 205.641)" fill="#EDF399"/>
<circle cx="133.846" cy="291.255" r="19.6071" transform="rotate(-165.58 133.846 291.255)" fill="#EDF399"/>
<circle cx="140.115" cy="57.3917" r="19.6071" transform="rotate(-177.725 140.115 57.3917)" fill="#9D96F1"/>
<circle cx="244.295" cy="88.2203" r="19.6071" transform="rotate(-92.638 244.295 88.2203)" fill="#9D96F1"/>
<circle cx="254.785" cy="201.133" r="19.6071" transform="rotate(-17.3062 254.785 201.133)" fill="#EDF399"/>
<circle cx="88.8477" cy="69.0435" r="19.6071" transform="rotate(-68.4546 88.8477 69.0435)" fill="#D792F8"/>
<circle cx="43.9246" cy="164.104" r="19.6071" transform="rotate(-108.632 43.9246 164.104)" fill="#EDF399"/>
<circle cx="109.44" cy="252.608" r="19.6071" transform="rotate(-165.58 109.44 252.608)" fill="#EDF399"/>
<circle cx="199.956" cy="53.1456" r="19.6071" transform="rotate(-177.725 199.956 53.1456)" fill="#9D96F1"/>
<circle cx="253.649" cy="147.476" r="19.6071" transform="rotate(-92.638 253.649 147.476)" fill="#9D96F1"/>
<circle cx="199.829" cy="225.188" r="19.6071" transform="rotate(-17.3062 199.829 225.188)" fill="#EDF399"/>
<circle cx="73.1075" cy="126.932" r="19.6071" transform="rotate(-68.4546 73.1075 126.932)" fill="#D792F8"/>
<circle cx="69.2449" cy="218.488" r="19.6071" transform="rotate(-108.632 69.2449 218.488)" fill="#EDF399"/>
<circle cx="168.831" cy="261.048" r="19.6071" transform="rotate(-165.58 168.831 261.048)" fill="#EDF399"/>
<circle cx="167.341" cy="20.3702" r="19.6071" transform="rotate(-177.725 167.341 20.3702)" fill="#9D96F1"/>
<circle cx="283.512" cy="112.175" r="19.6071" transform="rotate(-92.638 283.512 112.175)" fill="#9D96F1"/>
<circle cx="241.54" cy="245.137" r="19.6071" transform="rotate(-17.3062 241.54 245.137)" fill="#EDF399"/>
<circle cx="114.809" cy="106.963" r="19.6071" transform="rotate(-68.4546 114.809 106.963)" fill="#D792F8"/>
<circle cx="88.2253" cy="176.326" r="19.6071" transform="rotate(-108.632 88.2253 176.326)" fill="#EDF399"/>
<circle cx="143.844" cy="222.146" r="19.6071" transform="rotate(-165.58 143.844 222.146)" fill="#EDF399"/>
<circle cx="476.107" cy="90.0362" r="19.6071" transform="rotate(-177.725 476.107 90.0362)" fill="#D792F8"/>
<circle cx="518.51" cy="122.892" r="19.6071" transform="rotate(-92.638 518.51 122.892)" fill="#EDF399"/>
<circle cx="517.703" cy="181.1" r="19.6071" transform="rotate(-17.3062 517.703 181.1)" fill="#9D96F1"/>
<circle cx="351.475" cy="88.4712" r="19.6071" transform="rotate(-68.4546 351.475 88.4712)" fill="#9D96F1"/>
<circle cx="328.844" cy="205.641" r="19.6071" transform="rotate(-108.632 328.844 205.641)" fill="#EDF399"/>
<circle cx="437.846" cy="291.255" r="19.6071" transform="rotate(-165.58 437.846 291.255)" fill="#D792F8"/>
<circle cx="444.115" cy="57.3917" r="19.6071" transform="rotate(-177.725 444.115 57.3917)" fill="#D792F8"/>
<circle cx="548.295" cy="88.2203" r="19.6071" transform="rotate(-92.638 548.295 88.2203)" fill="#EDF399"/>
<circle cx="558.785" cy="201.133" r="19.6071" transform="rotate(-17.3062 558.785 201.133)" fill="#9D96F1"/>
<circle cx="392.848" cy="69.0435" r="19.6071" transform="rotate(-68.4546 392.848 69.0435)" fill="#9D96F1"/>
<circle cx="347.925" cy="164.104" r="19.6071" transform="rotate(-108.632 347.925 164.104)" fill="#EDF399"/>
<circle cx="413.44" cy="252.608" r="19.6071" transform="rotate(-165.58 413.44 252.608)" fill="#D792F8"/>
<circle cx="503.956" cy="53.1456" r="19.6071" transform="rotate(-177.725 503.956 53.1456)" fill="#D792F8"/>
<circle cx="557.649" cy="147.476" r="19.6071" transform="rotate(-92.638 557.649 147.476)" fill="#EDF399"/>
<circle cx="503.829" cy="225.188" r="19.6071" transform="rotate(-17.3062 503.829 225.188)" fill="#9D96F1"/>
<circle cx="377.107" cy="126.932" r="19.6071" transform="rotate(-68.4546 377.107 126.932)" fill="#9D96F1"/>
<circle cx="373.245" cy="218.488" r="19.6071" transform="rotate(-108.632 373.245 218.488)" fill="#EDF399"/>
<circle cx="472.831" cy="261.048" r="19.6071" transform="rotate(-165.58 472.831 261.048)" fill="#D792F8"/>
<circle cx="471.341" cy="20.3702" r="19.6071" transform="rotate(-177.725 471.341 20.3702)" fill="#D792F8"/>
<circle cx="587.512" cy="112.175" r="19.6071" transform="rotate(-92.638 587.512 112.175)" fill="#EDF399"/>
<circle cx="545.54" cy="245.137" r="19.6071" transform="rotate(-17.3062 545.54 245.137)" fill="#9D96F1"/>
<circle cx="418.809" cy="106.963" r="19.6071" transform="rotate(-68.4546 418.809 106.963)" fill="#9D96F1"/>
<circle cx="392.225" cy="176.326" r="19.6071" transform="rotate(-108.632 392.225 176.326)" fill="#EDF399"/>
<circle cx="447.844" cy="222.146" r="19.6071" transform="rotate(-165.58 447.844 222.146)" fill="#D792F8"/>
</svg>
