<svg width="589" height="327" viewBox="0 0 589 327" fill="none" xmlns="http://www.w3.org/2000/svg">
<circle cx="249.456" cy="159.032" r="28.3623" transform="rotate(-138.609 249.456 159.032)" fill="#FFC36E"/>
<circle cx="117.026" cy="161.508" r="28.3623" transform="rotate(-138.609 117.026 161.508)" fill="#95E7E2"/>
<circle cx="181.684" cy="161.438" r="28.3623" transform="rotate(-138.609 181.684 161.438)" fill="#FFC36E"/>
<circle cx="50.0317" cy="161.579" r="28.3623" transform="rotate(-138.609 50.0317 161.579)" fill="#95E7E2"/>
<circle cx="149.936" cy="221.536" r="28.3623" transform="rotate(-138.609 149.936 221.536)" fill="#FFC36E"/>
<circle cx="149.252" cy="105.415" r="28.3623" transform="rotate(-138.609 149.252 105.415)" fill="#FFC36E"/>
<circle cx="145.069" cy="40.0298" r="28.3623" transform="rotate(-138.609 145.069 40.0298)" fill="#FFC36E"/>
<circle cx="150.786" cy="286.192" r="28.3623" transform="rotate(-138.609 150.786 286.192)" fill="#FFC36E"/>
<circle cx="216.155" cy="224.579" r="28.3623" transform="rotate(-138.609 216.155 224.579)" fill="#FFC36E"/>
<circle cx="83.0317" cy="100.032" r="28.3623" transform="rotate(-138.609 83.0317 100.032)" fill="#95E7E2"/>
<circle cx="40.0317" cy="47.8189" r="28.3623" transform="rotate(-138.609 40.0317 47.8189)" fill="#FFC36E"/>
<circle cx="254.032" cy="48.0298" r="28.3623" transform="rotate(-138.609 254.032 48.0298)" fill="#95E7E2"/>
<circle cx="217.088" cy="102.297" r="28.3623" transform="rotate(-138.609 217.088 102.297)" fill="#FFC36E"/>
<circle cx="79.8325" cy="227.063" r="28.3623" transform="rotate(-138.609 79.8325 227.063)" fill="#95E7E2"/>
<circle cx="543.456" cy="159.032" r="28.3623" transform="rotate(-138.609 543.456 159.032)" fill="#95E7E2"/>
<circle cx="411.026" cy="161.508" r="28.3623" transform="rotate(-138.609 411.026 161.508)" fill="#FFC36E"/>
<circle cx="475.684" cy="161.438" r="28.3623" transform="rotate(-138.609 475.684 161.438)" fill="#FFC36E"/>
<circle cx="344.032" cy="161.579" r="28.3623" transform="rotate(-138.609 344.032 161.579)" fill="#FFC36E"/>
<circle cx="443.936" cy="221.536" r="28.3623" transform="rotate(-138.609 443.936 221.536)" fill="#FFC36E"/>
<circle cx="443.252" cy="105.415" r="28.3623" transform="rotate(-138.609 443.252 105.415)" fill="#95E7E2"/>
<circle cx="439.069" cy="40.0298" r="28.3623" transform="rotate(-138.609 439.069 40.0298)" fill="#95E7E2"/>
<circle cx="444.786" cy="286.192" r="28.3623" transform="rotate(-138.609 444.786 286.192)" fill="#95E7E2"/>
<circle cx="510.155" cy="224.579" r="28.3623" transform="rotate(-138.609 510.155 224.579)" fill="#95E7E2"/>
<circle cx="377.032" cy="100.032" r="28.3623" transform="rotate(-138.609 377.032 100.032)" fill="#FFC36E"/>
<circle cx="334.032" cy="47.8189" r="28.3623" transform="rotate(-138.609 334.032 47.8189)" fill="#95E7E2"/>
<circle cx="548.032" cy="48.0298" r="28.3623" transform="rotate(-138.609 548.032 48.0298)" fill="#FFC36E"/>
<circle cx="511.088" cy="102.297" r="28.3623" transform="rotate(-138.609 511.088 102.297)" fill="#FFC36E"/>
<circle cx="373.832" cy="227.063" r="28.3623" transform="rotate(-138.609 373.832 227.063)" fill="#FFC36E"/>
</svg>
