<svg width="284" height="322" viewBox="0 0 284 322" fill="none" xmlns="http://www.w3.org/2000/svg">
<circle cx="60.4182" cy="27.5297" r="21.3388" transform="rotate(159.184 60.4182 27.5297)" fill="#FFC36E"/>
<circle cx="48.0527" cy="293.034" r="21.3388" transform="rotate(23.758 48.0527 293.034)" fill="#FFC36E"/>
<circle cx="260.345" cy="158.157" r="21.3388" transform="rotate(-94.7033 260.345 158.157)" fill="#9D96F1"/>
<circle cx="32.133" cy="65.8657" r="21.3388" transform="rotate(159.184 32.133 65.8657)" fill="#FFC36E"/>
<circle cx="95.1054" cy="285.577" r="21.3388" transform="rotate(23.758 95.1054 285.577)" fill="#FFC36E"/>
<circle cx="231.367" cy="120.345" r="21.3388" transform="rotate(-94.7033 231.367 120.345)" fill="#9D96F1"/>
<circle cx="50.2229" cy="111.584" r="21.3388" transform="rotate(159.184 50.2229 111.584)" fill="#FFC36E"/>
<circle cx="114.309" cy="240.315" r="21.3388" transform="rotate(23.758 114.309 240.315)" fill="#FFC36E"/>
<circle cx="182.422" cy="125.032" r="21.3388" transform="rotate(-94.7033 182.422 125.032)" fill="#9D96F1"/>
<circle cx="104.842" cy="44.2329" r="21.3388" transform="rotate(159.184 104.842 44.2329)" fill="#FFC36E"/>
<circle cx="28.1269" cy="249.957" r="21.3388" transform="rotate(23.758 28.1269 249.957)" fill="#9D96F1"/>
<circle cx="231.97" cy="196.2" r="21.3388" transform="rotate(-94.7033 231.97 196.2)" fill="#FFC36E"/>
<circle cx="121.774" cy="89.3442" r="21.3388" transform="rotate(159.184 121.774 89.3442)" fill="#FFC36E"/>
<circle cx="47.7304" cy="205.944" r="21.3388" transform="rotate(23.758 47.7304 205.944)" fill="#9D96F1"/>
<circle cx="183.931" cy="199.944" r="21.3388" transform="rotate(-94.7033 183.931 199.944)" fill="#FFC36E"/>
<circle cx="97.1174" cy="136.239" r="21.3388" transform="rotate(159.184 97.1174 136.239)" fill="#FFC36E"/>
<circle cx="98.2031" cy="189.84" r="21.3388" transform="rotate(23.758 98.2031 189.84)" fill="#9D96F1"/>
<circle cx="145.724" cy="163.243" r="21.3388" transform="rotate(-94.7033 145.724 163.243)" fill="#FFC36E"/>
</svg>
