<svg width="590" height="329" viewBox="0 0 590 329" fill="none" xmlns="http://www.w3.org/2000/svg">
<circle cx="54.6141" cy="29.1416" r="21.8299" transform="rotate(154.274 54.6141 29.1416)" fill="#FEEC88"/>
<circle cx="65.2554" cy="300.844" r="21.8299" transform="rotate(18.848 65.2554 300.844)" fill="#95E7E2"/>
<circle cx="269.831" cy="144.778" r="21.8299" transform="rotate(-99.6133 269.831 144.778)" fill="#FEEC88"/>
<circle cx="29.1415" cy="70.6943" r="21.8299" transform="rotate(154.274 29.1415 70.6943)" fill="#FEEC88"/>
<circle cx="112.562" cy="289.122" r="21.8299" transform="rotate(18.848 112.562 289.122)" fill="#95E7E2"/>
<circle cx="236.979" cy="108.776" r="21.8299" transform="rotate(-99.6133 236.979 108.776)" fill="#FEEC88"/>
<circle cx="51.579" cy="115.71" r="21.8299" transform="rotate(154.274 51.579 115.71)" fill="#FEEC88"/>
<circle cx="128.171" cy="241.307" r="21.8299" transform="rotate(18.848 128.171 241.307)" fill="#95E7E2"/>
<circle cx="187.503" cy="117.841" r="21.8299" transform="rotate(-99.6133 187.503 117.841)" fill="#FEEC88"/>
<circle cx="101.354" cy="42.2783" r="21.8299" transform="rotate(154.274 101.354 42.2783)" fill="#FEEC88"/>
<circle cx="41.1773" cy="258.68" r="21.8299" transform="rotate(18.848 41.1773 258.68)" fill="#FEEC88"/>
<circle cx="244.235" cy="186.04" r="21.8299" transform="rotate(-99.6133 244.235 186.04)" fill="#FEEC88"/>
<circle cx="122.563" cy="86.7744" r="21.8299" transform="rotate(154.274 122.563 86.7744)" fill="#FEEC88"/>
<circle cx="57.3043" cy="212.102" r="21.8299" transform="rotate(18.848 57.3043 212.102)" fill="#FEEC88"/>
<circle cx="195.602" cy="194.062" r="21.8299" transform="rotate(-99.6133 195.602 194.062)" fill="#FEEC88"/>
<circle cx="101.538" cy="136.731" r="21.8299" transform="rotate(154.274 101.538 136.731)" fill="#FEEC88"/>
<circle cx="107.337" cy="191.27" r="21.8299" transform="rotate(18.848 107.337 191.27)" fill="#FEEC88"/>
<circle cx="153.444" cy="160.001" r="21.8299" transform="rotate(-99.6133 153.444 160.001)" fill="#FEEC88"/>
<circle cx="349.614" cy="29.1416" r="21.8299" transform="rotate(154.274 349.614 29.1416)" fill="#95E7E2"/>
<circle cx="360.255" cy="300.844" r="21.8299" transform="rotate(18.848 360.255 300.844)" fill="#FEEC88"/>
<circle cx="564.831" cy="144.778" r="21.8299" transform="rotate(-99.6133 564.831 144.778)" fill="#95E7E2"/>
<circle cx="324.141" cy="70.6943" r="21.8299" transform="rotate(154.274 324.141 70.6943)" fill="#95E7E2"/>
<circle cx="407.562" cy="289.122" r="21.8299" transform="rotate(18.848 407.562 289.122)" fill="#FEEC88"/>
<circle cx="531.979" cy="108.776" r="21.8299" transform="rotate(-99.6133 531.979 108.776)" fill="#95E7E2"/>
<circle cx="346.579" cy="115.71" r="21.8299" transform="rotate(154.274 346.579 115.71)" fill="#FEEC88"/>
<circle cx="423.171" cy="241.307" r="21.8299" transform="rotate(18.848 423.171 241.307)" fill="#FEEC88"/>
<circle cx="482.503" cy="117.841" r="21.8299" transform="rotate(-99.6133 482.503 117.841)" fill="#FEEC88"/>
<circle cx="396.354" cy="42.2783" r="21.8299" transform="rotate(154.274 396.354 42.2783)" fill="#95E7E2"/>
<circle cx="336.177" cy="258.68" r="21.8299" transform="rotate(18.848 336.177 258.68)" fill="#FEEC88"/>
<circle cx="539.235" cy="186.04" r="21.8299" transform="rotate(-99.6133 539.235 186.04)" fill="#FEEC88"/>
<circle cx="417.563" cy="86.7744" r="21.8299" transform="rotate(154.274 417.563 86.7744)" fill="#95E7E2"/>
<circle cx="352.304" cy="212.102" r="21.8299" transform="rotate(18.848 352.304 212.102)" fill="#95E7E2"/>
<circle cx="490.602" cy="194.062" r="21.8299" transform="rotate(-99.6133 490.602 194.062)" fill="#FEEC88"/>
<circle cx="396.538" cy="136.731" r="21.8299" transform="rotate(154.274 396.538 136.731)" fill="#FEEC88"/>
<circle cx="402.337" cy="191.27" r="21.8299" transform="rotate(18.848 402.337 191.27)" fill="#95E7E2"/>
<circle cx="448.444" cy="160.001" r="21.8299" transform="rotate(-99.6133 448.444 160.001)" fill="#FEEC88"/>
</svg>
