<svg width="646" height="308" viewBox="0 0 646 308" fill="none" xmlns="http://www.w3.org/2000/svg">
<ellipse cx="13.7465" cy="13.7269" rx="13.7465" ry="13.7269" transform="matrix(0.637903 -0.770117 0.765066 0.643951 0 23.5352)" fill="#EDF399"/>
<ellipse cx="10.2586" cy="10.244" rx="10.2586" ry="10.244" transform="matrix(0.637903 -0.770117 0.765066 0.643951 181.617 185.139)" fill="#EDF399"/>
<ellipse cx="13.738" cy="13.7355" rx="13.738" ry="13.7355" transform="matrix(0.69629 0.71776 -0.712163 0.702014 169.975 2.99609)" fill="#EDF399"/>
<ellipse cx="10.2522" cy="10.2504" rx="10.2522" ry="10.2504" transform="matrix(0.69629 0.71776 -0.712163 0.702014 308.465 169.811)" fill="#EDF399"/>
<ellipse cx="13.7465" cy="13.7269" rx="13.7465" ry="13.7269" transform="matrix(0.637903 -0.770117 0.765066 0.643951 45.7207 21.7656)" fill="#9D96F1"/>
<ellipse cx="10.2586" cy="10.244" rx="10.2586" ry="10.244" transform="matrix(0.637903 -0.770117 0.765066 0.643951 215.738 183.816)" fill="#EDF399"/>
<ellipse cx="13.7356" cy="13.7379" rx="13.7356" ry="13.7379" transform="matrix(-0.711702 -0.702482 0.696761 -0.717303 19.5527 186.199)" fill="#EDF399"/>
<ellipse cx="10.2504" cy="10.2522" rx="10.2504" ry="10.2522" transform="matrix(-0.711702 -0.702482 0.696761 -0.717303 196.207 306.527)" fill="#EDF399"/>
<ellipse cx="13.7435" cy="13.7299" rx="13.7435" ry="13.7299" transform="matrix(-0.659008 0.752136 -0.746876 -0.664964 187.523 166.355)" fill="#EDF399"/>
<ellipse cx="10.2564" cy="10.2462" rx="10.2564" ry="10.2462" transform="matrix(-0.659008 0.752136 -0.746876 -0.664964 321.559 291.719)" fill="#EDF399"/>
<ellipse cx="13.738" cy="13.7355" rx="13.738" ry="13.7355" transform="matrix(0.69629 0.71776 -0.712163 0.702014 167.121 49.0273)" fill="#EDF399"/>
<ellipse cx="10.2522" cy="10.2504" rx="10.2522" ry="10.2504" transform="matrix(0.69629 0.71776 -0.712163 0.702014 306.336 204.162)" fill="#D792F8"/>
<ellipse cx="13.7356" cy="13.7379" rx="13.7356" ry="13.7379" transform="matrix(-0.711702 -0.702482 0.696761 -0.717303 21.416 140.115)" fill="#EDF399"/>
<ellipse cx="10.2504" cy="10.2522" rx="10.2504" ry="10.2522" transform="matrix(-0.711702 -0.702482 0.696761 -0.717303 197.596 272.139)" fill="#D792F8"/>
<ellipse cx="13.7435" cy="13.7299" rx="13.7435" ry="13.7299" transform="matrix(-0.659008 0.752136 -0.746876 -0.664964 141.773 166.848)" fill="#9D96F1"/>
<ellipse cx="10.2564" cy="10.2462" rx="10.2564" ry="10.2462" transform="matrix(-0.659008 0.752136 -0.746876 -0.664964 287.418 292.086)" fill="#EDF399"/>
<ellipse cx="13.7465" cy="13.7269" rx="13.7465" ry="13.7269" transform="matrix(0.637903 -0.770117 0.765066 0.643951 24.6211 46.875)" fill="#EDF399"/>
<ellipse cx="10.2586" cy="10.244" rx="10.2586" ry="10.244" transform="matrix(0.637903 -0.770117 0.765066 0.643951 199.988 202.557)" fill="#EDF399"/>
<ellipse cx="13.738" cy="13.7355" rx="13.738" ry="13.7355" transform="matrix(0.69629 0.71776 -0.712163 0.702014 144.459 25.3359)" fill="#EDF399"/>
<ellipse cx="10.2522" cy="10.2504" rx="10.2522" ry="10.2504" transform="matrix(0.69629 0.71776 -0.712163 0.702014 289.424 186.482)" fill="#EDF399"/>
<ellipse cx="13.7356" cy="13.7379" rx="13.7356" ry="13.7379" transform="matrix(-0.711702 -0.702482 0.696761 -0.717303 44.5781 163.307)" fill="#EDF399"/>
<ellipse cx="10.2504" cy="10.2522" rx="10.2504" ry="10.2522" transform="matrix(-0.711702 -0.702482 0.696761 -0.717303 214.885 289.445)" fill="#EDF399"/>
<ellipse cx="13.7435" cy="13.7299" rx="13.7435" ry="13.7299" transform="matrix(-0.659008 0.752136 -0.746876 -0.664964 163.559 142.336)" fill="#EDF399"/>
<ellipse cx="10.2564" cy="10.2462" rx="10.2564" ry="10.2462" transform="matrix(-0.659008 0.752136 -0.746876 -0.664964 303.674 273.795)" fill="#EDF399"/>
<ellipse cx="13.7465" cy="13.7269" rx="13.7465" ry="13.7269" transform="matrix(0.637903 -0.770117 0.765066 0.643951 35.4629 79.668)" fill="#9D96F1"/>
<ellipse cx="10.2586" cy="10.244" rx="10.2586" ry="10.244" transform="matrix(0.637903 -0.770117 0.765066 0.643951 208.082 227.027)" fill="#D792F8"/>
<ellipse cx="13.738" cy="13.7355" rx="13.738" ry="13.7355" transform="matrix(0.69629 0.71776 -0.712163 0.702014 111.004 32.9102)" fill="#9D96F1"/>
<ellipse cx="10.2522" cy="10.2504" rx="10.2522" ry="10.2504" transform="matrix(0.69629 0.71776 -0.712163 0.702014 264.455 192.133)" fill="#EDF399"/>
<ellipse cx="13.7356" cy="13.7379" rx="13.7356" ry="13.7379" transform="matrix(-0.711702 -0.702482 0.696761 -0.717303 77.8672 155.004)" fill="#9D96F1"/>
<ellipse cx="10.2504" cy="10.2522" rx="10.2504" ry="10.2522" transform="matrix(-0.711702 -0.702482 0.696761 -0.717303 239.725 283.248)" fill="#D792F8"/>
<ellipse cx="13.7435" cy="13.7299" rx="13.7435" ry="13.7299" transform="matrix(-0.659008 0.752136 -0.746876 -0.664964 153.623 109.252)" fill="#9D96F1"/>
<ellipse cx="10.2564" cy="10.2462" rx="10.2564" ry="10.2462" transform="matrix(-0.659008 0.752136 -0.746876 -0.664964 296.26 249.105)" fill="#D792F8"/>
<ellipse cx="13.7465" cy="13.7269" rx="13.7465" ry="13.7269" transform="matrix(0.637903 -0.770117 0.765066 0.643951 58.3203 53.9648)" fill="#9D96F1"/>
<ellipse cx="10.2586" cy="10.244" rx="10.2586" ry="10.244" transform="matrix(0.637903 -0.770117 0.765066 0.643951 225.141 207.848)" fill="#EDF399"/>
<ellipse cx="13.738" cy="13.7355" rx="13.738" ry="13.7355" transform="matrix(0.69629 0.71776 -0.712163 0.702014 134.072 58.4238)" fill="#9D96F1"/>
<ellipse cx="10.2522" cy="10.2504" rx="10.2522" ry="10.2504" transform="matrix(0.69629 0.71776 -0.712163 0.702014 281.67 211.174)" fill="#D792F8"/>
<ellipse cx="13.7356" cy="13.7379" rx="13.7356" ry="13.7379" transform="matrix(-0.711702 -0.702482 0.696761 -0.717303 54.2559 129.998)" fill="#9D96F1"/>
<ellipse cx="10.2504" cy="10.2522" rx="10.2504" ry="10.2522" transform="matrix(-0.711702 -0.702482 0.696761 -0.717303 222.105 264.588)" fill="#D792F8"/>
<ellipse cx="13.7435" cy="13.7299" rx="13.7435" ry="13.7299" transform="matrix(-0.659008 0.752136 -0.746876 -0.664964 130.064 134.305)" fill="#9D96F1"/>
<ellipse cx="10.2564" cy="10.2462" rx="10.2564" ry="10.2462" transform="matrix(-0.659008 0.752136 -0.746876 -0.664964 278.68 267.803)" fill="#D792F8"/>
<ellipse cx="13.7465" cy="13.7269" rx="13.7465" ry="13.7269" transform="matrix(0.637903 -0.770117 0.765066 0.643951 1.75781 70.8047)" fill="#EDF399"/>
<ellipse cx="10.2586" cy="10.244" rx="10.2586" ry="10.244" transform="matrix(0.637903 -0.770117 0.765066 0.643951 182.93 220.414)" fill="#D792F8"/>
<ellipse cx="13.738" cy="13.7355" rx="13.738" ry="13.7355" transform="matrix(0.69629 0.71776 -0.712163 0.702014 123.145 0)" fill="#9D96F1"/>
<ellipse cx="10.2522" cy="10.2504" rx="10.2522" ry="10.2504" transform="matrix(0.69629 0.71776 -0.712163 0.702014 273.514 167.574)" fill="#EDF399"/>
<ellipse cx="13.7356" cy="13.7379" rx="13.7356" ry="13.7379" transform="matrix(-0.711702 -0.702482 0.696761 -0.717303 66.4355 188.17)" fill="#9D96F1"/>
<ellipse cx="10.2504" cy="10.2522" rx="10.2504" ry="10.2522" transform="matrix(-0.711702 -0.702482 0.696761 -0.717303 231.197 308)" fill="#EDF399"/>
<ellipse cx="13.7435" cy="13.7299" rx="13.7435" ry="13.7299" transform="matrix(-0.659008 0.752136 -0.746876 -0.664964 187.068 119.055)" fill="#EDF399"/>
<ellipse cx="10.2564" cy="10.2462" rx="10.2564" ry="10.2462" transform="matrix(-0.659008 0.752136 -0.746876 -0.664964 321.219 256.422)" fill="#D792F8"/>
<ellipse cx="13.7465" cy="13.7269" rx="13.7465" ry="13.7269" transform="matrix(0.637903 -0.770117 0.765066 0.643951 323 23.5352)" fill="#D792F8"/>
<ellipse cx="10.2586" cy="10.244" rx="10.2586" ry="10.244" transform="matrix(0.637903 -0.770117 0.765066 0.643951 504.617 185.139)" fill="#9D96F1"/>
<ellipse cx="13.738" cy="13.7355" rx="13.738" ry="13.7355" transform="matrix(0.69629 0.71776 -0.712163 0.702014 492.975 2.99609)" fill="#D792F8"/>
<ellipse cx="10.2522" cy="10.2504" rx="10.2522" ry="10.2504" transform="matrix(0.69629 0.71776 -0.712163 0.702014 631.465 169.811)" fill="#9D96F1"/>
<ellipse cx="13.7465" cy="13.7269" rx="13.7465" ry="13.7269" transform="matrix(0.637903 -0.770117 0.765066 0.643951 368.721 21.7656)" fill="#EDF399"/>
<ellipse cx="10.2586" cy="10.244" rx="10.2586" ry="10.244" transform="matrix(0.637903 -0.770117 0.765066 0.643951 538.738 183.816)" fill="#EDF399"/>
<ellipse cx="13.7356" cy="13.7379" rx="13.7356" ry="13.7379" transform="matrix(-0.711702 -0.702482 0.696761 -0.717303 342.553 186.199)" fill="#D792F8"/>
<ellipse cx="10.2504" cy="10.2522" rx="10.2504" ry="10.2522" transform="matrix(-0.711702 -0.702482 0.696761 -0.717303 519.207 307.109)" fill="#9D96F1"/>
<ellipse cx="13.7435" cy="13.7299" rx="13.7435" ry="13.7299" transform="matrix(-0.659008 0.752136 -0.746876 -0.664964 510.523 166.26)" fill="#D792F8"/>
<ellipse cx="10.2564" cy="10.2462" rx="10.2564" ry="10.2462" transform="matrix(-0.659008 0.752136 -0.746876 -0.664964 644.559 291.719)" fill="#9D96F1"/>
<ellipse cx="13.738" cy="13.7355" rx="13.738" ry="13.7355" transform="matrix(0.69629 0.71776 -0.712163 0.702014 490.121 49.0273)" fill="#D792F8"/>
<ellipse cx="10.2522" cy="10.2504" rx="10.2522" ry="10.2504" transform="matrix(0.69629 0.71776 -0.712163 0.702014 629.336 204.162)" fill="#EDF399"/>
<ellipse cx="13.7356" cy="13.7379" rx="13.7356" ry="13.7379" transform="matrix(-0.711702 -0.702482 0.696761 -0.717303 344.416 140.115)" fill="#D792F8"/>
<ellipse cx="10.2504" cy="10.2522" rx="10.2504" ry="10.2522" transform="matrix(-0.711702 -0.702482 0.696761 -0.717303 520.596 272.139)" fill="#EDF399"/>
<ellipse cx="13.7435" cy="13.7299" rx="13.7435" ry="13.7299" transform="matrix(-0.659008 0.752136 -0.746876 -0.664964 464.773 166.848)" fill="#EDF399"/>
<ellipse cx="10.2564" cy="10.2462" rx="10.2564" ry="10.2462" transform="matrix(-0.659008 0.752136 -0.746876 -0.664964 610.418 292.086)" fill="#EDF399"/>
<ellipse cx="13.7465" cy="13.7269" rx="13.7465" ry="13.7269" transform="matrix(0.637903 -0.770117 0.765066 0.643951 347.621 46.875)" fill="#D792F8"/>
<ellipse cx="10.2586" cy="10.244" rx="10.2586" ry="10.244" transform="matrix(0.637903 -0.770117 0.765066 0.643951 522.988 202.557)" fill="#EDF399"/>
<ellipse cx="13.738" cy="13.7355" rx="13.738" ry="13.7355" transform="matrix(0.69629 0.71776 -0.712163 0.702014 467.459 25.3359)" fill="#D792F8"/>
<ellipse cx="10.2522" cy="10.2504" rx="10.2522" ry="10.2504" transform="matrix(0.69629 0.71776 -0.712163 0.702014 612.424 186.482)" fill="#EDF399"/>
<ellipse cx="13.7356" cy="13.7379" rx="13.7356" ry="13.7379" transform="matrix(-0.711702 -0.702482 0.696761 -0.717303 367.578 163.307)" fill="#D792F8"/>
<ellipse cx="10.2504" cy="10.2522" rx="10.2504" ry="10.2522" transform="matrix(-0.711702 -0.702482 0.696761 -0.717303 537.885 289.445)" fill="#EDF399"/>
<ellipse cx="13.7435" cy="13.7299" rx="13.7435" ry="13.7299" transform="matrix(-0.659008 0.752136 -0.746876 -0.664964 486.559 142.336)" fill="#D792F8"/>
<ellipse cx="10.2564" cy="10.2462" rx="10.2564" ry="10.2462" transform="matrix(-0.659008 0.752136 -0.746876 -0.664964 626.674 273.795)" fill="#EDF399"/>
<ellipse cx="13.7465" cy="13.7269" rx="13.7465" ry="13.7269" transform="matrix(0.637903 -0.770117 0.765066 0.643951 358.463 79.668)" fill="#EDF399"/>
<ellipse cx="10.2586" cy="10.244" rx="10.2586" ry="10.244" transform="matrix(0.637903 -0.770117 0.765066 0.643951 531.082 227.027)" fill="#9D96F1"/>
<ellipse cx="13.738" cy="13.7355" rx="13.738" ry="13.7355" transform="matrix(0.69629 0.71776 -0.712163 0.702014 434.004 32.9102)" fill="#EDF399"/>
<ellipse cx="10.2522" cy="10.2504" rx="10.2522" ry="10.2504" transform="matrix(0.69629 0.71776 -0.712163 0.702014 587.455 192.133)" fill="#EDF399"/>
<ellipse cx="13.7356" cy="13.7379" rx="13.7356" ry="13.7379" transform="matrix(-0.711702 -0.702482 0.696761 -0.717303 400.867 155.004)" fill="#EDF399"/>
<ellipse cx="10.2504" cy="10.2522" rx="10.2504" ry="10.2522" transform="matrix(-0.711702 -0.702482 0.696761 -0.717303 562.725 283.248)" fill="#EDF399"/>
<ellipse cx="13.7435" cy="13.7299" rx="13.7435" ry="13.7299" transform="matrix(-0.659008 0.752136 -0.746876 -0.664964 476.623 109.252)" fill="#EDF399"/>
<ellipse cx="10.2564" cy="10.2462" rx="10.2564" ry="10.2462" transform="matrix(-0.659008 0.752136 -0.746876 -0.664964 619.26 249.105)" fill="#9D96F1"/>
<ellipse cx="13.7465" cy="13.7269" rx="13.7465" ry="13.7269" transform="matrix(0.637903 -0.770117 0.765066 0.643951 381.32 53.9648)" fill="#EDF399"/>
<ellipse cx="10.2586" cy="10.244" rx="10.2586" ry="10.244" transform="matrix(0.637903 -0.770117 0.765066 0.643951 548.141 207.848)" fill="#EDF399"/>
<ellipse cx="13.738" cy="13.7355" rx="13.738" ry="13.7355" transform="matrix(0.69629 0.71776 -0.712163 0.702014 457.072 58.4238)" fill="#EDF399"/>
<ellipse cx="10.2522" cy="10.2504" rx="10.2522" ry="10.2504" transform="matrix(0.69629 0.71776 -0.712163 0.702014 604.67 211.174)" fill="#9D96F1"/>
<ellipse cx="13.7356" cy="13.7379" rx="13.7356" ry="13.7379" transform="matrix(-0.711702 -0.702482 0.696761 -0.717303 377.256 129.998)" fill="#EDF399"/>
<ellipse cx="10.2504" cy="10.2522" rx="10.2504" ry="10.2522" transform="matrix(-0.711702 -0.702482 0.696761 -0.717303 545.105 264.588)" fill="#9D96F1"/>
<ellipse cx="13.7435" cy="13.7299" rx="13.7435" ry="13.7299" transform="matrix(-0.659008 0.752136 -0.746876 -0.664964 453.064 134.305)" fill="#EDF399"/>
<ellipse cx="10.2564" cy="10.2462" rx="10.2564" ry="10.2462" transform="matrix(-0.659008 0.752136 -0.746876 -0.664964 601.68 267.803)" fill="#EDF399"/>
<ellipse cx="13.7465" cy="13.7269" rx="13.7465" ry="13.7269" transform="matrix(0.637903 -0.770117 0.765066 0.643951 324.758 70.8047)" fill="#D792F8"/>
<ellipse cx="10.2586" cy="10.244" rx="10.2586" ry="10.244" transform="matrix(0.637903 -0.770117 0.765066 0.643951 505.93 220.414)" fill="#EDF399"/>
<ellipse cx="13.738" cy="13.7355" rx="13.738" ry="13.7355" transform="matrix(0.69629 0.71776 -0.712163 0.702014 446.145 0)" fill="#EDF399"/>
<ellipse cx="10.2522" cy="10.2504" rx="10.2522" ry="10.2504" transform="matrix(0.69629 0.71776 -0.712163 0.702014 596.514 167.574)" fill="#EDF399"/>
<ellipse cx="13.7356" cy="13.7379" rx="13.7356" ry="13.7379" transform="matrix(-0.711702 -0.702482 0.696761 -0.717303 389.436 188.17)" fill="#EDF399"/>
<ellipse cx="10.2504" cy="10.2522" rx="10.2504" ry="10.2522" transform="matrix(-0.711702 -0.702482 0.696761 -0.717303 554.197 308)" fill="#EDF399"/>
<ellipse cx="13.7435" cy="13.7299" rx="13.7435" ry="13.7299" transform="matrix(-0.659008 0.752136 -0.746876 -0.664964 510.068 119.055)" fill="#D792F8"/>
<ellipse cx="10.2564" cy="10.2462" rx="10.2564" ry="10.2462" transform="matrix(-0.659008 0.752136 -0.746876 -0.664964 644.219 256.422)" fill="#EDF399"/>
</svg>
