<svg width="1414" height="63" viewBox="0 0 1414 63" fill="none" xmlns="http://www.w3.org/2000/svg">
<path d="M12.1022 39.9439C18.1459 39.3348 22.5524 33.9419 21.9438 27.8982C21.3353 21.8538 15.942 17.4477 9.89776 18.0561C3.85348 18.6652 -0.552386 24.0581 0.0561696 30.1018C0.664725 36.1462 6.05796 40.5523 12.1022 39.9439Z" fill="white"/>
<path d="M88.1022 39.9439C94.1459 39.3348 98.5524 33.9419 97.9438 27.8982C97.3353 21.8538 91.942 17.4477 85.8978 18.0561C79.8535 18.6652 75.4476 24.0581 76.0562 30.1018C76.6647 36.1462 82.058 40.5523 88.1022 39.9439Z" fill="white"/>
<path d="M30.1016 25.9439C36.1459 25.3348 40.5524 19.9419 39.9438 13.8976C39.3353 7.8538 33.942 3.44771 27.8978 4.05615C21.8535 4.66458 17.4476 10.0581 18.0562 16.1018C18.6647 22.1462 24.058 26.5523 30.1016 25.9439Z" fill="white"/>
<path d="M106.102 25.9439C112.146 25.3348 116.552 19.9419 115.944 13.8976C115.335 7.8538 109.942 3.44771 103.898 4.05615C97.8535 4.66458 93.4476 10.0581 94.0562 16.1018C94.6647 22.1462 100.058 26.5523 106.102 25.9439Z" fill="white"/>
<path d="M49.0602 38.942C55.1062 38.3382 59.5334 33.1735 58.948 27.4069C58.3627 21.6396 52.9859 17.4541 46.9399 18.0579C40.8934 18.6623 36.4661 23.827 37.0521 29.5936C37.6374 35.3609 43.0136 39.5464 49.0602 38.942Z" fill="white"/>
<path d="M125.06 38.942C131.106 38.3382 135.533 33.1735 134.948 27.4069C134.363 21.6396 128.986 17.4541 122.94 18.0579C116.893 18.6623 112.466 23.827 113.052 29.5936C113.637 35.3609 119.014 39.5464 125.06 38.942Z" fill="white"/>
<path d="M19.1022 60.9439C25.1465 60.3348 29.5524 54.9419 28.9438 48.8982C28.3353 42.8538 22.942 38.4477 16.8984 39.0561C10.8541 39.6652 6.44761 45.0581 7.05616 51.1018C7.66472 57.1462 13.058 61.5523 19.1022 60.9439Z" fill="white"/>
<path d="M95.1022 60.9439C101.147 60.3348 105.552 54.9419 104.944 48.8982C104.335 42.8538 98.942 38.4477 92.8984 39.0561C86.8541 39.6652 82.4476 45.0581 83.0562 51.1018C83.6647 57.1462 89.058 61.5523 95.1022 60.9439Z" fill="white"/>
<path d="M42.1022 59.9463C48.1459 59.3655 52.5524 54.2177 51.9438 48.4479C51.3353 42.6788 45.942 38.4723 39.8978 39.0537C33.8541 39.6345 29.4476 44.7823 30.0562 50.5521C30.6647 56.3212 36.058 60.5277 42.1022 59.9463Z" fill="white"/>
<path d="M118.102 59.9463C124.146 59.3655 128.552 54.2177 127.944 48.4479C127.335 42.6788 121.942 38.4723 115.898 39.0537C109.854 39.6345 105.448 44.7823 106.056 50.5521C106.665 56.3212 112.058 60.5277 118.102 59.9463Z" fill="white"/>
<path d="M160.102 38.9439C166.146 38.3348 170.552 32.9419 169.944 26.8982C169.335 20.8538 163.942 16.4477 157.898 17.0561C151.853 17.6652 147.448 23.0581 148.056 29.1018C148.665 35.1462 154.058 39.5523 160.102 38.9439Z" fill="#FEEC88"/>
<path d="M231.102 38.9439C237.146 38.3348 241.552 32.9419 240.944 26.8982C240.335 20.8538 234.942 16.4477 228.898 17.0561C222.853 17.6652 218.448 23.0581 219.056 29.1018C219.665 35.1462 225.058 39.5523 231.102 38.9439Z" fill="#FEEC88"/>
<path d="M302.102 38.9439C308.146 38.3348 312.552 32.9419 311.944 26.8982C311.335 20.8538 305.942 16.4477 299.898 17.0561C293.853 17.6652 289.448 23.0581 290.056 29.1018C290.665 35.1462 296.058 39.5523 302.102 38.9439Z" fill="white"/>
<path d="M178.102 24.9439C184.146 24.3348 188.552 18.9419 187.944 12.8976C187.335 6.8538 181.942 2.44771 175.898 3.05615C169.853 3.66458 165.448 9.05807 166.056 15.1018C166.665 21.1462 172.058 25.5523 178.102 24.9439Z" fill="#FEEC88"/>
<path d="M249.102 24.9439C255.146 24.3348 259.552 18.9419 258.944 12.8976C258.335 6.8538 252.942 2.44771 246.898 3.05615C240.853 3.66458 236.448 9.05807 237.056 15.1018C237.665 21.1462 243.058 25.5523 249.102 24.9439Z" fill="#FEEC88"/>
<path d="M320.102 24.9439C326.146 24.3348 330.552 18.9419 329.944 12.8976C329.335 6.8538 323.942 2.44771 317.898 3.05615C311.853 3.66458 307.448 9.05807 308.056 15.1018C308.665 21.1462 314.058 25.5523 320.102 24.9439Z" fill="white"/>
<path d="M197.06 37.942C203.106 37.3382 207.533 32.1735 206.948 26.4069C206.363 20.6396 200.986 16.4541 194.94 17.0579C188.893 17.6623 184.466 22.827 185.052 28.5936C185.637 34.3609 191.014 38.5464 197.06 37.942Z" fill="#FEEC88"/>
<path d="M268.06 37.942C274.106 37.3382 278.533 32.1735 277.948 26.4069C277.363 20.6396 271.986 16.4541 265.94 17.0579C259.893 17.6623 255.466 22.827 256.052 28.5936C256.637 34.3609 262.014 38.5464 268.06 37.942Z" fill="#FEEC88"/>
<path d="M339.06 37.942C345.106 37.3382 349.533 32.1735 348.948 26.4069C348.363 20.6396 342.986 16.4541 336.94 17.0579C330.893 17.6623 326.466 22.827 327.052 28.5936C327.637 34.3609 333.014 38.5464 339.06 37.942Z" fill="white"/>
<path d="M167.102 59.9439C173.147 59.3348 177.552 53.9419 176.944 47.8982C176.335 41.8538 170.942 37.4477 164.898 38.0561C158.854 38.6652 154.448 44.0581 155.056 50.1018C155.665 56.1462 161.058 60.5523 167.102 59.9439Z" fill="#FEEC88"/>
<path d="M238.102 59.9439C244.147 59.3348 248.552 53.9419 247.944 47.8982C247.335 41.8538 241.942 37.4477 235.898 38.0561C229.854 38.6652 225.448 44.0581 226.056 50.1018C226.665 56.1462 232.058 60.5523 238.102 59.9439Z" fill="#FEEC88"/>
<path d="M309.102 59.9439C315.147 59.3348 319.552 53.9419 318.944 47.8982C318.335 41.8538 312.942 37.4477 306.898 38.0561C300.854 38.6652 296.448 44.0581 297.056 50.1018C297.665 56.1462 303.058 60.5523 309.102 59.9439Z" fill="white"/>
<path d="M190.102 58.9463C196.146 58.3655 200.552 53.2177 199.944 47.4479C199.335 41.6788 193.942 37.4723 187.898 38.0537C181.854 38.6345 177.448 43.7823 178.056 49.5521C178.665 55.3212 184.058 59.5277 190.102 58.9463Z" fill="#FEEC88"/>
<path d="M261.102 58.9463C267.146 58.3655 271.552 53.2177 270.944 47.4479C270.335 41.6788 264.942 37.4723 258.898 38.0537C252.854 38.6345 248.448 43.7823 249.056 49.5521C249.665 55.3212 255.058 59.5277 261.102 58.9463Z" fill="#FEEC88"/>
<path d="M332.102 58.9463C338.146 58.3655 342.552 53.2177 341.944 47.4479C341.335 41.6788 335.942 37.4723 329.898 38.0537C323.854 38.6345 319.448 43.7823 320.056 49.5521C320.665 55.3212 326.058 59.5277 332.102 58.9463Z" fill="white"/>
<path d="M374.102 37.9439C380.146 37.3348 384.552 31.9419 383.944 25.8982C383.335 19.8538 377.942 15.4477 371.898 16.0561C365.853 16.6652 361.448 22.0581 362.056 28.1018C362.665 34.1462 368.058 38.5523 374.102 37.9439Z" fill="white"/>
<path d="M445.102 37.9439C451.146 37.3348 455.552 31.9419 454.944 25.8982C454.335 19.8538 448.942 15.4477 442.898 16.0561C436.853 16.6652 432.448 22.0581 433.056 28.1018C433.665 34.1462 439.058 38.5523 445.102 37.9439Z" fill="white"/>
<path d="M516.102 37.9439C522.146 37.3348 526.552 31.9419 525.944 25.8982C525.335 19.8538 519.942 15.4477 513.898 16.0561C507.853 16.6652 503.448 22.0581 504.056 28.1018C504.665 34.1462 510.058 38.5523 516.102 37.9439Z" fill="#EDF399"/>
<path d="M392.102 23.9439C398.146 23.3348 402.552 17.9419 401.944 11.8976C401.335 5.8538 395.942 1.44771 389.898 2.05615C383.853 2.66458 379.448 8.05807 380.056 14.1018C380.665 20.1462 386.058 24.5523 392.102 23.9439Z" fill="white"/>
<path d="M463.102 23.9439C469.146 23.3348 473.552 17.9419 472.944 11.8976C472.335 5.8538 466.942 1.44771 460.898 2.05615C454.853 2.66458 450.448 8.05807 451.056 14.1018C451.665 20.1462 457.058 24.5523 463.102 23.9439Z" fill="white"/>
<path d="M534.102 23.9439C540.146 23.3348 544.552 17.9419 543.944 11.8976C543.335 5.8538 537.942 1.44771 531.898 2.05615C525.853 2.66458 521.448 8.05807 522.056 14.1018C522.665 20.1462 528.058 24.5523 534.102 23.9439Z" fill="#EDF399"/>
<path d="M411.06 36.942C417.106 36.3382 421.533 31.1735 420.948 25.4069C420.363 19.6396 414.986 15.4541 408.94 16.0579C402.893 16.6623 398.466 21.827 399.052 27.5936C399.637 33.3609 405.014 37.5464 411.06 36.942Z" fill="white"/>
<path d="M482.06 36.942C488.106 36.3382 492.533 31.1735 491.948 25.4069C491.363 19.6396 485.986 15.4541 479.94 16.0579C473.893 16.6623 469.466 21.827 470.052 27.5936C470.637 33.3609 476.014 37.5464 482.06 36.942Z" fill="white"/>
<path d="M553.06 36.942C559.106 36.3382 563.533 31.1735 562.948 25.4069C562.363 19.6396 556.986 15.4541 550.94 16.0579C544.893 16.6623 540.466 21.827 541.052 27.5936C541.637 33.3609 547.014 37.5464 553.06 36.942Z" fill="#EDF399"/>
<path d="M381.102 58.9439C387.147 58.3348 391.552 52.9419 390.944 46.8982C390.335 40.8538 384.942 36.4477 378.898 37.0561C372.854 37.6652 368.448 43.0581 369.056 49.1018C369.665 55.1462 375.058 59.5523 381.102 58.9439Z" fill="white"/>
<path d="M452.102 58.9439C458.147 58.3348 462.552 52.9419 461.944 46.8982C461.335 40.8538 455.942 36.4477 449.898 37.0561C443.854 37.6652 439.448 43.0581 440.056 49.1018C440.665 55.1462 446.058 59.5523 452.102 58.9439Z" fill="white"/>
<path d="M523.102 58.9439C529.147 58.3348 533.552 52.9419 532.944 46.8982C532.335 40.8538 526.942 36.4477 520.898 37.0561C514.854 37.6652 510.448 43.0581 511.056 49.1018C511.665 55.1462 517.058 59.5523 523.102 58.9439Z" fill="#EDF399"/>
<path d="M404.102 57.9463C410.146 57.3655 414.552 52.2177 413.944 46.4479C413.335 40.6788 407.942 36.4723 401.898 37.0537C395.854 37.6345 391.448 42.7823 392.056 48.5521C392.665 54.3212 398.058 58.5277 404.102 57.9463Z" fill="white"/>
<path d="M475.102 57.9463C481.146 57.3655 485.552 52.2177 484.944 46.4479C484.335 40.6788 478.942 36.4723 472.898 37.0537C466.854 37.6345 462.448 42.7823 463.056 48.5521C463.665 54.3212 469.058 58.5277 475.102 57.9463Z" fill="white"/>
<path d="M546.102 57.9463C552.146 57.3655 556.552 52.2177 555.944 46.4479C555.335 40.6788 549.942 36.4723 543.898 37.0537C537.854 37.6345 533.448 42.7823 534.056 48.5521C534.665 54.3212 540.058 58.5277 546.102 57.9463Z" fill="#EDF399"/>
<path d="M588.102 36.9439C594.146 36.3348 598.552 30.9419 597.944 24.8982C597.335 18.8538 591.942 14.4477 585.898 15.0561C579.853 15.6652 575.448 21.0581 576.056 27.1018C576.665 33.1462 582.058 37.5523 588.102 36.9439Z" fill="white"/>
<path d="M659.102 36.9439C665.146 36.3348 669.552 30.9419 668.944 24.8982C668.335 18.8538 662.942 14.4477 656.898 15.0561C650.853 15.6652 646.448 21.0581 647.056 27.1018C647.665 33.1462 653.058 37.5523 659.102 36.9439Z" fill="white"/>
<path d="M730.102 36.9439C736.146 36.3348 740.552 30.9419 739.944 24.8982C739.335 18.8538 733.942 14.4477 727.898 15.0561C721.853 15.6652 717.448 21.0581 718.056 27.1018C718.665 33.1462 724.058 37.5523 730.102 36.9439Z" fill="white"/>
<path d="M606.102 22.9439C612.146 22.3348 616.552 16.9419 615.944 10.8976C615.335 4.8538 609.942 0.44771 603.898 1.05615C597.853 1.66458 593.448 7.05807 594.056 13.1018C594.665 19.1462 600.058 23.5523 606.102 22.9439Z" fill="white"/>
<path d="M677.102 22.9439C683.146 22.3348 687.552 16.9419 686.944 10.8976C686.335 4.8538 680.942 0.44771 674.898 1.05615C668.853 1.66458 664.448 7.05807 665.056 13.1018C665.665 19.1462 671.058 23.5523 677.102 22.9439Z" fill="white"/>
<path d="M748.102 22.9439C754.146 22.3348 758.552 16.9419 757.944 10.8976C757.335 4.8538 751.942 0.44771 745.898 1.05615C739.853 1.66458 735.448 7.05807 736.056 13.1018C736.665 19.1462 742.058 23.5523 748.102 22.9439Z" fill="white"/>
<path d="M625.06 35.942C631.106 35.3382 635.533 30.1735 634.948 24.4069C634.363 18.6396 628.986 14.4541 622.94 15.0579C616.893 15.6623 612.466 20.827 613.052 26.5936C613.637 32.3609 619.014 36.5464 625.06 35.942Z" fill="white"/>
<path d="M696.06 35.942C702.106 35.3382 706.533 30.1735 705.948 24.4069C705.363 18.6396 699.986 14.4541 693.94 15.0579C687.893 15.6623 683.466 20.827 684.052 26.5936C684.637 32.3609 690.014 36.5464 696.06 35.942Z" fill="white"/>
<path d="M767.06 35.942C773.106 35.3382 777.533 30.1735 776.948 24.4069C776.363 18.6396 770.986 14.4541 764.94 15.0579C758.893 15.6623 754.466 20.827 755.052 26.5936C755.637 32.3609 761.014 36.5464 767.06 35.942Z" fill="white"/>
<path d="M595.102 57.9439C601.147 57.3348 605.552 51.9419 604.944 45.8982C604.335 39.8538 598.942 35.4477 592.898 36.0561C586.854 36.6652 582.448 42.0581 583.056 48.1018C583.665 54.1462 589.058 58.5523 595.102 57.9439Z" fill="white"/>
<path d="M666.102 57.9439C672.147 57.3348 676.552 51.9419 675.944 45.8982C675.335 39.8538 669.942 35.4477 663.898 36.0561C657.854 36.6652 653.448 42.0581 654.056 48.1018C654.665 54.1462 660.058 58.5523 666.102 57.9439Z" fill="white"/>
<path d="M737.102 57.9439C743.147 57.3348 747.552 51.9419 746.944 45.8982C746.335 39.8538 740.942 35.4477 734.898 36.0561C728.854 36.6652 724.448 42.0581 725.056 48.1018C725.665 54.1462 731.058 58.5523 737.102 57.9439Z" fill="white"/>
<path d="M618.102 56.9463C624.146 56.3655 628.552 51.2177 627.944 45.4479C627.335 39.6788 621.942 35.4723 615.898 36.0537C609.854 36.6345 605.448 41.7823 606.056 47.5521C606.665 53.3212 612.058 57.5277 618.102 56.9463Z" fill="white"/>
<path d="M689.102 56.9463C695.146 56.3655 699.552 51.2177 698.944 45.4479C698.335 39.6788 692.942 35.4723 686.898 36.0537C680.854 36.6345 676.448 41.7823 677.056 47.5521C677.665 53.3212 683.058 57.5277 689.102 56.9463Z" fill="white"/>
<path d="M760.102 56.9463C766.146 56.3655 770.552 51.2177 769.944 45.4479C769.335 39.6788 763.942 35.4723 757.898 36.0537C751.854 36.6345 747.448 41.7823 748.056 47.5521C748.665 53.3212 754.058 57.5277 760.102 56.9463Z" fill="white"/>
<path d="M802.238 38.0221C808.286 37.4524 812.727 32.0884 812.158 26.0408C811.589 19.9926 806.225 15.5515 800.176 16.1206C794.128 16.6903 789.687 22.0543 790.257 28.1019C790.826 34.1501 796.19 38.5912 802.238 38.0221Z" fill="white"/>
<path d="M873.238 38.4831C879.286 37.9134 883.727 32.5493 883.158 26.5017C882.589 20.4535 877.225 16.0124 871.176 16.5815C865.128 17.1512 860.687 22.5153 861.257 28.5629C861.826 34.6111 867.19 39.0522 873.238 38.4831Z" fill="white"/>
<path d="M944.237 38.946C950.284 38.3763 954.726 33.0122 954.156 26.9646C953.587 20.9164 948.223 16.4753 942.175 17.0444C936.126 17.6141 931.686 22.9782 932.255 29.0258C932.824 35.074 938.188 39.5151 944.237 38.946Z" fill="white"/>
<path d="M820.33 24.1393C826.378 23.5696 830.819 18.2055 830.25 12.1573C829.681 6.10975 824.316 1.66866 818.268 2.23775C812.22 2.80683 807.779 8.17153 808.349 14.2191C808.918 20.2673 814.282 24.7084 820.33 24.1393Z" fill="white"/>
<path d="M891.328 24.6022C897.376 24.0325 901.817 18.6684 901.248 12.6202C900.679 6.57264 895.314 2.13155 889.266 2.70064C883.218 3.26972 878.777 8.63442 879.347 14.682C879.916 20.7302 885.28 25.1713 891.328 24.6022Z" fill="white"/>
<path d="M962.326 25.0632C968.374 24.4935 972.815 19.1294 972.246 13.0812C971.677 7.03358 966.312 2.59249 960.264 3.16157C954.216 3.73066 949.775 9.09536 950.345 15.143C950.914 21.1912 956.278 25.6323 962.326 25.0632Z" fill="white"/>
<path d="M839.203 37.2602C845.253 36.6958 849.713 31.5601 849.166 25.7897C848.618 20.0188 843.268 15.7984 837.219 16.3628C831.168 16.9279 826.707 22.0636 827.256 27.834C827.804 33.6049 833.153 37.8253 839.203 37.2602Z" fill="white"/>
<path d="M910.201 37.7231C916.251 37.1587 920.712 32.023 920.164 26.2526C919.616 20.4817 914.266 16.2613 908.217 16.8257C902.166 17.3907 897.706 22.5265 898.254 28.2968C898.802 34.0678 904.151 38.2882 910.201 37.7231Z" fill="white"/>
<path d="M981.199 38.1841C987.249 37.6197 991.71 32.4839 991.162 26.7136C990.614 20.9426 985.264 16.7223 979.215 17.2867C973.164 17.8517 968.704 22.9875 969.252 28.7578C969.8 34.5287 975.149 38.7491 981.199 38.1841Z" fill="white"/>
<path d="M809.102 59.0671C815.15 58.4974 819.591 53.1333 819.022 47.0857C818.452 41.0375 813.088 36.5964 807.04 37.1655C800.992 37.7352 796.551 43.0993 797.12 49.1469C797.689 55.1951 803.054 59.6362 809.102 59.0671Z" fill="white"/>
<path d="M880.102 59.53C886.15 58.9603 890.591 53.5962 890.022 47.5486C889.452 41.5004 884.088 37.0593 878.04 37.6284C871.992 38.1981 867.551 43.5622 868.12 49.6098C868.689 55.658 874.054 60.099 880.102 59.53Z" fill="white"/>
<path d="M951.1 59.9909C957.148 59.4212 961.589 54.0571 961.02 48.0095C960.45 41.9613 955.086 37.5202 949.038 38.0893C942.99 38.659 938.549 44.0231 939.118 50.0707C939.687 56.1189 945.052 60.56 951.1 59.9909Z" fill="white"/>
<path d="M832.108 58.2199C838.156 57.6785 842.595 52.5594 842.024 46.7859C841.453 41.0129 836.088 36.7714 830.04 37.3134C823.992 37.8549 819.553 42.9739 820.124 48.7475C820.695 54.5205 826.06 58.762 832.108 58.2199Z" fill="white"/>
<path d="M903.106 58.6809C909.154 58.1394 913.594 53.0204 913.023 47.2468C912.452 41.4738 907.086 37.2323 901.038 37.7744C894.991 38.3158 890.551 43.4349 891.122 49.2084C891.693 54.9814 897.058 59.2229 903.106 58.6809Z" fill="white"/>
<path d="M974.106 59.1438C980.154 58.6023 984.594 53.4833 984.023 47.7097C983.452 41.9367 978.086 37.6952 972.038 38.2372C965.991 38.7787 961.551 43.8977 962.122 49.6713C962.693 55.4443 968.058 59.6858 974.106 59.1438Z" fill="white"/>
<path d="M1016.24 38.4147C1022.29 37.845 1026.73 32.4809 1026.16 26.4333C1025.59 20.3851 1020.23 15.944 1014.18 16.5131C1008.13 17.0828 1003.69 22.4469 1004.26 28.4945C1004.83 34.5427 1010.19 38.9838 1016.24 38.4147Z" fill="#FEEC88"/>
<path d="M1087.24 38.8757C1093.29 38.306 1097.73 32.9419 1097.16 26.8943C1096.59 20.8461 1091.23 16.405 1085.18 16.9741C1079.13 17.5438 1074.69 22.9079 1075.26 28.9555C1075.83 35.0037 1081.19 39.4448 1087.24 38.8757Z" fill="#FEEC88"/>
<path d="M1158.24 39.3386C1164.29 38.7688 1168.73 33.4048 1168.16 27.3572C1167.59 21.309 1162.22 16.8679 1156.18 17.437C1150.13 18.0067 1145.69 23.3708 1146.26 29.4183C1146.83 35.4666 1152.19 39.9076 1158.24 39.3386Z" fill="#FEEC88"/>
<path d="M1034.33 24.5319C1040.38 23.9622 1044.82 18.5981 1044.25 12.5499C1043.68 6.50233 1038.32 2.06124 1032.27 2.63032C1026.22 3.19941 1021.78 8.56411 1022.35 14.6117C1022.92 20.6599 1028.28 25.101 1034.33 24.5319Z" fill="#FEEC88"/>
<path d="M1105.33 24.9948C1111.38 24.4251 1115.82 19.061 1115.25 13.0128C1114.68 6.96522 1109.32 2.52413 1103.27 3.09321C1097.22 3.6623 1092.78 9.027 1093.35 15.0746C1093.92 21.1228 1099.28 25.5639 1105.33 24.9948Z" fill="#FEEC88"/>
<path d="M1176.33 25.4557C1182.38 24.886 1186.82 19.522 1186.25 13.4737C1185.68 7.42616 1180.31 2.98506 1174.27 3.55415C1168.22 4.12324 1163.78 9.48794 1164.35 15.5355C1164.92 21.5837 1170.28 26.0248 1176.33 25.4557Z" fill="#FEEC88"/>
<path d="M1053.2 37.6528C1059.25 37.0884 1063.72 31.9526 1063.17 26.1823C1062.62 20.4114 1057.27 16.191 1051.22 16.7554C1045.17 17.3204 1040.71 22.4562 1041.26 28.2265C1041.81 33.9975 1047.15 38.2178 1053.2 37.6528Z" fill="#FEEC88"/>
<path d="M1124.2 38.1157C1130.25 37.5513 1134.71 32.4155 1134.17 26.6452C1133.62 20.8743 1128.27 16.6539 1122.22 17.2183C1116.17 17.7833 1111.71 22.9191 1112.26 28.6894C1112.8 34.4604 1118.15 38.6807 1124.2 38.1157Z" fill="#FEEC88"/>
<path d="M1195.2 38.5767C1201.25 38.0122 1205.71 32.8765 1205.16 27.1061C1204.62 21.3352 1199.27 17.1148 1193.22 17.6792C1187.17 18.2443 1182.71 23.38 1183.25 29.1504C1183.8 34.9213 1189.15 39.1417 1195.2 38.5767Z" fill="#FEEC88"/>
<path d="M1023.1 59.4596C1029.15 58.8899 1033.59 53.5259 1033.02 47.4783C1032.45 41.4301 1027.09 36.989 1021.04 37.5581C1014.99 38.1278 1010.55 43.4918 1011.12 49.5394C1011.69 55.5876 1017.06 60.0287 1023.1 59.4596Z" fill="#FEEC88"/>
<path d="M1094.1 59.9225C1100.15 59.3528 1104.59 53.9887 1104.02 47.9412C1103.45 41.893 1098.09 37.4519 1092.04 38.021C1085.99 38.5907 1081.55 43.9547 1082.12 50.0023C1082.69 56.0505 1088.06 60.4916 1094.1 59.9225Z" fill="#FEEC88"/>
<path d="M1165.1 60.3835C1171.15 59.8138 1175.59 54.4497 1175.02 48.4021C1174.45 42.3539 1169.09 37.9128 1163.04 38.4819C1156.99 39.0516 1152.55 44.4157 1153.12 50.4633C1153.69 56.5115 1159.05 60.9526 1165.1 60.3835Z" fill="#FEEC88"/>
<path d="M1046.11 58.6125C1052.16 58.0711 1056.6 52.952 1056.03 47.1784C1055.46 41.4054 1050.09 37.164 1044.04 37.706C1037.99 38.2474 1033.55 43.3665 1034.13 49.1401C1034.7 54.9131 1040.06 59.1545 1046.11 58.6125Z" fill="#FEEC88"/>
<path d="M1117.11 59.0735C1123.16 58.532 1127.6 53.4129 1127.02 47.6394C1126.45 41.8664 1121.09 37.6249 1115.04 38.1669C1108.99 38.7084 1104.55 43.8274 1105.12 49.601C1105.69 55.374 1111.06 59.6155 1117.11 59.0735Z" fill="#FEEC88"/>
<path d="M1188.11 59.5363C1194.16 58.9949 1198.6 53.8758 1198.02 48.1023C1197.45 42.3293 1192.09 38.0878 1186.04 38.6298C1179.99 39.1713 1175.55 44.2903 1176.12 50.0639C1176.69 55.8369 1182.06 60.0784 1188.11 59.5363Z" fill="#FEEC88"/>
<path d="M1230.24 38.8073C1236.29 38.2376 1240.73 32.8735 1240.16 26.8259C1239.59 20.7777 1234.23 16.3366 1228.18 16.9057C1222.13 17.4754 1217.69 22.8395 1218.26 28.8871C1218.83 34.9353 1224.19 39.3764 1230.24 38.8073Z" fill="white"/>
<path d="M1301.24 39.2682C1307.29 38.6985 1311.73 33.3345 1311.16 27.2869C1310.59 21.2387 1305.23 16.7976 1299.18 17.3667C1293.13 17.9364 1288.69 23.3004 1289.26 29.348C1289.83 35.3962 1295.19 39.8373 1301.24 39.2682Z" fill="white"/>
<path d="M1248.33 24.9245C1254.38 24.3548 1258.82 18.9907 1258.25 12.9425C1257.68 6.89491 1252.32 2.45381 1246.27 3.0229C1240.22 3.59199 1235.78 8.95669 1236.35 15.0043C1236.92 21.0525 1242.28 25.4936 1248.33 24.9245Z" fill="white"/>
<path d="M1319.33 25.3874C1325.38 24.8177 1329.82 19.4536 1329.25 13.4054C1328.68 7.3578 1323.32 2.9167 1317.27 3.48579C1311.22 4.05488 1306.78 9.41958 1307.35 15.4672C1307.92 21.5154 1313.28 25.9565 1319.33 25.3874Z" fill="white"/>
<path d="M1267.2 38.0454C1273.25 37.481 1277.72 32.3452 1277.17 26.5749C1276.62 20.804 1271.27 16.5836 1265.22 17.148C1259.17 17.713 1254.71 22.8488 1255.26 28.6191C1255.81 34.39 1261.15 38.6104 1267.2 38.0454Z" fill="white"/>
<path d="M1338.2 38.5083C1344.25 37.9439 1348.71 32.8081 1348.17 27.0378C1347.62 21.2669 1342.27 17.0465 1336.22 17.6109C1330.17 18.1759 1325.71 23.3117 1326.26 29.082C1326.8 34.8529 1332.15 39.0733 1338.2 38.5083Z" fill="white"/>
<path d="M1237.1 59.8522C1243.15 59.2825 1247.59 53.9184 1247.02 47.8708C1246.45 41.8226 1241.09 37.3815 1235.04 37.9506C1228.99 38.5203 1224.55 43.8844 1225.12 49.932C1225.69 55.9802 1231.06 60.4213 1237.1 59.8522Z" fill="white"/>
<path d="M1308.1 60.3151C1314.15 59.7454 1318.59 54.3813 1318.02 48.3337C1317.45 42.2855 1312.09 37.8444 1306.04 38.4135C1299.99 38.9832 1295.55 44.3473 1296.12 50.3949C1296.69 56.4431 1302.06 60.8842 1308.1 60.3151Z" fill="white"/>
<path d="M1260.11 59.0051C1266.16 58.4636 1270.6 53.3446 1270.03 47.571C1269.46 41.798 1264.09 37.5565 1258.04 38.0986C1251.99 38.64 1247.55 43.7591 1248.13 49.5327C1248.7 55.3056 1254.06 59.5471 1260.11 59.0051Z" fill="white"/>
<path d="M1331.11 59.466C1337.16 58.9246 1341.6 53.8055 1341.02 48.0319C1340.45 42.259 1335.09 38.0175 1329.04 38.5595C1322.99 39.101 1318.55 44.22 1319.12 49.9936C1319.69 55.7666 1325.06 60.0081 1331.11 59.466Z" fill="white"/>
<path d="M1377.18 15.1028C1377.74 21.1508 1383.1 25.5978 1389.15 25.0347C1395.2 24.4717 1399.65 19.1118 1399.08 13.0631C1398.52 7.01438 1393.16 2.56805 1387.11 3.1311C1381.06 3.69415 1376.62 9.05407 1377.18 15.1028Z" fill="white"/>
<path d="M1391.04 33.2057C1391.61 39.2544 1396.97 43.7013 1403.02 43.1383C1409.06 42.5752 1413.51 37.2153 1412.95 31.1666C1412.38 25.1179 1407.02 20.6716 1400.98 21.2346C1394.93 21.7977 1390.48 27.1576 1391.04 33.2057Z" fill="white"/>
<path d="M1377.91 52.0663C1378.46 58.1166 1383.59 62.5826 1389.37 62.0407C1395.14 61.4987 1399.36 56.1536 1398.8 50.1033C1398.25 44.0523 1393.11 39.5863 1387.34 40.1289C1381.57 40.6708 1377.35 46.0153 1377.91 52.0663Z" fill="white"/>
<path d="M1356.13 21.9446C1356.69 27.9933 1362.05 32.4396 1368.1 31.8765C1374.15 31.3135 1378.6 25.9536 1378.03 19.9055C1377.47 13.8568 1372.11 9.40984 1366.06 9.97289C1360.01 10.5359 1355.57 15.8959 1356.13 21.9446Z" fill="white"/>
<path d="M1356.95 44.9521C1357.49 50.9999 1362.6 55.445 1368.38 54.8799C1374.15 54.3148 1378.4 48.9534 1377.86 42.9049C1377.33 36.857 1372.21 32.4119 1366.44 32.977C1360.66 33.5422 1356.42 38.9036 1356.95 44.9521Z" fill="white"/>
</svg>
