<svg width="300" height="151" viewBox="0 0 300 151" fill="none" xmlns="http://www.w3.org/2000/svg">
<circle cx="65.4144" cy="42.1364" r="9.86919" transform="rotate(150.983 65.4144 42.1364)" fill="#EDF399"/>
<circle cx="92.2403" cy="45.1843" r="9.86919" transform="rotate(-123.931 92.2403 45.1843)" fill="#EDF399"/>
<circle cx="107.115" cy="70.4315" r="9.86919" transform="rotate(-48.5988 107.115 70.4315)" fill="#EDF399"/>
<circle cx="11.3977" cy="74.0486" r="9.86919" transform="rotate(-99.7472 11.3977 74.0486)" fill="#EDF399"/>
<circle cx="32.3018" cy="130.359" r="9.86919" transform="rotate(-139.925 32.3018 130.359)" fill="#9D96F1"/>
<circle cx="101.562" cy="138.691" r="9.86919" transform="rotate(163.127 101.562 138.691)" fill="#EDF399"/>
<circle cx="43.1195" cy="36.4587" r="9.86919" transform="rotate(150.983 43.1195 36.4587)" fill="#EDF399"/>
<circle cx="95.9922" cy="22.4851" r="9.86919" transform="rotate(-123.931 95.9922 22.4851)" fill="#EDF399"/>
<circle cx="130.023" cy="68.3065" r="9.86919" transform="rotate(-48.5988 130.023 68.3065)" fill="#D792F8"/>
<circle cx="24.1164" cy="54.8729" r="9.86919" transform="rotate(-99.7472 24.1164 54.8729)" fill="#EDF399"/>
<circle cx="29.6456" cy="107.504" r="9.86919" transform="rotate(-139.925 29.6456 107.504)" fill="#9D96F1"/>
<circle cx="80.9646" cy="128.45" r="9.86919" transform="rotate(163.127 80.9646 128.45)" fill="#EDF399"/>
<circle cx="67.7484" cy="18.9919" r="9.86919" transform="rotate(150.983 67.7484 18.9919)" fill="#EDF399"/>
<circle cx="115.506" cy="45.5261" r="9.86919" transform="rotate(-123.931 115.506 45.5261)" fill="#D792F8"/>
<circle cx="112.674" cy="93.0213" r="9.86919" transform="rotate(-48.5988 112.674 93.0213)" fill="#EDF399"/>
<circle cx="32.4797" cy="83.8885" r="9.86919" transform="rotate(-99.7472 32.4797 83.8885)" fill="#9D96F1"/>
<circle cx="54.7569" cy="124.285" r="9.86919" transform="rotate(-139.925 54.7569 124.285)" fill="#9D96F1"/>
<circle cx="108.715" cy="116.55" r="9.86919" transform="rotate(163.127 108.715 116.55)" fill="#EDF399"/>
<circle cx="45.1527" cy="13.4177" r="9.86919" transform="rotate(150.983 45.1527 13.4177)" fill="#EDF399"/>
<circle cx="119.125" cy="22.53" r="9.86919" transform="rotate(-123.931 119.125 22.53)" fill="#D792F8"/>
<circle cx="135.834" cy="90.6971" r="9.86919" transform="rotate(-48.5988 135.834 90.6971)" fill="#EDF399"/>
<circle cx="45.2004" cy="64.3982" r="9.86919" transform="rotate(-99.7472 45.2004 64.3982)" fill="#9D96F1"/>
<circle cx="51.8936" cy="101.177" r="9.86919" transform="rotate(-139.925 51.8936 101.177)" fill="#9D96F1"/>
<circle cx="87.7986" cy="106.347" r="9.86919" transform="rotate(163.127 87.7986 106.347)" fill="#EDF399"/>
<circle cx="215.414" cy="42.1364" r="9.86919" transform="rotate(150.983 215.414 42.1364)" fill="#EDF399"/>
<circle cx="242.24" cy="45.1843" r="9.86919" transform="rotate(-123.931 242.24 45.1843)" fill="#9D96F1"/>
<circle cx="257.115" cy="70.4315" r="9.86919" transform="rotate(-48.5988 257.115 70.4315)" fill="#9D96F1"/>
<circle cx="161.398" cy="74.0486" r="9.86919" transform="rotate(-99.7472 161.398 74.0486)" fill="#EDF399"/>
<circle cx="182.302" cy="130.359" r="9.86919" transform="rotate(-139.925 182.302 130.359)" fill="#D792F8"/>
<circle cx="251.562" cy="138.691" r="9.86919" transform="rotate(163.127 251.562 138.691)" fill="#D792F8"/>
<circle cx="193.119" cy="36.4587" r="9.86919" transform="rotate(150.983 193.119 36.4587)" fill="#EDF399"/>
<circle cx="245.992" cy="22.4851" r="9.86919" transform="rotate(-123.931 245.992 22.4851)" fill="#9D96F1"/>
<circle cx="280.023" cy="68.3065" r="9.86919" transform="rotate(-48.5988 280.023 68.3065)" fill="#9D96F1"/>
<circle cx="174.116" cy="54.8729" r="9.86919" transform="rotate(-99.7472 174.116 54.8729)" fill="#EDF399"/>
<circle cx="179.646" cy="107.504" r="9.86919" transform="rotate(-139.925 179.646 107.504)" fill="#D792F8"/>
<circle cx="230.965" cy="128.45" r="9.86919" transform="rotate(163.127 230.965 128.45)" fill="#EDF399"/>
<circle cx="217.748" cy="18.9919" r="9.86919" transform="rotate(150.983 217.748 18.9919)" fill="#EDF399"/>
<circle cx="265.506" cy="45.5261" r="9.86919" transform="rotate(-123.931 265.506 45.5261)" fill="#9D96F1"/>
<circle cx="262.674" cy="93.0213" r="9.86919" transform="rotate(-48.5988 262.674 93.0213)" fill="#9D96F1"/>
<circle cx="182.48" cy="83.8885" r="9.86919" transform="rotate(-99.7472 182.48 83.8885)" fill="#D792F8"/>
<circle cx="204.757" cy="124.285" r="9.86919" transform="rotate(-139.925 204.757 124.285)" fill="#D792F8"/>
<circle cx="258.715" cy="116.55" r="9.86919" transform="rotate(163.127 258.715 116.55)" fill="#EDF399"/>
<circle cx="195.153" cy="13.4177" r="9.86919" transform="rotate(150.983 195.153 13.4177)" fill="#D792F8"/>
<circle cx="269.125" cy="22.53" r="9.86919" transform="rotate(-123.931 269.125 22.53)" fill="#9D96F1"/>
<circle cx="285.834" cy="90.6971" r="9.86919" transform="rotate(-48.5988 285.834 90.6971)" fill="#9D96F1"/>
<circle cx="195.2" cy="64.3982" r="9.86919" transform="rotate(-99.7472 195.2 64.3982)" fill="#D792F8"/>
<circle cx="201.894" cy="101.177" r="9.86919" transform="rotate(-139.925 201.894 101.177)" fill="#D792F8"/>
<circle cx="237.799" cy="106.347" r="9.86919" transform="rotate(163.127 237.799 106.347)" fill="#EDF399"/>
</svg>
