<svg width="571" height="309" viewBox="0 0 571 309" fill="none" xmlns="http://www.w3.org/2000/svg">
<ellipse cx="20.8619" cy="20.5861" rx="20.8619" ry="20.5861" transform="matrix(-0.896328 0.443391 -0.45954 -0.888157 79.9922 36.5684)" fill="#FFC36E"/>
<ellipse cx="20.9132" cy="20.5341" rx="20.9132" ry="20.5341" transform="matrix(0.954405 0.298514 -0.310933 0.950432 53.5254 256.566)" fill="#9D96F1"/>
<ellipse cx="20.5067" cy="20.94" rx="20.5067" ry="20.94" transform="matrix(-0.190134 -0.981758 0.983287 -0.182063 243.854 156.092)" fill="#FFC36E"/>
<ellipse cx="20.8619" cy="20.5861" rx="20.8619" ry="20.5861" transform="matrix(-0.896328 0.443391 -0.45954 -0.888157 56.3184 76.0273)" fill="#FFC36E"/>
<ellipse cx="20.9132" cy="20.5341" rx="20.9132" ry="20.5341" transform="matrix(0.954405 0.298514 -0.310933 0.950432 98.7129 244.705)" fill="#FFC36E"/>
<ellipse cx="20.5067" cy="20.94" rx="20.5067" ry="20.94" transform="matrix(-0.190134 -0.981758 0.983287 -0.182063 211.656 122.9)" fill="#D792F8"/>
<ellipse cx="20.8619" cy="20.5861" rx="20.8619" ry="20.5861" transform="matrix(-0.896328 0.443391 -0.45954 -0.888157 78.6914 117.865)" fill="#FFC36E"/>
<ellipse cx="20.9132" cy="20.5341" rx="20.9132" ry="20.5341" transform="matrix(0.954405 0.298514 -0.310933 0.950432 112.803 199.549)" fill="#FFC36E"/>
<ellipse cx="20.5067" cy="20.94" rx="20.5067" ry="20.94" transform="matrix(-0.190134 -0.981758 0.983287 -0.182063 164.34 132.307)" fill="#D792F8"/>
<ellipse cx="20.8619" cy="20.5861" rx="20.8619" ry="20.5861" transform="matrix(-0.896328 0.443391 -0.45954 -0.888157 125.1 48.0488)" fill="#FFC36E"/>
<ellipse cx="20.9132" cy="20.5341" rx="20.9132" ry="20.5341" transform="matrix(0.954405 0.298514 -0.310933 0.950432 29.6289 217.436)" fill="#9D96F1"/>
<ellipse cx="20.5067" cy="20.94" rx="20.5067" ry="20.94" transform="matrix(-0.190134 -0.981758 0.983287 -0.182063 220.057 195.279)" fill="#FFC36E"/>
<ellipse cx="20.8619" cy="20.5861" rx="20.8619" ry="20.5861" transform="matrix(-0.896328 0.443391 -0.45954 -0.888157 146.279 89.4219)" fill="#D792F8"/>
<ellipse cx="20.9132" cy="20.5341" rx="20.9132" ry="20.5341" transform="matrix(0.954405 0.298514 -0.310933 0.950432 44.2422 173.432)" fill="#9D96F1"/>
<ellipse cx="20.5067" cy="20.94" rx="20.5067" ry="20.94" transform="matrix(-0.190134 -0.981758 0.983287 -0.182063 173.529 203.689)" fill="#FFC36E"/>
<ellipse cx="20.8619" cy="20.5861" rx="20.8619" ry="20.5861" transform="matrix(-0.896328 0.443391 -0.45954 -0.888157 127.031 136.689)" fill="#FFC36E"/>
<ellipse cx="20.9132" cy="20.5341" rx="20.9132" ry="20.5341" transform="matrix(0.954405 0.298514 -0.310933 0.950432 91.877 152.971)" fill="#FFC36E"/>
<ellipse cx="20.5067" cy="20.94" rx="20.5067" ry="20.94" transform="matrix(-0.190134 -0.981758 0.983287 -0.182063 132.432 172.49)" fill="#D792F8"/>
<ellipse cx="20.8619" cy="20.5861" rx="20.8619" ry="20.5861" transform="matrix(-0.896328 0.443391 -0.45954 -0.888157 364.992 36.5684)" fill="#9D96F1"/>
<ellipse cx="20.9132" cy="20.5341" rx="20.9132" ry="20.5341" transform="matrix(0.954405 0.298514 -0.310933 0.950432 338.525 256.566)" fill="#FFC36E"/>
<ellipse cx="20.5067" cy="20.94" rx="20.5067" ry="20.94" transform="matrix(-0.190134 -0.981758 0.983287 -0.182063 528.854 156.092)" fill="#FFC36E"/>
<ellipse cx="20.8619" cy="20.5861" rx="20.8619" ry="20.5861" transform="matrix(-0.896328 0.443391 -0.45954 -0.888157 341.318 76.0273)" fill="#FFC36E"/>
<ellipse cx="20.9132" cy="20.5341" rx="20.9132" ry="20.5341" transform="matrix(0.954405 0.298514 -0.310933 0.950432 383.713 244.705)" fill="#D792F8"/>
<ellipse cx="20.5067" cy="20.94" rx="20.5067" ry="20.94" transform="matrix(-0.190134 -0.981758 0.983287 -0.182063 496.656 122.9)" fill="#FFC36E"/>
<ellipse cx="20.8619" cy="20.5861" rx="20.8619" ry="20.5861" transform="matrix(-0.896328 0.443391 -0.45954 -0.888157 363.691 117.865)" fill="#9D96F1"/>
<ellipse cx="20.9132" cy="20.5341" rx="20.9132" ry="20.5341" transform="matrix(0.954405 0.298514 -0.310933 0.950432 397.803 199.549)" fill="#FFC36E"/>
<ellipse cx="20.5067" cy="20.94" rx="20.5067" ry="20.94" transform="matrix(-0.190134 -0.981758 0.983287 -0.182063 449.34 132.307)" fill="#FFC36E"/>
<ellipse cx="20.8619" cy="20.5861" rx="20.8619" ry="20.5861" transform="matrix(-0.896328 0.443391 -0.45954 -0.888157 410.1 48.0488)" fill="#9D96F1"/>
<ellipse cx="20.9132" cy="20.5341" rx="20.9132" ry="20.5341" transform="matrix(0.954405 0.298514 -0.310933 0.950432 314.629 217.436)" fill="#FFC36E"/>
<ellipse cx="20.5067" cy="20.94" rx="20.5067" ry="20.94" transform="matrix(-0.190134 -0.981758 0.983287 -0.182063 505.057 195.279)" fill="#D792F8"/>
<ellipse cx="20.8619" cy="20.5861" rx="20.8619" ry="20.5861" transform="matrix(-0.896328 0.443391 -0.45954 -0.888157 431.279 89.4219)" fill="#FFC36E"/>
<ellipse cx="20.9132" cy="20.5341" rx="20.9132" ry="20.5341" transform="matrix(0.954405 0.298514 -0.310933 0.950432 329.242 173.432)" fill="#FFC36E"/>
<ellipse cx="20.5067" cy="20.94" rx="20.5067" ry="20.94" transform="matrix(-0.190134 -0.981758 0.983287 -0.182063 458.529 203.689)" fill="#D792F8"/>
<ellipse cx="20.8619" cy="20.5861" rx="20.8619" ry="20.5861" transform="matrix(-0.896328 0.443391 -0.45954 -0.888157 412.031 136.689)" fill="#9D96F1"/>
<ellipse cx="20.9132" cy="20.5341" rx="20.9132" ry="20.5341" transform="matrix(0.954405 0.298514 -0.310933 0.950432 376.877 154)" fill="#D792F8"/>
<ellipse cx="20.5067" cy="20.94" rx="20.5067" ry="20.94" transform="matrix(-0.190134 -0.981758 0.983287 -0.182063 417.432 172.49)" fill="#FFC36E"/>
</svg>
