<svg width="880" height="402" viewBox="0 0 880 402" fill="none" xmlns="http://www.w3.org/2000/svg">
<circle cx="41.4115" cy="46.4424" r="29.3964" transform="rotate(-50.1388 41.4115 46.4424)" fill="#FFEB8D"/>
<circle cx="364.744" cy="47.9549" r="29.3964" transform="rotate(45.6405 364.744 47.9549)" fill="#FFEB8D"/>
<circle cx="139.642" cy="42.667" r="29.3964" transform="rotate(-50.1388 139.642 42.667)" fill="#FFEB8D"/>
<circle cx="41.5704" cy="355.305" r="29.3964" transform="rotate(-135.603 41.5704 355.305)" fill="#FFEB8D"/>
<circle cx="361.425" cy="357.151" r="29.3964" transform="rotate(131.452 361.425 357.151)" fill="#FFEB8D"/>
<circle cx="358.613" cy="146.072" r="29.3964" transform="rotate(45.6405 358.613 146.072)" fill="#FFEB8D"/>
<circle cx="45.5743" cy="257.082" r="29.3964" transform="rotate(-135.603 45.5743 257.082)" fill="#FFEB8D"/>
<circle cx="263.122" cy="358.202" r="29.3964" transform="rotate(131.452 263.122 358.202)" fill="#FFEB8D"/>
<circle cx="94.3041" cy="96.1885" r="29.3964" transform="rotate(-50.1388 94.3041 96.1885)" fill="#FFEB8D"/>
<circle cx="309.922" cy="95.5721" r="29.3964" transform="rotate(45.6405 309.922 95.5721)" fill="#FFEB8D"/>
<circle cx="95.3457" cy="306.512" r="29.3964" transform="rotate(-135.603 95.3457 306.512)" fill="#FFEB8D"/>
<circle cx="309.929" cy="305.958" r="29.3964" transform="rotate(131.452 309.929 305.958)" fill="#FFEB8D"/>
<circle cx="117.601" cy="166.085" r="29.3964" transform="rotate(-50.1388 117.601 166.085)" fill="#FFEB8D"/>
<circle cx="238.039" cy="111.719" r="29.3964" transform="rotate(45.6405 238.039 111.719)" fill="#95E7E2"/>
<circle cx="166.867" cy="288.81" r="29.3964" transform="rotate(-135.603 166.867 288.81)" fill="#95E7E2"/>
<circle cx="288.583" cy="235.44" r="29.3964" transform="rotate(131.452 288.583 235.44)" fill="#95E7E2"/>
<circle cx="166.718" cy="111.302" r="29.3964" transform="rotate(-50.1388 166.718 111.302)" fill="#95E7E2"/>
<circle cx="287.6" cy="166.099" r="29.3964" transform="rotate(45.6405 287.6 166.099)" fill="#FFEB8D"/>
<circle cx="116.141" cy="235.627" r="29.3964" transform="rotate(-135.603 116.141 235.627)" fill="#FFEB8D"/>
<circle cx="237.964" cy="288.84" r="29.3964" transform="rotate(131.452 237.964 288.84)" fill="#95E7E2"/>
<circle cx="45.1869" cy="147.198" r="29.3964" transform="rotate(-50.1388 45.1869 147.198)" fill="#FFEB8D"/>
<circle cx="264.129" cy="41.5702" r="29.3964" transform="rotate(45.6405 264.129 41.5702)" fill="#FFEB8D"/>
<circle cx="142.311" cy="359.508" r="29.3964" transform="rotate(-135.603 142.311 359.508)" fill="#FFEB8D"/>
<circle cx="360.446" cy="256.333" r="29.3964" transform="rotate(131.452 360.446 256.333)" fill="#FFEB8D"/>
<circle cx="514.411" cy="46.4424" r="29.3964" transform="rotate(-50.1388 514.411 46.4424)" fill="#FFEB8D"/>
<circle cx="837.744" cy="47.9549" r="29.3964" transform="rotate(45.6405 837.744 47.9549)" fill="#95E7E2"/>
<circle cx="612.642" cy="42.667" r="29.3964" transform="rotate(-50.1388 612.642 42.667)" fill="#FFEB8D"/>
<circle cx="514.57" cy="355.305" r="29.3964" transform="rotate(-135.603 514.57 355.305)" fill="#FFEB8D"/>
<circle cx="834.425" cy="357.151" r="29.3964" transform="rotate(131.452 834.425 357.151)" fill="#95E7E2"/>
<circle cx="831.613" cy="146.072" r="29.3964" transform="rotate(45.6405 831.613 146.072)" fill="#95E7E2"/>
<circle cx="518.574" cy="257.082" r="29.3964" transform="rotate(-135.603 518.574 257.082)" fill="#FFEB8D"/>
<circle cx="736.122" cy="358.202" r="29.3964" transform="rotate(131.452 736.122 358.202)" fill="#95E7E2"/>
<circle cx="567.304" cy="96.1885" r="29.3964" transform="rotate(-50.1388 567.304 96.1885)" fill="#95E7E2"/>
<circle cx="782.922" cy="95.5721" r="29.3964" transform="rotate(45.6405 782.922 95.5721)" fill="#FFEB8D"/>
<circle cx="568.346" cy="306.512" r="29.3964" transform="rotate(-135.603 568.346 306.512)" fill="#95E7E2"/>
<circle cx="782.929" cy="305.958" r="29.3964" transform="rotate(131.452 782.929 305.958)" fill="#95E7E2"/>
<circle cx="590.601" cy="166.085" r="29.3964" transform="rotate(-50.1388 590.601 166.085)" fill="#FFEB8D"/>
<circle cx="711.039" cy="111.719" r="29.3964" transform="rotate(45.6405 711.039 111.719)" fill="#FFEB8D"/>
<circle cx="639.867" cy="288.81" r="29.3964" transform="rotate(-135.603 639.867 288.81)" fill="#FFEB8D"/>
<circle cx="761.583" cy="235.44" r="29.3964" transform="rotate(131.452 761.583 235.44)" fill="#FFEB8D"/>
<circle cx="639.718" cy="111.302" r="29.3964" transform="rotate(-50.1388 639.718 111.302)" fill="#FFEB8D"/>
<circle cx="760.6" cy="166.099" r="29.3964" transform="rotate(45.6405 760.6 166.099)" fill="#FFEB8D"/>
<circle cx="589.141" cy="235.627" r="29.3964" transform="rotate(-135.603 589.141 235.627)" fill="#95E7E2"/>
<circle cx="710.964" cy="288.84" r="29.3964" transform="rotate(131.452 710.964 288.84)" fill="#FFEB8D"/>
<circle cx="518.187" cy="147.198" r="29.3964" transform="rotate(-50.1388 518.187 147.198)" fill="#FFEB8D"/>
<circle cx="737.129" cy="41.5702" r="29.3964" transform="rotate(45.6405 737.129 41.5702)" fill="#FFEB8D"/>
<circle cx="615.311" cy="359.508" r="29.3964" transform="rotate(-135.603 615.311 359.508)" fill="#FFEB8D"/>
<circle cx="833.446" cy="256.333" r="29.3964" transform="rotate(131.452 833.446 256.333)" fill="#FFEB8D"/>
</svg>
