<svg width="612" height="302" viewBox="0 0 612 302" fill="none" xmlns="http://www.w3.org/2000/svg">
<circle cx="31.1499" cy="34.9371" r="22.1138" transform="rotate(-50.1388 31.1499 34.9371)" fill="#EDF399"/>
<circle cx="274.383" cy="36.0764" r="22.1138" transform="rotate(45.6405 274.383 36.0764)" fill="#EDF399"/>
<circle cx="105.046" cy="32.0953" r="22.1138" transform="rotate(-50.1388 105.046 32.0953)" fill="#EDF399"/>
<circle cx="31.2725" cy="267.283" r="22.1138" transform="rotate(-135.603 31.2725 267.283)" fill="#EDF399"/>
<circle cx="271.886" cy="268.672" r="22.1138" transform="rotate(131.452 271.886 268.672)" fill="#EDF399"/>
<circle cx="269.77" cy="109.885" r="22.1138" transform="rotate(45.6405 269.77 109.885)" fill="#EDF399"/>
<circle cx="34.2842" cy="193.392" r="22.1138" transform="rotate(-135.603 34.2842 193.392)" fill="#EDF399"/>
<circle cx="197.937" cy="269.461" r="22.1138" transform="rotate(131.452 197.937 269.461)" fill="#EDF399"/>
<circle cx="70.939" cy="72.359" r="22.1138" transform="rotate(-50.1388 70.939 72.359)" fill="#EDF399"/>
<circle cx="233.145" cy="71.8967" r="22.1138" transform="rotate(45.6405 233.145 71.8967)" fill="#EDF399"/>
<circle cx="71.7256" cy="230.576" r="22.1138" transform="rotate(-135.603 71.7256 230.576)" fill="#EDF399"/>
<circle cx="233.148" cy="230.16" r="22.1138" transform="rotate(131.452 233.148 230.16)" fill="#EDF399"/>
<circle cx="88.4663" cy="124.941" r="22.1138" transform="rotate(-50.1388 88.4663 124.941)" fill="#D792F8"/>
<circle cx="179.068" cy="84.0393" r="22.1138" transform="rotate(45.6405 179.068 84.0393)" fill="#D792F8"/>
<circle cx="125.526" cy="217.263" r="22.1138" transform="rotate(-135.603 125.526 217.263)" fill="#D792F8"/>
<circle cx="217.085" cy="177.111" r="22.1138" transform="rotate(131.452 217.085 177.111)" fill="#D792F8"/>
<circle cx="125.416" cy="83.7282" r="22.1138" transform="rotate(-50.1388 125.416 83.7282)" fill="#D792F8"/>
<circle cx="216.35" cy="124.949" r="22.1138" transform="rotate(45.6405 216.35 124.949)" fill="#D792F8"/>
<circle cx="87.3662" cy="177.171" r="22.1138" transform="rotate(-135.603 87.3662 177.171)" fill="#D792F8"/>
<circle cx="179.011" cy="217.283" r="22.1138" transform="rotate(131.452 179.011 217.283)" fill="#D792F8"/>
<circle cx="33.9937" cy="110.73" r="22.1138" transform="rotate(-50.1388 33.9937 110.73)" fill="#EDF399"/>
<circle cx="198.691" cy="31.2717" r="22.1138" transform="rotate(45.6405 198.691 31.2717)" fill="#EDF399"/>
<circle cx="107.052" cy="270.445" r="22.1138" transform="rotate(-135.603 107.052 270.445)" fill="#EDF399"/>
<circle cx="271.15" cy="192.83" r="22.1138" transform="rotate(131.452 271.15 192.83)" fill="#EDF399"/>
<circle cx="337.15" cy="34.9371" r="22.1138" transform="rotate(-50.1388 337.15 34.9371)" fill="#EDF399"/>
<circle cx="580.383" cy="36.0764" r="22.1138" transform="rotate(45.6405 580.383 36.0764)" fill="#EDF399"/>
<circle cx="411.046" cy="32.0953" r="22.1138" transform="rotate(-50.1388 411.046 32.0953)" fill="#EDF399"/>
<circle cx="337.272" cy="267.283" r="22.1138" transform="rotate(-135.603 337.272 267.283)" fill="#EDF399"/>
<circle cx="577.886" cy="268.672" r="22.1138" transform="rotate(131.452 577.886 268.672)" fill="#EDF399"/>
<circle cx="575.77" cy="109.885" r="22.1138" transform="rotate(45.6405 575.77 109.885)" fill="#EDF399"/>
<circle cx="340.284" cy="193.392" r="22.1138" transform="rotate(-135.603 340.284 193.392)" fill="#EDF399"/>
<circle cx="503.937" cy="269.461" r="22.1138" transform="rotate(131.452 503.937 269.461)" fill="#EDF399"/>
<circle cx="376.939" cy="72.359" r="22.1138" transform="rotate(-50.1388 376.939 72.359)" fill="#EDF399"/>
<circle cx="539.145" cy="71.8967" r="22.1138" transform="rotate(45.6405 539.145 71.8967)" fill="#EDF399"/>
<circle cx="377.726" cy="230.576" r="22.1138" transform="rotate(-135.603 377.726 230.576)" fill="#EDF399"/>
<circle cx="539.148" cy="230.16" r="22.1138" transform="rotate(131.452 539.148 230.16)" fill="#EDF399"/>
<circle cx="394.466" cy="124.941" r="22.1138" transform="rotate(-50.1388 394.466 124.941)" fill="#D792F8"/>
<circle cx="485.068" cy="84.0393" r="22.1138" transform="rotate(45.6405 485.068 84.0393)" fill="#D792F8"/>
<circle cx="431.526" cy="217.263" r="22.1138" transform="rotate(-135.603 431.526 217.263)" fill="#D792F8"/>
<circle cx="523.085" cy="177.111" r="22.1138" transform="rotate(131.452 523.085 177.111)" fill="#D792F8"/>
<circle cx="431.416" cy="83.7282" r="22.1138" transform="rotate(-50.1388 431.416 83.7282)" fill="#D792F8"/>
<circle cx="522.35" cy="124.949" r="22.1138" transform="rotate(45.6405 522.35 124.949)" fill="#D792F8"/>
<circle cx="393.366" cy="177.171" r="22.1138" transform="rotate(-135.603 393.366 177.171)" fill="#D792F8"/>
<circle cx="485.011" cy="217.283" r="22.1138" transform="rotate(131.452 485.011 217.283)" fill="#D792F8"/>
<circle cx="339.994" cy="110.73" r="22.1138" transform="rotate(-50.1388 339.994 110.73)" fill="#EDF399"/>
<circle cx="504.691" cy="31.2717" r="22.1138" transform="rotate(45.6405 504.691 31.2717)" fill="#EDF399"/>
<circle cx="413.052" cy="270.445" r="22.1138" transform="rotate(-135.603 413.052 270.445)" fill="#EDF399"/>
<circle cx="577.15" cy="192.83" r="22.1138" transform="rotate(131.452 577.15 192.83)" fill="#EDF399"/>
<circle cx="337.15" cy="34.9371" r="22.1138" transform="rotate(-50.1388 337.15 34.9371)" fill="#D792F8"/>
<circle cx="580.383" cy="36.0764" r="22.1138" transform="rotate(45.6405 580.383 36.0764)" fill="#D792F8"/>
<circle cx="411.046" cy="32.0953" r="22.1138" transform="rotate(-50.1388 411.046 32.0953)" fill="#D792F8"/>
<circle cx="337.272" cy="267.283" r="22.1138" transform="rotate(-135.603 337.272 267.283)" fill="#D792F8"/>
<circle cx="577.886" cy="268.672" r="22.1138" transform="rotate(131.452 577.886 268.672)" fill="#D792F8"/>
<circle cx="575.77" cy="109.885" r="22.1138" transform="rotate(45.6405 575.77 109.885)" fill="#D792F8"/>
<circle cx="340.284" cy="193.392" r="22.1138" transform="rotate(-135.603 340.284 193.392)" fill="#D792F8"/>
<circle cx="503.937" cy="269.461" r="22.1138" transform="rotate(131.452 503.937 269.461)" fill="#D792F8"/>
<circle cx="376.939" cy="72.359" r="22.1138" transform="rotate(-50.1388 376.939 72.359)" fill="#D792F8"/>
<circle cx="539.145" cy="71.8967" r="22.1138" transform="rotate(45.6405 539.145 71.8967)" fill="#D792F8"/>
<circle cx="377.726" cy="230.576" r="22.1138" transform="rotate(-135.603 377.726 230.576)" fill="#D792F8"/>
<circle cx="539.148" cy="230.16" r="22.1138" transform="rotate(131.452 539.148 230.16)" fill="#D792F8"/>
<circle cx="394.466" cy="124.941" r="22.1138" transform="rotate(-50.1388 394.466 124.941)" fill="#EDF399"/>
<circle cx="485.068" cy="84.0393" r="22.1138" transform="rotate(45.6405 485.068 84.0393)" fill="#EDF399"/>
<circle cx="431.526" cy="217.263" r="22.1138" transform="rotate(-135.603 431.526 217.263)" fill="#EDF399"/>
<circle cx="523.085" cy="177.111" r="22.1138" transform="rotate(131.452 523.085 177.111)" fill="#EDF399"/>
<circle cx="431.416" cy="83.7282" r="22.1138" transform="rotate(-50.1388 431.416 83.7282)" fill="#EDF399"/>
<circle cx="522.35" cy="124.949" r="22.1138" transform="rotate(45.6405 522.35 124.949)" fill="#EDF399"/>
<circle cx="393.366" cy="177.171" r="22.1138" transform="rotate(-135.603 393.366 177.171)" fill="#EDF399"/>
<circle cx="485.011" cy="217.283" r="22.1138" transform="rotate(131.452 485.011 217.283)" fill="#EDF399"/>
<circle cx="339.994" cy="110.73" r="22.1138" transform="rotate(-50.1388 339.994 110.73)" fill="#D792F8"/>
<circle cx="504.691" cy="31.2717" r="22.1138" transform="rotate(45.6405 504.691 31.2717)" fill="#D792F8"/>
<circle cx="413.052" cy="270.445" r="22.1138" transform="rotate(-135.603 413.052 270.445)" fill="#D792F8"/>
<circle cx="577.15" cy="192.83" r="22.1138" transform="rotate(131.452 577.15 192.83)" fill="#D792F8"/>
</svg>
