<svg width="140" height="1684" viewBox="0 0 140 1684" fill="none" xmlns="http://www.w3.org/2000/svg">
<rect width="70" height="1684" fill="#FFA7BF"/>
<path d="M25.9013 37.1229C26.5042 43.1671 31.8925 47.5791 37.9369 46.9767C43.9819 46.3743 48.3935 40.9856 47.7912 34.9407C47.1883 28.8958 41.7999 24.4844 35.7555 25.0868C29.7106 25.6892 25.299 31.078 25.9013 37.1229Z" fill="white"/>
<path d="M25.829 108.123C26.4319 114.167 31.8203 118.579 37.8646 117.977C43.9096 117.374 48.3212 111.986 47.7189 105.941C47.116 99.8958 41.7277 95.4844 35.6833 96.0868C29.6383 96.6892 25.2267 102.078 25.829 108.123Z" fill="white"/>
<path d="M25.7567 179.123C26.3596 185.167 31.748 189.579 37.7924 188.977C43.8374 188.374 48.2489 182.986 47.6467 176.941C47.0438 170.896 41.6554 166.484 35.611 167.087C29.566 167.689 25.1544 173.078 25.7567 179.123Z" fill="white"/>
<path d="M39.8837 55.1359C40.4866 61.1808 45.875 65.5928 51.9199 64.9904C57.9643 64.388 62.3759 58.9992 61.7736 52.9543C61.1713 46.9094 55.7823 42.4981 49.738 43.1005C43.693 43.7029 39.2814 49.0916 39.8837 55.1359Z" fill="white"/>
<path d="M39.8114 126.136C40.4143 132.181 45.8027 136.593 51.8477 135.99C57.8921 135.388 62.3036 129.999 61.7014 123.954C61.0991 117.909 55.7101 113.498 49.6657 114.1C43.6207 114.703 39.2091 120.092 39.8114 126.136Z" fill="white"/>
<path d="M39.7391 197.136C40.342 203.181 45.7304 207.593 51.7754 206.99C57.8198 206.388 62.2314 200.999 61.6291 194.954C61.0268 188.909 55.6378 184.498 49.5934 185.1C43.5484 185.703 39.1369 191.092 39.7391 197.136Z" fill="white"/>
<path d="M26.8661 74.0818C27.4637 80.1284 32.6239 84.5609 38.3911 83.9814C44.1589 83.4019 48.3499 78.0294 47.7523 71.9828C47.1541 65.9356 41.9939 61.5031 36.2266 62.0832C30.4588 62.6627 26.2678 68.0346 26.8661 74.0818Z" fill="white"/>
<path d="M26.7938 145.082C27.3914 151.128 32.5516 155.561 38.3188 154.981C44.0867 154.402 48.2776 149.029 47.68 142.983C47.0818 136.936 41.9216 132.503 36.1544 133.083C30.3865 133.663 26.1956 139.035 26.7938 145.082Z" fill="white"/>
<path d="M26.7215 216.082C27.3192 222.128 32.4793 226.561 38.2466 225.981C44.0144 225.402 48.2054 220.029 47.6077 213.983C47.0095 207.936 41.8493 203.503 36.0821 204.083C30.3143 204.663 26.1233 210.035 26.7215 216.082Z" fill="white"/>
<path d="M4.89344 44.1014C5.49634 50.1463 10.8847 54.5576 16.9291 53.9552C22.9741 53.3528 27.3857 47.9641 26.7834 41.9198C26.1805 35.8749 20.7921 31.4629 14.7477 32.0653C8.70274 32.6677 4.29116 38.0565 4.89344 44.1014Z" fill="white"/>
<path d="M4.82118 115.101C5.42408 121.146 10.8125 125.558 16.8568 124.955C22.9018 124.353 27.3134 118.964 26.7111 112.92C26.1082 106.875 20.7198 102.463 14.6755 103.065C8.63047 103.668 4.2189 109.056 4.82118 115.101Z" fill="white"/>
<path d="M4.74891 186.101C5.35181 192.146 10.7402 196.558 16.7846 195.955C22.8296 195.353 27.2411 189.964 26.6389 183.92C26.036 177.875 20.6476 173.463 14.6032 174.065C8.55821 174.668 4.14663 180.056 4.74891 186.101Z" fill="white"/>
<path d="M5.86755 67.1024C6.44219 73.1466 11.5855 77.5584 17.3559 76.9557C23.1257 76.353 27.3376 70.9641 26.7624 64.9192C26.1878 58.8749 21.0444 54.4632 15.2741 55.0659C9.50429 55.6686 5.29233 61.0575 5.86755 67.1024Z" fill="white"/>
<path d="M5.79529 138.102C6.36992 144.147 11.5133 148.558 17.2836 147.956C23.0534 147.353 27.2654 141.964 26.6901 135.919C26.1155 129.875 20.9721 125.463 15.2018 126.066C9.43203 126.669 5.22006 132.058 5.79529 138.102Z" fill="white"/>
<path d="M5.72302 209.102C6.29766 215.147 11.441 219.558 17.2114 218.956C22.9811 218.353 27.1931 212.964 26.6179 206.919C26.0432 200.875 20.8999 196.463 15.1295 197.066C9.35976 197.669 5.1478 203.058 5.72302 209.102Z" fill="white"/>
<path d="M26.6825 251.125C27.2854 257.169 32.6738 261.581 38.7182 260.979C44.7632 260.376 49.1747 254.988 48.5724 248.943C47.9696 242.898 42.5812 238.486 36.5368 239.089C30.4918 239.691 26.0802 245.08 26.6825 251.125Z" fill="white"/>
<path d="M26.6102 322.125C27.2131 328.169 32.6015 332.581 38.6459 331.979C44.6909 331.376 49.1025 325.988 48.5002 319.943C47.8973 313.898 42.5089 309.486 36.4645 310.089C30.4195 310.691 26.008 316.08 26.6102 322.125Z" fill="white"/>
<path d="M26.538 393.125C27.1409 399.169 32.5293 403.581 38.5736 402.979C44.6186 402.376 49.0302 396.988 48.4279 390.943C47.825 384.898 42.4366 380.486 36.3923 381.089C30.3473 381.691 25.9357 387.08 26.538 393.125Z" fill="white"/>
<path d="M40.6649 269.138C41.2678 275.183 46.6562 279.595 52.7012 278.992C58.7456 278.39 63.1571 273.001 62.5549 266.956C61.9526 260.911 56.5636 256.5 50.5192 257.102C44.4742 257.705 40.0626 263.094 40.6649 269.138Z" fill="white"/>
<path d="M40.5927 340.138C41.1956 346.183 46.5839 350.595 52.6289 349.992C58.6733 349.39 63.0849 344.001 62.4826 337.956C61.8803 331.911 56.4913 327.5 50.447 328.102C44.402 328.705 39.9904 334.094 40.5927 340.138Z" fill="white"/>
<path d="M40.5204 411.138C41.1233 417.183 46.5117 421.595 52.5567 420.992C58.601 420.39 63.0126 415.001 62.4103 408.956C61.8081 402.911 56.4191 398.5 50.3747 399.102C44.3297 399.705 39.9181 405.094 40.5204 411.138Z" fill="white"/>
<path d="M27.6473 288.084C28.2449 294.13 33.4051 298.563 39.1723 297.983C44.9402 297.404 49.1311 292.031 48.5335 285.985C47.9353 279.938 42.7751 275.505 37.0079 276.085C31.2401 276.665 27.0491 282.037 27.6473 288.084Z" fill="white"/>
<path d="M27.5751 359.084C28.1727 365.13 33.3329 369.563 39.1001 368.983C44.8679 368.404 49.0589 363.031 48.4613 356.985C47.863 350.938 42.7029 346.505 36.9356 347.085C31.1678 347.665 26.9768 353.037 27.5751 359.084Z" fill="white"/>
<path d="M27.5028 430.084C28.1004 436.13 33.2606 440.563 39.0278 439.983C44.7957 439.404 48.9866 434.031 48.389 427.985C47.7908 421.938 42.6306 417.505 36.8634 418.085C31.0955 418.665 26.9046 424.037 27.5028 430.084Z" fill="white"/>
<path d="M5.67469 258.103C6.27759 264.148 11.666 268.56 17.7103 267.957C23.7553 267.355 28.1669 261.966 27.5646 255.922C26.9617 249.877 21.5734 245.465 15.529 246.067C9.48399 246.67 5.07241 252.058 5.67469 258.103Z" fill="white"/>
<path d="M5.60243 329.103C6.20533 335.148 11.5937 339.56 17.6381 338.957C23.6831 338.355 28.0946 332.966 27.4924 326.922C26.8895 320.877 21.5011 316.465 15.4567 317.067C9.41172 317.67 5.00015 323.058 5.60243 329.103Z" fill="white"/>
<path d="M5.53016 400.103C6.13306 406.148 11.5214 410.56 17.5658 409.957C23.6108 409.355 28.0224 403.966 27.4201 397.922C26.8172 391.877 21.4288 387.465 15.3844 388.067C9.33946 388.67 4.92788 394.058 5.53016 400.103Z" fill="white"/>
<path d="M6.6488 281.104C7.22344 287.149 12.3668 291.56 18.1371 290.958C23.9069 290.355 28.1189 284.966 27.5437 278.921C26.969 272.877 21.8257 268.465 16.0553 269.068C10.2855 269.671 6.07358 275.059 6.6488 281.104Z" fill="white"/>
<path d="M6.57654 352.104C7.15117 358.149 12.2945 362.56 18.0649 361.958C23.8346 361.355 28.0466 355.966 27.4714 349.921C26.8967 343.877 21.7534 339.465 15.983 340.068C10.2133 340.671 6.00131 346.059 6.57654 352.104Z" fill="white"/>
<path d="M6.50427 423.104C7.07891 429.149 12.2223 433.56 17.9926 432.958C23.7624 432.355 27.9743 426.966 27.3991 420.921C26.8245 414.877 21.6811 410.465 15.9108 411.068C10.141 411.671 5.92905 417.059 6.50427 423.104Z" fill="white"/>
<path d="M27.4657 465.125C28.0686 471.169 33.457 475.581 39.5014 474.979C45.5464 474.376 49.9579 468.988 49.3556 462.943C48.7528 456.898 43.3644 452.486 37.32 453.089C31.275 453.691 26.8634 459.08 27.4657 465.125Z" fill="#EDF399"/>
<path d="M27.3934 536.125C27.9963 542.169 33.3847 546.581 39.4291 545.979C45.4741 545.376 49.8857 539.988 49.2834 533.943C48.6805 527.898 43.2921 523.486 37.2477 524.089C31.2027 524.691 26.7912 530.08 27.3934 536.125Z" fill="#EDF399"/>
<path d="M27.3212 607.125C27.9241 613.169 33.3125 617.581 39.3568 616.979C45.4018 616.376 49.8134 610.988 49.2111 604.943C48.6082 598.898 43.2198 594.486 37.1755 595.089C31.1305 595.691 26.7189 601.08 27.3212 607.125Z" fill="#EDF399"/>
<path d="M41.4481 483.138C42.051 489.183 47.4394 493.595 53.4844 492.992C59.5288 492.39 63.9404 487.001 63.3381 480.956C62.7358 474.911 57.3468 470.5 51.3024 471.102C45.2574 471.705 40.8458 477.094 41.4481 483.138Z" fill="#EDF399"/>
<path d="M41.3759 554.138C41.9788 560.183 47.3671 564.595 53.4121 563.992C59.4565 563.39 63.8681 558.001 63.2658 551.956C62.6635 545.911 57.2745 541.5 51.2302 542.102C45.1852 542.705 40.7736 548.094 41.3759 554.138Z" fill="#EDF399"/>
<path d="M41.3036 625.138C41.9065 631.183 47.2949 635.595 53.3399 634.992C59.3842 634.39 63.7958 629.001 63.1935 622.956C62.5913 616.911 57.2023 612.5 51.1579 613.102C45.1129 613.705 40.7013 619.094 41.3036 625.138Z" fill="#EDF399"/>
<path d="M28.4305 502.084C29.0281 508.13 34.1883 512.563 39.9556 511.983C45.7234 511.404 49.9143 506.031 49.3167 499.985C48.7185 493.938 43.5583 489.505 37.7911 490.085C32.0233 490.665 27.8323 496.037 28.4305 502.084Z" fill="#EDF399"/>
<path d="M28.3583 573.084C28.9559 579.13 34.1161 583.563 39.8833 582.983C45.6511 582.404 49.8421 577.031 49.2445 570.985C48.6462 564.938 43.4861 560.505 37.7188 561.085C31.951 561.665 27.76 567.037 28.3583 573.084Z" fill="#EDF399"/>
<path d="M28.286 644.084C28.8836 650.13 34.0438 654.563 39.811 653.983C45.5789 653.404 49.7698 648.031 49.1722 641.985C48.574 635.938 43.4138 631.505 37.6466 632.085C31.8787 632.665 27.6878 638.037 28.286 644.084Z" fill="#EDF399"/>
<path d="M6.4579 472.103C7.06079 478.148 12.4492 482.56 18.4936 481.957C24.5385 481.355 28.9501 475.966 28.3478 469.922C27.7449 463.877 22.3566 459.465 16.3122 460.067C10.2672 460.67 5.85562 466.058 6.4579 472.103Z" fill="#EDF399"/>
<path d="M6.38563 543.103C6.98853 549.148 12.3769 553.56 18.4213 552.957C24.4663 552.355 28.8779 546.966 28.2756 540.922C27.6727 534.877 22.2843 530.465 16.2399 531.067C10.1949 531.67 5.78335 537.058 6.38563 543.103Z" fill="#EDF399"/>
<path d="M6.31337 614.103C6.91626 620.148 12.3046 624.56 18.349 623.957C24.394 623.355 28.8056 617.966 28.2033 611.922C27.6004 605.877 22.212 601.465 16.1677 602.067C10.1227 602.67 5.71109 608.058 6.31337 614.103Z" fill="#EDF399"/>
<path d="M7.43201 495.104C8.00664 501.149 13.15 505.56 18.9203 504.958C24.6901 504.355 28.9021 498.966 28.3269 492.921C27.7522 486.877 22.6089 482.465 16.8385 483.068C11.0687 483.671 6.85678 489.059 7.43201 495.104Z" fill="#EDF399"/>
<path d="M7.35974 566.104C7.93438 572.149 13.0777 576.56 18.8481 575.958C24.6178 575.355 28.8298 569.966 28.2546 563.921C27.68 557.877 22.5366 553.465 16.7662 554.068C10.9965 554.671 6.78452 560.059 7.35974 566.104Z" fill="#EDF399"/>
<path d="M7.28747 637.104C7.86211 643.149 13.0055 647.56 18.7758 646.958C24.5456 646.355 28.7575 640.966 28.1823 634.921C27.6077 628.877 22.4643 624.465 16.694 625.068C10.9242 625.671 6.71225 631.059 7.28747 637.104Z" fill="#EDF399"/>
<path d="M28.247 679.127C28.8499 685.171 34.2382 689.583 40.2826 688.981C46.3276 688.378 50.7392 682.989 50.1369 676.945C49.534 670.9 44.1456 666.488 38.1012 667.091C32.0563 667.693 27.6447 673.082 28.247 679.127Z" fill="white"/>
<path d="M28.1747 750.127C28.7776 756.171 34.166 760.583 40.2103 759.981C46.2553 759.378 50.6669 753.989 50.0646 747.945C49.4617 741.9 44.0734 737.488 38.029 738.091C31.984 738.693 27.5724 744.082 28.1747 750.127Z" fill="white"/>
<path d="M28.1024 821.127C28.7053 827.171 34.0937 831.583 40.1381 830.981C46.1831 830.378 50.5946 824.989 49.9924 818.945C49.3895 812.9 44.0011 808.488 37.9567 809.091C31.9117 809.693 27.5001 815.082 28.1024 821.127Z" fill="white"/>
<path d="M42.2294 697.14C42.8323 703.185 48.2207 707.597 54.2656 706.994C60.31 706.392 64.7216 701.003 64.1193 694.958C63.517 688.913 58.128 684.502 52.0837 685.104C46.0387 685.707 41.6271 691.096 42.2294 697.14Z" fill="white"/>
<path d="M42.1571 768.14C42.76 774.185 48.1484 778.597 54.1934 777.994C60.2378 777.392 64.6493 772.003 64.0471 765.958C63.4448 759.913 58.0558 755.502 52.0114 756.104C45.9664 756.707 41.5548 762.096 42.1571 768.14Z" fill="white"/>
<path d="M42.0848 839.14C42.6877 845.185 48.0761 849.597 54.1211 848.994C60.1655 848.392 64.5771 843.003 63.9748 836.958C63.3725 830.913 57.9835 826.502 51.9391 827.104C45.8941 827.707 41.4826 833.096 42.0848 839.14Z" fill="white"/>
<path d="M29.2118 716.086C29.8094 722.132 34.9696 726.565 40.7368 725.985C46.5046 725.406 50.6956 720.033 50.098 713.987C49.4998 707.94 44.3396 703.507 38.5723 704.087C32.8045 704.667 28.6136 710.039 29.2118 716.086Z" fill="white"/>
<path d="M29.1395 787.086C29.7371 793.132 34.8973 797.565 40.6645 796.985C46.4324 796.406 50.6233 791.033 50.0257 784.987C49.4275 778.94 44.2673 774.507 38.5001 775.087C32.7322 775.667 28.5413 781.039 29.1395 787.086Z" fill="white"/>
<path d="M29.0672 858.086C29.6649 864.132 34.825 868.565 40.5923 867.985C46.3601 867.406 50.5511 862.033 49.9534 855.987C49.3552 849.94 44.195 845.507 38.4278 846.087C32.66 846.667 28.469 852.039 29.0672 858.086Z" fill="white"/>
<path d="M7.23915 686.105C7.84204 692.15 13.2304 696.562 19.2748 695.959C25.3198 695.357 29.7314 689.968 29.1291 683.924C28.5262 677.879 23.1378 673.467 17.0934 674.069C11.0484 674.672 6.63687 680.06 7.23915 686.105Z" fill="white"/>
<path d="M7.16688 757.105C7.76978 763.15 13.1582 767.562 19.2025 766.959C25.2475 766.357 29.6591 760.968 29.0568 754.924C28.4539 748.879 23.0655 744.467 17.0212 745.069C10.9762 745.672 6.5646 751.06 7.16688 757.105Z" fill="white"/>
<path d="M7.09462 828.105C7.69751 834.15 13.0859 838.562 19.1303 837.959C25.1753 837.357 29.5868 831.968 28.9846 825.924C28.3817 819.879 22.9933 815.467 16.9489 816.069C10.9039 816.672 6.49234 822.06 7.09462 828.105Z" fill="white"/>
<path d="M8.21326 709.106C8.78789 715.151 13.9312 719.562 19.7016 718.96C25.4714 718.357 29.6833 712.968 29.1081 706.923C28.5335 700.879 23.3901 696.467 17.6198 697.07C11.85 697.672 7.63803 703.061 8.21326 709.106Z" fill="white"/>
<path d="M8.14099 780.106C8.71563 786.151 13.859 790.562 19.6293 789.96C25.3991 789.357 29.6111 783.968 29.0358 777.923C28.4612 771.879 23.3179 767.467 17.5475 768.07C11.7777 768.672 7.56577 774.061 8.14099 780.106Z" fill="white"/>
<path d="M8.06872 851.106C8.64336 857.151 13.7867 861.562 19.5571 860.96C25.3268 860.357 29.5388 854.968 28.9636 848.923C28.3889 842.879 23.2456 838.467 17.4752 839.07C11.7055 839.672 7.4935 845.061 8.06872 851.106Z" fill="white"/>
<path d="M26.9013 1470.12C27.5042 1476.17 32.8925 1480.58 38.9369 1479.98C44.9819 1479.37 49.3935 1473.99 48.7912 1467.94C48.1883 1461.9 42.7999 1457.48 36.7555 1458.09C30.7106 1458.69 26.299 1464.08 26.9013 1470.12Z" fill="#FEEC88"/>
<path d="M26.829 1541.12C27.4319 1547.17 32.8203 1551.58 38.8646 1550.98C44.9096 1550.37 49.3212 1544.99 48.7189 1538.94C48.116 1532.9 42.7277 1528.48 36.6833 1529.09C30.6383 1529.69 26.2267 1535.08 26.829 1541.12Z" fill="#FEEC88"/>
<path d="M26.7567 1612.12C27.3596 1618.17 32.748 1622.58 38.7924 1621.98C44.8374 1621.37 49.2489 1615.99 48.6467 1609.94C48.0438 1603.9 42.6554 1599.48 36.611 1600.09C30.566 1600.69 26.1544 1606.08 26.7567 1612.12Z" fill="white"/>
<path d="M40.8837 1488.14C41.4866 1494.18 46.875 1498.59 52.9199 1497.99C58.9643 1497.39 63.3759 1492 62.7736 1485.95C62.1713 1479.91 56.7823 1475.5 50.738 1476.1C44.693 1476.7 40.2814 1482.09 40.8837 1488.14Z" fill="#FEEC88"/>
<path d="M40.8114 1559.14C41.4143 1565.18 46.8027 1569.59 52.8477 1568.99C58.8921 1568.39 63.3036 1563 62.7014 1556.95C62.0991 1550.91 56.7101 1546.5 50.6657 1547.1C44.6207 1547.7 40.2091 1553.09 40.8114 1559.14Z" fill="#FEEC88"/>
<path d="M40.7391 1630.14C41.342 1636.18 46.7304 1640.59 52.7754 1639.99C58.8198 1639.39 63.2314 1634 62.6291 1627.95C62.0268 1621.91 56.6378 1617.5 50.5934 1618.1C44.5484 1618.7 40.1369 1624.09 40.7391 1630.14Z" fill="white"/>
<path d="M27.8661 1507.08C28.4637 1513.13 33.6239 1517.56 39.3911 1516.98C45.1589 1516.4 49.3499 1511.03 48.7523 1504.98C48.1541 1498.94 42.9939 1494.5 37.2266 1495.08C31.4588 1495.66 27.2678 1501.03 27.8661 1507.08Z" fill="#FEEC88"/>
<path d="M27.7938 1578.08C28.3914 1584.13 33.5516 1588.56 39.3188 1587.98C45.0867 1587.4 49.2776 1582.03 48.68 1575.98C48.0818 1569.94 42.9216 1565.5 37.1544 1566.08C31.3865 1566.66 27.1956 1572.03 27.7938 1578.08Z" fill="#FEEC88"/>
<path d="M27.7215 1649.08C28.3192 1655.13 33.4793 1659.56 39.2466 1658.98C45.0144 1658.4 49.2054 1653.03 48.6077 1646.98C48.0095 1640.94 42.8493 1636.5 37.0821 1637.08C31.3143 1637.66 27.1233 1643.03 27.7215 1649.08Z" fill="white"/>
<path d="M5.89344 1477.1C6.49634 1483.15 11.8847 1487.56 17.9291 1486.96C23.9741 1486.35 28.3857 1480.96 27.7834 1474.92C27.1805 1468.87 21.7921 1464.46 15.7477 1465.07C9.70274 1465.67 5.29116 1471.06 5.89344 1477.1Z" fill="#FEEC88"/>
<path d="M5.82118 1548.1C6.42408 1554.15 11.8125 1558.56 17.8568 1557.96C23.9018 1557.35 28.3134 1551.96 27.7111 1545.92C27.1082 1539.87 21.7198 1535.46 15.6755 1536.07C9.63047 1536.67 5.2189 1542.06 5.82118 1548.1Z" fill="#FEEC88"/>
<path d="M5.74891 1619.1C6.35181 1625.15 11.7402 1629.56 17.7846 1628.96C23.8296 1628.35 28.2411 1622.96 27.6389 1616.92C27.036 1610.87 21.6476 1606.46 15.6032 1607.07C9.55821 1607.67 5.14663 1613.06 5.74891 1619.1Z" fill="white"/>
<path d="M6.86755 1500.1C7.44219 1506.15 12.5855 1510.56 18.3559 1509.96C24.1257 1509.35 28.3376 1503.96 27.7624 1497.92C27.1878 1491.87 22.0444 1487.46 16.2741 1488.07C10.5043 1488.67 6.29233 1494.06 6.86755 1500.1Z" fill="#FEEC88"/>
<path d="M6.79529 1571.1C7.36992 1577.15 12.5133 1581.56 18.2836 1580.96C24.0534 1580.35 28.2654 1574.96 27.6901 1568.92C27.1155 1562.87 21.9721 1558.46 16.2018 1559.07C10.432 1559.67 6.22006 1565.06 6.79529 1571.1Z" fill="#FEEC88"/>
<path d="M6.72302 1642.1C7.29766 1648.15 12.441 1652.56 18.2114 1651.96C23.9811 1651.35 28.1931 1645.96 27.6179 1639.92C27.0432 1633.87 21.8999 1629.46 16.1295 1630.07C10.3598 1630.67 6.1478 1636.06 6.72302 1642.1Z" fill="white"/>
<path d="M29.1649 893.261C29.7285 899.309 35.088 903.756 41.1362 903.193C47.185 902.63 51.6315 897.27 51.0686 891.221C50.505 885.173 45.1455 880.726 39.0973 881.289C33.0485 881.852 28.602 887.212 29.1649 893.261Z" fill="white"/>
<path d="M28.6317 964.259C29.1953 970.307 34.5548 974.754 40.603 974.191C46.6518 973.628 51.0983 968.268 50.5354 962.219C49.9718 956.171 44.6123 951.724 38.5641 952.287C32.5153 952.85 28.0688 958.21 28.6317 964.259Z" fill="white"/>
<path d="M28.0965 1035.26C28.6601 1041.31 34.0197 1045.75 40.0678 1045.19C46.1166 1044.63 50.5632 1039.27 50.0002 1033.22C49.4367 1027.17 44.0771 1022.72 38.0289 1023.29C31.9802 1023.85 27.5336 1029.21 28.0965 1035.26Z" fill="#FFEB8D"/>
<path d="M43.0301 911.366C43.5937 917.415 48.9532 921.861 55.002 921.298C61.0502 920.735 65.4967 915.375 64.9338 909.327C64.3709 903.278 59.0107 898.832 52.9625 899.395C46.9138 899.958 42.4672 905.318 43.0301 911.366Z" fill="white"/>
<path d="M42.495 982.364C43.0585 988.413 48.4181 992.86 54.4669 992.296C60.515 991.733 64.9616 986.373 64.3987 980.325C63.8357 974.276 58.4756 969.83 52.4274 970.393C46.3786 970.956 41.9321 976.316 42.495 982.364Z" fill="white"/>
<path d="M41.9598 1053.36C42.5234 1059.41 47.8829 1063.86 53.9317 1063.29C59.9799 1062.73 64.4264 1057.37 63.8635 1051.32C63.3006 1045.27 57.9404 1040.83 51.8922 1041.39C45.8435 1041.95 41.3969 1047.31 41.9598 1053.36Z" fill="#FFEB8D"/>
<path d="M29.8897 930.226C30.448 936.277 35.5792 940.743 41.3501 940.201C47.1216 939.659 51.3474 934.314 50.7892 928.263C50.2303 922.212 45.0991 917.746 39.3282 918.289C33.5567 918.831 29.3309 924.176 29.8897 930.226Z" fill="white"/>
<path d="M29.3546 1001.22C29.9128 1007.27 35.0441 1011.74 40.8149 1011.2C46.5864 1010.65 50.8122 1005.31 50.254 999.26C49.6951 993.209 44.5639 988.743 38.793 989.285C33.0215 989.827 28.7957 995.172 29.3546 1001.22Z" fill="white"/>
<path d="M28.8194 1072.22C29.3777 1078.27 34.5089 1082.74 40.2798 1082.19C46.0513 1081.65 50.2771 1076.31 49.7188 1070.26C49.16 1064.21 44.0288 1059.74 38.2579 1060.28C32.4864 1060.83 28.2606 1066.17 28.8194 1072.22Z" fill="#FFEB8D"/>
<path d="M8.11412 900.103C8.67767 906.151 14.0372 910.598 20.0854 910.035C26.1342 909.472 30.5807 904.112 30.0178 898.064C29.4543 892.015 24.0947 887.568 18.0465 888.131C11.9977 888.694 7.55119 894.054 8.11412 900.103Z" fill="white"/>
<path d="M7.57897 971.101C8.14251 977.15 13.5021 981.596 19.5502 981.033C25.599 980.47 30.0456 975.11 29.4826 969.062C28.9191 963.013 23.5595 958.566 17.5114 959.129C11.4626 959.692 7.01604 965.052 7.57897 971.101Z" fill="white"/>
<path d="M7.04381 1042.1C7.60736 1048.15 12.9669 1052.59 19.0151 1052.03C25.0639 1051.47 29.5104 1046.11 28.9475 1040.06C28.3839 1034.01 23.0244 1029.56 16.9762 1030.13C10.9274 1030.69 6.48088 1036.05 7.04381 1042.1Z" fill="#FFEB8D"/>
<path d="M8.93781 923.11C9.4731 929.158 14.5876 933.603 20.3618 933.038C26.1354 932.473 30.3823 927.112 29.8464 921.063C29.3111 915.015 24.1966 910.57 18.4225 911.135C12.6489 911.7 8.40194 917.062 8.93781 923.11Z" fill="white"/>
<path d="M8.40266 994.108C8.93795 1000.16 14.0525 1004.6 19.8266 1004.04C25.6002 1003.47 29.8471 998.11 29.3113 992.061C28.776 986.013 23.6615 981.568 17.8873 982.133C12.1137 982.698 7.86679 988.06 8.40266 994.108Z" fill="white"/>
<path d="M7.86945 1065.11C8.40474 1071.15 13.5193 1075.6 19.2934 1075.03C25.067 1074.47 29.3139 1069.11 28.7781 1063.06C28.2428 1057.01 23.1282 1052.57 17.3541 1053.13C11.5805 1053.7 7.33358 1059.06 7.86945 1065.11Z" fill="#FFEB8D"/>
<path d="M28.5536 1107.26C29.1171 1113.31 34.4767 1117.76 40.5248 1117.19C46.5736 1116.63 51.0202 1111.27 50.4573 1105.22C49.8937 1099.17 44.5341 1094.73 38.486 1095.29C32.4372 1095.85 27.9906 1101.21 28.5536 1107.26Z" fill="white"/>
<path d="M28.0204 1178.26C28.5839 1184.31 33.9435 1188.76 39.9916 1188.19C46.0404 1187.63 50.487 1182.27 49.9241 1176.22C49.3605 1170.17 44.0009 1165.73 37.9528 1166.29C31.904 1166.85 27.4574 1172.21 28.0204 1178.26Z" fill="white"/>
<path d="M27.4852 1249.26C28.0488 1255.31 33.4083 1259.75 39.4565 1259.19C45.5053 1258.63 49.9518 1253.27 49.3889 1247.22C48.8254 1241.17 43.4658 1236.72 37.4176 1237.29C31.3688 1237.85 26.9223 1243.21 27.4852 1249.26Z" fill="white"/>
<path d="M42.4188 1125.37C42.9824 1131.42 48.3419 1135.86 54.3907 1135.3C60.4389 1134.74 64.8854 1129.38 64.3225 1123.33C63.7596 1117.28 58.3994 1112.83 52.3512 1113.4C46.3024 1113.96 41.8559 1119.32 42.4188 1125.37Z" fill="white"/>
<path d="M41.8837 1196.37C42.4472 1202.41 47.8068 1206.86 53.8555 1206.3C59.9037 1205.74 64.3503 1200.38 63.7873 1194.33C63.2244 1188.28 57.8642 1183.83 51.8161 1184.39C45.7673 1184.96 41.3207 1190.32 41.8837 1196.37Z" fill="white"/>
<path d="M41.3485 1267.36C41.912 1273.41 47.2716 1277.86 53.3204 1277.3C59.3686 1276.73 63.8151 1271.37 63.2522 1265.32C62.6892 1259.28 57.3291 1254.83 51.2809 1255.39C45.2321 1255.96 40.7856 1261.32 41.3485 1267.36Z" fill="white"/>
<path d="M29.2784 1144.23C29.8367 1150.28 34.9679 1154.74 40.7388 1154.2C46.5102 1153.66 50.7361 1148.32 50.1778 1142.27C49.619 1136.21 44.4877 1131.75 38.7169 1132.29C32.9454 1132.83 28.7195 1138.18 29.2784 1144.23Z" fill="white"/>
<path d="M28.7432 1215.22C29.3015 1221.27 34.4327 1225.74 40.2036 1225.2C45.9751 1224.66 50.2009 1219.31 49.6427 1213.26C49.0838 1207.21 43.9526 1202.74 38.1817 1203.29C32.4102 1203.83 28.1844 1209.17 28.7432 1215.22Z" fill="white"/>
<path d="M28.2081 1286.22C28.7663 1292.27 33.8976 1296.74 39.6684 1296.2C45.4399 1295.65 49.6658 1290.31 49.1075 1284.26C48.5487 1278.21 43.4174 1273.74 37.6465 1274.29C31.8751 1274.83 27.6492 1280.17 28.2081 1286.22Z" fill="white"/>
<path d="M7.5028 1114.1C8.06634 1120.15 13.4259 1124.6 19.4741 1124.04C25.5229 1123.47 29.9694 1118.11 29.4065 1112.07C28.8429 1106.02 23.4834 1101.57 17.4352 1102.13C11.3864 1102.7 6.93987 1108.06 7.5028 1114.1Z" fill="white"/>
<path d="M6.96764 1185.1C7.53118 1191.15 12.8907 1195.6 18.9389 1195.03C24.9877 1194.47 29.4342 1189.11 28.8713 1183.06C28.3078 1177.01 22.9482 1172.57 16.9 1173.13C10.8513 1173.69 6.40471 1179.05 6.96764 1185.1Z" fill="white"/>
<path d="M6.43248 1256.1C6.99603 1262.15 12.3556 1266.6 18.4038 1266.03C24.4525 1265.47 28.8991 1260.11 28.3362 1254.06C27.7726 1248.01 22.4131 1243.57 16.3649 1244.13C10.3161 1244.69 5.86955 1250.05 6.43248 1256.1Z" fill="white"/>
<path d="M8.32649 1137.11C8.86177 1143.16 13.9763 1147.61 19.7505 1147.04C25.524 1146.47 29.771 1141.11 29.2351 1135.07C28.6998 1129.02 23.5853 1124.57 17.8111 1125.14C12.0376 1125.7 7.79061 1131.06 8.32649 1137.11Z" fill="white"/>
<path d="M7.79133 1208.11C8.32662 1214.16 13.4411 1218.6 19.2153 1218.04C24.9889 1217.47 29.2358 1212.11 28.6999 1206.06C28.1647 1200.02 23.0501 1195.57 17.276 1196.14C11.5024 1196.7 7.25546 1202.06 7.79133 1208.11Z" fill="white"/>
<path d="M7.25813 1279.11C7.79342 1285.16 12.9079 1289.6 18.6821 1289.04C24.4557 1288.47 28.7026 1283.11 28.1667 1277.06C27.6315 1271.01 22.5169 1266.57 16.7428 1267.13C10.9692 1267.7 6.72225 1273.06 7.25813 1279.11Z" fill="white"/>
<path d="M27.9442 1321.26C28.5078 1327.31 33.8673 1331.76 39.9155 1331.2C45.9643 1330.63 50.4108 1325.27 49.8479 1319.23C49.2843 1313.18 43.9248 1308.73 37.8766 1309.29C31.8278 1309.86 27.3813 1315.22 27.9442 1321.26Z" fill="white"/>
<path d="M27.411 1392.26C27.9745 1398.31 33.3341 1402.76 39.3823 1402.19C45.4311 1401.63 49.8776 1396.27 49.3147 1390.22C48.7511 1384.17 43.3916 1379.73 37.3434 1380.29C31.2946 1380.85 26.8481 1386.21 27.411 1392.26Z" fill="white"/>
<path d="M41.8094 1339.37C42.373 1345.42 47.7325 1349.87 53.7813 1349.3C59.8295 1348.74 64.276 1343.38 63.7131 1337.33C63.1502 1331.28 57.79 1326.84 51.7418 1327.4C45.6931 1327.96 41.2465 1333.32 41.8094 1339.37Z" fill="white"/>
<path d="M41.2743 1410.37C41.8378 1416.42 47.1974 1420.86 53.2462 1420.3C59.2943 1419.74 63.7409 1414.38 63.178 1408.33C62.615 1402.28 57.2549 1397.83 51.2067 1398.4C45.1579 1398.96 40.7113 1404.32 41.2743 1410.37Z" fill="white"/>
<path d="M28.669 1358.23C29.2273 1364.28 34.3585 1368.75 40.1294 1368.2C45.9009 1367.66 50.1267 1362.32 49.5684 1356.27C49.0096 1350.22 43.8784 1345.75 38.1075 1346.29C32.336 1346.83 28.1102 1352.18 28.669 1358.23Z" fill="white"/>
<path d="M28.1339 1429.23C28.6921 1435.28 33.8234 1439.74 39.5942 1439.2C45.3657 1438.66 49.5915 1433.31 49.0333 1427.26C48.4744 1421.21 43.3432 1416.75 37.5723 1417.29C31.8008 1417.83 27.575 1423.18 28.1339 1429.23Z" fill="white"/>
<path d="M6.89342 1328.11C7.45696 1334.16 12.8165 1338.6 18.8647 1338.04C24.9135 1337.48 29.36 1332.12 28.7971 1326.07C28.2335 1320.02 22.874 1315.57 16.8258 1316.14C10.777 1316.7 6.33049 1322.06 6.89342 1328.11Z" fill="white"/>
<path d="M6.35826 1399.1C6.92181 1405.15 12.2814 1409.6 18.3295 1409.04C24.3783 1408.47 28.8249 1403.11 28.2619 1397.07C27.6984 1391.02 22.3388 1386.57 16.2907 1387.13C10.2419 1387.7 5.79534 1393.06 6.35826 1399.1Z" fill="white"/>
<path d="M7.71711 1351.11C8.2524 1357.16 13.3669 1361.61 19.1411 1361.04C24.9147 1360.48 29.1616 1355.12 28.6257 1349.07C28.0904 1343.02 22.9759 1338.57 17.2017 1339.14C11.4282 1339.7 7.18124 1345.07 7.71711 1351.11Z" fill="white"/>
<path d="M7.18195 1422.11C7.71724 1428.16 12.8318 1432.61 18.6059 1432.04C24.3795 1431.47 28.6264 1426.11 28.0906 1420.07C27.5553 1414.02 22.4407 1409.57 16.6666 1410.14C10.893 1410.7 6.64608 1416.06 7.18195 1422.11Z" fill="white"/>
<rect x="70" width="70" height="1684" fill="#FFA7BF"/>
<path d="M95.9013 37.1229C96.5042 43.1671 101.893 47.5791 107.937 46.9767C113.982 46.3743 118.393 40.9856 117.791 34.9407C117.188 28.8958 111.8 24.4844 105.756 25.0868C99.7106 25.6892 95.299 31.078 95.9013 37.1229Z" fill="#EDF399"/>
<path d="M95.829 108.123C96.4319 114.167 101.82 118.579 107.865 117.977C113.91 117.374 118.321 111.986 117.719 105.941C117.116 99.8958 111.728 95.4844 105.683 96.0868C99.6383 96.6892 95.2267 102.078 95.829 108.123Z" fill="#EDF399"/>
<path d="M95.7567 179.123C96.3596 185.167 101.748 189.579 107.792 188.977C113.837 188.374 118.249 182.986 117.647 176.941C117.044 170.896 111.655 166.484 105.611 167.087C99.566 167.689 95.1544 173.078 95.7567 179.123Z" fill="#EDF399"/>
<path d="M109.884 55.1359C110.487 61.1808 115.875 65.5928 121.92 64.9904C127.964 64.388 132.376 58.9992 131.774 52.9543C131.171 46.9094 125.782 42.4981 119.738 43.1005C113.693 43.7029 109.281 49.0916 109.884 55.1359Z" fill="#EDF399"/>
<path d="M109.811 126.136C110.414 132.181 115.803 136.593 121.848 135.99C127.892 135.388 132.304 129.999 131.701 123.954C131.099 117.909 125.71 113.498 119.666 114.1C113.621 114.703 109.209 120.092 109.811 126.136Z" fill="#EDF399"/>
<path d="M109.739 197.136C110.342 203.181 115.73 207.593 121.775 206.99C127.82 206.388 132.231 200.999 131.629 194.954C131.027 188.909 125.638 184.498 119.593 185.1C113.548 185.703 109.137 191.092 109.739 197.136Z" fill="#EDF399"/>
<path d="M96.8661 74.0818C97.4637 80.1284 102.624 84.5609 108.391 83.9814C114.159 83.4019 118.35 78.0294 117.752 71.9828C117.154 65.9356 111.994 61.5031 106.227 62.0832C100.459 62.6627 96.2678 68.0346 96.8661 74.0818Z" fill="#EDF399"/>
<path d="M96.7938 145.082C97.3914 151.128 102.552 155.561 108.319 154.981C114.087 154.402 118.278 149.029 117.68 142.983C117.082 136.936 111.922 132.503 106.154 133.083C100.387 133.663 96.1956 139.035 96.7938 145.082Z" fill="#EDF399"/>
<path d="M96.7215 216.082C97.3192 222.128 102.479 226.561 108.247 225.981C114.014 225.402 118.205 220.029 117.608 213.983C117.01 207.936 111.849 203.503 106.082 204.083C100.314 204.663 96.1233 210.035 96.7215 216.082Z" fill="#EDF399"/>
<path d="M74.8934 44.1014C75.4963 50.1463 80.8847 54.5576 86.9291 53.9552C92.9741 53.3528 97.3857 47.9641 96.7834 41.9198C96.1805 35.8749 90.7921 31.4629 84.7477 32.0653C78.7027 32.6677 74.2912 38.0565 74.8934 44.1014Z" fill="#EDF399"/>
<path d="M74.8212 115.101C75.4241 121.146 80.8125 125.558 86.8568 124.955C92.9018 124.353 97.3134 118.964 96.7111 112.92C96.1082 106.875 90.7198 102.463 84.6755 103.065C78.6305 103.668 74.2189 109.056 74.8212 115.101Z" fill="#EDF399"/>
<path d="M74.7489 186.101C75.3518 192.146 80.7402 196.558 86.7846 195.955C92.8296 195.353 97.2411 189.964 96.6389 183.92C96.036 177.875 90.6476 173.463 84.6032 174.065C78.5582 174.668 74.1466 180.056 74.7489 186.101Z" fill="#EDF399"/>
<path d="M75.8676 67.1024C76.4422 73.1466 81.5855 77.5584 87.3559 76.9557C93.1257 76.353 97.3376 70.9641 96.7624 64.9192C96.1878 58.8749 91.0444 54.4632 85.2741 55.0659C79.5043 55.6686 75.2923 61.0575 75.8676 67.1024Z" fill="#EDF399"/>
<path d="M75.7953 138.102C76.3699 144.147 81.5133 148.558 87.2836 147.956C93.0534 147.353 97.2654 141.964 96.6901 135.919C96.1155 129.875 90.9721 125.463 85.2018 126.066C79.432 126.669 75.2201 132.058 75.7953 138.102Z" fill="#EDF399"/>
<path d="M75.723 209.102C76.2977 215.147 81.441 219.558 87.2114 218.956C92.9811 218.353 97.1931 212.964 96.6179 206.919C96.0432 200.875 90.8999 196.463 85.1295 197.066C79.3598 197.669 75.1478 203.058 75.723 209.102Z" fill="#EDF399"/>
<path d="M96.6825 251.125C97.2854 257.169 102.674 261.581 108.718 260.979C114.763 260.376 119.175 254.988 118.572 248.943C117.97 242.898 112.581 238.486 106.537 239.089C100.492 239.691 96.0802 245.08 96.6825 251.125Z" fill="white"/>
<path d="M96.6102 322.125C97.2131 328.169 102.602 332.581 108.646 331.979C114.691 331.376 119.102 325.988 118.5 319.943C117.897 313.898 112.509 309.486 106.465 310.089C100.42 310.691 96.008 316.08 96.6102 322.125Z" fill="white"/>
<path d="M96.538 393.125C97.1409 399.169 102.529 403.581 108.574 402.979C114.619 402.376 119.03 396.988 118.428 390.943C117.825 384.898 112.437 380.486 106.392 381.089C100.347 381.691 95.9357 387.08 96.538 393.125Z" fill="white"/>
<path d="M110.665 269.138C111.268 275.183 116.656 279.595 122.701 278.992C128.746 278.39 133.157 273.001 132.555 266.956C131.953 260.911 126.564 256.5 120.519 257.102C114.474 257.705 110.063 263.094 110.665 269.138Z" fill="white"/>
<path d="M110.593 340.138C111.196 346.183 116.584 350.595 122.629 349.992C128.673 349.39 133.085 344.001 132.483 337.956C131.88 331.911 126.491 327.5 120.447 328.102C114.402 328.705 109.99 334.094 110.593 340.138Z" fill="white"/>
<path d="M110.52 411.138C111.123 417.183 116.512 421.595 122.557 420.992C128.601 420.39 133.013 415.001 132.41 408.956C131.808 402.911 126.419 398.5 120.375 399.102C114.33 399.705 109.918 405.094 110.52 411.138Z" fill="white"/>
<path d="M97.6473 288.084C98.2449 294.13 103.405 298.563 109.172 297.983C114.94 297.404 119.131 292.031 118.534 285.985C117.935 279.938 112.775 275.505 107.008 276.085C101.24 276.665 97.0491 282.037 97.6473 288.084Z" fill="white"/>
<path d="M97.5751 359.084C98.1727 365.13 103.333 369.563 109.1 368.983C114.868 368.404 119.059 363.031 118.461 356.985C117.863 350.938 112.703 346.505 106.936 347.085C101.168 347.665 96.9768 353.037 97.5751 359.084Z" fill="white"/>
<path d="M97.5028 430.084C98.1004 436.13 103.261 440.563 109.028 439.983C114.796 439.404 118.987 434.031 118.389 427.985C117.791 421.938 112.631 417.505 106.863 418.085C101.096 418.665 96.9046 424.037 97.5028 430.084Z" fill="white"/>
<path d="M75.6747 258.103C76.2776 264.148 81.666 268.56 87.7103 267.957C93.7553 267.355 98.1669 261.966 97.5646 255.922C96.9617 249.877 91.5734 245.465 85.529 246.067C79.484 246.67 75.0724 252.058 75.6747 258.103Z" fill="white"/>
<path d="M75.6024 329.103C76.2053 335.148 81.5937 339.56 87.6381 338.957C93.6831 338.355 98.0946 332.966 97.4924 326.922C96.8895 320.877 91.5011 316.465 85.4567 317.067C79.4117 317.67 75.0001 323.058 75.6024 329.103Z" fill="white"/>
<path d="M75.5302 400.103C76.1331 406.148 81.5214 410.56 87.5658 409.957C93.6108 409.355 98.0224 403.966 97.4201 397.922C96.8172 391.877 91.4288 387.465 85.3844 388.067C79.3395 388.67 74.9279 394.058 75.5302 400.103Z" fill="white"/>
<path d="M76.6488 281.104C77.2234 287.149 82.3668 291.56 88.1371 290.958C93.9069 290.355 98.1189 284.966 97.5437 278.921C96.969 272.877 91.8257 268.465 86.0553 269.068C80.2855 269.671 76.0736 275.059 76.6488 281.104Z" fill="white"/>
<path d="M76.5765 352.104C77.1512 358.149 82.2945 362.56 88.0649 361.958C93.8346 361.355 98.0466 355.966 97.4714 349.921C96.8967 343.877 91.7534 339.465 85.983 340.068C80.2133 340.671 76.0013 346.059 76.5765 352.104Z" fill="white"/>
<path d="M76.5043 423.104C77.0789 429.149 82.2223 433.56 87.9926 432.958C93.7624 432.355 97.9743 426.966 97.3991 420.921C96.8245 414.877 91.6811 410.465 85.9108 411.068C80.141 411.671 75.929 417.059 76.5043 423.104Z" fill="white"/>
<path d="M97.4657 465.125C98.0686 471.169 103.457 475.581 109.501 474.979C115.546 474.376 119.958 468.988 119.356 462.943C118.753 456.898 113.364 452.486 107.32 453.089C101.275 453.691 96.8634 459.08 97.4657 465.125Z" fill="white"/>
<path d="M97.3934 536.125C97.9963 542.169 103.385 546.581 109.429 545.979C115.474 545.376 119.886 539.988 119.283 533.943C118.68 527.898 113.292 523.486 107.248 524.089C101.203 524.691 96.7912 530.08 97.3934 536.125Z" fill="white"/>
<path d="M97.3212 607.125C97.9241 613.169 103.312 617.581 109.357 616.979C115.402 616.376 119.813 610.988 119.211 604.943C118.608 598.898 113.22 594.486 107.175 595.089C101.13 595.691 96.7189 601.08 97.3212 607.125Z" fill="#FFEB8D"/>
<path d="M111.448 483.138C112.051 489.183 117.439 493.595 123.484 492.992C129.529 492.39 133.94 487.001 133.338 480.956C132.736 474.911 127.347 470.5 121.302 471.102C115.257 471.705 110.846 477.094 111.448 483.138Z" fill="white"/>
<path d="M111.376 554.138C111.979 560.183 117.367 564.595 123.412 563.992C129.457 563.39 133.868 558.001 133.266 551.956C132.664 545.911 127.275 541.5 121.23 542.102C115.185 542.705 110.774 548.094 111.376 554.138Z" fill="white"/>
<path d="M111.304 625.138C111.906 631.183 117.295 635.595 123.34 634.992C129.384 634.39 133.796 629.001 133.194 622.956C132.591 616.911 127.202 612.5 121.158 613.102C115.113 613.705 110.701 619.094 111.304 625.138Z" fill="#FFEB8D"/>
<path d="M98.4305 502.084C99.0281 508.13 104.188 512.563 109.956 511.983C115.723 511.404 119.914 506.031 119.317 499.985C118.719 493.938 113.558 489.505 107.791 490.085C102.023 490.665 97.8323 496.037 98.4305 502.084Z" fill="white"/>
<path d="M98.3583 573.084C98.9559 579.13 104.116 583.563 109.883 582.983C115.651 582.404 119.842 577.031 119.244 570.985C118.646 564.938 113.486 560.505 107.719 561.085C101.951 561.665 97.76 567.037 98.3583 573.084Z" fill="white"/>
<path d="M98.286 644.084C98.8836 650.13 104.044 654.563 109.811 653.983C115.579 653.404 119.77 648.031 119.172 641.985C118.574 635.938 113.414 631.505 107.647 632.085C101.879 632.665 97.6878 638.037 98.286 644.084Z" fill="#FFEB8D"/>
<path d="M76.4579 472.103C77.0608 478.148 82.4492 482.56 88.4936 481.957C94.5385 481.355 98.9501 475.966 98.3478 469.922C97.7449 463.877 92.3566 459.465 86.3122 460.067C80.2672 460.67 75.8556 466.058 76.4579 472.103Z" fill="white"/>
<path d="M76.3856 543.103C76.9885 549.148 82.3769 553.56 88.4213 552.957C94.4663 552.355 98.8779 546.966 98.2756 540.922C97.6727 534.877 92.2843 530.465 86.2399 531.067C80.1949 531.67 75.7834 537.058 76.3856 543.103Z" fill="white"/>
<path d="M76.3134 614.103C76.9163 620.148 82.3046 624.56 88.349 623.957C94.394 623.355 98.8056 617.966 98.2033 611.922C97.6004 605.877 92.212 601.465 86.1677 602.067C80.1227 602.67 75.7111 608.058 76.3134 614.103Z" fill="#FFEB8D"/>
<path d="M77.432 495.104C78.0066 501.149 83.15 505.56 88.9203 504.958C94.6901 504.355 98.9021 498.966 98.3269 492.921C97.7522 486.877 92.6089 482.465 86.8385 483.068C81.0687 483.671 76.8568 489.059 77.432 495.104Z" fill="white"/>
<path d="M77.3597 566.104C77.9344 572.149 83.0777 576.56 88.8481 575.958C94.6178 575.355 98.8298 569.966 98.2546 563.921C97.68 557.877 92.5366 553.465 86.7662 554.068C80.9965 554.671 76.7845 560.059 77.3597 566.104Z" fill="white"/>
<path d="M77.2875 637.104C77.8621 643.149 83.0055 647.56 88.7758 646.958C94.5456 646.355 98.7575 640.966 98.1823 634.921C97.6077 628.877 92.4643 624.465 86.694 625.068C80.9242 625.671 76.7123 631.059 77.2875 637.104Z" fill="#FFEB8D"/>
<path d="M98.247 679.127C98.8499 685.171 104.238 689.583 110.283 688.981C116.328 688.378 120.739 682.989 120.137 676.945C119.534 670.9 114.146 666.488 108.101 667.091C102.056 667.693 97.6447 673.082 98.247 679.127Z" fill="white"/>
<path d="M98.1747 750.127C98.7776 756.171 104.166 760.583 110.21 759.981C116.255 759.378 120.667 753.989 120.065 747.945C119.462 741.9 114.073 737.488 108.029 738.091C101.984 738.693 97.5724 744.082 98.1747 750.127Z" fill="white"/>
<path d="M98.1024 821.127C98.7053 827.171 104.094 831.583 110.138 830.981C116.183 830.378 120.595 824.989 119.992 818.945C119.389 812.9 114.001 808.488 107.957 809.091C101.912 809.693 97.5001 815.082 98.1024 821.127Z" fill="white"/>
<path d="M112.229 697.14C112.832 703.185 118.221 707.597 124.266 706.994C130.31 706.392 134.722 701.003 134.119 694.958C133.517 688.913 128.128 684.502 122.084 685.104C116.039 685.707 111.627 691.096 112.229 697.14Z" fill="white"/>
<path d="M112.157 768.14C112.76 774.185 118.148 778.597 124.193 777.994C130.238 777.392 134.649 772.003 134.047 765.958C133.445 759.913 128.056 755.502 122.011 756.104C115.966 756.707 111.555 762.096 112.157 768.14Z" fill="white"/>
<path d="M112.085 839.14C112.688 845.185 118.076 849.597 124.121 848.994C130.165 848.392 134.577 843.003 133.975 836.958C133.373 830.913 127.984 826.502 121.939 827.104C115.894 827.707 111.483 833.096 112.085 839.14Z" fill="white"/>
<path d="M99.2118 716.086C99.8094 722.132 104.97 726.565 110.737 725.985C116.505 725.406 120.696 720.033 120.098 713.987C119.5 707.94 114.34 703.507 108.572 704.087C102.805 704.667 98.6136 710.039 99.2118 716.086Z" fill="white"/>
<path d="M99.1395 787.086C99.7371 793.132 104.897 797.565 110.665 796.985C116.432 796.406 120.623 791.033 120.026 784.987C119.427 778.94 114.267 774.507 108.5 775.087C102.732 775.667 98.5413 781.039 99.1395 787.086Z" fill="white"/>
<path d="M99.0672 858.086C99.6649 864.132 104.825 868.565 110.592 867.985C116.36 867.406 120.551 862.033 119.953 855.987C119.355 849.94 114.195 845.507 108.428 846.087C102.66 846.667 98.469 852.039 99.0672 858.086Z" fill="white"/>
<path d="M77.2391 686.105C77.842 692.15 83.2304 696.562 89.2748 695.959C95.3198 695.357 99.7314 689.968 99.1291 683.924C98.5262 677.879 93.1378 673.467 87.0934 674.069C81.0484 674.672 76.6369 680.06 77.2391 686.105Z" fill="white"/>
<path d="M77.1669 757.105C77.7698 763.15 83.1582 767.562 89.2025 766.959C95.2475 766.357 99.6591 760.968 99.0568 754.924C98.4539 748.879 93.0655 744.467 87.0212 745.069C80.9762 745.672 76.5646 751.06 77.1669 757.105Z" fill="white"/>
<path d="M77.0946 828.105C77.6975 834.15 83.0859 838.562 89.1303 837.959C95.1753 837.357 99.5868 831.968 98.9846 825.924C98.3817 819.879 92.9933 815.467 86.9489 816.069C80.9039 816.672 76.4923 822.06 77.0946 828.105Z" fill="white"/>
<path d="M78.2133 709.106C78.7879 715.151 83.9312 719.562 89.7016 718.96C95.4714 718.357 99.6833 712.968 99.1081 706.923C98.5335 700.879 93.3901 696.467 87.6198 697.07C81.85 697.672 77.638 703.061 78.2133 709.106Z" fill="white"/>
<path d="M78.141 780.106C78.7156 786.151 83.859 790.562 89.6293 789.96C95.3991 789.357 99.6111 783.968 99.0358 777.923C98.4612 771.879 93.3179 767.467 87.5475 768.07C81.7777 768.672 77.5658 774.061 78.141 780.106Z" fill="white"/>
<path d="M78.0687 851.106C78.6434 857.151 83.7867 861.562 89.5571 860.96C95.3268 860.357 99.5388 854.968 98.9636 848.923C98.3889 842.879 93.2456 838.467 87.4752 839.07C81.7055 839.672 77.4935 845.061 78.0687 851.106Z" fill="white"/>
<path d="M96.9013 1470.12C97.5042 1476.17 102.893 1480.58 108.937 1479.98C114.982 1479.37 119.393 1473.99 118.791 1467.94C118.188 1461.9 112.8 1457.48 106.756 1458.09C100.711 1458.69 96.299 1464.08 96.9013 1470.12Z" fill="white"/>
<path d="M96.829 1541.12C97.4319 1547.17 102.82 1551.58 108.865 1550.98C114.91 1550.37 119.321 1544.99 118.719 1538.94C118.116 1532.9 112.728 1528.48 106.683 1529.09C100.638 1529.69 96.2267 1535.08 96.829 1541.12Z" fill="white"/>
<path d="M96.7567 1612.12C97.3596 1618.17 102.748 1622.58 108.792 1621.98C114.837 1621.37 119.249 1615.99 118.647 1609.94C118.044 1603.9 112.655 1599.48 106.611 1600.09C100.566 1600.69 96.1544 1606.08 96.7567 1612.12Z" fill="white"/>
<path d="M110.884 1488.14C111.487 1494.18 116.875 1498.59 122.92 1497.99C128.964 1497.39 133.376 1492 132.774 1485.95C132.171 1479.91 126.782 1475.5 120.738 1476.1C114.693 1476.7 110.281 1482.09 110.884 1488.14Z" fill="white"/>
<path d="M110.811 1559.14C111.414 1565.18 116.803 1569.59 122.848 1568.99C128.892 1568.39 133.304 1563 132.701 1556.95C132.099 1550.91 126.71 1546.5 120.666 1547.1C114.621 1547.7 110.209 1553.09 110.811 1559.14Z" fill="white"/>
<path d="M110.739 1630.14C111.342 1636.18 116.73 1640.59 122.775 1639.99C128.82 1639.39 133.231 1634 132.629 1627.95C132.027 1621.91 126.638 1617.5 120.593 1618.1C114.548 1618.7 110.137 1624.09 110.739 1630.14Z" fill="white"/>
<path d="M97.8661 1507.08C98.4637 1513.13 103.624 1517.56 109.391 1516.98C115.159 1516.4 119.35 1511.03 118.752 1504.98C118.154 1498.94 112.994 1494.5 107.227 1495.08C101.459 1495.66 97.2678 1501.03 97.8661 1507.08Z" fill="white"/>
<path d="M97.7938 1578.08C98.3914 1584.13 103.552 1588.56 109.319 1587.98C115.087 1587.4 119.278 1582.03 118.68 1575.98C118.082 1569.94 112.922 1565.5 107.154 1566.08C101.387 1566.66 97.1956 1572.03 97.7938 1578.08Z" fill="white"/>
<path d="M97.7215 1649.08C98.3192 1655.13 103.479 1659.56 109.247 1658.98C115.014 1658.4 119.205 1653.03 118.608 1646.98C118.01 1640.94 112.849 1636.5 107.082 1637.08C101.314 1637.66 97.1233 1643.03 97.7215 1649.08Z" fill="white"/>
<path d="M75.8934 1477.1C76.4963 1483.15 81.8847 1487.56 87.9291 1486.96C93.9741 1486.35 98.3857 1480.96 97.7834 1474.92C97.1805 1468.87 91.7921 1464.46 85.7477 1465.07C79.7027 1465.67 75.2912 1471.06 75.8934 1477.1Z" fill="white"/>
<path d="M75.8212 1548.1C76.4241 1554.15 81.8125 1558.56 87.8568 1557.96C93.9018 1557.35 98.3134 1551.96 97.7111 1545.92C97.1082 1539.87 91.7198 1535.46 85.6755 1536.07C79.6305 1536.67 75.2189 1542.06 75.8212 1548.1Z" fill="white"/>
<path d="M75.7489 1619.1C76.3518 1625.15 81.7402 1629.56 87.7846 1628.96C93.8296 1628.35 98.2411 1622.96 97.6389 1616.92C97.036 1610.87 91.6476 1606.46 85.6032 1607.07C79.5582 1607.67 75.1466 1613.06 75.7489 1619.1Z" fill="white"/>
<path d="M76.8676 1500.1C77.4422 1506.15 82.5855 1510.56 88.3559 1509.96C94.1257 1509.35 98.3376 1503.96 97.7624 1497.92C97.1878 1491.87 92.0444 1487.46 86.2741 1488.07C80.5043 1488.67 76.2923 1494.06 76.8676 1500.1Z" fill="white"/>
<path d="M76.7953 1571.1C77.3699 1577.15 82.5133 1581.56 88.2836 1580.96C94.0534 1580.35 98.2654 1574.96 97.6901 1568.92C97.1155 1562.87 91.9721 1558.46 86.2018 1559.07C80.432 1559.67 76.2201 1565.06 76.7953 1571.1Z" fill="white"/>
<path d="M76.723 1642.1C77.2977 1648.15 82.441 1652.56 88.2114 1651.96C93.9811 1651.35 98.1931 1645.96 97.6179 1639.92C97.0432 1633.87 91.8999 1629.46 86.1295 1630.07C80.3598 1630.67 76.1478 1636.06 76.723 1642.1Z" fill="white"/>
<path d="M99.1649 893.261C99.7285 899.309 105.088 903.756 111.136 903.193C117.185 902.63 121.632 897.27 121.069 891.221C120.505 885.173 115.145 880.726 109.097 881.289C103.049 881.852 98.602 887.212 99.1649 893.261Z" fill="#FFEB8D"/>
<path d="M98.6317 964.259C99.1953 970.307 104.555 974.754 110.603 974.191C116.652 973.628 121.098 968.268 120.535 962.219C119.972 956.171 114.612 951.724 108.564 952.287C102.515 952.85 98.0688 958.21 98.6317 964.259Z" fill="white"/>
<path d="M98.0965 1035.26C98.6601 1041.31 104.02 1045.75 110.068 1045.19C116.117 1044.63 120.563 1039.27 120 1033.22C119.437 1027.17 114.077 1022.72 108.029 1023.29C101.98 1023.85 97.5336 1029.21 98.0965 1035.26Z" fill="white"/>
<path d="M113.03 911.366C113.594 917.415 118.953 921.861 125.002 921.298C131.05 920.735 135.497 915.375 134.934 909.327C134.371 903.278 129.011 898.832 122.963 899.395C116.914 899.958 112.467 905.318 113.03 911.366Z" fill="#FFEB8D"/>
<path d="M112.495 982.364C113.059 988.413 118.418 992.86 124.467 992.296C130.515 991.733 134.962 986.373 134.399 980.325C133.836 974.276 128.476 969.83 122.427 970.393C116.379 970.956 111.932 976.316 112.495 982.364Z" fill="white"/>
<path d="M111.96 1053.36C112.523 1059.41 117.883 1063.86 123.932 1063.29C129.98 1062.73 134.426 1057.37 133.864 1051.32C133.301 1045.27 127.94 1040.83 121.892 1041.39C115.843 1041.95 111.397 1047.31 111.96 1053.36Z" fill="white"/>
<path d="M99.8897 930.226C100.448 936.277 105.579 940.743 111.35 940.201C117.122 939.659 121.347 934.314 120.789 928.263C120.23 922.212 115.099 917.746 109.328 918.289C103.557 918.831 99.3309 924.176 99.8897 930.226Z" fill="#FFEB8D"/>
<path d="M99.3546 1001.22C99.9128 1007.27 105.044 1011.74 110.815 1011.2C116.586 1010.65 120.812 1005.31 120.254 999.26C119.695 993.209 114.564 988.743 108.793 989.285C103.022 989.827 98.7957 995.172 99.3546 1001.22Z" fill="white"/>
<path d="M98.8194 1072.22C99.3777 1078.27 104.509 1082.74 110.28 1082.19C116.051 1081.65 120.277 1076.31 119.719 1070.26C119.16 1064.21 114.029 1059.74 108.258 1060.28C102.486 1060.83 98.2606 1066.17 98.8194 1072.22Z" fill="white"/>
<path d="M78.1141 900.103C78.6777 906.151 84.0372 910.598 90.0854 910.035C96.1342 909.472 100.581 904.112 100.018 898.064C99.4543 892.015 94.0947 887.568 88.0465 888.131C81.9977 888.694 77.5512 894.054 78.1141 900.103Z" fill="#FFEB8D"/>
<path d="M77.579 971.101C78.1425 977.15 83.5021 981.596 89.5502 981.033C95.599 980.47 100.046 975.11 99.4826 969.062C98.9191 963.013 93.5595 958.566 87.5114 959.129C81.4626 959.692 77.016 965.052 77.579 971.101Z" fill="white"/>
<path d="M77.0438 1042.1C77.6074 1048.15 82.9669 1052.59 89.0151 1052.03C95.0639 1051.47 99.5104 1046.11 98.9475 1040.06C98.3839 1034.01 93.0244 1029.56 86.9762 1030.13C80.9274 1030.69 76.4809 1036.05 77.0438 1042.1Z" fill="white"/>
<path d="M78.9378 923.11C79.4731 929.158 84.5876 933.603 90.3618 933.038C96.1354 932.473 100.382 927.112 99.8464 921.063C99.3111 915.015 94.1966 910.57 88.4225 911.135C82.6489 911.7 78.4019 917.062 78.9378 923.11Z" fill="#FFEB8D"/>
<path d="M78.4027 994.108C78.9379 1000.16 84.0525 1004.6 89.8266 1004.04C95.6002 1003.47 99.8471 998.11 99.3113 992.061C98.776 986.013 93.6615 981.568 87.8873 982.133C82.1137 982.698 77.8668 988.06 78.4027 994.108Z" fill="white"/>
<path d="M77.8695 1065.11C78.4047 1071.15 83.5193 1075.6 89.2934 1075.03C95.067 1074.47 99.3139 1069.11 98.7781 1063.06C98.2428 1057.01 93.1282 1052.57 87.3541 1053.13C81.5805 1053.7 77.3336 1059.06 77.8695 1065.11Z" fill="white"/>
<path d="M98.5536 1107.26C99.1171 1113.31 104.477 1117.76 110.525 1117.19C116.574 1116.63 121.02 1111.27 120.457 1105.22C119.894 1099.17 114.534 1094.73 108.486 1095.29C102.437 1095.85 97.9906 1101.21 98.5536 1107.26Z" fill="white"/>
<path d="M98.0204 1178.26C98.5839 1184.31 103.943 1188.76 109.992 1188.19C116.04 1187.63 120.487 1182.27 119.924 1176.22C119.361 1170.17 114.001 1165.73 107.953 1166.29C101.904 1166.85 97.4574 1172.21 98.0204 1178.26Z" fill="white"/>
<path d="M97.4852 1249.26C98.0488 1255.31 103.408 1259.75 109.456 1259.19C115.505 1258.63 119.952 1253.27 119.389 1247.22C118.825 1241.17 113.466 1236.72 107.418 1237.29C101.369 1237.85 96.9223 1243.21 97.4852 1249.26Z" fill="white"/>
<path d="M112.419 1125.37C112.982 1131.42 118.342 1135.86 124.391 1135.3C130.439 1134.74 134.885 1129.38 134.322 1123.33C133.76 1117.28 128.399 1112.83 122.351 1113.4C116.302 1113.96 111.856 1119.32 112.419 1125.37Z" fill="white"/>
<path d="M111.884 1196.37C112.447 1202.41 117.807 1206.86 123.856 1206.3C129.904 1205.74 134.35 1200.38 133.787 1194.33C133.224 1188.28 127.864 1183.83 121.816 1184.39C115.767 1184.96 111.321 1190.32 111.884 1196.37Z" fill="white"/>
<path d="M111.349 1267.36C111.912 1273.41 117.272 1277.86 123.32 1277.3C129.369 1276.73 133.815 1271.37 133.252 1265.32C132.689 1259.28 127.329 1254.83 121.281 1255.39C115.232 1255.96 110.786 1261.32 111.349 1267.36Z" fill="white"/>
<path d="M99.2784 1144.23C99.8367 1150.28 104.968 1154.74 110.739 1154.2C116.51 1153.66 120.736 1148.32 120.178 1142.27C119.619 1136.21 114.488 1131.75 108.717 1132.29C102.945 1132.83 98.7195 1138.18 99.2784 1144.23Z" fill="white"/>
<path d="M98.7432 1215.22C99.3015 1221.27 104.433 1225.74 110.204 1225.2C115.975 1224.66 120.201 1219.31 119.643 1213.26C119.084 1207.21 113.953 1202.74 108.182 1203.29C102.41 1203.83 98.1844 1209.17 98.7432 1215.22Z" fill="white"/>
<path d="M98.2081 1286.22C98.7663 1292.27 103.898 1296.74 109.668 1296.2C115.44 1295.65 119.666 1290.31 119.108 1284.26C118.549 1278.21 113.417 1273.74 107.647 1274.29C101.875 1274.83 97.6492 1280.17 98.2081 1286.22Z" fill="white"/>
<path d="M77.5028 1114.1C78.0663 1120.15 83.4259 1124.6 89.4741 1124.04C95.5229 1123.47 99.9694 1118.11 99.4065 1112.07C98.8429 1106.02 93.4834 1101.57 87.4352 1102.13C81.3864 1102.7 76.9399 1108.06 77.5028 1114.1Z" fill="white"/>
<path d="M76.9676 1185.1C77.5312 1191.15 82.8907 1195.6 88.9389 1195.03C94.9877 1194.47 99.4342 1189.11 98.8713 1183.06C98.3078 1177.01 92.9482 1172.57 86.9 1173.13C80.8513 1173.69 76.4047 1179.05 76.9676 1185.1Z" fill="white"/>
<path d="M76.4325 1256.1C76.996 1262.15 82.3556 1266.6 88.4038 1266.03C94.4525 1265.47 98.8991 1260.11 98.3362 1254.06C97.7726 1248.01 92.4131 1243.57 86.3649 1244.13C80.3161 1244.69 75.8696 1250.05 76.4325 1256.1Z" fill="white"/>
<path d="M78.3265 1137.11C78.8618 1143.16 83.9763 1147.61 89.7505 1147.04C95.524 1146.47 99.771 1141.11 99.2351 1135.07C98.6998 1129.02 93.5853 1124.57 87.8111 1125.14C82.0376 1125.7 77.7906 1131.06 78.3265 1137.11Z" fill="white"/>
<path d="M77.7913 1208.11C78.3266 1214.16 83.4411 1218.6 89.2153 1218.04C94.9889 1217.47 99.2358 1212.11 98.6999 1206.06C98.1647 1200.02 93.0501 1195.57 87.276 1196.14C81.5024 1196.7 77.2555 1202.06 77.7913 1208.11Z" fill="white"/>
<path d="M77.2581 1279.11C77.7934 1285.16 82.9079 1289.6 88.6821 1289.04C94.4557 1288.47 98.7026 1283.11 98.1667 1277.06C97.6315 1271.01 92.5169 1266.57 86.7428 1267.13C80.9692 1267.7 76.7223 1273.06 77.2581 1279.11Z" fill="white"/>
<path d="M97.9442 1321.26C98.5078 1327.31 103.867 1331.76 109.915 1331.2C115.964 1330.63 120.411 1325.27 119.848 1319.23C119.284 1313.18 113.925 1308.73 107.877 1309.29C101.828 1309.86 97.3813 1315.22 97.9442 1321.26Z" fill="#EDF399"/>
<path d="M97.411 1392.26C97.9745 1398.31 103.334 1402.76 109.382 1402.19C115.431 1401.63 119.878 1396.27 119.315 1390.22C118.751 1384.17 113.392 1379.73 107.343 1380.29C101.295 1380.85 96.8481 1386.21 97.411 1392.26Z" fill="#EDF399"/>
<path d="M111.809 1339.37C112.373 1345.42 117.733 1349.87 123.781 1349.3C129.829 1348.74 134.276 1343.38 133.713 1337.33C133.15 1331.28 127.79 1326.84 121.742 1327.4C115.693 1327.96 111.247 1333.32 111.809 1339.37Z" fill="#EDF399"/>
<path d="M111.274 1410.37C111.838 1416.42 117.197 1420.86 123.246 1420.3C129.294 1419.74 133.741 1414.38 133.178 1408.33C132.615 1402.28 127.255 1397.83 121.207 1398.4C115.158 1398.96 110.711 1404.32 111.274 1410.37Z" fill="#EDF399"/>
<path d="M98.669 1358.23C99.2273 1364.28 104.359 1368.75 110.129 1368.2C115.901 1367.66 120.127 1362.32 119.568 1356.27C119.01 1350.22 113.878 1345.75 108.107 1346.29C102.336 1346.83 98.1102 1352.18 98.669 1358.23Z" fill="#EDF399"/>
<path d="M98.1339 1429.23C98.6921 1435.28 103.823 1439.74 109.594 1439.2C115.366 1438.66 119.592 1433.31 119.033 1427.26C118.474 1421.21 113.343 1416.75 107.572 1417.29C101.801 1417.83 97.575 1423.18 98.1339 1429.23Z" fill="#EDF399"/>
<path d="M76.8934 1328.11C77.457 1334.16 82.8165 1338.6 88.8647 1338.04C94.9135 1337.48 99.36 1332.12 98.7971 1326.07C98.2335 1320.02 92.874 1315.57 86.8258 1316.14C80.777 1316.7 76.3305 1322.06 76.8934 1328.11Z" fill="#EDF399"/>
<path d="M76.3583 1399.1C76.9218 1405.15 82.2814 1409.6 88.3295 1409.04C94.3783 1408.47 98.8249 1403.11 98.2619 1397.07C97.6984 1391.02 92.3388 1386.57 86.2907 1387.13C80.2419 1387.7 75.7953 1393.06 76.3583 1399.1Z" fill="#EDF399"/>
<path d="M77.7171 1351.11C78.2524 1357.16 83.3669 1361.61 89.1411 1361.04C94.9147 1360.48 99.1616 1355.12 98.6257 1349.07C98.0904 1343.02 92.9759 1338.57 87.2017 1339.14C81.4282 1339.7 77.1812 1345.07 77.7171 1351.11Z" fill="#EDF399"/>
<path d="M77.182 1422.11C77.7172 1428.16 82.8318 1432.61 88.6059 1432.04C94.3795 1431.47 98.6264 1426.11 98.0906 1420.07C97.5553 1414.02 92.4407 1409.57 86.6666 1410.14C80.893 1410.7 76.6461 1416.06 77.182 1422.11Z" fill="#EDF399"/>
</svg>
