<svg width="304" height="300" viewBox="0 0 304 300" fill="none" xmlns="http://www.w3.org/2000/svg">
<circle cx="30.9408" cy="34.702" r="21.9654" transform="rotate(-50.1388 30.9408 34.702)" fill="#FFEB8D"/>
<circle cx="272.541" cy="35.8333" r="21.9654" transform="rotate(45.6405 272.541 35.8333)" fill="#FFEB8D"/>
<circle cx="104.341" cy="31.8798" r="21.9654" transform="rotate(-50.1388 104.341 31.8798)" fill="#FFEB8D"/>
<circle cx="31.0618" cy="265.489" r="21.9654" transform="rotate(-135.603 31.0618 265.489)" fill="#FFEB8D"/>
<circle cx="270.06" cy="266.868" r="21.9654" transform="rotate(131.452 270.06 266.868)" fill="#FFEB8D"/>
<circle cx="267.959" cy="109.146" r="21.9654" transform="rotate(45.6405 267.959 109.146)" fill="#FFEB8D"/>
<circle cx="34.054" cy="192.094" r="21.9654" transform="rotate(-135.603 34.054 192.094)" fill="#FFEB8D"/>
<circle cx="196.609" cy="267.653" r="21.9654" transform="rotate(131.452 196.609 267.653)" fill="#FFEB8D"/>
<circle cx="70.4643" cy="71.8739" r="21.9654" transform="rotate(-50.1388 70.4643 71.8739)" fill="#FFEB8D"/>
<circle cx="231.579" cy="71.4134" r="21.9654" transform="rotate(45.6405 231.579 71.4134)" fill="#FFEB8D"/>
<circle cx="71.2434" cy="229.03" r="21.9654" transform="rotate(-135.603 71.2434 229.03)" fill="#FFEB8D"/>
<circle cx="231.584" cy="228.616" r="21.9654" transform="rotate(131.452 231.584 228.616)" fill="#FFEB8D"/>
<circle cx="87.8725" cy="124.102" r="21.9654" transform="rotate(-50.1388 87.8725 124.102)" fill="#FFEB8D"/>
<circle cx="177.866" cy="83.4759" r="21.9654" transform="rotate(45.6405 177.866 83.4759)" fill="#95E7E2"/>
<circle cx="124.685" cy="215.805" r="21.9654" transform="rotate(-135.603 124.685 215.805)" fill="#95E7E2"/>
<circle cx="215.631" cy="175.924" r="21.9654" transform="rotate(131.452 215.631 175.924)" fill="#95E7E2"/>
<circle cx="124.574" cy="83.1669" r="21.9654" transform="rotate(-50.1388 124.574 83.1669)" fill="#95E7E2"/>
<circle cx="214.897" cy="124.111" r="21.9654" transform="rotate(45.6405 214.897 124.111)" fill="#FFEB8D"/>
<circle cx="86.7805" cy="176.063" r="21.9654" transform="rotate(-135.603 86.7805 176.063)" fill="#FFEB8D"/>
<circle cx="177.808" cy="215.825" r="21.9654" transform="rotate(131.452 177.808 215.825)" fill="#95E7E2"/>
<circle cx="33.7631" cy="109.987" r="21.9654" transform="rotate(-50.1388 33.7631 109.987)" fill="#FFEB8D"/>
<circle cx="197.36" cy="31.0618" r="21.9654" transform="rotate(45.6405 197.36 31.0618)" fill="#FFEB8D"/>
<circle cx="106.335" cy="268.629" r="21.9654" transform="rotate(-135.603 106.335 268.629)" fill="#FFEB8D"/>
<circle cx="269.328" cy="191.536" r="21.9654" transform="rotate(131.452 269.328 191.536)" fill="#FFEB8D"/>
</svg>
