<svg width="616" height="311" viewBox="0 0 616 311" fill="none" xmlns="http://www.w3.org/2000/svg">
<circle cx="134.536" cy="86.6589" r="20.2971" transform="rotate(150.983 134.536 86.6589)" fill="#EDF399"/>
<circle cx="189.71" cy="92.9234" r="20.2971" transform="rotate(-123.931 189.71 92.9234)" fill="#EDF399"/>
<circle cx="220.294" cy="144.849" r="20.2971" transform="rotate(-48.5988 220.294 144.849)" fill="#EDF399"/>
<circle cx="23.4408" cy="152.288" r="20.2971" transform="rotate(-99.7472 23.4408 152.288)" fill="#EDF399"/>
<circle cx="66.4264" cy="268.103" r="20.2971" transform="rotate(-139.925 66.4264 268.103)" fill="#9D96F1"/>
<circle cx="208.883" cy="285.23" r="20.2971" transform="rotate(163.127 208.883 285.23)" fill="#EDF399"/>
<circle cx="88.6825" cy="74.9831" r="20.2971" transform="rotate(150.983 88.6825 74.9831)" fill="#EDF399"/>
<circle cx="197.415" cy="46.2398" r="20.2971" transform="rotate(-123.931 197.415 46.2398)" fill="#EDF399"/>
<circle cx="267.406" cy="140.481" r="20.2971" transform="rotate(-48.5988 267.406 140.481)" fill="#D792F8"/>
<circle cx="49.599" cy="112.854" r="20.2971" transform="rotate(-99.7472 49.599 112.854)" fill="#EDF399"/>
<circle cx="60.9714" cy="221.101" r="20.2971" transform="rotate(-139.925 60.9714 221.101)" fill="#9D96F1"/>
<circle cx="166.514" cy="264.167" r="20.2971" transform="rotate(163.127 166.514 264.167)" fill="#EDF399"/>
<circle cx="139.335" cy="39.0534" r="20.2971" transform="rotate(150.983 139.335 39.0534)" fill="#EDF399"/>
<circle cx="237.552" cy="93.6265" r="20.2971" transform="rotate(-123.931 237.552 93.6265)" fill="#D792F8"/>
<circle cx="231.726" cy="191.308" r="20.2971" transform="rotate(-48.5988 231.726 191.308)" fill="#EDF399"/>
<circle cx="66.7982" cy="172.528" r="20.2971" transform="rotate(-99.7472 66.7982 172.528)" fill="#9D96F1"/>
<circle cx="112.61" cy="255.597" r="20.2971" transform="rotate(-139.925 112.61 255.597)" fill="#9D96F1"/>
<circle cx="223.588" cy="239.698" r="20.2971" transform="rotate(163.127 223.588 239.698)" fill="#EDF399"/>
<circle cx="92.8602" cy="27.5944" r="20.2971" transform="rotate(150.983 92.8602 27.5944)" fill="#EDF399"/>
<circle cx="244.99" cy="46.3433" r="20.2971" transform="rotate(-123.931 244.99 46.3433)" fill="#D792F8"/>
<circle cx="279.355" cy="186.528" r="20.2971" transform="rotate(-48.5988 279.355 186.528)" fill="#EDF399"/>
<circle cx="92.9525" cy="132.438" r="20.2971" transform="rotate(-99.7472 92.9525 132.438)" fill="#9D96F1"/>
<circle cx="106.731" cy="208.095" r="20.2971" transform="rotate(-139.925 106.731 208.095)" fill="#9D96F1"/>
<circle cx="180.566" cy="218.718" r="20.2971" transform="rotate(163.127 180.566 218.718)" fill="#EDF399"/>
<circle cx="442.536" cy="86.6589" r="20.2971" transform="rotate(150.983 442.536 86.6589)" fill="#D792F8"/>
<circle cx="497.71" cy="92.9234" r="20.2971" transform="rotate(-123.931 497.71 92.9234)" fill="#EDF399"/>
<circle cx="528.294" cy="144.849" r="20.2971" transform="rotate(-48.5988 528.294 144.849)" fill="#EDF399"/>
<circle cx="331.441" cy="152.288" r="20.2971" transform="rotate(-99.7472 331.441 152.288)" fill="#EDF399"/>
<circle cx="374.426" cy="268.103" r="20.2971" transform="rotate(-139.925 374.426 268.103)" fill="#EDF399"/>
<circle cx="516.883" cy="285.23" r="20.2971" transform="rotate(163.127 516.883 285.23)" fill="#9D96F1"/>
<circle cx="396.682" cy="74.9831" r="20.2971" transform="rotate(150.983 396.682 74.9831)" fill="#D792F8"/>
<circle cx="505.415" cy="46.2398" r="20.2971" transform="rotate(-123.931 505.415 46.2398)" fill="#EDF399"/>
<circle cx="575.406" cy="140.481" r="20.2971" transform="rotate(-48.5988 575.406 140.481)" fill="#EDF399"/>
<circle cx="357.599" cy="112.854" r="20.2971" transform="rotate(-99.7472 357.599 112.854)" fill="#D792F8"/>
<circle cx="368.971" cy="221.101" r="20.2971" transform="rotate(-139.925 368.971 221.101)" fill="#EDF399"/>
<circle cx="474.514" cy="264.167" r="20.2971" transform="rotate(163.127 474.514 264.167)" fill="#EDF399"/>
<circle cx="447.335" cy="39.0534" r="20.2971" transform="rotate(150.983 447.335 39.0534)" fill="#D792F8"/>
<circle cx="545.552" cy="93.6265" r="20.2971" transform="rotate(-123.931 545.552 93.6265)" fill="#EDF399"/>
<circle cx="539.726" cy="191.308" r="20.2971" transform="rotate(-48.5988 539.726 191.308)" fill="#9D96F1"/>
<circle cx="374.798" cy="172.528" r="20.2971" transform="rotate(-99.7472 374.798 172.528)" fill="#EDF399"/>
<circle cx="420.61" cy="255.597" r="20.2971" transform="rotate(-139.925 420.61 255.597)" fill="#EDF399"/>
<circle cx="531.588" cy="239.698" r="20.2971" transform="rotate(163.127 531.588 239.698)" fill="#9D96F1"/>
<circle cx="400.86" cy="27.5944" r="20.2971" transform="rotate(150.983 400.86 27.5944)" fill="#D792F8"/>
<circle cx="552.99" cy="46.3433" r="20.2971" transform="rotate(-123.931 552.99 46.3433)" fill="#EDF399"/>
<circle cx="587.355" cy="186.528" r="20.2971" transform="rotate(-48.5988 587.355 186.528)" fill="#EDF399"/>
<circle cx="400.953" cy="132.438" r="20.2971" transform="rotate(-99.7472 400.953 132.438)" fill="#EDF399"/>
<circle cx="414.731" cy="208.095" r="20.2971" transform="rotate(-139.925 414.731 208.095)" fill="#EDF399"/>
<circle cx="488.566" cy="218.718" r="20.2971" transform="rotate(163.127 488.566 218.718)" fill="#9D96F1"/>
</svg>
