<svg width="64" height="1850" viewBox="0 0 64 1850" fill="none" xmlns="http://www.w3.org/2000/svg">
<path d="M21.6825 12.1248C22.2854 18.1691 27.6738 22.5811 33.7182 21.9787C39.7632 21.3763 44.1747 15.9875 43.5724 9.94262C42.9696 3.89772 37.5812 -0.513633 31.5368 0.0887681C25.4918 0.691168 21.0802 6.07991 21.6825 12.1248Z" fill="white"/>
<path d="M21.6102 83.1248C22.2131 89.1691 27.6015 93.5811 33.6459 92.9787C39.6909 92.3763 44.1025 86.9875 43.5002 80.9426C42.8973 74.8977 37.5089 70.4864 31.4645 71.0888C25.4195 71.6912 21.008 77.0799 21.6102 83.1248Z" fill="white"/>
<path d="M21.538 154.125C22.1409 160.169 27.5293 164.581 33.5736 163.979C39.6186 163.376 44.0302 157.988 43.4279 151.943C42.825 145.898 37.4366 141.486 31.3923 142.089C25.3473 142.691 20.9357 148.08 21.538 154.125Z" fill="white"/>
<path d="M35.6649 30.1379C36.2678 36.1828 41.6562 40.5947 47.7012 39.9923C53.7456 39.3899 58.1571 34.0012 57.5549 27.9563C56.9526 21.9114 51.5636 17.5 45.5192 18.1024C39.4742 18.7048 35.0626 24.0936 35.6649 30.1379Z" fill="white"/>
<path d="M35.5927 101.138C36.1956 107.183 41.5839 111.595 47.6289 110.992C53.6733 110.39 58.0849 105.001 57.4826 98.9563C56.8803 92.9114 51.4913 88.5 45.447 89.1024C39.402 89.7048 34.9904 95.0936 35.5927 101.138Z" fill="white"/>
<path d="M35.5204 172.138C36.1233 178.183 41.5117 182.595 47.5567 181.992C53.601 181.39 58.0126 176.001 57.4103 169.956C56.8081 163.911 51.4191 159.5 45.3747 160.102C39.3297 160.705 34.9181 166.094 35.5204 172.138Z" fill="white"/>
<path d="M22.6473 49.0838C23.2449 55.1304 28.4051 59.5629 34.1723 58.9834C39.9402 58.4039 44.1311 53.0314 43.5335 46.9848C42.9353 40.9376 37.7751 36.5051 32.0079 37.0852C26.2401 37.6647 22.0491 43.0366 22.6473 49.0838Z" fill="white"/>
<path d="M22.5751 120.084C23.1727 126.13 28.3329 130.563 34.1001 129.983C39.8679 129.404 44.0589 124.031 43.4613 117.985C42.863 111.938 37.7029 107.505 31.9356 108.085C26.1678 108.665 21.9768 114.037 22.5751 120.084Z" fill="white"/>
<path d="M22.5028 191.084C23.1004 197.13 28.2606 201.563 34.0278 200.983C39.7957 200.404 43.9866 195.031 43.389 188.985C42.7908 182.938 37.6306 178.505 31.8634 179.085C26.0955 179.665 21.9046 185.037 22.5028 191.084Z" fill="white"/>
<path d="M0.674695 19.1033C1.27759 25.1482 6.66597 29.5596 12.7103 28.9572C18.7553 28.3548 23.1669 22.966 22.5646 16.9218C21.9617 10.8769 16.5734 6.46488 10.529 7.06728C4.48399 7.66968 0.0724136 13.0584 0.674695 19.1033Z" fill="white"/>
<path d="M0.602429 90.1033C1.20533 96.1482 6.59371 100.56 12.6381 99.9572C18.6831 99.3548 23.0946 93.966 22.4924 87.9218C21.8895 81.8769 16.5011 77.4649 10.4567 78.0673C4.41172 78.6697 0.000147991 84.0584 0.602429 90.1033Z" fill="white"/>
<path d="M0.530163 161.103C1.13306 167.148 6.52144 171.56 12.5658 170.957C18.6108 170.355 23.0224 164.966 22.4201 158.922C21.8172 152.877 16.4288 148.465 10.3844 149.067C4.33946 149.67 -0.0721176 155.058 0.530163 161.103Z" fill="white"/>
<path d="M1.6488 42.1043C2.22344 48.1486 7.36679 52.5603 13.1371 51.9576C18.9069 51.355 23.1189 45.966 22.5437 39.9211C21.969 33.8769 16.8257 29.4652 11.0553 30.0678C5.28554 30.6705 1.07358 36.0595 1.6488 42.1043Z" fill="white"/>
<path d="M1.57654 113.104C2.15117 119.149 7.29452 123.56 13.0649 122.958C18.8346 122.355 23.0466 116.966 22.4714 110.921C21.8967 104.877 16.7534 100.465 10.983 101.068C5.21328 101.671 1.00131 107.059 1.57654 113.104Z" fill="white"/>
<path d="M1.50427 184.104C2.07891 190.149 7.22226 194.56 12.9926 193.958C18.7624 193.355 22.9743 187.966 22.3991 181.921C21.8245 175.877 16.6811 171.465 10.9108 172.068C5.14101 172.671 0.929049 178.059 1.50427 184.104Z" fill="white"/>
<path d="M22.4657 226.125C23.0686 232.169 28.457 236.581 34.5014 235.979C40.5464 235.376 44.9579 229.988 44.3556 223.943C43.7528 217.898 38.3644 213.486 32.32 214.089C26.275 214.691 21.8634 220.08 22.4657 226.125Z" fill="white"/>
<path d="M22.3934 297.125C22.9963 303.169 28.3847 307.581 34.4291 306.979C40.4741 306.376 44.8857 300.988 44.2834 294.943C43.6805 288.898 38.2921 284.486 32.2477 285.089C26.2027 285.691 21.7912 291.08 22.3934 297.125Z" fill="white"/>
<path d="M22.3212 368.125C22.9241 374.169 28.3125 378.581 34.3568 377.979C40.4018 377.376 44.8134 371.988 44.2111 365.943C43.6082 359.898 38.2198 355.486 32.1755 356.089C26.1305 356.691 21.7189 362.08 22.3212 368.125Z" fill="white"/>
<path d="M36.4481 244.138C37.051 250.183 42.4394 254.595 48.4844 253.992C54.5288 253.39 58.9404 248.001 58.3381 241.956C57.7358 235.911 52.3468 231.5 46.3024 232.102C40.2574 232.705 35.8458 238.094 36.4481 244.138Z" fill="white"/>
<path d="M36.3759 315.138C36.9788 321.183 42.3671 325.595 48.4121 324.992C54.4565 324.39 58.8681 319.001 58.2658 312.956C57.6635 306.911 52.2745 302.5 46.2302 303.102C40.1852 303.705 35.7736 309.094 36.3759 315.138Z" fill="white"/>
<path d="M36.3036 386.138C36.9065 392.183 42.2949 396.595 48.3399 395.992C54.3842 395.39 58.7958 390.001 58.1935 383.956C57.5913 377.911 52.2023 373.5 46.1579 374.102C40.1129 374.705 35.7013 380.094 36.3036 386.138Z" fill="white"/>
<path d="M23.4305 263.084C24.0281 269.13 29.1883 273.563 34.9556 272.983C40.7234 272.404 44.9143 267.031 44.3167 260.985C43.7185 254.938 38.5583 250.505 32.7911 251.085C27.0233 251.665 22.8323 257.037 23.4305 263.084Z" fill="white"/>
<path d="M23.3583 334.084C23.9559 340.13 29.1161 344.563 34.8833 343.983C40.6511 343.404 44.8421 338.031 44.2445 331.985C43.6462 325.938 38.4861 321.505 32.7188 322.085C26.951 322.665 22.76 328.037 23.3583 334.084Z" fill="white"/>
<path d="M23.286 405.084C23.8836 411.13 29.0438 415.563 34.811 414.983C40.5789 414.404 44.7698 409.031 44.1722 402.985C43.574 396.938 38.4138 392.505 32.6466 393.085C26.8787 393.665 22.6878 399.037 23.286 405.084Z" fill="white"/>
<path d="M1.4579 233.103C2.06079 239.148 7.44918 243.56 13.4936 242.957C19.5385 242.355 23.9501 236.966 23.3478 230.922C22.7449 224.877 17.3566 220.465 11.3122 221.067C5.26719 221.67 0.855617 227.058 1.4579 233.103Z" fill="white"/>
<path d="M1.38563 304.103C1.98853 310.148 7.37691 314.56 13.4213 313.957C19.4663 313.355 23.8779 307.966 23.2756 301.922C22.6727 295.877 17.2843 291.465 11.2399 292.067C5.19493 292.67 0.783351 298.058 1.38563 304.103Z" fill="white"/>
<path d="M1.31337 375.103C1.91626 381.148 7.30465 385.56 13.349 384.957C19.394 384.355 23.8056 378.966 23.2033 372.922C22.6004 366.877 17.212 362.465 11.1677 363.067C5.12266 363.67 0.711085 369.058 1.31337 375.103Z" fill="white"/>
<path d="M2.43201 256.104C3.00664 262.149 8.14999 266.56 13.9203 265.958C19.6901 265.355 23.9021 259.966 23.3269 253.921C22.7522 247.877 17.6089 243.465 11.8385 244.068C6.06874 244.671 1.85678 250.059 2.43201 256.104Z" fill="white"/>
<path d="M2.35974 327.104C2.93438 333.149 8.07773 337.56 13.8481 336.958C19.6178 336.355 23.8298 330.966 23.2546 324.921C22.68 318.877 17.5366 314.465 11.7662 315.068C5.99648 315.671 1.78452 321.059 2.35974 327.104Z" fill="white"/>
<path d="M2.28747 398.104C2.86211 404.149 8.00546 408.56 13.7758 407.958C19.5456 407.355 23.7575 401.966 23.1823 395.921C22.6077 389.877 17.4643 385.465 11.694 386.068C5.92421 386.671 1.71225 392.059 2.28747 398.104Z" fill="white"/>
<path d="M23.247 440.127C23.8499 446.171 29.2382 450.583 35.2826 449.981C41.3276 449.378 45.7392 443.989 45.1369 437.945C44.534 431.9 39.1456 427.488 33.1012 428.091C27.0563 428.693 22.6447 434.082 23.247 440.127Z" fill="white"/>
<path d="M23.1747 511.127C23.7776 517.171 29.166 521.583 35.2103 520.981C41.2553 520.378 45.6669 514.989 45.0646 508.945C44.4617 502.9 39.0734 498.488 33.029 499.091C26.984 499.693 22.5724 505.082 23.1747 511.127Z" fill="#EDF399"/>
<path d="M23.1024 582.127C23.7053 588.171 29.0937 592.583 35.1381 591.981C41.1831 591.378 45.5946 585.989 44.9924 579.945C44.3895 573.9 39.0011 569.488 32.9567 570.091C26.9117 570.693 22.5001 576.082 23.1024 582.127Z" fill="white"/>
<path d="M37.2294 458.14C37.8323 464.185 43.2207 468.597 49.2656 467.994C55.31 467.392 59.7216 462.003 59.1193 455.958C58.517 449.913 53.128 445.502 47.0837 446.104C41.0387 446.707 36.6271 452.096 37.2294 458.14Z" fill="white"/>
<path d="M37.1571 529.14C37.76 535.185 43.1484 539.597 49.1934 538.994C55.2378 538.392 59.6493 533.003 59.0471 526.958C58.4448 520.913 53.0558 516.502 47.0114 517.104C40.9664 517.707 36.5548 523.096 37.1571 529.14Z" fill="#EDF399"/>
<path d="M37.0848 600.14C37.6877 606.185 43.0761 610.597 49.1211 609.994C55.1655 609.392 59.5771 604.003 58.9748 597.958C58.3725 591.913 52.9835 587.502 46.9391 588.104C40.8941 588.707 36.4826 594.096 37.0848 600.14Z" fill="white"/>
<path d="M24.2118 477.086C24.8094 483.132 29.9696 487.565 35.7368 486.985C41.5046 486.406 45.6956 481.033 45.098 474.987C44.4998 468.94 39.3396 464.507 33.5723 465.087C27.8045 465.667 23.6136 471.039 24.2118 477.086Z" fill="white"/>
<path d="M24.1395 548.086C24.7371 554.132 29.8973 558.565 35.6645 557.985C41.4324 557.406 45.6233 552.033 45.0257 545.987C44.4275 539.94 39.2673 535.507 33.5001 536.087C27.7322 536.667 23.5413 542.039 24.1395 548.086Z" fill="#EDF399"/>
<path d="M24.0672 619.086C24.6649 625.132 29.825 629.565 35.5923 628.985C41.3601 628.406 45.5511 623.033 44.9534 616.987C44.3552 610.94 39.195 606.507 33.4278 607.087C27.66 607.667 23.469 613.039 24.0672 619.086Z" fill="white"/>
<path d="M2.23915 447.105C2.84204 453.15 8.23043 457.562 14.2748 456.959C20.3198 456.357 24.7314 450.968 24.1291 444.924C23.5262 438.879 18.1378 434.467 12.0934 435.069C6.04844 435.672 1.63687 441.06 2.23915 447.105Z" fill="white"/>
<path d="M2.16688 518.105C2.76978 524.15 8.15816 528.562 14.2025 527.959C20.2475 527.357 24.6591 521.968 24.0568 515.924C23.4539 509.879 18.0655 505.467 12.0212 506.069C5.97618 506.672 1.5646 512.06 2.16688 518.105Z" fill="#EDF399"/>
<path d="M2.09462 589.105C2.69751 595.15 8.0859 599.562 14.1303 598.959C20.1753 598.357 24.5868 592.968 23.9846 586.924C23.3817 580.879 17.9933 576.467 11.9489 577.069C5.90391 577.672 1.49234 583.06 2.09462 589.105Z" fill="white"/>
<path d="M3.21326 470.106C3.78789 476.151 8.93124 480.562 14.7016 479.96C20.4714 479.357 24.6833 473.968 24.1081 467.923C23.5335 461.879 18.3901 457.467 12.6198 458.07C6.84999 458.672 2.63803 464.061 3.21326 470.106Z" fill="white"/>
<path d="M3.14099 541.106C3.71563 547.151 8.85898 551.562 14.6293 550.96C20.3991 550.357 24.6111 544.968 24.0358 538.923C23.4612 532.879 18.3179 528.467 12.5475 529.07C6.77773 529.672 2.56577 535.061 3.14099 541.106Z" fill="#EDF399"/>
<path d="M3.06872 612.106C3.64336 618.151 8.78671 622.562 14.5571 621.96C20.3268 621.357 24.5388 615.968 23.9636 609.923C23.3889 603.879 18.2456 599.467 12.4752 600.07C6.70546 600.672 2.4935 606.061 3.06872 612.106Z" fill="white"/>
<path d="M25.0848 652.259C25.6484 658.307 31.0079 662.754 37.0561 662.191C43.1049 661.628 47.5514 656.268 46.9885 650.219C46.425 644.171 41.0654 639.724 35.0172 640.287C28.9684 640.85 24.5219 646.21 25.0848 652.259Z" fill="white"/>
<path d="M24.5516 723.257C25.1152 729.305 30.4747 733.752 36.5229 733.189C42.5717 732.626 47.0182 727.266 46.4553 721.217C45.8918 715.169 40.5322 710.722 34.484 711.285C28.4352 711.848 23.9887 717.208 24.5516 723.257Z" fill="white"/>
<path d="M24.1805 792.101C24.7441 798.149 30.1036 802.596 36.1518 802.033C42.2006 801.47 46.6471 796.11 46.0842 790.061C45.5207 784.012 40.1611 779.566 34.1129 780.129C28.0642 780.692 23.6176 786.052 24.1805 792.101Z" fill="white"/>
<path d="M38.9501 670.364C39.5136 676.413 44.8732 680.86 50.9219 680.296C56.9701 679.733 61.4167 674.373 60.8537 668.325C60.2908 662.276 54.9306 657.83 48.8825 658.393C42.8337 658.956 38.3871 664.316 38.9501 670.364Z" fill="white"/>
<path d="M38.4149 741.362C38.9785 747.411 44.338 751.858 50.3868 751.295C56.435 750.731 60.8815 745.372 60.3186 739.323C59.7557 733.274 54.3955 728.828 48.3473 729.391C42.2985 729.954 37.852 735.314 38.4149 741.362Z" fill="white"/>
<path d="M38.0438 810.206C38.6074 816.254 43.9669 820.701 50.0157 820.138C56.0639 819.575 60.5104 814.215 59.9475 808.167C59.3846 802.118 54.0244 797.672 47.9762 798.235C41.9274 798.798 37.4809 804.158 38.0438 810.206Z" fill="white"/>
<path d="M25.8097 689.225C26.3679 695.275 31.4991 699.741 37.27 699.199C43.0415 698.657 47.2673 693.312 46.7091 687.261C46.1502 681.211 41.019 676.745 35.2481 677.287C29.4766 677.829 25.2508 683.174 25.8097 689.225Z" fill="white"/>
<path d="M25.2745 760.223C25.8327 766.273 30.964 770.739 36.7349 770.197C42.5063 769.655 46.7322 764.31 46.1739 758.26C45.6151 752.209 40.4838 747.743 34.713 748.285C28.9415 748.827 24.7156 754.172 25.2745 760.223Z" fill="white"/>
<path d="M24.9034 829.064C25.4617 835.115 30.5929 839.581 36.3638 839.039C42.1352 838.497 46.3611 833.152 45.8028 827.101C45.244 821.05 40.1127 816.584 34.3419 817.127C28.5704 817.669 24.3445 823.013 24.9034 829.064Z" fill="white"/>
<path d="M4.03405 659.101C4.59759 665.15 9.95715 669.596 16.0053 669.033C22.0541 668.47 26.5007 663.11 25.9377 657.062C25.3742 651.013 20.0146 646.566 13.9664 647.129C7.91767 647.692 3.47112 653.052 4.03405 659.101Z" fill="white"/>
<path d="M3.49889 730.099C4.06243 736.148 9.42199 740.594 15.4702 740.031C21.5189 739.468 25.9655 734.108 25.4026 728.06C24.839 722.011 19.4795 717.564 13.4313 718.127C7.38251 718.69 2.93596 724.05 3.49889 730.099Z" fill="white"/>
<path d="M3.1278 798.943C3.69134 804.991 9.0509 809.438 15.0991 808.875C21.1479 808.312 25.5944 802.952 25.0315 796.904C24.4679 790.855 19.1084 786.408 13.0602 786.971C7.01142 787.534 2.56487 792.894 3.1278 798.943Z" fill="white"/>
<path d="M4.85774 682.108C5.39302 688.156 10.5076 692.601 16.2817 692.036C22.0553 691.471 26.3022 686.11 25.7664 680.061C25.2311 674.013 20.1165 669.568 14.3424 670.133C8.56881 670.698 4.32186 676.06 4.85774 682.108Z" fill="white"/>
<path d="M4.32258 753.106C4.85787 759.154 9.9724 763.599 15.7466 763.034C21.5201 762.469 25.7671 757.108 25.2312 751.059C24.6959 745.011 19.5814 740.566 13.8072 741.131C8.03365 741.696 3.78671 747.058 4.32258 753.106Z" fill="white"/>
<path d="M3.95344 821.95C4.48873 827.998 9.60326 832.443 15.3774 831.878C21.151 831.313 25.3979 825.951 24.8621 819.903C24.3268 813.855 19.2122 809.41 13.4381 809.975C7.66451 810.54 3.41757 815.902 3.95344 821.95Z" fill="white"/>
<path d="M24.4755 861.259C25.039 867.307 30.3986 871.754 36.4467 871.191C42.4955 870.628 46.9421 865.268 46.3791 859.219C45.8156 853.171 40.456 848.724 34.4079 849.287C28.3591 849.85 23.9125 855.21 24.4755 861.259Z" fill="white"/>
<path d="M23.9422 932.257C24.5058 938.305 29.8654 942.752 35.9135 942.189C41.9623 941.626 46.4089 936.266 45.8459 930.217C45.2824 924.169 39.9228 919.722 33.8747 920.285C27.8259 920.848 23.3793 926.208 23.9422 932.257Z" fill="white"/>
<path d="M23.4071 1003.26C23.9706 1009.3 29.3302 1013.75 35.3784 1013.19C41.4271 1012.62 45.8737 1007.26 45.3108 1001.22C44.7472 995.167 39.3877 990.72 33.3395 991.283C27.2907 991.846 22.8442 997.206 23.4071 1003.26Z" fill="white"/>
<path d="M38.3407 879.364C38.9042 885.413 44.2638 889.86 50.3126 889.296C56.3607 888.733 60.8073 883.373 60.2444 877.325C59.6814 871.276 54.3213 866.83 48.2731 867.393C42.2243 867.956 37.7778 873.316 38.3407 879.364Z" fill="white"/>
<path d="M37.8055 950.362C38.3691 956.411 43.7286 960.858 49.7774 960.295C55.8256 959.731 60.2721 954.372 59.7092 948.323C59.1463 942.274 53.7861 937.828 47.7379 938.391C41.6892 938.954 37.2426 944.314 37.8055 950.362Z" fill="white"/>
<path d="M37.2704 1021.36C37.8339 1027.41 43.1935 1031.86 49.2423 1031.29C55.2904 1030.73 59.737 1025.37 59.1741 1019.32C58.6111 1013.27 53.2509 1008.83 47.2028 1009.39C41.154 1009.95 36.7074 1015.31 37.2704 1021.36Z" fill="white"/>
<path d="M25.2003 898.225C25.7585 904.275 30.8898 908.741 36.6606 908.199C42.4321 907.657 46.6579 902.312 46.0997 896.261C45.5408 890.211 40.4096 885.745 34.6387 886.287C28.8672 886.829 24.6414 892.174 25.2003 898.225Z" fill="white"/>
<path d="M24.6651 969.221C25.2234 975.271 30.3546 979.737 36.1255 979.195C41.897 978.653 46.1228 973.308 45.5645 967.258C45.0057 961.207 39.8745 956.741 34.1036 957.283C28.3321 957.825 24.1063 963.17 24.6651 969.221Z" fill="white"/>
<path d="M24.13 1040.22C24.6882 1046.27 29.8194 1050.73 35.5903 1050.19C41.3618 1049.65 45.5876 1044.31 45.0294 1038.26C44.4705 1032.2 39.3393 1027.74 33.5684 1028.28C27.7969 1028.82 23.5711 1034.17 24.13 1040.22Z" fill="white"/>
<path d="M3.42467 868.101C3.98821 874.15 9.34778 878.596 15.3959 878.033C21.4447 877.47 25.8913 872.11 25.3283 866.062C24.7648 860.013 19.4052 855.566 13.3571 856.129C7.30829 856.692 2.86174 862.052 3.42467 868.101Z" fill="white"/>
<path d="M2.88951 939.099C3.45306 945.148 8.81262 949.594 14.8608 949.031C20.9096 948.468 25.3561 943.108 24.7932 937.06C24.2296 931.011 18.8701 926.564 12.8219 927.127C6.77314 927.69 2.32659 933.05 2.88951 939.099Z" fill="white"/>
<path d="M2.35436 1010.1C2.9179 1016.15 8.27746 1020.59 14.3256 1020.03C20.3744 1019.47 24.821 1014.11 24.258 1008.06C23.6945 1002.01 18.3349 997.562 12.2868 998.125C6.23798 998.688 1.79143 1004.05 2.35436 1010.1Z" fill="white"/>
<path d="M4.24836 891.108C4.78365 897.156 9.89818 901.601 15.6723 901.036C21.4459 900.471 25.6928 895.11 25.157 889.061C24.6217 883.013 19.5072 878.568 13.733 879.133C7.95943 879.698 3.71249 885.06 4.24836 891.108Z" fill="white"/>
<path d="M3.7132 962.106C4.24849 968.154 9.36302 972.599 15.1372 972.034C20.9107 971.469 25.1577 966.108 24.6218 960.059C24.0865 954.011 18.972 949.566 13.1978 950.131C7.42427 950.696 3.17733 956.058 3.7132 962.106Z" fill="white"/>
<path d="M3.18 1033.1C3.71529 1039.15 8.82982 1043.6 14.604 1043.03C20.3775 1042.47 24.6245 1037.11 24.0886 1031.06C23.5533 1025.01 18.4388 1020.56 12.6646 1021.13C6.89107 1021.69 2.64413 1027.06 3.18 1033.1Z" fill="white"/>
<path d="M23.9422 1072.26C24.5058 1078.31 29.8654 1082.76 35.9135 1082.19C41.9623 1081.63 46.4089 1076.27 45.8459 1070.22C45.2824 1064.17 39.9228 1059.73 33.8747 1060.29C27.8259 1060.85 23.3793 1066.21 23.9422 1072.26Z" fill="#FEEC88"/>
<path d="M23.409 1143.26C23.9726 1149.31 29.3322 1153.75 35.3803 1153.19C41.4291 1152.63 45.8757 1147.27 45.3127 1141.22C44.7492 1135.17 39.3896 1130.72 33.3414 1131.29C27.2927 1131.85 22.8461 1137.21 23.409 1143.26Z" fill="#FEEC88"/>
<path d="M37.8075 1090.37C38.371 1096.41 43.7306 1100.86 49.7794 1100.3C55.8275 1099.74 60.2741 1094.38 59.7112 1088.33C59.1482 1082.28 53.7881 1077.83 47.7399 1078.39C41.6911 1078.96 37.2446 1084.32 37.8075 1090.37Z" fill="#FEEC88"/>
<path d="M37.2723 1161.36C37.8359 1167.41 43.1954 1171.86 49.2442 1171.3C55.2924 1170.73 59.7389 1165.37 59.176 1159.32C58.6131 1153.28 53.2529 1148.83 47.2047 1149.39C41.156 1149.96 36.7094 1155.32 37.2723 1161.36Z" fill="#FEEC88"/>
<path d="M24.6671 1109.23C25.2253 1115.28 30.3566 1119.74 36.1274 1119.2C41.8989 1118.66 46.1247 1113.31 45.5665 1107.26C45.0076 1101.21 39.8764 1096.75 34.1055 1097.29C28.334 1097.83 24.1082 1103.18 24.6671 1109.23Z" fill="#FEEC88"/>
<path d="M24.1319 1180.22C24.6902 1186.27 29.8214 1190.74 35.5923 1190.2C41.3638 1189.65 45.5896 1184.31 45.0313 1178.26C44.4725 1172.21 39.3413 1167.74 33.5704 1168.29C27.7989 1168.83 23.5731 1174.17 24.1319 1180.22Z" fill="#FEEC88"/>
<path d="M2.89147 1079.1C3.45501 1085.15 8.81457 1089.6 14.8627 1089.03C20.9115 1088.47 25.3581 1083.11 24.7951 1077.06C24.2316 1071.01 18.872 1066.57 12.8239 1067.13C6.77509 1067.69 2.32854 1073.05 2.89147 1079.1Z" fill="#FEEC88"/>
<path d="M2.35631 1150.1C2.91986 1156.15 8.27942 1160.6 14.3276 1160.03C20.3764 1159.47 24.8229 1154.11 24.26 1148.06C23.6964 1142.01 18.3369 1137.57 12.2887 1138.13C6.23993 1138.69 1.79338 1144.05 2.35631 1150.1Z" fill="#FEEC88"/>
<path d="M3.71516 1102.11C4.25045 1108.16 9.36498 1112.6 15.1391 1112.04C20.9127 1111.47 25.1596 1106.11 24.6238 1100.06C24.0885 1094.02 18.974 1089.57 13.1998 1090.14C7.42623 1090.7 3.17929 1096.06 3.71516 1102.11Z" fill="#FEEC88"/>
<path d="M3.18 1173.11C3.71529 1179.16 8.82982 1183.6 14.604 1183.04C20.3775 1182.47 24.6245 1177.11 24.0886 1171.06C23.5533 1165.01 18.4388 1160.57 12.6646 1161.13C6.89107 1161.7 2.64413 1167.06 3.18 1173.11Z" fill="#FEEC88"/>
<path d="M24.0868 1214.26C24.6503 1220.31 30.0099 1224.75 36.0581 1224.19C42.1068 1223.63 46.5534 1218.27 45.9905 1212.22C45.4269 1206.17 40.0674 1201.72 34.0192 1202.29C27.9704 1202.85 23.5239 1208.21 24.0868 1214.26Z" fill="white"/>
<path d="M23.5536 1285.26C24.1171 1291.31 29.4767 1295.75 35.5248 1295.19C41.5736 1294.63 46.0202 1289.27 45.4573 1283.22C44.8937 1277.17 39.5341 1272.72 33.486 1273.29C27.4372 1273.85 22.9906 1279.21 23.5536 1285.26Z" fill="white"/>
<path d="M23.0184 1356.26C23.582 1362.3 28.9415 1366.75 34.9897 1366.19C41.0385 1365.62 45.485 1360.26 44.9221 1354.22C44.3586 1348.17 38.999 1343.72 32.9508 1344.28C26.902 1344.85 22.4555 1350.21 23.0184 1356.26Z" fill="white"/>
<path d="M37.952 1232.36C38.5156 1238.41 43.8751 1242.86 49.9239 1242.3C55.9721 1241.73 60.4186 1236.37 59.8557 1230.32C59.2928 1224.28 53.9326 1219.83 47.8844 1220.39C41.8356 1220.96 37.3891 1226.32 37.952 1232.36Z" fill="white"/>
<path d="M37.4169 1303.36C37.9804 1309.41 43.34 1313.86 49.3887 1313.29C55.4369 1312.73 59.8835 1307.37 59.3205 1301.32C58.7576 1295.27 53.3974 1290.83 47.3493 1291.39C41.3005 1291.95 36.8539 1297.31 37.4169 1303.36Z" fill="white"/>
<path d="M36.8817 1374.36C37.4452 1380.41 42.8048 1384.86 48.8536 1384.29C54.9018 1383.73 59.3483 1378.37 58.7854 1372.32C58.2225 1366.27 52.8623 1361.83 46.8141 1362.39C40.7653 1362.95 36.3188 1368.31 36.8817 1374.36Z" fill="white"/>
<path d="M24.8116 1251.22C25.3699 1257.27 30.5011 1261.74 36.272 1261.2C42.0435 1260.66 46.2693 1255.31 45.711 1249.26C45.1522 1243.21 40.0209 1238.74 34.2501 1239.29C28.4786 1239.83 24.2527 1245.17 24.8116 1251.22Z" fill="white"/>
<path d="M24.2764 1322.22C24.8347 1328.27 29.9659 1332.74 35.7368 1332.19C41.5083 1331.65 45.7341 1326.31 45.1759 1320.26C44.617 1314.21 39.4858 1309.74 33.7149 1310.28C27.9434 1310.83 23.7176 1316.17 24.2764 1322.22Z" fill="white"/>
<path d="M23.7413 1393.22C24.2995 1399.27 29.4308 1403.73 35.2017 1403.19C40.9731 1402.65 45.199 1397.31 44.6407 1391.26C44.0819 1385.2 38.9506 1380.74 33.1797 1381.28C27.4083 1381.82 23.1824 1387.17 23.7413 1393.22Z" fill="white"/>
<path d="M3.036 1221.1C3.59954 1227.15 8.9591 1231.6 15.0073 1231.03C21.0561 1230.47 25.5026 1225.11 24.9397 1219.06C24.3761 1213.01 19.0166 1208.57 12.9684 1209.13C6.91962 1209.69 2.47307 1215.05 3.036 1221.1Z" fill="white"/>
<path d="M2.50084 1292.1C3.06439 1298.15 8.42395 1302.59 14.4721 1302.03C20.5209 1301.47 24.9674 1296.11 24.4045 1290.06C23.841 1284.01 18.4814 1279.56 12.4332 1280.13C6.38446 1280.69 1.93791 1286.05 2.50084 1292.1Z" fill="white"/>
<path d="M1.96569 1363.1C2.52923 1369.15 7.88879 1373.59 13.937 1373.03C19.9857 1372.47 24.4323 1367.11 23.8694 1361.06C23.3058 1355.01 17.9463 1350.56 11.8981 1351.13C5.84931 1351.69 1.40276 1357.05 1.96569 1363.1Z" fill="white"/>
<path d="M3.85969 1244.11C4.39498 1250.16 9.50951 1254.6 15.2837 1254.04C21.0572 1253.47 25.3042 1248.11 24.7683 1242.06C24.233 1236.01 19.1185 1231.57 13.3443 1232.13C7.57076 1232.7 3.32382 1238.06 3.85969 1244.11Z" fill="white"/>
<path d="M3.32453 1315.11C3.85982 1321.15 8.97435 1325.6 14.7485 1325.03C20.5221 1324.47 24.769 1319.11 24.2331 1313.06C23.6979 1307.01 18.5833 1302.57 12.8092 1303.13C7.0356 1303.7 2.78866 1309.06 3.32453 1315.11Z" fill="white"/>
<path d="M2.79133 1386.1C3.32662 1392.15 8.44115 1396.6 14.2153 1396.03C19.9889 1395.47 24.2358 1390.11 23.6999 1384.06C23.1647 1378.01 18.0501 1373.56 12.276 1374.13C6.5024 1374.69 2.25546 1380.06 2.79133 1386.1Z" fill="white"/>
<path d="M23.4755 1428.26C24.039 1434.31 29.3986 1438.76 35.4467 1438.19C41.4955 1437.63 45.9421 1432.27 45.3791 1426.22C44.8156 1420.17 39.456 1415.73 33.4079 1416.29C27.3591 1416.85 22.9125 1422.21 23.4755 1428.26Z" fill="white"/>
<path d="M22.9422 1499.26C23.5058 1505.31 28.8654 1509.75 34.9135 1509.19C40.9623 1508.63 45.4089 1503.27 44.8459 1497.22C44.2824 1491.17 38.9228 1486.72 32.8747 1487.29C26.8259 1487.85 22.3793 1493.21 22.9422 1499.26Z" fill="white"/>
<path d="M22.4071 1570.26C22.9706 1576.31 28.3302 1580.75 34.3784 1580.19C40.4271 1579.63 44.8737 1574.27 44.3108 1568.22C43.7472 1562.17 38.3877 1557.72 32.3395 1558.29C26.2907 1558.85 21.8442 1564.21 22.4071 1570.26Z" fill="white"/>
<path d="M37.3407 1446.37C37.9042 1452.41 43.2638 1456.86 49.3126 1456.3C55.3607 1455.74 59.8073 1450.38 59.2444 1444.33C58.6814 1438.28 53.3213 1433.83 47.2731 1434.39C41.2243 1434.96 36.7778 1440.32 37.3407 1446.37Z" fill="white"/>
<path d="M36.8055 1517.36C37.3691 1523.41 42.7286 1527.86 48.7774 1527.3C54.8256 1526.73 59.2721 1521.37 58.7092 1515.32C58.1463 1509.28 52.7861 1504.83 46.7379 1505.39C40.6892 1505.96 36.2426 1511.32 36.8055 1517.36Z" fill="white"/>
<path d="M36.2704 1588.36C36.8339 1594.41 42.1935 1598.86 48.2423 1598.29C54.2904 1597.73 58.737 1592.37 58.1741 1586.32C57.6111 1580.27 52.2509 1575.83 46.2028 1576.39C40.154 1576.95 35.7074 1582.31 36.2704 1588.36Z" fill="white"/>
<path d="M24.2003 1465.23C24.7585 1471.28 29.8898 1475.74 35.6606 1475.2C41.4321 1474.66 45.6579 1469.31 45.0997 1463.26C44.5408 1457.21 39.4096 1452.75 33.6387 1453.29C27.8672 1453.83 23.6414 1459.18 24.2003 1465.23Z" fill="white"/>
<path d="M23.6651 1536.22C24.2234 1542.27 29.3546 1546.74 35.1255 1546.2C40.897 1545.65 45.1228 1540.31 44.5645 1534.26C44.0057 1528.21 38.8745 1523.74 33.1036 1524.29C27.3321 1524.83 23.1063 1530.17 23.6651 1536.22Z" fill="white"/>
<path d="M23.13 1607.22C23.6882 1613.27 28.8194 1617.74 34.5903 1617.19C40.3618 1616.65 44.5876 1611.31 44.0294 1605.26C43.4705 1599.21 38.3393 1594.74 32.5684 1595.28C26.7969 1595.83 22.5711 1601.17 23.13 1607.22Z" fill="white"/>
<path d="M2.42467 1435.1C2.98821 1441.15 8.34778 1445.6 14.3959 1445.03C20.4447 1444.47 24.8913 1439.11 24.3283 1433.06C23.7648 1427.01 18.4052 1422.57 12.3571 1423.13C6.30829 1423.69 1.86174 1429.05 2.42467 1435.1Z" fill="white"/>
<path d="M1.88951 1506.1C2.45306 1512.15 7.81262 1516.6 13.8608 1516.03C19.9096 1515.47 24.3561 1510.11 23.7932 1504.06C23.2296 1498.01 17.8701 1493.57 11.8219 1494.13C5.77314 1494.69 1.32659 1500.05 1.88951 1506.1Z" fill="white"/>
<path d="M1.35436 1577.1C1.9179 1583.15 7.27746 1587.59 13.3256 1587.03C19.3744 1586.47 23.821 1581.11 23.258 1575.06C22.6945 1569.01 17.3349 1564.56 11.2868 1565.13C5.23798 1565.69 0.791429 1571.05 1.35436 1577.1Z" fill="white"/>
<path d="M3.24836 1458.11C3.78365 1464.16 8.89818 1468.6 14.6723 1468.04C20.4459 1467.47 24.6928 1462.11 24.157 1456.06C23.6217 1450.02 18.5072 1445.57 12.733 1446.14C6.95943 1446.7 2.71249 1452.06 3.24836 1458.11Z" fill="white"/>
<path d="M2.7132 1529.11C3.24849 1535.16 8.36302 1539.6 14.1372 1539.04C19.9107 1538.47 24.1577 1533.11 23.6218 1527.06C23.0865 1521.01 17.972 1516.57 12.1978 1517.13C6.42427 1517.7 2.17733 1523.06 2.7132 1529.11Z" fill="white"/>
<path d="M2.18 1600.11C2.71529 1606.15 7.82982 1610.6 13.604 1610.03C19.3775 1609.47 23.6245 1604.11 23.0886 1598.06C22.5533 1592.01 17.4388 1587.57 11.6646 1588.13C5.89107 1588.7 1.64413 1594.06 2.18 1600.11Z" fill="white"/>
<path d="M22.9422 1644.26C23.5058 1650.31 28.8654 1654.76 34.9135 1654.19C40.9623 1653.63 45.4089 1648.27 44.8459 1642.22C44.2824 1636.17 38.9228 1631.73 32.8747 1632.29C26.8259 1632.85 22.3793 1638.21 22.9422 1644.26Z" fill="#EDF399"/>
<path d="M22.409 1715.26C22.9726 1721.31 28.3322 1725.75 34.3803 1725.19C40.4291 1724.63 44.8757 1719.27 44.3127 1713.22C43.7492 1707.17 38.3896 1702.72 32.3414 1703.29C26.2927 1703.85 21.8461 1709.21 22.409 1715.26Z" fill="#EDF399"/>
<path d="M36.8075 1662.37C37.371 1668.41 42.7306 1672.86 48.7794 1672.3C54.8275 1671.74 59.2741 1666.38 58.7112 1660.33C58.1482 1654.28 52.7881 1649.83 46.7399 1650.39C40.6911 1650.96 36.2446 1656.32 36.8075 1662.37Z" fill="#EDF399"/>
<path d="M36.2723 1733.36C36.8359 1739.41 42.1954 1743.86 48.2442 1743.3C54.2924 1742.73 58.7389 1737.37 58.176 1731.32C57.6131 1725.28 52.2529 1720.83 46.2047 1721.39C40.156 1721.96 35.7094 1727.32 36.2723 1733.36Z" fill="#EDF399"/>
<path d="M23.6671 1681.23C24.2253 1687.28 29.3566 1691.74 35.1274 1691.2C40.8989 1690.66 45.1247 1685.31 44.5665 1679.26C44.0076 1673.21 38.8764 1668.75 33.1055 1669.29C27.334 1669.83 23.1082 1675.18 23.6671 1681.23Z" fill="#EDF399"/>
<path d="M23.1319 1752.22C23.6902 1758.27 28.8214 1762.74 34.5923 1762.2C40.3638 1761.65 44.5896 1756.31 44.0313 1750.26C43.4725 1744.21 38.3413 1739.74 32.5704 1740.29C26.7989 1740.83 22.5731 1746.17 23.1319 1752.22Z" fill="#EDF399"/>
<path d="M1.89147 1651.1C2.45501 1657.15 7.81457 1661.6 13.8627 1661.03C19.9115 1660.47 24.3581 1655.11 23.7951 1649.06C23.2316 1643.01 17.872 1638.57 11.8239 1639.13C5.77509 1639.69 1.32854 1645.05 1.89147 1651.1Z" fill="#EDF399"/>
<path d="M1.35631 1722.1C1.91986 1728.15 7.27942 1732.6 13.3276 1732.03C19.3764 1731.47 23.8229 1726.11 23.26 1720.06C22.6964 1714.01 17.3369 1709.57 11.2887 1710.13C5.23993 1710.69 0.793382 1716.05 1.35631 1722.1Z" fill="#EDF399"/>
<path d="M2.71516 1674.11C3.25045 1680.16 8.36498 1684.6 14.1391 1684.04C19.9127 1683.47 24.1596 1678.11 23.6238 1672.06C23.0885 1666.02 17.974 1661.57 12.1998 1662.14C6.42623 1662.7 2.17929 1668.06 2.71516 1674.11Z" fill="#EDF399"/>
<path d="M2.18 1745.11C2.71529 1751.16 7.82982 1755.6 13.604 1755.04C19.3775 1754.47 23.6245 1749.11 23.0886 1743.06C22.5533 1737.01 17.4388 1732.57 11.6646 1733.13C5.89107 1733.7 1.64413 1739.06 2.18 1745.11Z" fill="#EDF399"/>
<path d="M23.1825 1785.1C23.746 1791.15 29.1056 1795.6 35.1538 1795.03C41.2025 1794.47 45.6491 1789.11 45.0862 1783.06C44.5226 1777.01 39.1631 1772.57 33.1149 1773.13C27.0661 1773.69 22.6196 1779.05 23.1825 1785.1Z" fill="#EDF399"/>
<path d="M37.0458 1803.21C37.6093 1809.25 42.9689 1813.7 49.0176 1813.14C55.0658 1812.58 59.5124 1807.22 58.9494 1801.17C58.3865 1795.12 53.0263 1790.67 46.9782 1791.23C40.9294 1791.8 36.4828 1797.16 37.0458 1803.21Z" fill="#EDF399"/>
<path d="M23.9054 1822.06C24.4636 1828.11 29.5948 1832.58 35.3657 1832.04C41.1372 1831.49 45.363 1826.15 44.8048 1820.1C44.2459 1814.05 39.1147 1809.58 33.3438 1810.12C27.5723 1810.67 23.3465 1816.01 23.9054 1822.06Z" fill="#EDF399"/>
<path d="M2.12975 1791.94C2.69329 1797.99 8.05285 1802.44 14.101 1801.87C20.1498 1801.31 24.5964 1795.95 24.0334 1789.9C23.4699 1783.85 18.1103 1779.41 12.0622 1779.97C6.01337 1780.53 1.56682 1785.89 2.12975 1791.94Z" fill="#EDF399"/>
<path d="M2.95344 1814.95C3.48873 1821 8.60326 1825.44 14.3774 1824.88C20.151 1824.31 24.3979 1818.95 23.8621 1812.9C23.3268 1806.85 18.2122 1802.41 12.4381 1802.97C6.66451 1803.54 2.41757 1808.9 2.95344 1814.95Z" fill="#EDF399"/>
</svg>
