<svg width="146" height="1684" viewBox="0 0 146 1684" fill="none" xmlns="http://www.w3.org/2000/svg">
<rect width="73" height="1684" fill="#FFA7BF"/>
<path d="M26.9013 33.1229C27.5042 39.1671 32.8925 43.5791 38.9369 42.9767C44.9819 42.3743 49.3935 36.9856 48.7912 30.9407C48.1883 24.8958 42.7999 20.4844 36.7555 21.0868C30.7106 21.6892 26.299 27.078 26.9013 33.1229Z" fill="white"/>
<path d="M26.829 104.123C27.4319 110.167 32.8203 114.579 38.8646 113.977C44.9096 113.374 49.3212 107.986 48.7189 101.941C48.116 95.8958 42.7277 91.4844 36.6833 92.0868C30.6383 92.6892 26.2267 98.078 26.829 104.123Z" fill="white"/>
<path d="M26.7567 175.123C27.3596 181.167 32.748 185.579 38.7924 184.977C44.8374 184.374 49.2489 178.986 48.6467 172.941C48.0438 166.896 42.6554 162.484 36.611 163.087C30.566 163.689 26.1544 169.078 26.7567 175.123Z" fill="white"/>
<path d="M40.8837 51.1359C41.4866 57.1808 46.875 61.5928 52.9199 60.9904C58.9643 60.388 63.3759 54.9992 62.7736 48.9543C62.1713 42.9094 56.7823 38.4981 50.738 39.1005C44.693 39.7029 40.2814 45.0916 40.8837 51.1359Z" fill="white"/>
<path d="M40.8114 122.136C41.4143 128.181 46.8027 132.593 52.8477 131.99C58.8921 131.388 63.3036 125.999 62.7014 119.954C62.0991 113.909 56.7101 109.498 50.6657 110.1C44.6207 110.703 40.2091 116.092 40.8114 122.136Z" fill="white"/>
<path d="M40.7391 193.136C41.342 199.181 46.7304 203.593 52.7754 202.99C58.8198 202.388 63.2314 196.999 62.6291 190.954C62.0268 184.909 56.6378 180.498 50.5934 181.1C44.5484 181.703 40.1369 187.092 40.7391 193.136Z" fill="white"/>
<path d="M27.8661 70.0818C28.4637 76.1284 33.6239 80.5609 39.3911 79.9814C45.1589 79.4019 49.3499 74.0294 48.7523 67.9828C48.1541 61.9356 42.9939 57.5031 37.2266 58.0832C31.4588 58.6627 27.2678 64.0346 27.8661 70.0818Z" fill="white"/>
<path d="M27.7938 141.082C28.3914 147.128 33.5516 151.561 39.3188 150.981C45.0867 150.402 49.2776 145.029 48.68 138.983C48.0818 132.936 42.9216 128.503 37.1544 129.083C31.3865 129.663 27.1956 135.035 27.7938 141.082Z" fill="white"/>
<path d="M27.7215 212.082C28.3192 218.128 33.4793 222.561 39.2466 221.981C45.0144 221.402 49.2054 216.029 48.6077 209.983C48.0095 203.936 42.8493 199.503 37.0821 200.083C31.3143 200.663 27.1233 206.035 27.7215 212.082Z" fill="white"/>
<path d="M5.89344 40.1014C6.49634 46.1463 11.8847 50.5576 17.9291 49.9552C23.9741 49.3528 28.3857 43.9641 27.7834 37.9198C27.1805 31.8749 21.7921 27.4629 15.7477 28.0653C9.70274 28.6677 5.29116 34.0565 5.89344 40.1014Z" fill="white"/>
<path d="M5.82118 111.101C6.42408 117.146 11.8125 121.558 17.8568 120.955C23.9018 120.353 28.3134 114.964 27.7111 108.92C27.1082 102.875 21.7198 98.4629 15.6755 99.0653C9.63047 99.6677 5.2189 105.056 5.82118 111.101Z" fill="white"/>
<path d="M5.74891 182.101C6.35181 188.146 11.7402 192.558 17.7846 191.955C23.8296 191.353 28.2411 185.964 27.6389 179.92C27.036 173.875 21.6476 169.463 15.6032 170.065C9.55821 170.668 5.14663 176.056 5.74891 182.101Z" fill="white"/>
<path d="M6.86755 63.1024C7.44219 69.1466 12.5855 73.5584 18.3559 72.9557C24.1257 72.353 28.3376 66.9641 27.7624 60.9192C27.1878 54.8749 22.0444 50.4632 16.2741 51.0659C10.5043 51.6686 6.29233 57.0575 6.86755 63.1024Z" fill="white"/>
<path d="M6.79529 134.102C7.36992 140.147 12.5133 144.558 18.2836 143.956C24.0534 143.353 28.2654 137.964 27.6901 131.919C27.1155 125.875 21.9721 121.463 16.2018 122.066C10.432 122.669 6.22006 128.058 6.79529 134.102Z" fill="white"/>
<path d="M6.72302 205.102C7.29766 211.147 12.441 215.558 18.2114 214.956C23.9811 214.353 28.1931 208.964 27.6179 202.919C27.0432 196.875 21.8999 192.463 16.1295 193.066C10.3598 193.669 6.1478 199.058 6.72302 205.102Z" fill="white"/>
<path d="M27.6825 247.125C28.2854 253.169 33.6738 257.581 39.7182 256.979C45.7632 256.376 50.1747 250.988 49.5724 244.943C48.9696 238.898 43.5812 234.486 37.5368 235.089C31.4918 235.691 27.0802 241.08 27.6825 247.125Z" fill="white"/>
<path d="M27.6102 318.125C28.2131 324.169 33.6015 328.581 39.6459 327.979C45.6909 327.376 50.1025 321.988 49.5002 315.943C48.8973 309.898 43.5089 305.486 37.4645 306.089C31.4195 306.691 27.008 312.08 27.6102 318.125Z" fill="#FFEB8D"/>
<path d="M27.538 389.125C28.1409 395.169 33.5293 399.581 39.5736 398.979C45.6186 398.376 50.0302 392.988 49.4279 386.943C48.825 380.898 43.4366 376.486 37.3923 377.089C31.3473 377.691 26.9357 383.08 27.538 389.125Z" fill="#FFEB8D"/>
<path d="M41.6649 265.138C42.2678 271.183 47.6562 275.595 53.7012 274.992C59.7456 274.39 64.1571 269.001 63.5549 262.956C62.9526 256.911 57.5636 252.5 51.5192 253.102C45.4742 253.705 41.0626 259.094 41.6649 265.138Z" fill="white"/>
<path d="M41.5927 336.138C42.1956 342.183 47.5839 346.595 53.6289 345.992C59.6733 345.39 64.0849 340.001 63.4826 333.956C62.8803 327.911 57.4913 323.5 51.447 324.102C45.402 324.705 40.9904 330.094 41.5927 336.138Z" fill="#FFEB8D"/>
<path d="M41.5204 407.138C42.1233 413.183 47.5117 417.595 53.5567 416.992C59.601 416.39 64.0126 411.001 63.4103 404.956C62.8081 398.911 57.4191 394.5 51.3747 395.102C45.3297 395.705 40.9181 401.094 41.5204 407.138Z" fill="#FFEB8D"/>
<path d="M28.6473 284.084C29.2449 290.13 34.4051 294.563 40.1723 293.983C45.9402 293.404 50.1311 288.031 49.5335 281.985C48.9353 275.938 43.7751 271.505 38.0079 272.085C32.2401 272.665 28.0491 278.037 28.6473 284.084Z" fill="white"/>
<path d="M28.5751 355.084C29.1727 361.13 34.3329 365.563 40.1001 364.983C45.8679 364.404 50.0589 359.031 49.4613 352.985C48.863 346.938 43.7029 342.505 37.9356 343.085C32.1678 343.665 27.9768 349.037 28.5751 355.084Z" fill="#FFEB8D"/>
<path d="M28.5028 426.084C29.1004 432.13 34.2606 436.563 40.0278 435.983C45.7957 435.404 49.9866 430.031 49.389 423.985C48.7908 417.938 43.6306 413.505 37.8634 414.085C32.0955 414.665 27.9046 420.037 28.5028 426.084Z" fill="#FFEB8D"/>
<path d="M6.67469 254.103C7.27759 260.148 12.666 264.56 18.7103 263.957C24.7553 263.355 29.1669 257.966 28.5646 251.922C27.9617 245.877 22.5734 241.465 16.529 242.067C10.484 242.67 6.07241 248.058 6.67469 254.103Z" fill="white"/>
<path d="M6.60243 325.103C7.20533 331.148 12.5937 335.56 18.6381 334.957C24.6831 334.355 29.0946 328.966 28.4924 322.922C27.8895 316.877 22.5011 312.465 16.4567 313.067C10.4117 313.67 6.00015 319.058 6.60243 325.103Z" fill="#FFEB8D"/>
<path d="M6.53016 396.103C7.13306 402.148 12.5214 406.56 18.5658 405.957C24.6108 405.355 29.0224 399.966 28.4201 393.922C27.8172 387.877 22.4288 383.465 16.3844 384.067C10.3395 384.67 5.92788 390.058 6.53016 396.103Z" fill="#FFEB8D"/>
<path d="M7.6488 277.104C8.22344 283.149 13.3668 287.56 19.1371 286.958C24.9069 286.355 29.1189 280.966 28.5437 274.921C27.969 268.877 22.8257 264.465 17.0553 265.068C11.2855 265.671 7.07358 271.059 7.6488 277.104Z" fill="white"/>
<path d="M7.57654 348.104C8.15117 354.149 13.2945 358.56 19.0649 357.958C24.8346 357.355 29.0466 351.966 28.4714 345.921C27.8967 339.877 22.7534 335.465 16.983 336.068C11.2133 336.671 7.00131 342.059 7.57654 348.104Z" fill="#FFEB8D"/>
<path d="M7.50427 419.104C8.07891 425.149 13.2223 429.56 18.9926 428.958C24.7624 428.355 28.9743 422.966 28.3991 416.921C27.8245 410.877 22.6811 406.465 16.9108 407.068C11.141 407.671 6.92905 413.059 7.50427 419.104Z" fill="#FFEB8D"/>
<path d="M28.4657 461.125C29.0686 467.169 34.457 471.581 40.5014 470.979C46.5464 470.376 50.9579 464.988 50.3556 458.943C49.7528 452.898 44.3644 448.486 38.32 449.089C32.275 449.691 27.8634 455.08 28.4657 461.125Z" fill="#FFEB8D"/>
<path d="M28.3934 532.125C28.9963 538.169 34.3847 542.581 40.4291 541.979C46.4741 541.376 50.8857 535.988 50.2834 529.943C49.6805 523.898 44.2921 519.486 38.2477 520.089C32.2027 520.691 27.7912 526.08 28.3934 532.125Z" fill="white"/>
<path d="M28.3212 603.125C28.9241 609.169 34.3125 613.581 40.3568 612.979C46.4018 612.376 50.8134 606.988 50.2111 600.943C49.6082 594.898 44.2198 590.486 38.1755 591.089C32.1305 591.691 27.7189 597.08 28.3212 603.125Z" fill="white"/>
<path d="M42.4481 479.138C43.051 485.183 48.4394 489.595 54.4844 488.992C60.5288 488.39 64.9404 483.001 64.3381 476.956C63.7358 470.911 58.3468 466.5 52.3024 467.102C46.2574 467.705 41.8458 473.094 42.4481 479.138Z" fill="#FFEB8D"/>
<path d="M42.3759 550.138C42.9788 556.183 48.3671 560.595 54.4121 559.992C60.4565 559.39 64.8681 554.001 64.2658 547.956C63.6635 541.911 58.2745 537.5 52.2302 538.102C46.1852 538.705 41.7736 544.094 42.3759 550.138Z" fill="white"/>
<path d="M42.3036 621.138C42.9065 627.183 48.2949 631.595 54.3399 630.992C60.3842 630.39 64.7958 625.001 64.1935 618.956C63.5913 612.911 58.2023 608.5 52.1579 609.102C46.1129 609.705 41.7013 615.094 42.3036 621.138Z" fill="white"/>
<path d="M29.4305 498.084C30.0281 504.13 35.1883 508.563 40.9556 507.983C46.7234 507.404 50.9143 502.031 50.3167 495.985C49.7185 489.938 44.5583 485.505 38.7911 486.085C33.0233 486.665 28.8323 492.037 29.4305 498.084Z" fill="#FFEB8D"/>
<path d="M29.3583 569.084C29.9559 575.13 35.1161 579.563 40.8833 578.983C46.6511 578.404 50.8421 573.031 50.2445 566.985C49.6462 560.938 44.4861 556.505 38.7188 557.085C32.951 557.665 28.76 563.037 29.3583 569.084Z" fill="white"/>
<path d="M29.286 640.084C29.8836 646.13 35.0438 650.563 40.811 649.983C46.5789 649.404 50.7698 644.031 50.1722 637.985C49.574 631.938 44.4138 627.505 38.6466 628.085C32.8787 628.665 28.6878 634.037 29.286 640.084Z" fill="white"/>
<path d="M7.4579 468.103C8.06079 474.148 13.4492 478.56 19.4936 477.957C25.5385 477.355 29.9501 471.966 29.3478 465.922C28.7449 459.877 23.3566 455.465 17.3122 456.067C11.2672 456.67 6.85562 462.058 7.4579 468.103Z" fill="#FFEB8D"/>
<path d="M7.38563 539.103C7.98853 545.148 13.3769 549.56 19.4213 548.957C25.4663 548.355 29.8779 542.966 29.2756 536.922C28.6727 530.877 23.2843 526.465 17.2399 527.067C11.1949 527.67 6.78335 533.058 7.38563 539.103Z" fill="white"/>
<path d="M7.31337 610.103C7.91626 616.148 13.3046 620.56 19.349 619.957C25.394 619.355 29.8056 613.966 29.2033 607.922C28.6004 601.877 23.212 597.465 17.1677 598.067C11.1227 598.67 6.71109 604.058 7.31337 610.103Z" fill="white"/>
<path d="M8.43201 491.104C9.00664 497.149 14.15 501.56 19.9203 500.958C25.6901 500.355 29.9021 494.966 29.3269 488.921C28.7522 482.877 23.6089 478.465 17.8385 479.068C12.0687 479.671 7.85678 485.059 8.43201 491.104Z" fill="#FFEB8D"/>
<path d="M8.35974 562.104C8.93438 568.149 14.0777 572.56 19.8481 571.958C25.6178 571.355 29.8298 565.966 29.2546 559.921C28.68 553.877 23.5366 549.465 17.7662 550.068C11.9965 550.671 7.78452 556.059 8.35974 562.104Z" fill="white"/>
<path d="M8.28747 633.104C8.86211 639.149 14.0055 643.56 19.7758 642.958C25.5456 642.355 29.7575 636.966 29.1823 630.921C28.6077 624.877 23.4643 620.465 17.694 621.068C11.9242 621.671 7.71225 627.059 8.28747 633.104Z" fill="white"/>
<path d="M29.247 675.127C29.8499 681.171 35.2382 685.583 41.2826 684.981C47.3276 684.378 51.7392 678.989 51.1369 672.945C50.534 666.9 45.1456 662.488 39.1012 663.091C33.0563 663.693 28.6447 669.082 29.247 675.127Z" fill="white"/>
<path d="M29.1747 746.127C29.7776 752.171 35.166 756.583 41.2103 755.981C47.2553 755.378 51.6669 749.989 51.0646 743.945C50.4617 737.9 45.0734 733.488 39.029 734.091C32.984 734.693 28.5724 740.082 29.1747 746.127Z" fill="white"/>
<path d="M29.1024 817.127C29.7053 823.171 35.0937 827.583 41.1381 826.981C47.1831 826.378 51.5946 820.989 50.9924 814.945C50.3895 808.9 45.0011 804.488 38.9567 805.091C32.9117 805.693 28.5001 811.082 29.1024 817.127Z" fill="white"/>
<path d="M43.2294 693.14C43.8323 699.185 49.2207 703.597 55.2656 702.994C61.31 702.392 65.7216 697.003 65.1193 690.958C64.517 684.913 59.128 680.502 53.0837 681.104C47.0387 681.707 42.6271 687.096 43.2294 693.14Z" fill="white"/>
<path d="M43.1571 764.14C43.76 770.185 49.1484 774.597 55.1934 773.994C61.2378 773.392 65.6493 768.003 65.0471 761.958C64.4448 755.913 59.0558 751.502 53.0114 752.104C46.9664 752.707 42.5548 758.096 43.1571 764.14Z" fill="white"/>
<path d="M43.0848 835.14C43.6877 841.185 49.0761 845.597 55.1211 844.994C61.1655 844.392 65.5771 839.003 64.9748 832.958C64.3725 826.913 58.9835 822.502 52.9391 823.104C46.8941 823.707 42.4826 829.096 43.0848 835.14Z" fill="white"/>
<path d="M30.2118 712.086C30.8094 718.132 35.9696 722.565 41.7368 721.985C47.5046 721.406 51.6956 716.033 51.098 709.987C50.4998 703.94 45.3396 699.507 39.5723 700.087C33.8045 700.667 29.6136 706.039 30.2118 712.086Z" fill="white"/>
<path d="M30.1395 783.086C30.7371 789.132 35.8973 793.565 41.6645 792.985C47.4324 792.406 51.6233 787.033 51.0257 780.987C50.4275 774.94 45.2673 770.507 39.5001 771.087C33.7322 771.667 29.5413 777.039 30.1395 783.086Z" fill="white"/>
<path d="M30.0672 854.086C30.6649 860.132 35.825 864.565 41.5923 863.985C47.3601 863.406 51.5511 858.033 50.9534 851.987C50.3552 845.94 45.195 841.507 39.4278 842.087C33.66 842.667 29.469 848.039 30.0672 854.086Z" fill="white"/>
<path d="M8.23915 682.105C8.84204 688.15 14.2304 692.562 20.2748 691.959C26.3198 691.357 30.7314 685.968 30.1291 679.924C29.5262 673.879 24.1378 669.467 18.0934 670.069C12.0484 670.672 7.63687 676.06 8.23915 682.105Z" fill="white"/>
<path d="M8.16688 753.105C8.76978 759.15 14.1582 763.562 20.2025 762.959C26.2475 762.357 30.6591 756.968 30.0568 750.924C29.4539 744.879 24.0655 740.467 18.0212 741.069C11.9762 741.672 7.5646 747.06 8.16688 753.105Z" fill="white"/>
<path d="M8.09462 824.105C8.69751 830.15 14.0859 834.562 20.1303 833.959C26.1753 833.357 30.5868 827.968 29.9846 821.924C29.3817 815.879 23.9933 811.467 17.9489 812.069C11.9039 812.672 7.49234 818.06 8.09462 824.105Z" fill="white"/>
<path d="M9.21326 705.106C9.78789 711.151 14.9312 715.562 20.7016 714.96C26.4714 714.357 30.6833 708.968 30.1081 702.923C29.5335 696.879 24.3901 692.467 18.6198 693.07C12.85 693.672 8.63803 699.061 9.21326 705.106Z" fill="white"/>
<path d="M9.14099 776.106C9.71563 782.151 14.859 786.562 20.6293 785.96C26.3991 785.357 30.6111 779.968 30.0358 773.923C29.4612 767.879 24.3179 763.467 18.5475 764.07C12.7777 764.672 8.56577 770.061 9.14099 776.106Z" fill="white"/>
<path d="M9.06872 847.106C9.64336 853.151 14.7867 857.562 20.5571 856.96C26.3268 856.357 30.5388 850.968 29.9636 844.923C29.3889 838.879 24.2456 834.467 18.4752 835.07C12.7055 835.672 8.4935 841.061 9.06872 847.106Z" fill="white"/>
<path d="M32.8407 1464.09C33.4436 1470.13 38.832 1474.54 44.8764 1473.94C50.9214 1473.34 55.3329 1467.95 54.7306 1461.9C54.1278 1455.86 48.7394 1451.45 42.695 1452.05C36.65 1452.65 32.2384 1458.04 32.8407 1464.09Z" fill="#EDF399"/>
<path d="M32.7684 1535.09C33.3713 1541.13 38.7597 1545.54 44.8041 1544.94C50.8491 1544.34 55.2607 1538.95 54.6584 1532.9C54.0555 1526.86 48.6671 1522.45 42.6227 1523.05C36.5777 1523.65 32.1662 1529.04 32.7684 1535.09Z" fill="white"/>
<path d="M32.6962 1606.09C33.2991 1612.13 38.6875 1616.54 44.7318 1615.94C50.7768 1615.34 55.1884 1609.95 54.5861 1603.9C53.9832 1597.86 48.5948 1593.45 42.5505 1594.05C36.5055 1594.65 32.0939 1600.04 32.6962 1606.09Z" fill="white"/>
<path d="M46.8231 1482.1C47.426 1488.14 52.8144 1492.56 58.8594 1491.95C64.9038 1491.35 69.3154 1485.96 68.7131 1479.92C68.1108 1473.87 62.7218 1469.46 56.6774 1470.06C50.6324 1470.67 46.2208 1476.05 46.8231 1482.1Z" fill="#EDF399"/>
<path d="M46.7509 1553.1C47.3538 1559.14 52.7421 1563.56 58.7871 1562.95C64.8315 1562.35 69.2431 1556.96 68.6408 1550.92C68.0385 1544.87 62.6495 1540.46 56.6052 1541.06C50.5602 1541.67 46.1486 1547.05 46.7509 1553.1Z" fill="white"/>
<path d="M46.6786 1624.1C47.2815 1630.14 52.6699 1634.56 58.7149 1633.95C64.7592 1633.35 69.1708 1627.96 68.5685 1621.92C67.9663 1615.87 62.5773 1611.46 56.5329 1612.06C50.4879 1612.67 46.0763 1618.05 46.6786 1624.1Z" fill="white"/>
<path d="M33.8055 1501.04C34.4031 1507.09 39.5633 1511.52 45.3306 1510.94C51.0984 1510.36 55.2893 1504.99 54.6917 1498.95C54.0935 1492.9 48.9333 1488.47 43.1661 1489.05C37.3983 1489.63 33.2073 1495 33.8055 1501.04Z" fill="#EDF399"/>
<path d="M33.7333 1572.04C34.3309 1578.09 39.4911 1582.52 45.2583 1581.94C51.0261 1581.36 55.2171 1575.99 54.6195 1569.95C54.0212 1563.9 48.8611 1559.47 43.0938 1560.05C37.326 1560.63 33.135 1566 33.7333 1572.04Z" fill="white"/>
<path d="M33.661 1643.04C34.2586 1649.09 39.4188 1653.52 45.186 1652.94C50.9539 1652.36 55.1448 1646.99 54.5472 1640.95C53.949 1634.9 48.7888 1630.47 43.0216 1631.05C37.2537 1631.63 33.0628 1637 33.661 1643.04Z" fill="white"/>
<path d="M11.8329 1471.06C12.4358 1477.11 17.8242 1481.52 23.8686 1480.92C29.9135 1480.32 34.3251 1474.93 33.7228 1468.88C33.1199 1462.84 27.7316 1458.43 21.6872 1459.03C15.6422 1459.63 11.2306 1465.02 11.8329 1471.06Z" fill="#EDF399"/>
<path d="M11.7606 1542.06C12.3635 1548.11 17.7519 1552.52 23.7963 1551.92C29.8413 1551.32 34.2529 1545.93 33.6506 1539.88C33.0477 1533.84 27.6593 1529.43 21.6149 1530.03C15.5699 1530.63 11.1584 1536.02 11.7606 1542.06Z" fill="white"/>
<path d="M11.6884 1613.06C12.2913 1619.11 17.6796 1623.52 23.724 1622.92C29.769 1622.32 34.1806 1616.93 33.5783 1610.88C32.9754 1604.84 27.587 1600.43 21.5427 1601.03C15.4977 1601.63 11.0861 1607.02 11.6884 1613.06Z" fill="white"/>
<path d="M12.807 1494.07C13.3816 1500.11 18.525 1504.52 24.2953 1503.92C30.0651 1503.32 34.2771 1497.93 33.7019 1491.88C33.1272 1485.84 27.9839 1481.43 22.2135 1482.03C16.4437 1482.63 12.2318 1488.02 12.807 1494.07Z" fill="#EDF399"/>
<path d="M12.7347 1565.07C13.3094 1571.11 18.4527 1575.52 24.2231 1574.92C29.9928 1574.32 34.2048 1568.93 33.6296 1562.88C33.055 1556.84 27.9116 1552.43 22.1412 1553.03C16.3715 1553.63 12.1595 1559.02 12.7347 1565.07Z" fill="white"/>
<path d="M12.6625 1636.07C13.2371 1642.11 18.3805 1646.52 24.1508 1645.92C29.9206 1645.32 34.1325 1639.93 33.5573 1633.88C32.9827 1627.84 27.8393 1623.43 22.069 1624.03C16.2992 1624.63 12.0873 1630.02 12.6625 1636.07Z" fill="white"/>
<path d="M32.163 890.261C32.7265 896.309 38.0861 900.756 44.1342 900.193C50.183 899.63 54.6296 894.27 54.0666 888.221C53.5031 882.173 48.1435 877.726 42.0954 878.289C36.0466 878.852 31.6 884.212 32.163 890.261Z" fill="white"/>
<path d="M31.6297 961.259C32.1933 967.307 37.5529 971.754 43.601 971.191C49.6498 970.628 54.0964 965.268 53.5334 959.219C52.9699 953.171 47.6103 948.724 41.5622 949.287C35.5134 949.85 31.0668 955.21 31.6297 961.259Z" fill="white"/>
<path d="M31.0946 1032.26C31.6581 1038.31 37.0177 1042.75 43.0659 1042.19C49.1146 1041.63 53.5612 1036.27 52.9983 1030.22C52.4347 1024.17 47.0752 1019.72 41.027 1020.29C34.9782 1020.85 30.5317 1026.21 31.0946 1032.26Z" fill="white"/>
<path d="M46.0282 908.366C46.5917 914.415 51.9513 918.861 58.0001 918.298C64.0482 917.735 68.4948 912.375 67.9319 906.327C67.3689 900.278 62.0088 895.832 55.9606 896.395C49.9118 896.958 45.4653 902.318 46.0282 908.366Z" fill="white"/>
<path d="M45.493 979.364C46.0566 985.413 51.4161 989.86 57.4649 989.296C63.5131 988.733 67.9596 983.373 67.3967 977.325C66.8338 971.276 61.4736 966.83 55.4254 967.393C49.3767 967.956 44.9301 973.316 45.493 979.364Z" fill="white"/>
<path d="M44.9579 1050.36C45.5214 1056.41 50.881 1060.86 56.9298 1060.29C62.9779 1059.73 67.4245 1054.37 66.8616 1048.32C66.2986 1042.27 60.9384 1037.83 54.8903 1038.39C48.8415 1038.95 44.3949 1044.31 44.9579 1050.36Z" fill="white"/>
<path d="M32.8878 927.226C33.446 933.277 38.5773 937.743 44.3481 937.201C50.1196 936.659 54.3454 931.314 53.7872 925.263C53.2283 919.212 48.0971 914.746 42.3262 915.289C36.5547 915.831 32.3289 921.176 32.8878 927.226Z" fill="white"/>
<path d="M32.3526 998.223C32.9109 1004.27 38.0421 1008.74 43.813 1008.2C49.5845 1007.65 53.8103 1002.31 53.252 996.26C52.6932 990.209 47.562 985.743 41.7911 986.285C36.0196 986.827 31.7938 992.172 32.3526 998.223Z" fill="white"/>
<path d="M31.8175 1069.22C32.3757 1075.27 37.5069 1079.74 43.2778 1079.19C49.0493 1078.65 53.2751 1073.31 52.7169 1067.26C52.158 1061.21 47.0268 1056.74 41.2559 1057.28C35.4844 1057.83 31.2586 1063.17 31.8175 1069.22Z" fill="white"/>
<path d="M11.1122 897.103C11.6757 903.151 17.0353 907.598 23.0834 907.035C29.1322 906.472 33.5788 901.112 33.0158 895.064C32.4523 889.015 27.0927 884.568 21.0446 885.131C14.9958 885.694 10.5492 891.054 11.1122 897.103Z" fill="white"/>
<path d="M10.577 968.101C11.1406 974.15 16.5001 978.596 22.5483 978.033C28.5971 977.47 33.0436 972.11 32.4807 966.062C31.9171 960.013 26.5576 955.566 20.5094 956.129C14.4606 956.692 10.0141 962.052 10.577 968.101Z" fill="white"/>
<path d="M10.0419 1039.1C10.6054 1045.15 15.965 1049.59 22.0131 1049.03C28.0619 1048.47 32.5085 1043.11 31.9455 1037.06C31.382 1031.01 26.0224 1026.56 19.9743 1027.13C13.9255 1027.69 9.47893 1033.05 10.0419 1039.1Z" fill="white"/>
<path d="M11.9359 920.11C12.4711 926.158 17.5857 930.603 23.3598 930.038C29.1334 929.473 33.3803 924.112 32.8445 918.063C32.3092 912.015 27.1947 907.57 21.4205 908.135C15.6469 908.7 11.4 914.062 11.9359 920.11Z" fill="white"/>
<path d="M11.4007 991.108C11.936 997.156 17.0505 1001.6 22.8247 1001.04C28.5982 1000.47 32.8452 995.11 32.3093 989.061C31.774 983.013 26.6595 978.568 20.8853 979.133C15.1118 979.698 10.8648 985.06 11.4007 991.108Z" fill="white"/>
<path d="M10.8675 1062.11C11.4028 1068.15 16.5173 1072.6 22.2915 1072.03C28.065 1071.47 32.312 1066.11 31.7761 1060.06C31.2408 1054.01 26.1263 1049.57 20.3521 1050.13C14.5786 1050.7 10.3316 1056.06 10.8675 1062.11Z" fill="white"/>
<path d="M31.5516 1104.26C32.1152 1110.31 37.4747 1114.76 43.5229 1114.19C49.5717 1113.63 54.0182 1108.27 53.4553 1102.22C52.8918 1096.17 47.5322 1091.73 41.484 1092.29C35.4352 1092.85 30.9887 1098.21 31.5516 1104.26Z" fill="white"/>
<path d="M31.0184 1175.26C31.582 1181.31 36.9415 1185.76 42.9897 1185.19C49.0385 1184.63 53.485 1179.27 52.9221 1173.22C52.3586 1167.17 46.999 1162.73 40.9508 1163.29C34.902 1163.85 30.4555 1169.21 31.0184 1175.26Z" fill="white"/>
<path d="M30.4833 1246.26C31.0468 1252.31 36.4064 1256.75 42.4545 1256.19C48.5033 1255.63 52.9499 1250.27 52.3869 1244.22C51.8234 1238.17 46.4638 1233.72 40.4157 1234.29C34.3669 1234.85 29.9203 1240.21 30.4833 1246.26Z" fill="white"/>
<path d="M45.4169 1122.37C45.9804 1128.42 51.34 1132.86 57.3887 1132.3C63.4369 1131.74 67.8835 1126.38 67.3205 1120.33C66.7576 1114.28 61.3974 1109.83 55.3493 1110.4C49.3005 1110.96 44.8539 1116.32 45.4169 1122.37Z" fill="white"/>
<path d="M44.8817 1193.37C45.4452 1199.41 50.8048 1203.86 56.8536 1203.3C62.9018 1202.74 67.3483 1197.38 66.7854 1191.33C66.2225 1185.28 60.8623 1180.83 54.8141 1181.39C48.7653 1181.96 44.3188 1187.32 44.8817 1193.37Z" fill="white"/>
<path d="M44.3465 1264.36C44.9101 1270.41 50.2696 1274.86 56.3184 1274.3C62.3666 1273.73 66.8132 1268.37 66.2502 1262.32C65.6873 1256.28 60.3271 1251.83 54.279 1252.39C48.2302 1252.96 43.7836 1258.32 44.3465 1264.36Z" fill="white"/>
<path d="M32.2764 1141.23C32.8347 1147.28 37.9659 1151.74 43.7368 1151.2C49.5083 1150.66 53.7341 1145.32 53.1759 1139.27C52.617 1133.21 47.4858 1128.75 41.7149 1129.29C35.9434 1129.83 31.7176 1135.18 32.2764 1141.23Z" fill="white"/>
<path d="M31.7413 1212.22C32.2995 1218.27 37.4308 1222.74 43.2017 1222.2C48.9731 1221.66 53.199 1216.31 52.6407 1210.26C52.0819 1204.21 46.9506 1199.74 41.1797 1200.29C35.4083 1200.83 31.1824 1206.17 31.7413 1212.22Z" fill="white"/>
<path d="M31.2061 1283.22C31.7644 1289.27 36.8956 1293.74 42.6665 1293.2C48.438 1292.65 52.6638 1287.31 52.1056 1281.26C51.5467 1275.21 46.4155 1270.74 40.6446 1271.29C34.8731 1271.83 30.6473 1277.17 31.2061 1283.22Z" fill="white"/>
<path d="M10.5008 1111.1C11.0644 1117.15 16.4239 1121.6 22.4721 1121.04C28.5209 1120.47 32.9674 1115.11 32.4045 1109.07C31.841 1103.02 26.4814 1098.57 20.4332 1099.13C14.3845 1099.7 9.93791 1105.06 10.5008 1111.1Z" fill="white"/>
<path d="M9.96569 1182.1C10.5292 1188.15 15.8888 1192.6 21.937 1192.03C27.9857 1191.47 32.4323 1186.11 31.8694 1180.06C31.3058 1174.01 25.9463 1169.57 19.8981 1170.13C13.8493 1170.69 9.40276 1176.05 9.96569 1182.1Z" fill="white"/>
<path d="M9.43053 1253.1C9.99407 1259.15 15.3536 1263.6 21.4018 1263.03C27.4506 1262.47 31.8971 1257.11 31.3342 1251.06C30.7707 1245.01 25.4111 1240.57 19.3629 1241.13C13.3142 1241.69 8.8676 1247.05 9.43053 1253.1Z" fill="white"/>
<path d="M11.3245 1134.11C11.8598 1140.16 16.9744 1144.61 22.7485 1144.04C28.5221 1143.47 32.769 1138.11 32.2331 1132.07C31.6979 1126.02 26.5833 1121.57 20.8092 1122.14C15.0356 1122.7 10.7887 1128.06 11.3245 1134.11Z" fill="white"/>
<path d="M10.7894 1205.11C11.3247 1211.16 16.4392 1215.6 22.2134 1215.04C27.9869 1214.47 32.2339 1209.11 31.698 1203.06C31.1627 1197.02 26.0482 1192.57 20.274 1193.14C14.5004 1193.7 10.2535 1199.06 10.7894 1205.11Z" fill="white"/>
<path d="M10.2562 1276.11C10.7915 1282.16 15.906 1286.6 21.6801 1286.04C27.4537 1285.47 31.7007 1280.11 31.1648 1274.06C30.6295 1268.01 25.515 1263.57 19.7408 1264.13C13.9672 1264.7 9.7203 1270.06 10.2562 1276.11Z" fill="white"/>
<path d="M30.9422 1318.26C31.5058 1324.31 36.8654 1328.76 42.9135 1328.2C48.9623 1327.63 53.4089 1322.27 52.8459 1316.23C52.2824 1310.18 46.9228 1305.73 40.8747 1306.29C34.8259 1306.86 30.3793 1312.22 30.9422 1318.26Z" fill="white"/>
<path d="M30.409 1389.26C30.9726 1395.31 36.3322 1399.76 42.3803 1399.19C48.4291 1398.63 52.8757 1393.27 52.3127 1387.22C51.7492 1381.17 46.3896 1376.73 40.3414 1377.29C34.2927 1377.85 29.8461 1383.21 30.409 1389.26Z" fill="#EDF399"/>
<path d="M44.8075 1336.37C45.371 1342.42 50.7306 1346.87 56.7794 1346.3C62.8275 1345.74 67.2741 1340.38 66.7112 1334.33C66.1482 1328.28 60.7881 1323.84 54.7399 1324.4C48.6911 1324.96 44.2446 1330.32 44.8075 1336.37Z" fill="white"/>
<path d="M44.2723 1407.37C44.8359 1413.42 50.1954 1417.86 56.2442 1417.3C62.2924 1416.74 66.7389 1411.38 66.176 1405.33C65.6131 1399.28 60.2529 1394.83 54.2047 1395.4C48.156 1395.96 43.7094 1401.32 44.2723 1407.37Z" fill="#EDF399"/>
<path d="M31.6671 1355.23C32.2253 1361.28 37.3566 1365.75 43.1274 1365.2C48.8989 1364.66 53.1247 1359.32 52.5665 1353.27C52.0076 1347.22 46.8764 1342.75 41.1055 1343.29C35.334 1343.83 31.1082 1349.18 31.6671 1355.23Z" fill="white"/>
<path d="M31.1319 1426.23C31.6902 1432.28 36.8214 1436.74 42.5923 1436.2C48.3638 1435.66 52.5896 1430.31 52.0313 1424.26C51.4725 1418.21 46.3413 1413.75 40.5704 1414.29C34.7989 1414.83 30.5731 1420.18 31.1319 1426.23Z" fill="#EDF399"/>
<path d="M9.89147 1325.11C10.455 1331.16 15.8146 1335.6 21.8627 1335.04C27.9115 1334.48 32.3581 1329.12 31.7951 1323.07C31.2316 1317.02 25.872 1312.57 19.8239 1313.14C13.7751 1313.7 9.32854 1319.06 9.89147 1325.11Z" fill="white"/>
<path d="M9.35631 1396.1C9.91986 1402.15 15.2794 1406.6 21.3276 1406.04C27.3764 1405.47 31.8229 1400.11 31.26 1394.07C30.6964 1388.02 25.3369 1383.57 19.2887 1384.13C13.2399 1384.7 8.79338 1390.06 9.35631 1396.1Z" fill="#EDF399"/>
<path d="M10.7152 1348.11C11.2504 1354.16 16.365 1358.61 22.1391 1358.04C27.9127 1357.48 32.1596 1352.12 31.6238 1346.07C31.0885 1340.02 25.974 1335.57 20.1998 1336.14C14.4262 1336.7 10.1793 1342.07 10.7152 1348.11Z" fill="white"/>
<path d="M10.18 1419.11C10.7153 1425.16 15.8298 1429.61 21.604 1429.04C27.3775 1428.47 31.6245 1423.11 31.0886 1417.07C30.5533 1411.02 25.4388 1406.57 19.6646 1407.14C13.8911 1407.7 9.64413 1413.06 10.18 1419.11Z" fill="#EDF399"/>
<rect x="73" width="73" height="1684" fill="#FFA7BF"/>
<path d="M99.9013 33.1229C100.504 39.1671 105.893 43.5791 111.937 42.9767C117.982 42.3743 122.393 36.9856 121.791 30.9407C121.188 24.8958 115.8 20.4844 109.756 21.0868C103.711 21.6892 99.299 27.078 99.9013 33.1229Z" fill="white"/>
<path d="M99.829 104.123C100.432 110.167 105.82 114.579 111.865 113.977C117.91 113.374 122.321 107.986 121.719 101.941C121.116 95.8958 115.728 91.4844 109.683 92.0868C103.638 92.6892 99.2267 98.078 99.829 104.123Z" fill="white"/>
<path d="M99.7567 175.123C100.36 181.167 105.748 185.579 111.792 184.977C117.837 184.374 122.249 178.986 121.647 172.941C121.044 166.896 115.655 162.484 109.611 163.087C103.566 163.689 99.1544 169.078 99.7567 175.123Z" fill="#EDF399"/>
<path d="M113.884 51.1359C114.487 57.1808 119.875 61.5928 125.92 60.9904C131.964 60.388 136.376 54.9992 135.774 48.9543C135.171 42.9094 129.782 38.4981 123.738 39.1005C117.693 39.7029 113.281 45.0916 113.884 51.1359Z" fill="white"/>
<path d="M113.811 122.136C114.414 128.181 119.803 132.593 125.848 131.99C131.892 131.388 136.304 125.999 135.701 119.954C135.099 113.909 129.71 109.498 123.666 110.1C117.621 110.703 113.209 116.092 113.811 122.136Z" fill="white"/>
<path d="M113.739 193.136C114.342 199.181 119.73 203.593 125.775 202.99C131.82 202.388 136.231 196.999 135.629 190.954C135.027 184.909 129.638 180.498 123.593 181.1C117.548 181.703 113.137 187.092 113.739 193.136Z" fill="#EDF399"/>
<path d="M100.866 70.0818C101.464 76.1284 106.624 80.5609 112.391 79.9814C118.159 79.4019 122.35 74.0294 121.752 67.9828C121.154 61.9356 115.994 57.5031 110.227 58.0832C104.459 58.6627 100.268 64.0346 100.866 70.0818Z" fill="white"/>
<path d="M100.794 141.082C101.391 147.128 106.552 151.561 112.319 150.981C118.087 150.402 122.278 145.029 121.68 138.983C121.082 132.936 115.922 128.503 110.154 129.083C104.387 129.663 100.196 135.035 100.794 141.082Z" fill="white"/>
<path d="M100.722 212.082C101.319 218.128 106.479 222.561 112.247 221.981C118.014 221.402 122.205 216.029 121.608 209.983C121.01 203.936 115.849 199.503 110.082 200.083C104.314 200.663 100.123 206.035 100.722 212.082Z" fill="#EDF399"/>
<path d="M78.8934 40.1014C79.4963 46.1463 84.8847 50.5576 90.9291 49.9552C96.9741 49.3528 101.386 43.9641 100.783 37.9198C100.18 31.8749 94.7921 27.4629 88.7477 28.0653C82.7027 28.6677 78.2912 34.0565 78.8934 40.1014Z" fill="white"/>
<path d="M78.8212 111.101C79.4241 117.146 84.8125 121.558 90.8568 120.955C96.9018 120.353 101.313 114.964 100.711 108.92C100.108 102.875 94.7198 98.4629 88.6755 99.0653C82.6305 99.6677 78.2189 105.056 78.8212 111.101Z" fill="white"/>
<path d="M78.7489 182.101C79.3518 188.146 84.7402 192.558 90.7846 191.955C96.8296 191.353 101.241 185.964 100.639 179.92C100.036 173.875 94.6476 169.463 88.6032 170.065C82.5582 170.668 78.1466 176.056 78.7489 182.101Z" fill="#EDF399"/>
<path d="M79.8676 63.1024C80.4422 69.1466 85.5855 73.5584 91.3559 72.9557C97.1257 72.353 101.338 66.9641 100.762 60.9192C100.188 54.8749 95.0444 50.4632 89.2741 51.0659C83.5043 51.6686 79.2923 57.0575 79.8676 63.1024Z" fill="white"/>
<path d="M79.7953 134.102C80.3699 140.147 85.5133 144.558 91.2836 143.956C97.0534 143.353 101.265 137.964 100.69 131.919C100.115 125.875 94.9721 121.463 89.2018 122.066C83.432 122.669 79.2201 128.058 79.7953 134.102Z" fill="white"/>
<path d="M79.723 205.102C80.2977 211.147 85.441 215.558 91.2114 214.956C96.9811 214.353 101.193 208.964 100.618 202.919C100.043 196.875 94.8999 192.463 89.1295 193.066C83.3598 193.669 79.1478 199.058 79.723 205.102Z" fill="#EDF399"/>
<path d="M100.683 247.125C101.285 253.169 106.674 257.581 112.718 256.979C118.763 256.376 123.175 250.988 122.572 244.943C121.97 238.898 116.581 234.486 110.537 235.089C104.492 235.691 100.08 241.08 100.683 247.125Z" fill="white"/>
<path d="M100.61 318.125C101.213 324.169 106.602 328.581 112.646 327.979C118.691 327.376 123.102 321.988 122.5 315.943C121.897 309.898 116.509 305.486 110.465 306.089C104.42 306.691 100.008 312.08 100.61 318.125Z" fill="white"/>
<path d="M100.538 389.125C101.141 395.169 106.529 399.581 112.574 398.979C118.619 398.376 123.03 392.988 122.428 386.943C121.825 380.898 116.437 376.486 110.392 377.089C104.347 377.691 99.9357 383.08 100.538 389.125Z" fill="white"/>
<path d="M114.665 265.138C115.268 271.183 120.656 275.595 126.701 274.992C132.746 274.39 137.157 269.001 136.555 262.956C135.953 256.911 130.564 252.5 124.519 253.102C118.474 253.705 114.063 259.094 114.665 265.138Z" fill="white"/>
<path d="M114.593 336.138C115.196 342.183 120.584 346.595 126.629 345.992C132.673 345.39 137.085 340.001 136.483 333.956C135.88 327.911 130.491 323.5 124.447 324.102C118.402 324.705 113.99 330.094 114.593 336.138Z" fill="white"/>
<path d="M114.52 407.138C115.123 413.183 120.512 417.595 126.557 416.992C132.601 416.39 137.013 411.001 136.41 404.956C135.808 398.911 130.419 394.5 124.375 395.102C118.33 395.705 113.918 401.094 114.52 407.138Z" fill="white"/>
<path d="M101.647 284.084C102.245 290.13 107.405 294.563 113.172 293.983C118.94 293.404 123.131 288.031 122.534 281.985C121.935 275.938 116.775 271.505 111.008 272.085C105.24 272.665 101.049 278.037 101.647 284.084Z" fill="white"/>
<path d="M101.575 355.084C102.173 361.13 107.333 365.563 113.1 364.983C118.868 364.404 123.059 359.031 122.461 352.985C121.863 346.938 116.703 342.505 110.936 343.085C105.168 343.665 100.977 349.037 101.575 355.084Z" fill="white"/>
<path d="M101.503 426.084C102.1 432.13 107.261 436.563 113.028 435.983C118.796 435.404 122.987 430.031 122.389 423.985C121.791 417.938 116.631 413.505 110.863 414.085C105.096 414.665 100.905 420.037 101.503 426.084Z" fill="white"/>
<path d="M79.6747 254.103C80.2776 260.148 85.666 264.56 91.7103 263.957C97.7553 263.355 102.167 257.966 101.565 251.922C100.962 245.877 95.5734 241.465 89.529 242.067C83.484 242.67 79.0724 248.058 79.6747 254.103Z" fill="white"/>
<path d="M79.6024 325.103C80.2053 331.148 85.5937 335.56 91.6381 334.957C97.6831 334.355 102.095 328.966 101.492 322.922C100.889 316.877 95.5011 312.465 89.4567 313.067C83.4117 313.67 79.0001 319.058 79.6024 325.103Z" fill="white"/>
<path d="M79.5302 396.103C80.1331 402.148 85.5214 406.56 91.5658 405.957C97.6108 405.355 102.022 399.966 101.42 393.922C100.817 387.877 95.4288 383.465 89.3844 384.067C83.3395 384.67 78.9279 390.058 79.5302 396.103Z" fill="white"/>
<path d="M80.6488 277.104C81.2234 283.149 86.3668 287.56 92.1371 286.958C97.9069 286.355 102.119 280.966 101.544 274.921C100.969 268.877 95.8257 264.465 90.0553 265.068C84.2855 265.671 80.0736 271.059 80.6488 277.104Z" fill="white"/>
<path d="M80.5765 348.104C81.1512 354.149 86.2945 358.56 92.0649 357.958C97.8346 357.355 102.047 351.966 101.471 345.921C100.897 339.877 95.7534 335.465 89.983 336.068C84.2133 336.671 80.0013 342.059 80.5765 348.104Z" fill="white"/>
<path d="M80.5043 419.104C81.0789 425.149 86.2223 429.56 91.9926 428.958C97.7624 428.355 101.974 422.966 101.399 416.921C100.824 410.877 95.6811 406.465 89.9108 407.068C84.141 407.671 79.929 413.059 80.5043 419.104Z" fill="white"/>
<path d="M101.466 461.125C102.069 467.169 107.457 471.581 113.501 470.979C119.546 470.376 123.958 464.988 123.356 458.943C122.753 452.898 117.364 448.486 111.32 449.089C105.275 449.691 100.863 455.08 101.466 461.125Z" fill="#EDF399"/>
<path d="M101.393 532.125C101.996 538.169 107.385 542.581 113.429 541.979C119.474 541.376 123.886 535.988 123.283 529.943C122.68 523.898 117.292 519.486 111.248 520.089C105.203 520.691 100.791 526.08 101.393 532.125Z" fill="#EDF399"/>
<path d="M101.321 603.125C101.924 609.169 107.312 613.581 113.357 612.979C119.402 612.376 123.813 606.988 123.211 600.943C122.608 594.898 117.22 590.486 111.175 591.089C105.13 591.691 100.719 597.08 101.321 603.125Z" fill="white"/>
<path d="M115.448 479.138C116.051 485.183 121.439 489.595 127.484 488.992C133.529 488.39 137.94 483.001 137.338 476.956C136.736 470.911 131.347 466.5 125.302 467.102C119.257 467.705 114.846 473.094 115.448 479.138Z" fill="#EDF399"/>
<path d="M115.376 550.138C115.979 556.183 121.367 560.595 127.412 559.992C133.457 559.39 137.868 554.001 137.266 547.956C136.664 541.911 131.275 537.5 125.23 538.102C119.185 538.705 114.774 544.094 115.376 550.138Z" fill="#EDF399"/>
<path d="M115.304 621.138C115.906 627.183 121.295 631.595 127.34 630.992C133.384 630.39 137.796 625.001 137.194 618.956C136.591 612.911 131.202 608.5 125.158 609.102C119.113 609.705 114.701 615.094 115.304 621.138Z" fill="white"/>
<path d="M102.431 498.084C103.028 504.13 108.188 508.563 113.956 507.983C119.723 507.404 123.914 502.031 123.317 495.985C122.719 489.938 117.558 485.505 111.791 486.085C106.023 486.665 101.832 492.037 102.431 498.084Z" fill="#EDF399"/>
<path d="M102.358 569.084C102.956 575.13 108.116 579.563 113.883 578.983C119.651 578.404 123.842 573.031 123.244 566.985C122.646 560.938 117.486 556.505 111.719 557.085C105.951 557.665 101.76 563.037 102.358 569.084Z" fill="#EDF399"/>
<path d="M102.286 640.084C102.884 646.13 108.044 650.563 113.811 649.983C119.579 649.404 123.77 644.031 123.172 637.985C122.574 631.938 117.414 627.505 111.647 628.085C105.879 628.665 101.688 634.037 102.286 640.084Z" fill="white"/>
<path d="M80.4579 468.103C81.0608 474.148 86.4492 478.56 92.4936 477.957C98.5385 477.355 102.95 471.966 102.348 465.922C101.745 459.877 96.3566 455.465 90.3122 456.067C84.2672 456.67 79.8556 462.058 80.4579 468.103Z" fill="#EDF399"/>
<path d="M80.3856 539.103C80.9885 545.148 86.3769 549.56 92.4213 548.957C98.4663 548.355 102.878 542.966 102.276 536.922C101.673 530.877 96.2843 526.465 90.2399 527.067C84.1949 527.67 79.7834 533.058 80.3856 539.103Z" fill="#EDF399"/>
<path d="M80.3134 610.103C80.9163 616.148 86.3046 620.56 92.349 619.957C98.394 619.355 102.806 613.966 102.203 607.922C101.6 601.877 96.212 597.465 90.1677 598.067C84.1227 598.67 79.7111 604.058 80.3134 610.103Z" fill="white"/>
<path d="M81.432 491.104C82.0066 497.149 87.15 501.56 92.9203 500.958C98.6901 500.355 102.902 494.966 102.327 488.921C101.752 482.877 96.6089 478.465 90.8385 479.068C85.0687 479.671 80.8568 485.059 81.432 491.104Z" fill="#EDF399"/>
<path d="M81.3597 562.104C81.9344 568.149 87.0777 572.56 92.8481 571.958C98.6178 571.355 102.83 565.966 102.255 559.921C101.68 553.877 96.5366 549.465 90.7662 550.068C84.9965 550.671 80.7845 556.059 81.3597 562.104Z" fill="#EDF399"/>
<path d="M81.2875 633.104C81.8621 639.149 87.0055 643.56 92.7758 642.958C98.5456 642.355 102.758 636.966 102.182 630.921C101.608 624.877 96.4643 620.465 90.694 621.068C84.9242 621.671 80.7123 627.059 81.2875 633.104Z" fill="white"/>
<path d="M102.247 675.127C102.85 681.171 108.238 685.583 114.283 684.981C120.328 684.378 124.739 678.989 124.137 672.945C123.534 666.9 118.146 662.488 112.101 663.091C106.056 663.693 101.645 669.082 102.247 675.127Z" fill="white"/>
<path d="M102.175 746.127C102.778 752.171 108.166 756.583 114.21 755.981C120.255 755.378 124.667 749.989 124.065 743.945C123.462 737.9 118.073 733.488 112.029 734.091C105.984 734.693 101.572 740.082 102.175 746.127Z" fill="white"/>
<path d="M102.102 817.127C102.705 823.171 108.094 827.583 114.138 826.981C120.183 826.378 124.595 820.989 123.992 814.945C123.389 808.9 118.001 804.488 111.957 805.091C105.912 805.693 101.5 811.082 102.102 817.127Z" fill="white"/>
<path d="M116.229 693.14C116.832 699.185 122.221 703.597 128.266 702.994C134.31 702.392 138.722 697.003 138.119 690.958C137.517 684.913 132.128 680.502 126.084 681.104C120.039 681.707 115.627 687.096 116.229 693.14Z" fill="white"/>
<path d="M116.157 764.14C116.76 770.185 122.148 774.597 128.193 773.994C134.238 773.392 138.649 768.003 138.047 761.958C137.445 755.913 132.056 751.502 126.011 752.104C119.966 752.707 115.555 758.096 116.157 764.14Z" fill="white"/>
<path d="M116.085 835.14C116.688 841.185 122.076 845.597 128.121 844.994C134.165 844.392 138.577 839.003 137.975 832.958C137.373 826.913 131.984 822.502 125.939 823.104C119.894 823.707 115.483 829.096 116.085 835.14Z" fill="white"/>
<path d="M103.212 712.086C103.809 718.132 108.97 722.565 114.737 721.985C120.505 721.406 124.696 716.033 124.098 709.987C123.5 703.94 118.34 699.507 112.572 700.087C106.805 700.667 102.614 706.039 103.212 712.086Z" fill="white"/>
<path d="M103.14 783.086C103.737 789.132 108.897 793.565 114.665 792.985C120.432 792.406 124.623 787.033 124.026 780.987C123.427 774.94 118.267 770.507 112.5 771.087C106.732 771.667 102.541 777.039 103.14 783.086Z" fill="white"/>
<path d="M103.067 854.086C103.665 860.132 108.825 864.565 114.592 863.985C120.36 863.406 124.551 858.033 123.953 851.987C123.355 845.94 118.195 841.507 112.428 842.087C106.66 842.667 102.469 848.039 103.067 854.086Z" fill="white"/>
<path d="M81.2391 682.105C81.842 688.15 87.2304 692.562 93.2748 691.959C99.3198 691.357 103.731 685.968 103.129 679.924C102.526 673.879 97.1378 669.467 91.0934 670.069C85.0484 670.672 80.6369 676.06 81.2391 682.105Z" fill="white"/>
<path d="M81.1669 753.105C81.7698 759.15 87.1582 763.562 93.2025 762.959C99.2475 762.357 103.659 756.968 103.057 750.924C102.454 744.879 97.0655 740.467 91.0212 741.069C84.9762 741.672 80.5646 747.06 81.1669 753.105Z" fill="white"/>
<path d="M81.0946 824.105C81.6975 830.15 87.0859 834.562 93.1303 833.959C99.1753 833.357 103.587 827.968 102.985 821.924C102.382 815.879 96.9933 811.467 90.9489 812.069C84.9039 812.672 80.4923 818.06 81.0946 824.105Z" fill="white"/>
<path d="M82.2133 705.106C82.7879 711.151 87.9312 715.562 93.7016 714.96C99.4714 714.357 103.683 708.968 103.108 702.923C102.533 696.879 97.3901 692.467 91.6198 693.07C85.85 693.672 81.638 699.061 82.2133 705.106Z" fill="white"/>
<path d="M82.141 776.106C82.7156 782.151 87.859 786.562 93.6293 785.96C99.3991 785.357 103.611 779.968 103.036 773.923C102.461 767.879 97.3179 763.467 91.5475 764.07C85.7777 764.672 81.5658 770.061 82.141 776.106Z" fill="white"/>
<path d="M82.0687 847.106C82.6434 853.151 87.7867 857.562 93.5571 856.96C99.3268 856.357 103.539 850.968 102.964 844.923C102.389 838.879 97.2456 834.467 91.4752 835.07C85.7055 835.672 81.4935 841.061 82.0687 847.106Z" fill="white"/>
<path d="M105.841 1464.09C106.444 1470.13 111.832 1474.54 117.876 1473.94C123.921 1473.34 128.333 1467.95 127.731 1461.9C127.128 1455.86 121.739 1451.45 115.695 1452.05C109.65 1452.65 105.238 1458.04 105.841 1464.09Z" fill="#FEEC88"/>
<path d="M105.768 1535.09C106.371 1541.13 111.76 1545.54 117.804 1544.94C123.849 1544.34 128.261 1538.95 127.658 1532.9C127.055 1526.86 121.667 1522.45 115.623 1523.05C109.578 1523.65 105.166 1529.04 105.768 1535.09Z" fill="white"/>
<path d="M105.696 1606.09C106.299 1612.13 111.687 1616.54 117.732 1615.94C123.777 1615.34 128.188 1609.95 127.586 1603.9C126.983 1597.86 121.595 1593.45 115.55 1594.05C109.505 1594.65 105.094 1600.04 105.696 1606.09Z" fill="#FEEC88"/>
<path d="M119.823 1482.1C120.426 1488.14 125.814 1492.56 131.859 1491.95C137.904 1491.35 142.315 1485.96 141.713 1479.92C141.111 1473.87 135.722 1469.46 129.677 1470.06C123.632 1470.67 119.221 1476.05 119.823 1482.1Z" fill="#FEEC88"/>
<path d="M119.751 1553.1C120.354 1559.14 125.742 1563.56 131.787 1562.95C137.832 1562.35 142.243 1556.96 141.641 1550.92C141.039 1544.87 135.65 1540.46 129.605 1541.06C123.56 1541.67 119.149 1547.05 119.751 1553.1Z" fill="white"/>
<path d="M119.679 1624.1C120.281 1630.14 125.67 1634.56 131.715 1633.95C137.759 1633.35 142.171 1627.96 141.569 1621.92C140.966 1615.87 135.577 1611.46 129.533 1612.06C123.488 1612.67 119.076 1618.05 119.679 1624.1Z" fill="#FEEC88"/>
<path d="M106.806 1501.04C107.403 1507.09 112.563 1511.52 118.331 1510.94C124.098 1510.36 128.289 1504.99 127.692 1498.95C127.094 1492.9 121.933 1488.47 116.166 1489.05C110.398 1489.63 106.207 1495 106.806 1501.04Z" fill="#FEEC88"/>
<path d="M106.733 1572.04C107.331 1578.09 112.491 1582.52 118.258 1581.94C124.026 1581.36 128.217 1575.99 127.619 1569.95C127.021 1563.9 121.861 1559.47 116.094 1560.05C110.326 1560.63 106.135 1566 106.733 1572.04Z" fill="white"/>
<path d="M106.661 1643.04C107.259 1649.09 112.419 1653.52 118.186 1652.94C123.954 1652.36 128.145 1646.99 127.547 1640.95C126.949 1634.9 121.789 1630.47 116.022 1631.05C110.254 1631.63 106.063 1637 106.661 1643.04Z" fill="#FEEC88"/>
<path d="M84.8329 1471.06C85.4358 1477.11 90.8242 1481.52 96.8686 1480.92C102.914 1480.32 107.325 1474.93 106.723 1468.88C106.12 1462.84 100.732 1458.43 94.6872 1459.03C88.6422 1459.63 84.2306 1465.02 84.8329 1471.06Z" fill="#FEEC88"/>
<path d="M84.7606 1542.06C85.3635 1548.11 90.7519 1552.52 96.7963 1551.92C102.841 1551.32 107.253 1545.93 106.651 1539.88C106.048 1533.84 100.659 1529.43 94.6149 1530.03C88.5699 1530.63 84.1584 1536.02 84.7606 1542.06Z" fill="white"/>
<path d="M84.6884 1613.06C85.2913 1619.11 90.6796 1623.52 96.724 1622.92C102.769 1622.32 107.181 1616.93 106.578 1610.88C105.975 1604.84 100.587 1600.43 94.5427 1601.03C88.4977 1601.63 84.0861 1607.02 84.6884 1613.06Z" fill="#FEEC88"/>
<path d="M85.807 1494.07C86.3816 1500.11 91.525 1504.52 97.2953 1503.92C103.065 1503.32 107.277 1497.93 106.702 1491.88C106.127 1485.84 100.984 1481.43 95.2135 1482.03C89.4437 1482.63 85.2318 1488.02 85.807 1494.07Z" fill="#FEEC88"/>
<path d="M85.7347 1565.07C86.3094 1571.11 91.4527 1575.52 97.2231 1574.92C102.993 1574.32 107.205 1568.93 106.63 1562.88C106.055 1556.84 100.912 1552.43 95.1412 1553.03C89.3715 1553.63 85.1595 1559.02 85.7347 1565.07Z" fill="white"/>
<path d="M85.6625 1636.07C86.2371 1642.11 91.3805 1646.52 97.1508 1645.92C102.921 1645.32 107.133 1639.93 106.557 1633.88C105.983 1627.84 100.839 1623.43 95.069 1624.03C89.2992 1624.63 85.0873 1630.02 85.6625 1636.07Z" fill="#FEEC88"/>
<path d="M105.163 890.261C105.727 896.309 111.086 900.756 117.134 900.193C123.183 899.63 127.63 894.27 127.067 888.221C126.503 882.173 121.144 877.726 115.095 878.289C109.047 878.852 104.6 884.212 105.163 890.261Z" fill="#EDF399"/>
<path d="M104.63 961.259C105.193 967.307 110.553 971.754 116.601 971.191C122.65 970.628 127.096 965.268 126.533 959.219C125.97 953.171 120.61 948.724 114.562 949.287C108.513 949.85 104.067 955.21 104.63 961.259Z" fill="white"/>
<path d="M104.095 1032.26C104.658 1038.31 110.018 1042.75 116.066 1042.19C122.115 1041.63 126.561 1036.27 125.998 1030.22C125.435 1024.17 120.075 1019.72 114.027 1020.29C107.978 1020.85 103.532 1026.21 104.095 1032.26Z" fill="white"/>
<path d="M119.028 908.366C119.592 914.415 124.951 918.861 131 918.298C137.048 917.735 141.495 912.375 140.932 906.327C140.369 900.278 135.009 895.832 128.961 896.395C122.912 896.958 118.465 902.318 119.028 908.366Z" fill="#EDF399"/>
<path d="M118.493 979.364C119.057 985.413 124.416 989.86 130.465 989.296C136.513 988.733 140.96 983.373 140.397 977.325C139.834 971.276 134.474 966.83 128.425 967.393C122.377 967.956 117.93 973.316 118.493 979.364Z" fill="white"/>
<path d="M117.958 1050.36C118.521 1056.41 123.881 1060.86 129.93 1060.29C135.978 1059.73 140.424 1054.37 139.862 1048.32C139.299 1042.27 133.938 1037.83 127.89 1038.39C121.841 1038.95 117.395 1044.31 117.958 1050.36Z" fill="white"/>
<path d="M105.888 927.226C106.446 933.277 111.577 937.743 117.348 937.201C123.12 936.659 127.345 931.314 126.787 925.263C126.228 919.212 121.097 914.746 115.326 915.289C109.555 915.831 105.329 921.176 105.888 927.226Z" fill="#EDF399"/>
<path d="M105.353 998.223C105.911 1004.27 111.042 1008.74 116.813 1008.2C122.584 1007.65 126.81 1002.31 126.252 996.26C125.693 990.209 120.562 985.743 114.791 986.285C109.02 986.827 104.794 992.172 105.353 998.223Z" fill="white"/>
<path d="M104.817 1069.22C105.376 1075.27 110.507 1079.74 116.278 1079.19C122.049 1078.65 126.275 1073.31 125.717 1067.26C125.158 1061.21 120.027 1056.74 114.256 1057.28C108.484 1057.83 104.259 1063.17 104.817 1069.22Z" fill="white"/>
<path d="M84.1122 897.103C84.6757 903.151 90.0353 907.598 96.0834 907.035C102.132 906.472 106.579 901.112 106.016 895.064C105.452 889.015 100.093 884.568 94.0446 885.131C87.9958 885.694 83.5492 891.054 84.1122 897.103Z" fill="#EDF399"/>
<path d="M83.577 968.101C84.1406 974.15 89.5001 978.596 95.5483 978.033C101.597 977.47 106.044 972.11 105.481 966.062C104.917 960.013 99.5576 955.566 93.5094 956.129C87.4606 956.692 83.0141 962.052 83.577 968.101Z" fill="white"/>
<path d="M83.0419 1039.1C83.6054 1045.15 88.965 1049.59 95.0131 1049.03C101.062 1048.47 105.508 1043.11 104.946 1037.06C104.382 1031.01 99.0224 1026.56 92.9743 1027.13C86.9255 1027.69 82.4789 1033.05 83.0419 1039.1Z" fill="white"/>
<path d="M84.9359 920.11C85.4711 926.158 90.5857 930.603 96.3598 930.038C102.133 929.473 106.38 924.112 105.844 918.063C105.309 912.015 100.195 907.57 94.4205 908.135C88.6469 908.7 84.4 914.062 84.9359 920.11Z" fill="#EDF399"/>
<path d="M84.4007 991.108C84.936 997.156 90.0505 1001.6 95.8247 1001.04C101.598 1000.47 105.845 995.11 105.309 989.061C104.774 983.013 99.6595 978.568 93.8853 979.133C88.1118 979.698 83.8648 985.06 84.4007 991.108Z" fill="white"/>
<path d="M83.8675 1062.11C84.4028 1068.15 89.5173 1072.6 95.2915 1072.03C101.065 1071.47 105.312 1066.11 104.776 1060.06C104.241 1054.01 99.1263 1049.57 93.3521 1050.13C87.5786 1050.7 83.3316 1056.06 83.8675 1062.11Z" fill="white"/>
<path d="M104.552 1104.26C105.115 1110.31 110.475 1114.76 116.523 1114.19C122.572 1113.63 127.018 1108.27 126.455 1102.22C125.892 1096.17 120.532 1091.73 114.484 1092.29C108.435 1092.85 103.989 1098.21 104.552 1104.26Z" fill="white"/>
<path d="M104.018 1175.26C104.582 1181.31 109.942 1185.76 115.99 1185.19C122.038 1184.63 126.485 1179.27 125.922 1173.22C125.359 1167.17 119.999 1162.73 113.951 1163.29C107.902 1163.85 103.455 1169.21 104.018 1175.26Z" fill="#FEEC88"/>
<path d="M103.483 1246.26C104.047 1252.31 109.406 1256.75 115.455 1256.19C121.503 1255.63 125.95 1250.27 125.387 1244.22C124.823 1238.17 119.464 1233.72 113.416 1234.29C107.367 1234.85 102.92 1240.21 103.483 1246.26Z" fill="white"/>
<path d="M118.417 1122.37C118.98 1128.42 124.34 1132.86 130.389 1132.3C136.437 1131.74 140.883 1126.38 140.321 1120.33C139.758 1114.28 134.397 1109.83 128.349 1110.4C122.3 1110.96 117.854 1116.32 118.417 1122.37Z" fill="white"/>
<path d="M117.882 1193.37C118.445 1199.41 123.805 1203.86 129.854 1203.3C135.902 1202.74 140.348 1197.38 139.785 1191.33C139.222 1185.28 133.862 1180.83 127.814 1181.39C121.765 1181.96 117.319 1187.32 117.882 1193.37Z" fill="#FEEC88"/>
<path d="M117.347 1264.36C117.91 1270.41 123.27 1274.86 129.318 1274.3C135.367 1273.73 139.813 1268.37 139.25 1262.32C138.687 1256.28 133.327 1251.83 127.279 1252.39C121.23 1252.96 116.784 1258.32 117.347 1264.36Z" fill="white"/>
<path d="M105.276 1141.23C105.835 1147.28 110.966 1151.74 116.737 1151.2C122.508 1150.66 126.734 1145.32 126.176 1139.27C125.617 1133.21 120.486 1128.75 114.715 1129.29C108.943 1129.83 104.718 1135.18 105.276 1141.23Z" fill="white"/>
<path d="M104.741 1212.22C105.3 1218.27 110.431 1222.74 116.202 1222.2C121.973 1221.66 126.199 1216.31 125.641 1210.26C125.082 1204.21 119.951 1199.74 114.18 1200.29C108.408 1200.83 104.182 1206.17 104.741 1212.22Z" fill="#FEEC88"/>
<path d="M104.206 1283.22C104.764 1289.27 109.896 1293.74 115.666 1293.2C121.438 1292.65 125.664 1287.31 125.106 1281.26C124.547 1275.21 119.415 1270.74 113.645 1271.29C107.873 1271.83 103.647 1277.17 104.206 1283.22Z" fill="white"/>
<path d="M83.5008 1111.1C84.0644 1117.15 89.4239 1121.6 95.4721 1121.04C101.521 1120.47 105.967 1115.11 105.405 1109.07C104.841 1103.02 99.4814 1098.57 93.4332 1099.13C87.3845 1099.7 82.9379 1105.06 83.5008 1111.1Z" fill="white"/>
<path d="M82.9657 1182.1C83.5292 1188.15 88.8888 1192.6 94.937 1192.03C100.986 1191.47 105.432 1186.11 104.869 1180.06C104.306 1174.01 98.9463 1169.57 92.8981 1170.13C86.8493 1170.69 82.4028 1176.05 82.9657 1182.1Z" fill="#FEEC88"/>
<path d="M82.4305 1253.1C82.9941 1259.15 88.3536 1263.6 94.4018 1263.03C100.451 1262.47 104.897 1257.11 104.334 1251.06C103.771 1245.01 98.4111 1240.57 92.3629 1241.13C86.3142 1241.69 81.8676 1247.05 82.4305 1253.1Z" fill="white"/>
<path d="M84.3245 1134.11C84.8598 1140.16 89.9744 1144.61 95.7485 1144.04C101.522 1143.47 105.769 1138.11 105.233 1132.07C104.698 1126.02 99.5833 1121.57 93.8092 1122.14C88.0356 1122.7 83.7887 1128.06 84.3245 1134.11Z" fill="white"/>
<path d="M83.7894 1205.11C84.3247 1211.16 89.4392 1215.6 95.2134 1215.04C100.987 1214.47 105.234 1209.11 104.698 1203.06C104.163 1197.02 99.0482 1192.57 93.274 1193.14C87.5004 1193.7 83.2535 1199.06 83.7894 1205.11Z" fill="#FEEC88"/>
<path d="M83.2562 1276.11C83.7915 1282.16 88.906 1286.6 94.6801 1286.04C100.454 1285.47 104.701 1280.11 104.165 1274.06C103.629 1268.01 98.515 1263.57 92.7408 1264.13C86.9672 1264.7 82.7203 1270.06 83.2562 1276.11Z" fill="white"/>
<path d="M103.942 1318.26C104.506 1324.31 109.865 1328.76 115.914 1328.2C121.962 1327.63 126.409 1322.27 125.846 1316.23C125.282 1310.18 119.923 1305.73 113.875 1306.29C107.826 1306.86 103.379 1312.22 103.942 1318.26Z" fill="white"/>
<path d="M103.409 1389.26C103.973 1395.31 109.332 1399.76 115.38 1399.19C121.429 1398.63 125.876 1393.27 125.313 1387.22C124.749 1381.17 119.39 1376.73 113.341 1377.29C107.293 1377.85 102.846 1383.21 103.409 1389.26Z" fill="white"/>
<path d="M117.807 1336.37C118.371 1342.42 123.731 1346.87 129.779 1346.3C135.828 1345.74 140.274 1340.38 139.711 1334.33C139.148 1328.28 133.788 1323.84 127.74 1324.4C121.691 1324.96 117.245 1330.32 117.807 1336.37Z" fill="white"/>
<path d="M117.272 1407.37C117.836 1413.42 123.195 1417.86 129.244 1417.3C135.292 1416.74 139.739 1411.38 139.176 1405.33C138.613 1399.28 133.253 1394.83 127.205 1395.4C121.156 1395.96 116.709 1401.32 117.272 1407.37Z" fill="white"/>
<path d="M104.667 1355.23C105.225 1361.28 110.357 1365.75 116.127 1365.2C121.899 1364.66 126.125 1359.32 125.566 1353.27C125.008 1347.22 119.876 1342.75 114.106 1343.29C108.334 1343.83 104.108 1349.18 104.667 1355.23Z" fill="white"/>
<path d="M104.132 1426.23C104.69 1432.28 109.821 1436.74 115.592 1436.2C121.364 1435.66 125.59 1430.31 125.031 1424.26C124.472 1418.21 119.341 1413.75 113.57 1414.29C107.799 1414.83 103.573 1420.18 104.132 1426.23Z" fill="white"/>
<path d="M82.8915 1325.11C83.455 1331.16 88.8146 1335.6 94.8627 1335.04C100.912 1334.48 105.358 1329.12 104.795 1323.07C104.232 1317.02 98.872 1312.57 92.8239 1313.14C86.7751 1313.7 82.3285 1319.06 82.8915 1325.11Z" fill="white"/>
<path d="M82.3563 1396.1C82.9199 1402.15 88.2794 1406.6 94.3276 1406.04C100.376 1405.47 104.823 1400.11 104.26 1394.07C103.696 1388.02 98.3369 1383.57 92.2887 1384.13C86.2399 1384.7 81.7934 1390.06 82.3563 1396.1Z" fill="white"/>
<path d="M83.7152 1348.11C84.2504 1354.16 89.365 1358.61 95.1391 1358.04C100.913 1357.48 105.16 1352.12 104.624 1346.07C104.088 1340.02 98.974 1335.57 93.1998 1336.14C87.4262 1336.7 83.1793 1342.07 83.7152 1348.11Z" fill="white"/>
<path d="M83.18 1419.11C83.7153 1425.16 88.8298 1429.61 94.604 1429.04C100.378 1428.47 104.624 1423.11 104.089 1417.07C103.553 1411.02 98.4388 1406.57 92.6646 1407.14C86.8911 1407.7 82.6441 1413.06 83.18 1419.11Z" fill="white"/>
</svg>
