<svg width="438" height="219" viewBox="0 0 438 219" fill="none" xmlns="http://www.w3.org/2000/svg">
<circle cx="22.3" cy="25.0086" r="15.8296" transform="rotate(-50.1388 22.3 25.0086)" fill="#9D96F1"/>
<circle cx="241.3" cy="28.0086" r="15.8296" transform="rotate(-50.1388 241.3 28.0086)" fill="#9D96F1"/>
<circle cx="196.411" cy="25.8225" r="15.8296" transform="rotate(45.6405 196.411 25.8225)" fill="#9D96F1"/>
<circle cx="415.411" cy="28.8225" r="15.8296" transform="rotate(45.6405 415.411 28.8225)" fill="#9D96F1"/>
<circle cx="75.1964" cy="22.9734" r="15.8296" transform="rotate(-50.1388 75.1964 22.9734)" fill="#9D96F1"/>
<circle cx="294.196" cy="25.9734" r="15.8296" transform="rotate(-50.1388 294.196 25.9734)" fill="#9D96F1"/>
<circle cx="22.3852" cy="191.326" r="15.8296" transform="rotate(-135.603 22.3852 191.326)" fill="#9D96F1"/>
<circle cx="241.385" cy="194.326" r="15.8296" transform="rotate(-135.603 241.385 194.326)" fill="#9D96F1"/>
<circle cx="194.623" cy="192.321" r="15.8296" transform="rotate(131.452 194.623 192.321)" fill="#9D96F1"/>
<circle cx="413.623" cy="195.321" r="15.8296" transform="rotate(131.452 413.623 195.321)" fill="#9D96F1"/>
<circle cx="193.109" cy="78.6584" r="15.8296" transform="rotate(45.6405 193.109 78.6584)" fill="#9D96F1"/>
<circle cx="412.109" cy="81.6584" r="15.8296" transform="rotate(45.6405 412.109 81.6584)" fill="#9D96F1"/>
<circle cx="24.5434" cy="138.433" r="15.8296" transform="rotate(-135.603 24.5434 138.433)" fill="#9D96F1"/>
<circle cx="243.543" cy="141.433" r="15.8296" transform="rotate(-135.603 243.543 141.433)" fill="#9D96F1"/>
<circle cx="141.689" cy="192.887" r="15.8296" transform="rotate(131.452 141.689 192.887)" fill="#9D96F1"/>
<circle cx="360.689" cy="195.887" r="15.8296" transform="rotate(131.452 360.689 195.887)" fill="#9D96F1"/>
<circle cx="50.7824" cy="51.7957" r="15.8296" transform="rotate(-50.1388 50.7824 51.7957)" fill="#9D96F1"/>
<circle cx="269.782" cy="54.7957" r="15.8296" transform="rotate(-50.1388 269.782 54.7957)" fill="#9D96F1"/>
<circle cx="166.89" cy="51.4651" r="15.8296" transform="rotate(45.6405 166.89 51.4651)" fill="#9D96F1"/>
<circle cx="385.89" cy="54.4651" r="15.8296" transform="rotate(45.6405 385.89 54.4651)" fill="#9D96F1"/>
<circle cx="51.3441" cy="165.052" r="15.8296" transform="rotate(-135.603 51.3441 165.052)" fill="#9D96F1"/>
<circle cx="270.344" cy="168.052" r="15.8296" transform="rotate(-135.603 270.344 168.052)" fill="#9D96F1"/>
<circle cx="166.894" cy="164.755" r="15.8296" transform="rotate(131.452 166.894 164.755)" fill="#9D96F1"/>
<circle cx="385.894" cy="167.755" r="15.8296" transform="rotate(131.452 385.894 167.755)" fill="#9D96F1"/>
<circle cx="63.3273" cy="89.4363" r="15.8296" transform="rotate(-50.1388 63.3273 89.4363)" fill="#9D96F1"/>
<circle cx="282.327" cy="92.4363" r="15.8296" transform="rotate(-50.1388 282.327 92.4363)" fill="#9D96F1"/>
<circle cx="128.183" cy="60.1565" r="15.8296" transform="rotate(45.6405 128.183 60.1565)" fill="#FEEC88"/>
<circle cx="347.183" cy="63.1565" r="15.8296" transform="rotate(45.6405 347.183 63.1565)" fill="#FEEC88"/>
<circle cx="89.8559" cy="155.521" r="15.8296" transform="rotate(-135.603 89.8559 155.521)" fill="#FEEC88"/>
<circle cx="308.856" cy="158.521" r="15.8296" transform="rotate(-135.603 308.856 158.521)" fill="#FEEC88"/>
<circle cx="155.398" cy="126.782" r="15.8296" transform="rotate(131.452 155.398 126.782)" fill="#FEEC88"/>
<circle cx="374.398" cy="129.782" r="15.8296" transform="rotate(131.452 374.398 129.782)" fill="#FEEC88"/>
<circle cx="89.7765" cy="59.9343" r="15.8296" transform="rotate(-50.1388 89.7765 59.9343)" fill="#FEEC88"/>
<circle cx="308.777" cy="62.9343" r="15.8296" transform="rotate(-50.1388 308.777 62.9343)" fill="#FEEC88"/>
<circle cx="154.87" cy="89.4436" r="15.8296" transform="rotate(45.6405 154.87 89.4436)" fill="#9D96F1"/>
<circle cx="373.87" cy="92.4436" r="15.8296" transform="rotate(45.6405 373.87 92.4436)" fill="#9D96F1"/>
<circle cx="62.5395" cy="126.882" r="15.8296" transform="rotate(-135.603 62.5395 126.882)" fill="#9D96F1"/>
<circle cx="281.539" cy="129.882" r="15.8296" transform="rotate(-135.603 281.539 129.882)" fill="#9D96F1"/>
<circle cx="128.141" cy="155.538" r="15.8296" transform="rotate(131.452 128.141 155.538)" fill="#FEEC88"/>
<circle cx="347.141" cy="158.538" r="15.8296" transform="rotate(131.452 347.141 158.538)" fill="#FEEC88"/>
<circle cx="24.3332" cy="79.2644" r="15.8296" transform="rotate(-50.1388 24.3332 79.2644)" fill="#9D96F1"/>
<circle cx="243.333" cy="82.2644" r="15.8296" transform="rotate(-50.1388 243.333 82.2644)" fill="#9D96F1"/>
<circle cx="142.23" cy="22.385" r="15.8296" transform="rotate(45.6405 142.23 22.385)" fill="#9D96F1"/>
<circle cx="361.23" cy="25.385" r="15.8296" transform="rotate(45.6405 361.23 25.385)" fill="#9D96F1"/>
<circle cx="76.6332" cy="193.591" r="15.8296" transform="rotate(-135.603 76.6332 193.591)" fill="#9D96F1"/>
<circle cx="295.633" cy="196.591" r="15.8296" transform="rotate(-135.603 295.633 196.591)" fill="#9D96F1"/>
<circle cx="194.096" cy="138.032" r="15.8296" transform="rotate(131.452 194.096 138.032)" fill="#9D96F1"/>
<circle cx="413.096" cy="141.032" r="15.8296" transform="rotate(131.452 413.096 141.032)" fill="#9D96F1"/>
</svg>
