<svg width="313" height="304" viewBox="0 0 313 304" fill="none" xmlns="http://www.w3.org/2000/svg">
<circle cx="122.029" cy="79.1662" r="14.0428" transform="rotate(-138.609 122.029 79.1662)" fill="#FEEC88"/>
<circle cx="291.152" cy="220.735" r="14.0428" transform="rotate(-138.609 291.152 220.735)" fill="#95E7E2"/>
<circle cx="56.4627" cy="80.3927" r="14.0428" transform="rotate(-138.609 56.4627 80.3927)" fill="#FEEC88"/>
<circle cx="225.584" cy="221.959" r="14.0428" transform="rotate(-138.609 225.584 221.959)" fill="#95E7E2"/>
<circle cx="88.4764" cy="80.3576" r="14.0428" transform="rotate(-138.609 88.4764 80.3576)" fill="#FEEC88"/>
<circle cx="257.598" cy="221.926" r="14.0428" transform="rotate(-138.609 257.598 221.926)" fill="#95E7E2"/>
<circle cx="23.2928" cy="80.4279" r="14.0428" transform="rotate(-138.609 23.2928 80.4279)" fill="#FEEC88"/>
<circle cx="192.412" cy="221.996" r="14.0428" transform="rotate(-138.609 192.412 221.996)" fill="#95E7E2"/>
<circle cx="74.2342" cy="109.688" r="14.0428" transform="rotate(-138.609 74.2342 109.688)" fill="#FEEC88"/>
<circle cx="243.355" cy="251.254" r="14.0428" transform="rotate(-138.609 243.355 251.254)" fill="#FEEC88"/>
<circle cx="71.8592" cy="51.8342" r="14.0428" transform="rotate(-138.609 71.8592 51.8342)" fill="#FEEC88"/>
<circle cx="240.98" cy="193.401" r="14.0428" transform="rotate(-138.609 240.98 193.401)" fill="#95E7E2"/>
<circle cx="71.826" cy="19.8205" r="14.0428" transform="rotate(-138.609 71.826 19.8205)" fill="#95E7E2"/>
<circle cx="240.945" cy="161.387" r="14.0428" transform="rotate(-138.609 240.945 161.387)" fill="#FEEC88"/>
<circle cx="74.6561" cy="141.699" r="14.0428" transform="rotate(-138.609 74.6561 141.699)" fill="#FEEC88"/>
<circle cx="243.777" cy="283.268" r="14.0428" transform="rotate(-138.609 243.777 283.268)" fill="#FEEC88"/>
<circle cx="107.021" cy="111.195" r="14.0428" transform="rotate(-138.609 107.021 111.195)" fill="#FEEC88"/>
<circle cx="276.144" cy="252.762" r="14.0428" transform="rotate(-138.609 276.144 252.762)" fill="#FEEC88"/>
<circle cx="39.0721" cy="49.1681" r="14.0428" transform="rotate(-138.609 39.0721 49.1681)" fill="#FEEC88"/>
<circle cx="208.193" cy="190.736" r="14.0428" transform="rotate(-138.609 208.193 190.736)" fill="#95E7E2"/>
<circle cx="19.8201" cy="23.6779" r="14.0428" transform="rotate(-138.609 19.8201 23.6779)" fill="#95E7E2"/>
<circle cx="188.941" cy="165.246" r="14.0428" transform="rotate(-138.609 188.941 165.246)" fill="#FEEC88"/>
<circle cx="123.189" cy="22.1349" r="14.0428" transform="rotate(-138.609 123.189 22.1349)" fill="#95E7E2"/>
<circle cx="292.312" cy="163.703" r="14.0428" transform="rotate(-138.609 292.312 163.703)" fill="#FEEC88"/>
<circle cx="105.449" cy="50.2912" r="14.0428" transform="rotate(-138.609 105.449 50.2912)" fill="#FEEC88"/>
<circle cx="274.568" cy="191.86" r="14.0428" transform="rotate(-138.609 274.568 191.86)" fill="#95E7E2"/>
<circle cx="39.5252" cy="112.424" r="14.0428" transform="rotate(-138.609 39.5252 112.424)" fill="#FEEC88"/>
<circle cx="208.646" cy="253.992" r="14.0428" transform="rotate(-138.609 208.646 253.992)" fill="#FEEC88"/>
</svg>
