<svg width="62" height="1633" viewBox="0 0 62 1633" fill="none" xmlns="http://www.w3.org/2000/svg">
<path d="M21.9032 12.1229C22.5061 18.1671 27.8945 22.5791 33.9389 21.9767C39.9839 21.3743 44.3954 15.9856 43.7931 9.94067C43.1903 3.89577 37.8019 -0.515586 31.7575 0.086815C25.7125 0.689215 21.3009 6.07796 21.9032 12.1229Z" fill="white"/>
<path d="M21.829 83.1229C22.4319 89.1671 27.8203 93.5791 33.8646 92.9767C39.9096 92.3743 44.3212 86.9856 43.7189 80.9407C43.116 74.8958 37.7277 70.4844 31.6833 71.0868C25.6383 71.6892 21.2267 77.078 21.829 83.1229Z" fill="white"/>
<path d="M21.7567 154.123C22.3596 160.167 27.748 164.579 33.7924 163.977C39.8374 163.374 44.2489 157.986 43.6467 151.941C43.0438 145.896 37.6554 141.484 31.611 142.087C25.566 142.689 21.1544 148.078 21.7567 154.123Z" fill="white"/>
<path d="M35.8837 30.1379C36.4866 36.1828 41.875 40.5947 47.9199 39.9923C53.9643 39.3899 58.3759 34.0012 57.7736 27.9563C57.1713 21.9114 51.7823 17.5 45.738 18.1024C39.693 18.7048 35.2814 24.0936 35.8837 30.1379Z" fill="white"/>
<path d="M35.8114 101.138C36.4143 107.183 41.8027 111.595 47.8477 110.992C53.8921 110.39 58.3036 105.001 57.7014 98.9563C57.0991 92.9114 51.7101 88.5 45.6657 89.1024C39.6207 89.7048 35.2091 95.0936 35.8114 101.138Z" fill="white"/>
<path d="M35.7391 172.138C36.342 178.183 41.7304 182.595 47.7754 181.992C53.8198 181.39 58.2314 176.001 57.6291 169.956C57.0268 163.911 51.6378 159.5 45.5934 160.102C39.5484 160.705 35.1369 166.094 35.7391 172.138Z" fill="white"/>
<path d="M22.8661 49.0818C23.4637 55.1284 28.6239 59.5609 34.3911 58.9814C40.1589 58.4019 44.3499 53.0294 43.7523 46.9828C43.1541 40.9356 37.9939 36.5031 32.2266 37.0832C26.4588 37.6627 22.2678 43.0346 22.8661 49.0818Z" fill="white"/>
<path d="M22.7938 120.082C23.3914 126.128 28.5516 130.561 34.3188 129.981C40.0867 129.402 44.2776 124.029 43.68 117.983C43.0818 111.936 37.9216 107.503 32.1544 108.083C26.3865 108.663 22.1956 114.035 22.7938 120.082Z" fill="white"/>
<path d="M22.7215 191.082C23.3192 197.128 28.4793 201.561 34.2466 200.981C40.0144 200.402 44.2054 195.029 43.6077 188.983C43.0095 182.936 37.8493 178.503 32.0821 179.083C26.3143 179.663 22.1233 185.035 22.7215 191.082Z" fill="white"/>
<path d="M0.895398 19.1014C1.49829 25.1463 6.88668 29.5576 12.9311 28.9552C18.976 28.3528 23.3876 22.9641 22.7853 16.9198C22.1824 10.8749 16.7941 6.46292 10.7497 7.06532C4.70469 7.66772 0.293117 13.0565 0.895398 19.1014Z" fill="white"/>
<path d="M0.823132 90.1014C1.42603 96.1463 6.81441 100.558 12.8588 99.9552C18.9038 99.3528 23.3154 93.9641 22.7131 87.9198C22.1102 81.8749 16.7218 77.4629 10.6774 78.0653C4.63243 78.6677 0.220851 84.0565 0.823132 90.1014Z" fill="white"/>
<path d="M0.750866 161.101C1.35376 167.146 6.74215 171.558 12.7865 170.955C18.8315 170.353 23.2431 164.964 22.6408 158.92C22.0379 152.875 16.6495 148.463 10.6052 149.065C4.56016 149.668 0.148585 155.056 0.750866 161.101Z" fill="white"/>
<path d="M1.86951 42.1024C2.44414 48.1466 7.58749 52.5584 13.3578 51.9557C19.1276 51.353 23.3396 45.9641 22.7644 39.9192C22.1897 33.8749 17.0464 29.4632 11.276 30.0659C5.50624 30.6686 1.29428 36.0575 1.86951 42.1024Z" fill="white"/>
<path d="M1.79724 113.102C2.37188 119.147 7.51523 123.558 13.2856 122.956C19.0553 122.353 23.2673 116.964 22.6921 110.919C22.1175 104.875 16.9741 100.463 11.2037 101.066C5.43398 101.669 1.22202 107.058 1.79724 113.102Z" fill="white"/>
<path d="M1.72497 184.102C2.29961 190.147 7.44296 194.558 13.2133 193.956C18.9831 193.353 23.195 187.964 22.6198 181.919C22.0452 175.875 16.9018 171.463 11.1315 172.066C5.36171 172.669 1.14975 178.058 1.72497 184.102Z" fill="white"/>
<path d="M22.6845 226.125C23.2874 232.169 28.6757 236.581 34.7201 235.979C40.7651 235.376 45.1767 229.988 44.5744 223.943C43.9715 217.898 38.5831 213.486 32.5387 214.089C26.4938 214.691 22.0822 220.08 22.6845 226.125Z" fill="white"/>
<path d="M22.6122 297.125C23.2151 303.169 28.6035 307.581 34.6478 306.979C40.6928 306.376 45.1044 300.988 44.5021 294.943C43.8992 288.898 38.5109 284.486 32.4665 285.089C26.4215 285.691 22.0099 291.08 22.6122 297.125Z" fill="#FFEB8D"/>
<path d="M22.5399 368.125C23.1428 374.169 28.5312 378.581 34.5756 377.979C40.6206 377.376 45.0321 371.988 44.4299 365.943C43.827 359.898 38.4386 355.486 32.3942 356.089C26.3492 356.691 21.9376 362.08 22.5399 368.125Z" fill="#FFEB8D"/>
<path d="M36.6669 244.138C37.2698 250.183 42.6582 254.595 48.7031 253.992C54.7475 253.39 59.1591 248.001 58.5568 241.956C57.9545 235.911 52.5655 231.5 46.5212 232.102C40.4762 232.705 36.0646 238.094 36.6669 244.138Z" fill="white"/>
<path d="M36.5946 315.138C37.1975 321.183 42.5859 325.595 48.6309 324.992C54.6753 324.39 59.0868 319.001 58.4846 312.956C57.8823 306.911 52.4933 302.5 46.4489 303.102C40.4039 303.705 35.9923 309.094 36.5946 315.138Z" fill="#FFEB8D"/>
<path d="M36.5223 386.138C37.1252 392.183 42.5136 396.595 48.5586 395.992C54.603 395.39 59.0146 390.001 58.4123 383.956C57.81 377.911 52.421 373.5 46.3766 374.102C40.3316 374.705 35.9201 380.094 36.5223 386.138Z" fill="#FFEB8D"/>
<path d="M23.6493 263.084C24.2469 269.13 29.4071 273.563 35.1743 272.983C40.9421 272.404 45.1331 267.031 44.5355 260.985C43.9373 254.938 38.7771 250.505 33.0098 251.085C27.242 251.665 23.0511 257.037 23.6493 263.084Z" fill="white"/>
<path d="M23.577 334.084C24.1746 340.13 29.3348 344.563 35.102 343.983C40.8699 343.404 45.0608 338.031 44.4632 331.985C43.865 325.938 38.7048 321.505 32.9376 322.085C27.1697 322.665 22.9788 328.037 23.577 334.084Z" fill="#FFEB8D"/>
<path d="M23.5047 405.084C24.1024 411.13 29.2625 415.563 35.0298 414.983C40.7976 414.404 44.9886 409.031 44.3909 402.985C43.7927 396.938 38.6325 392.505 32.8653 393.085C27.0975 393.665 22.9065 399.037 23.5047 405.084Z" fill="#FFEB8D"/>
<path d="M1.67665 233.103C2.27954 239.148 7.66793 243.56 13.7123 242.957C19.7573 242.355 24.1689 236.966 23.5666 230.922C22.9637 224.877 17.5753 220.465 11.5309 221.067C5.48594 221.67 1.07437 227.058 1.67665 233.103Z" fill="white"/>
<path d="M1.60438 304.103C2.20728 310.148 7.59566 314.56 13.64 313.957C19.685 313.355 24.0966 307.966 23.4943 301.922C22.8914 295.877 17.503 291.465 11.4587 292.067C5.41368 292.67 1.0021 298.058 1.60438 304.103Z" fill="#FFEB8D"/>
<path d="M1.53212 375.103C2.13501 381.148 7.5234 385.56 13.5678 384.957C19.6128 384.355 24.0243 378.966 23.4221 372.922C22.8192 366.877 17.4308 362.465 11.3864 363.067C5.34141 363.67 0.929835 369.058 1.53212 375.103Z" fill="#FFEB8D"/>
<path d="M2.65076 256.104C3.22539 262.149 8.36874 266.56 14.1391 265.958C19.9089 265.355 24.1208 259.966 23.5456 253.921C22.971 247.877 17.8276 243.465 12.0573 244.068C6.28749 244.671 2.07553 250.059 2.65076 256.104Z" fill="white"/>
<path d="M2.57849 327.104C3.15313 333.149 8.29648 337.56 14.0668 336.958C19.8366 336.355 24.0486 330.966 23.4733 324.921C22.8987 318.877 17.7554 314.465 11.985 315.068C6.21523 315.671 2.00327 321.059 2.57849 327.104Z" fill="#FFEB8D"/>
<path d="M2.50622 398.104C3.08086 404.149 8.22421 408.56 13.9946 407.958C19.7643 407.355 23.9763 401.966 23.4011 395.921C22.8264 389.877 17.6831 385.465 11.9127 386.068C6.14296 386.671 1.931 392.059 2.50622 398.104Z" fill="#FFEB8D"/>
<path d="M23.4657 440.125C24.0686 446.169 29.457 450.581 35.5014 449.979C41.5464 449.376 45.9579 443.988 45.3556 437.943C44.7528 431.898 39.3644 427.486 33.32 428.089C27.275 428.691 22.8634 434.08 23.4657 440.125Z" fill="#FFEB8D"/>
<path d="M23.3934 511.125C23.9963 517.169 29.3847 521.581 35.4291 520.979C41.4741 520.376 45.8857 514.988 45.2834 508.943C44.6805 502.898 39.2921 498.486 33.2477 499.089C27.2027 499.691 22.7912 505.08 23.3934 511.125Z" fill="white"/>
<path d="M23.3212 582.125C23.9241 588.169 29.3125 592.581 35.3568 591.979C41.4018 591.376 45.8134 585.988 45.2111 579.943C44.6082 573.898 39.2198 569.486 33.1755 570.089C27.1305 570.691 22.7189 576.08 23.3212 582.125Z" fill="white"/>
<path d="M37.4481 458.14C38.051 464.185 43.4394 468.597 49.4844 467.994C55.5288 467.392 59.9404 462.003 59.3381 455.958C58.7358 449.913 53.3468 445.502 47.3024 446.104C41.2574 446.707 36.8458 452.096 37.4481 458.14Z" fill="#FFEB8D"/>
<path d="M37.3759 529.14C37.9788 535.185 43.3671 539.597 49.4121 538.994C55.4565 538.392 59.8681 533.003 59.2658 526.958C58.6635 520.913 53.2745 516.502 47.2302 517.104C41.1852 517.707 36.7736 523.096 37.3759 529.14Z" fill="white"/>
<path d="M37.3036 600.14C37.9065 606.185 43.2949 610.597 49.3399 609.994C55.3842 609.392 59.7958 604.003 59.1935 597.958C58.5913 591.913 53.2023 587.502 47.1579 588.104C41.1129 588.707 36.7013 594.096 37.3036 600.14Z" fill="white"/>
<path d="M24.4305 477.084C25.0281 483.13 30.1883 487.563 35.9556 486.983C41.7234 486.404 45.9143 481.031 45.3167 474.985C44.7185 468.938 39.5583 464.505 33.7911 465.085C28.0233 465.665 23.8323 471.037 24.4305 477.084Z" fill="#FFEB8D"/>
<path d="M24.3583 548.084C24.9559 554.13 30.1161 558.563 35.8833 557.983C41.6511 557.404 45.8421 552.031 45.2445 545.985C44.6462 539.938 39.4861 535.505 33.7188 536.085C27.951 536.665 23.76 542.037 24.3583 548.084Z" fill="white"/>
<path d="M24.286 619.084C24.8836 625.13 30.0438 629.563 35.811 628.983C41.5789 628.404 45.7698 623.031 45.1722 616.985C44.574 610.938 39.4138 606.505 33.6466 607.085C27.8787 607.665 23.6878 613.037 24.286 619.084Z" fill="white"/>
<path d="M2.45985 447.103C3.06275 453.148 8.45113 457.56 14.4955 456.957C20.5405 456.355 24.9521 450.966 24.3498 444.922C23.7469 438.877 18.3585 434.465 12.3141 435.067C6.26915 435.67 1.85757 441.058 2.45985 447.103Z" fill="#FFEB8D"/>
<path d="M2.38759 518.103C2.99048 524.148 8.37886 528.56 14.4232 527.957C20.4682 527.355 24.8798 521.966 24.2775 515.922C23.6746 509.877 18.2862 505.465 12.2419 506.067C6.19688 506.67 1.7853 512.058 2.38759 518.103Z" fill="white"/>
<path d="M2.31532 589.103C2.91822 595.148 8.3066 599.56 14.351 598.957C20.396 598.355 24.8075 592.966 24.2053 586.922C23.6024 580.877 18.214 576.465 12.1696 577.067C6.12461 577.67 1.71304 583.058 2.31532 589.103Z" fill="white"/>
<path d="M3.43396 470.104C4.0086 476.149 9.15195 480.56 14.9223 479.958C20.6921 479.355 24.904 473.966 24.3288 467.921C23.7542 461.877 18.6108 457.465 12.8405 458.068C7.0707 458.671 2.85874 464.059 3.43396 470.104Z" fill="#FFEB8D"/>
<path d="M3.36169 541.104C3.93633 547.149 9.07968 551.56 14.85 550.958C20.6198 550.355 24.8318 544.966 24.2565 538.921C23.6819 532.877 18.5386 528.465 12.7682 529.068C6.99843 529.671 2.78647 535.059 3.36169 541.104Z" fill="white"/>
<path d="M3.28943 612.104C3.86406 618.149 9.00741 622.56 14.7778 621.958C20.5475 621.355 24.7595 615.966 24.1843 609.921C23.6096 603.877 18.4663 599.465 12.6959 600.068C6.92617 600.671 2.7142 606.059 3.28943 612.104Z" fill="white"/>
<path d="M24.2489 654.127C24.8518 660.171 30.2402 664.583 36.2846 663.981C42.3296 663.378 46.7411 657.989 46.1389 651.945C45.536 645.9 40.1476 641.488 34.1032 642.091C28.0582 642.693 23.6466 648.082 24.2489 654.127Z" fill="white"/>
<path d="M24.1766 725.127C24.7795 731.171 30.1679 735.583 36.2123 734.981C42.2573 734.378 46.6689 728.989 46.0666 722.945C45.4637 716.9 40.0753 712.488 34.0309 713.091C27.9859 713.693 23.5744 719.082 24.1766 725.127Z" fill="white"/>
<path d="M24.1044 796.127C24.7073 802.171 30.0957 806.583 36.14 805.981C42.185 805.378 46.5966 799.989 45.9943 793.945C45.3914 787.9 40.003 783.488 33.9587 784.091C27.9137 784.693 23.5021 790.082 24.1044 796.127Z" fill="white"/>
<path d="M38.2294 672.14C38.8323 678.185 44.2207 682.597 50.2656 681.994C56.31 681.392 60.7216 676.003 60.1193 669.958C59.517 663.913 54.128 659.502 48.0837 660.104C42.0387 660.707 37.6271 666.096 38.2294 672.14Z" fill="white"/>
<path d="M38.1571 743.14C38.76 749.185 44.1484 753.597 50.1934 752.994C56.2378 752.392 60.6493 747.003 60.0471 740.958C59.4448 734.913 54.0558 730.502 48.0114 731.104C41.9664 731.707 37.5548 737.096 38.1571 743.14Z" fill="white"/>
<path d="M38.0848 814.14C38.6877 820.185 44.0761 824.597 50.1211 823.994C56.1655 823.392 60.5771 818.003 59.9748 811.958C59.3725 805.913 53.9835 801.502 47.9391 802.104C41.8941 802.707 37.4826 808.096 38.0848 814.14Z" fill="white"/>
<path d="M25.2118 691.086C25.8094 697.132 30.9696 701.565 36.7368 700.985C42.5046 700.406 46.6956 695.033 46.098 688.987C45.4998 682.94 40.3396 678.507 34.5723 679.087C28.8045 679.667 24.6136 685.039 25.2118 691.086Z" fill="white"/>
<path d="M25.1395 762.086C25.7371 768.132 30.8973 772.565 36.6645 771.985C42.4324 771.406 46.6233 766.033 46.0257 759.987C45.4275 753.94 40.2673 749.507 34.5001 750.087C28.7322 750.667 24.5413 756.039 25.1395 762.086Z" fill="white"/>
<path d="M25.0672 833.086C25.6649 839.132 30.825 843.565 36.5923 842.985C42.3601 842.406 46.5511 837.033 45.9534 830.987C45.3552 824.94 40.195 820.507 34.4278 821.087C28.66 821.667 24.469 827.039 25.0672 833.086Z" fill="white"/>
<path d="M3.2411 661.105C3.844 667.15 9.23238 671.562 15.2768 670.959C21.3217 670.357 25.7333 664.968 25.131 658.924C24.5281 652.879 19.1398 648.467 13.0954 649.069C7.0504 649.672 2.63882 655.06 3.2411 661.105Z" fill="white"/>
<path d="M3.16884 732.105C3.77173 738.15 9.16011 742.562 15.2045 741.959C21.2495 741.357 25.6611 735.968 25.0588 729.924C24.4559 723.879 19.0675 719.467 13.0231 720.069C6.97813 720.672 2.56655 726.06 3.16884 732.105Z" fill="white"/>
<path d="M3.09657 803.105C3.69947 809.15 9.08785 813.562 15.1322 812.959C21.1772 812.357 25.5888 806.968 24.9865 800.924C24.3836 794.879 18.9952 790.467 12.9509 791.069C6.90586 791.672 2.49429 797.06 3.09657 803.105Z" fill="white"/>
<path d="M4.21521 684.106C4.78985 690.151 9.9332 694.562 15.7036 693.96C21.4733 693.357 25.6853 687.968 25.1101 681.923C24.5354 675.879 19.3921 671.467 13.6217 672.07C7.85195 672.672 3.63999 678.061 4.21521 684.106Z" fill="white"/>
<path d="M4.14294 755.106C4.71758 761.151 9.86093 765.562 15.6313 764.96C21.4011 764.357 25.613 758.968 25.0378 752.923C24.4632 746.879 19.3198 742.467 13.5494 743.07C7.77968 743.672 3.56772 749.061 4.14294 755.106Z" fill="white"/>
<path d="M4.07068 826.106C4.64531 832.151 9.78866 836.562 15.559 835.96C21.3288 835.357 25.5407 829.968 24.9655 823.923C24.3909 817.879 19.2475 813.467 13.4772 814.07C7.70742 814.672 3.49545 820.061 4.07068 826.106Z" fill="white"/>
<path d="M24.9032 1443.12C25.5061 1449.17 30.8945 1453.58 36.9389 1452.98C42.9839 1452.37 47.3954 1446.99 46.7931 1440.94C46.1903 1434.9 40.8019 1430.48 34.7575 1431.09C28.7125 1431.69 24.3009 1437.08 24.9032 1443.12Z" fill="#EDF399"/>
<path d="M24.829 1514.12C25.4319 1520.17 30.8203 1524.58 36.8646 1523.98C42.9096 1523.37 47.3212 1517.99 46.7189 1511.94C46.116 1505.9 40.7277 1501.48 34.6833 1502.09C28.6383 1502.69 24.2267 1508.08 24.829 1514.12Z" fill="white"/>
<path d="M24.7567 1585.12C25.3596 1591.17 30.748 1595.58 36.7924 1594.98C42.8374 1594.37 47.2489 1588.99 46.6467 1582.94C46.0438 1576.9 40.6554 1572.48 34.611 1573.09C28.566 1573.69 24.1544 1579.08 24.7567 1585.12Z" fill="white"/>
<path d="M38.8837 1461.14C39.4866 1467.18 44.875 1471.59 50.9199 1470.99C56.9643 1470.39 61.3759 1465 60.7736 1458.96C60.1713 1452.91 54.7823 1448.5 48.738 1449.1C42.693 1449.7 38.2814 1455.09 38.8837 1461.14Z" fill="#EDF399"/>
<path d="M38.8114 1532.14C39.4143 1538.18 44.8027 1542.59 50.8477 1541.99C56.8921 1541.39 61.3036 1536 60.7014 1529.96C60.0991 1523.91 54.7101 1519.5 48.6657 1520.1C42.6207 1520.7 38.2091 1526.09 38.8114 1532.14Z" fill="white"/>
<path d="M38.7391 1603.14C39.342 1609.18 44.7304 1613.59 50.7754 1612.99C56.8198 1612.39 61.2314 1607 60.6291 1600.96C60.0268 1594.91 54.6378 1590.5 48.5934 1591.1C42.5484 1591.7 38.1369 1597.09 38.7391 1603.14Z" fill="white"/>
<path d="M25.8661 1480.08C26.4637 1486.13 31.6239 1490.56 37.3911 1489.98C43.1589 1489.4 47.3499 1484.03 46.7523 1477.98C46.1541 1471.94 40.9939 1467.5 35.2266 1468.08C29.4588 1468.66 25.2678 1474.03 25.8661 1480.08Z" fill="#EDF399"/>
<path d="M25.7938 1551.08C26.3914 1557.13 31.5516 1561.56 37.3188 1560.98C43.0867 1560.4 47.2776 1555.03 46.68 1548.98C46.0818 1542.94 40.9216 1538.5 35.1544 1539.08C29.3865 1539.66 25.1956 1545.03 25.7938 1551.08Z" fill="white"/>
<path d="M25.7215 1622.08C26.3192 1628.13 31.4793 1632.56 37.2466 1631.98C43.0144 1631.4 47.2054 1626.03 46.6077 1619.98C46.0095 1613.94 40.8493 1609.5 35.0821 1610.08C29.3143 1610.66 25.1233 1616.03 25.7215 1622.08Z" fill="white"/>
<path d="M3.8954 1450.1C4.49829 1456.15 9.88668 1460.56 15.9311 1459.96C21.976 1459.35 26.3876 1453.97 25.7853 1447.92C25.1824 1441.88 19.7941 1437.46 13.7497 1438.07C7.70469 1438.67 3.29312 1444.06 3.8954 1450.1Z" fill="#EDF399"/>
<path d="M3.82313 1521.1C4.42603 1527.15 9.81441 1531.56 15.8588 1530.96C21.9038 1530.35 26.3154 1524.97 25.7131 1518.92C25.1102 1512.88 19.7218 1508.46 13.6774 1509.07C7.63243 1509.67 3.22085 1515.06 3.82313 1521.1Z" fill="white"/>
<path d="M3.75087 1592.1C4.35376 1598.15 9.74215 1602.56 15.7865 1601.96C21.8315 1601.35 26.2431 1595.97 25.6408 1589.92C25.0379 1583.88 19.6495 1579.46 13.6052 1580.07C7.56016 1580.67 3.14859 1586.06 3.75087 1592.1Z" fill="white"/>
<path d="M4.86951 1473.1C5.44414 1479.15 10.5875 1483.56 16.3578 1482.96C22.1276 1482.35 26.3396 1476.97 25.7644 1470.92C25.1897 1464.88 20.0464 1460.47 14.276 1461.07C8.50624 1461.67 4.29428 1467.06 4.86951 1473.1Z" fill="#EDF399"/>
<path d="M4.79724 1544.1C5.37188 1550.15 10.5152 1554.56 16.2856 1553.96C22.0553 1553.35 26.2673 1547.97 25.6921 1541.92C25.1175 1535.88 19.9741 1531.47 14.2037 1532.07C8.43398 1532.67 4.22202 1538.06 4.79724 1544.1Z" fill="white"/>
<path d="M4.72497 1615.1C5.29961 1621.15 10.443 1625.56 16.2133 1624.96C21.9831 1624.35 26.195 1618.97 25.6198 1612.92C25.0452 1606.88 19.9018 1602.47 14.1315 1603.07C8.36171 1603.67 4.14975 1609.06 4.72497 1615.1Z" fill="white"/>
<path d="M25.1649 868.261C25.7285 874.309 31.088 878.756 37.1362 878.193C43.185 877.63 47.6315 872.27 47.0686 866.221C46.505 860.173 41.1455 855.726 35.0973 856.289C29.0485 856.852 24.602 862.212 25.1649 868.261Z" fill="white"/>
<path d="M24.6297 939.259C25.1933 945.307 30.5529 949.754 36.601 949.191C42.6498 948.628 47.0964 943.268 46.5334 937.219C45.9699 931.171 40.6103 926.724 34.5622 927.287C28.5134 927.85 24.0668 933.21 24.6297 939.259Z" fill="white"/>
<path d="M24.0946 1010.26C24.6581 1016.31 30.0177 1020.75 36.0659 1020.19C42.1146 1019.63 46.5612 1014.27 45.9983 1008.22C45.4347 1002.17 40.0752 997.722 34.027 998.285C27.9782 998.848 23.5317 1004.21 24.0946 1010.26Z" fill="white"/>
<path d="M39.0282 886.364C39.5917 892.413 44.9513 896.86 51.0001 896.296C57.0482 895.733 61.4948 890.373 60.9319 884.325C60.3689 878.276 55.0088 873.83 48.9606 874.393C42.9118 874.956 38.4653 880.316 39.0282 886.364Z" fill="white"/>
<path d="M38.493 957.362C39.0566 963.411 44.4161 967.858 50.4649 967.295C56.5131 966.731 60.9596 961.372 60.3967 955.323C59.8338 949.274 54.4736 944.828 48.4254 945.391C42.3767 945.954 37.9301 951.314 38.493 957.362Z" fill="white"/>
<path d="M37.9598 1028.36C38.5234 1034.41 43.8829 1038.86 49.9317 1038.29C55.9799 1037.73 60.4264 1032.37 59.8635 1026.32C59.3006 1020.27 53.9404 1015.83 47.8922 1016.39C41.8435 1016.95 37.3969 1022.31 37.9598 1028.36Z" fill="white"/>
<path d="M25.8878 905.225C26.446 911.275 31.5773 915.741 37.3481 915.199C43.1196 914.657 47.3454 909.312 46.7872 903.261C46.2283 897.211 41.0971 892.745 35.3262 893.287C29.5547 893.829 25.3289 899.174 25.8878 905.225Z" fill="white"/>
<path d="M25.3526 976.223C25.9109 982.273 31.0421 986.739 36.813 986.197C42.5845 985.655 46.8103 980.31 46.252 974.26C45.6932 968.209 40.562 963.743 34.7911 964.285C29.0196 964.827 24.7938 970.172 25.3526 976.223Z" fill="white"/>
<path d="M24.8194 1047.22C25.3777 1053.27 30.5089 1057.74 36.2798 1057.2C42.0513 1056.65 46.2771 1051.31 45.7188 1045.26C45.16 1039.21 40.0288 1034.74 34.2579 1035.29C28.4864 1035.83 24.2606 1041.17 24.8194 1047.22Z" fill="white"/>
<path d="M4.11217 875.103C4.67571 881.151 10.0353 885.598 16.0834 885.035C22.1322 884.472 26.5788 879.112 26.0158 873.064C25.4523 867.015 20.0927 862.568 14.0446 863.131C7.99579 863.694 3.54924 869.054 4.11217 875.103Z" fill="white"/>
<path d="M3.57701 946.101C4.14056 952.15 9.50012 956.596 15.5483 956.033C21.5971 955.47 26.0436 950.11 25.4807 944.062C24.9171 938.013 19.5576 933.566 13.5094 934.129C7.46064 934.692 3.01409 940.052 3.57701 946.101Z" fill="white"/>
<path d="M3.04381 1017.1C3.60736 1023.15 8.96692 1027.59 15.0151 1027.03C21.0639 1026.47 25.5104 1021.11 24.9475 1015.06C24.3839 1009.01 19.0244 1004.56 12.9762 1005.13C6.92743 1005.69 2.48088 1011.05 3.04381 1017.1Z" fill="white"/>
<path d="M4.93586 898.108C5.47115 904.156 10.5857 908.601 16.3598 908.036C22.1334 907.471 26.3803 902.11 25.8445 896.061C25.3092 890.013 20.1947 885.568 14.4205 886.133C8.64693 886.698 4.39999 892.06 4.93586 898.108Z" fill="white"/>
<path d="M4.40266 969.106C4.93795 975.154 10.0525 979.599 15.8266 979.034C21.6002 978.469 25.8471 973.108 25.3113 967.059C24.776 961.011 19.6615 956.566 13.8873 957.131C8.11373 957.696 3.86679 963.058 4.40266 969.106Z" fill="white"/>
<path d="M3.8675 1040.1C4.40279 1046.15 9.51732 1050.6 15.2915 1050.03C21.065 1049.47 25.312 1044.11 24.7761 1038.06C24.2408 1032.01 19.1263 1027.56 13.3521 1028.13C7.57857 1028.69 3.33163 1034.06 3.8675 1040.1Z" fill="white"/>
<path d="M24.5536 1082.26C25.1171 1088.31 30.4767 1092.76 36.5248 1092.19C42.5736 1091.63 47.0202 1086.27 46.4573 1080.22C45.8937 1074.17 40.5341 1069.73 34.486 1070.29C28.4372 1070.85 23.9906 1076.21 24.5536 1082.26Z" fill="white"/>
<path d="M24.0184 1153.26C24.582 1159.31 29.9415 1163.76 35.9897 1163.19C42.0385 1162.63 46.485 1157.27 45.9221 1151.22C45.3586 1145.17 39.999 1140.73 33.9508 1141.29C27.902 1141.85 23.4555 1147.21 24.0184 1153.26Z" fill="white"/>
<path d="M23.4852 1224.26C24.0488 1230.31 29.4083 1234.75 35.4565 1234.19C41.5053 1233.63 45.9518 1228.27 45.3889 1222.22C44.8254 1216.17 39.4658 1211.72 33.4176 1212.29C27.3688 1212.85 22.9223 1218.21 23.4852 1224.26Z" fill="white"/>
<path d="M38.4169 1100.37C38.9804 1106.41 44.34 1110.86 50.3887 1110.3C56.4369 1109.74 60.8835 1104.38 60.3205 1098.33C59.7576 1092.28 54.3974 1087.83 48.3493 1088.39C42.3005 1088.96 37.8539 1094.32 38.4169 1100.37Z" fill="white"/>
<path d="M37.8837 1171.37C38.4472 1177.41 43.8068 1181.86 49.8555 1181.3C55.9037 1180.74 60.3503 1175.38 59.7873 1169.33C59.2244 1163.28 53.8642 1158.83 47.8161 1159.39C41.7673 1159.96 37.3207 1165.32 37.8837 1171.37Z" fill="white"/>
<path d="M37.3485 1242.36C37.912 1248.41 43.2716 1252.86 49.3204 1252.29C55.3686 1251.73 59.8151 1246.37 59.2522 1240.32C58.6892 1234.27 53.3291 1229.83 47.2809 1230.39C41.2321 1230.95 36.7856 1236.31 37.3485 1242.36Z" fill="white"/>
<path d="M25.2764 1119.23C25.8347 1125.28 30.9659 1129.74 36.7368 1129.2C42.5083 1128.66 46.7341 1123.31 46.1759 1117.26C45.617 1111.21 40.4858 1106.75 34.7149 1107.29C28.9434 1107.83 24.7176 1113.18 25.2764 1119.23Z" fill="white"/>
<path d="M24.7432 1190.23C25.3015 1196.28 30.4327 1200.74 36.2036 1200.2C41.9751 1199.66 46.2009 1194.31 45.6427 1188.26C45.0838 1182.21 39.9526 1177.75 34.1817 1178.29C28.4102 1178.83 24.1844 1184.18 24.7432 1190.23Z" fill="white"/>
<path d="M24.2081 1261.22C24.7663 1267.27 29.8976 1271.74 35.6684 1271.2C41.4399 1270.65 45.6658 1265.31 45.1075 1259.26C44.5487 1253.21 39.4174 1248.74 33.6465 1249.29C27.8751 1249.83 23.6492 1255.17 24.2081 1261.22Z" fill="white"/>
<path d="M3.50084 1089.1C4.06439 1095.15 9.42395 1099.6 15.4721 1099.04C21.5209 1098.47 25.9674 1093.11 25.4045 1087.07C24.841 1081.02 19.4814 1076.57 13.4332 1077.13C7.38446 1077.7 2.93791 1083.06 3.50084 1089.1Z" fill="white"/>
<path d="M2.96764 1160.1C3.53118 1166.15 8.89074 1170.6 14.9389 1170.03C20.9877 1169.47 25.4342 1164.11 24.8713 1158.06C24.3078 1152.01 18.9482 1147.57 12.9 1148.13C6.85126 1148.69 2.40471 1154.05 2.96764 1160.1Z" fill="white"/>
<path d="M2.43248 1231.1C2.99603 1237.15 8.35559 1241.6 14.4038 1241.03C20.4525 1240.47 24.8991 1235.11 24.3362 1229.06C23.7726 1223.01 18.4131 1218.57 12.3649 1219.13C6.31611 1219.69 1.86955 1225.05 2.43248 1231.1Z" fill="white"/>
<path d="M4.32649 1112.11C4.86177 1118.16 9.97631 1122.61 15.7505 1122.04C21.524 1121.47 25.771 1116.11 25.2351 1110.07C24.6998 1104.02 19.5853 1099.57 13.8111 1100.14C8.03756 1100.7 3.79061 1106.06 4.32649 1112.11Z" fill="white"/>
<path d="M3.79133 1183.11C4.32662 1189.16 9.44115 1193.6 15.2153 1193.04C20.9889 1192.47 25.2358 1187.11 24.6999 1181.06C24.1647 1175.01 19.0501 1170.57 13.276 1171.13C7.5024 1171.7 3.25546 1177.06 3.79133 1183.11Z" fill="white"/>
<path d="M3.25617 1254.11C3.79146 1260.16 8.90599 1264.6 14.6801 1264.04C20.4537 1263.47 24.7007 1258.11 24.1648 1252.06C23.6295 1246.01 18.515 1241.57 12.7408 1242.13C6.96724 1242.7 2.7203 1248.06 3.25617 1254.11Z" fill="white"/>
<path d="M23.9422 1296.26C24.5058 1302.31 29.8654 1306.76 35.9135 1306.2C41.9623 1305.63 46.4089 1300.27 45.8459 1294.23C45.2824 1288.18 39.9228 1283.73 33.8747 1284.29C27.8259 1284.86 23.3793 1290.22 23.9422 1296.26Z" fill="white"/>
<path d="M23.409 1367.26C23.9726 1373.31 29.3322 1377.76 35.3803 1377.19C41.4291 1376.63 45.8757 1371.27 45.3127 1365.22C44.7492 1359.17 39.3896 1354.73 33.3414 1355.29C27.2927 1355.85 22.8461 1361.21 23.409 1367.26Z" fill="#EDF399"/>
<path d="M37.8075 1314.37C38.371 1320.42 43.7306 1324.87 49.7794 1324.3C55.8275 1323.74 60.2741 1318.38 59.7112 1312.33C59.1482 1306.28 53.7881 1301.84 47.7399 1302.4C41.6911 1302.96 37.2446 1308.32 37.8075 1314.37Z" fill="white"/>
<path d="M37.2723 1385.37C37.8359 1391.41 43.1954 1395.86 49.2442 1395.3C55.2924 1394.74 59.7389 1389.38 59.176 1383.33C58.6131 1377.28 53.2529 1372.83 47.2047 1373.39C41.156 1373.96 36.7094 1379.32 37.2723 1385.37Z" fill="#EDF399"/>
<path d="M24.6671 1333.23C25.2253 1339.28 30.3566 1343.75 36.1274 1343.2C41.8989 1342.66 46.1247 1337.32 45.5665 1331.27C45.0076 1325.22 39.8764 1320.75 34.1055 1321.29C28.334 1321.83 24.1082 1327.18 24.6671 1333.23Z" fill="white"/>
<path d="M24.1319 1404.23C24.6902 1410.28 29.8214 1414.74 35.5923 1414.2C41.3638 1413.66 45.5896 1408.31 45.0313 1402.26C44.4725 1396.21 39.3413 1391.75 33.5704 1392.29C27.7989 1392.83 23.5731 1398.18 24.1319 1404.23Z" fill="#EDF399"/>
<path d="M2.89147 1303.1C3.45501 1309.15 8.81457 1313.6 14.8627 1313.04C20.9115 1312.47 25.3581 1307.11 24.7951 1301.07C24.2316 1295.02 18.872 1290.57 12.8239 1291.13C6.77509 1291.7 2.32854 1297.06 2.89147 1303.1Z" fill="white"/>
<path d="M2.35631 1374.1C2.91986 1380.15 8.27942 1384.6 14.3276 1384.04C20.3764 1383.47 24.8229 1378.11 24.26 1372.07C23.6964 1366.02 18.3369 1361.57 12.2887 1362.13C6.23993 1362.7 1.79338 1368.06 2.35631 1374.1Z" fill="#EDF399"/>
<path d="M3.71516 1326.11C4.25045 1332.16 9.36498 1336.61 15.1391 1336.04C20.9127 1335.47 25.1596 1330.11 24.6238 1324.07C24.0885 1318.02 18.974 1313.57 13.1998 1314.14C7.42623 1314.7 3.17929 1320.06 3.71516 1326.11Z" fill="white"/>
<path d="M3.18 1397.11C3.71529 1403.16 8.82982 1407.61 14.604 1407.04C20.3775 1406.47 24.6245 1401.11 24.0886 1395.07C23.5533 1389.02 18.4388 1384.57 12.6646 1385.14C6.89107 1385.7 2.64413 1391.06 3.18 1397.11Z" fill="#EDF399"/>
</svg>
