<svg width="592" height="295" viewBox="0 0 592 295" fill="none" xmlns="http://www.w3.org/2000/svg">
<ellipse cx="21.537" cy="21.5002" rx="21.537" ry="21.5002" transform="matrix(0.637307 -0.77061 0.764566 0.644545 0.00195312 36.8984)" fill="#FFEB8D"/>
<ellipse cx="21.521" cy="21.5163" rx="21.521" ry="21.5163" transform="matrix(0.695725 0.718309 -0.71161 0.702575 266.055 4.69727)" fill="#FFEB8D"/>
<ellipse cx="21.537" cy="21.5002" rx="21.537" ry="21.5002" transform="matrix(0.637307 -0.77061 0.764566 0.644545 71.5645 34.1191)" fill="#FFEB8D"/>
<ellipse cx="21.5165" cy="21.5208" rx="21.5165" ry="21.5208" transform="matrix(-0.711148 -0.703042 0.696196 -0.717852 30.6035 291.908)" fill="#FFEB8D"/>
<ellipse cx="21.5314" cy="21.5059" rx="21.5314" ry="21.5059" transform="matrix(-0.65842 0.752651 -0.746355 -0.665548 293.525 260.797)" fill="#FFEB8D"/>
<ellipse cx="21.521" cy="21.5163" rx="21.521" ry="21.5163" transform="matrix(0.695725 0.718309 -0.71161 0.702575 261.588 76.8613)" fill="#FFEB8D"/>
<ellipse cx="21.5165" cy="21.5208" rx="21.5165" ry="21.5208" transform="matrix(-0.711148 -0.703042 0.696196 -0.717852 33.5195 219.662)" fill="#FFEB8D"/>
<ellipse cx="21.5314" cy="21.5059" rx="21.5314" ry="21.5059" transform="matrix(-0.65842 0.752651 -0.746355 -0.665548 221.914 261.57)" fill="#FFEB8D"/>
<ellipse cx="21.537" cy="21.5002" rx="21.537" ry="21.5002" transform="matrix(0.637307 -0.77061 0.764566 0.644545 38.5352 73.4883)" fill="#FFEB8D"/>
<ellipse cx="21.521" cy="21.5163" rx="21.521" ry="21.5163" transform="matrix(0.695725 0.718309 -0.71161 0.702575 226.117 39.7207)" fill="#FFEB8D"/>
<ellipse cx="21.5165" cy="21.5208" rx="21.5165" ry="21.5208" transform="matrix(-0.711148 -0.703042 0.696196 -0.717852 69.7773 256.02)" fill="#FFEB8D"/>
<ellipse cx="21.5314" cy="21.5059" rx="21.5314" ry="21.5059" transform="matrix(-0.65842 0.752651 -0.746355 -0.665548 256.012 223.145)" fill="#FFEB8D"/>
<ellipse cx="21.537" cy="21.5002" rx="21.537" ry="21.5002" transform="matrix(0.637307 -0.77061 0.764566 0.644545 55.5078 124.898)" fill="#FFEB8D"/>
<ellipse cx="21.521" cy="21.5163" rx="21.521" ry="21.5163" transform="matrix(0.695725 0.718309 -0.71161 0.702575 173.75 51.5938)" fill="#95E7E2"/>
<ellipse cx="21.5165" cy="21.5208" rx="21.5165" ry="21.5208" transform="matrix(-0.711148 -0.703042 0.696196 -0.717852 121.881 243.002)" fill="#95E7E2"/>
<ellipse cx="21.5314" cy="21.5059" rx="21.5314" ry="21.5059" transform="matrix(-0.65842 0.752651 -0.746355 -0.665548 240.459 171.277)" fill="#95E7E2"/>
<ellipse cx="21.537" cy="21.5002" rx="21.537" ry="21.5002" transform="matrix(0.637307 -0.77061 0.764566 0.644545 91.2891 84.6035)" fill="#95E7E2"/>
<ellipse cx="21.521" cy="21.5163" rx="21.521" ry="21.5163" transform="matrix(0.695725 0.718309 -0.71161 0.702575 209.854 91.5918)" fill="#FFEB8D"/>
<ellipse cx="21.5165" cy="21.5208" rx="21.5165" ry="21.5208" transform="matrix(-0.711148 -0.703042 0.696196 -0.717852 84.9258 203.883)" fill="#FFEB8D"/>
<ellipse cx="21.5314" cy="21.5059" rx="21.5314" ry="21.5059" transform="matrix(-0.65842 0.752651 -0.746355 -0.665548 203.584 210.555)" fill="#95E7E2"/>
<ellipse cx="21.537" cy="21.5002" rx="21.537" ry="21.5002" transform="matrix(0.637307 -0.77061 0.764566 0.644545 2.75391 111.004)" fill="#FFEB8D"/>
<ellipse cx="21.521" cy="21.5163" rx="21.521" ry="21.5163" transform="matrix(0.695725 0.718309 -0.71161 0.702575 192.756 0)" fill="#FFEB8D"/>
<ellipse cx="21.5165" cy="21.5208" rx="21.5165" ry="21.5208" transform="matrix(-0.711148 -0.703042 0.696196 -0.717852 103.99 295)" fill="#FFEB8D"/>
<ellipse cx="21.5314" cy="21.5059" rx="21.5314" ry="21.5059" transform="matrix(-0.65842 0.752651 -0.746355 -0.665548 292.811 186.645)" fill="#FFEB8D"/>
<ellipse cx="21.537" cy="21.5002" rx="21.537" ry="21.5002" transform="matrix(0.637307 -0.77061 0.764566 0.644545 296.002 36.8984)" fill="#FFEB8D"/>
<ellipse cx="21.521" cy="21.5163" rx="21.521" ry="21.5163" transform="matrix(0.695725 0.718309 -0.71161 0.702575 562.055 4.69727)" fill="#FFEB8D"/>
<ellipse cx="21.537" cy="21.5002" rx="21.537" ry="21.5002" transform="matrix(0.637307 -0.77061 0.764566 0.644545 367.564 34.1191)" fill="#95E7E2"/>
<ellipse cx="21.5165" cy="21.5208" rx="21.5165" ry="21.5208" transform="matrix(-0.711148 -0.703042 0.696196 -0.717852 326.604 291.908)" fill="#FFEB8D"/>
<ellipse cx="21.5314" cy="21.5059" rx="21.5314" ry="21.5059" transform="matrix(-0.65842 0.752651 -0.746355 -0.665548 589.525 260.797)" fill="#FFEB8D"/>
<ellipse cx="21.521" cy="21.5163" rx="21.521" ry="21.5163" transform="matrix(0.695725 0.718309 -0.71161 0.702575 557.588 76.8613)" fill="#FFEB8D"/>
<ellipse cx="21.5165" cy="21.5208" rx="21.5165" ry="21.5208" transform="matrix(-0.711148 -0.703042 0.696196 -0.717852 329.52 219.662)" fill="#FFEB8D"/>
<ellipse cx="21.5314" cy="21.5059" rx="21.5314" ry="21.5059" transform="matrix(-0.65842 0.752651 -0.746355 -0.665548 517.914 261.57)" fill="#FFEB8D"/>
<ellipse cx="21.537" cy="21.5002" rx="21.537" ry="21.5002" transform="matrix(0.637307 -0.77061 0.764566 0.644545 334.535 73.4883)" fill="#FFEB8D"/>
<ellipse cx="21.521" cy="21.5163" rx="21.521" ry="21.5163" transform="matrix(0.695725 0.718309 -0.71161 0.702575 522.117 39.7207)" fill="#95E7E2"/>
<ellipse cx="21.5165" cy="21.5208" rx="21.5165" ry="21.5208" transform="matrix(-0.711148 -0.703042 0.696196 -0.717852 365.777 256.02)" fill="#FFEB8D"/>
<ellipse cx="21.5314" cy="21.5059" rx="21.5314" ry="21.5059" transform="matrix(-0.65842 0.752651 -0.746355 -0.665548 552.012 223.145)" fill="#FFEB8D"/>
<ellipse cx="21.537" cy="21.5002" rx="21.537" ry="21.5002" transform="matrix(0.637307 -0.77061 0.764566 0.644545 351.508 124.898)" fill="#FFEB8D"/>
<ellipse cx="21.521" cy="21.5163" rx="21.521" ry="21.5163" transform="matrix(0.695725 0.718309 -0.71161 0.702575 469.75 51.5938)" fill="#FFEB8D"/>
<ellipse cx="21.5165" cy="21.5208" rx="21.5165" ry="21.5208" transform="matrix(-0.711148 -0.703042 0.696196 -0.717852 417.881 243.002)" fill="#FFEB8D"/>
<ellipse cx="21.5314" cy="21.5059" rx="21.5314" ry="21.5059" transform="matrix(-0.65842 0.752651 -0.746355 -0.665548 536.459 171.277)" fill="#95E7E2"/>
<ellipse cx="21.537" cy="21.5002" rx="21.537" ry="21.5002" transform="matrix(0.637307 -0.77061 0.764566 0.644545 387.289 84.6035)" fill="#FFEB8D"/>
<ellipse cx="21.521" cy="21.5163" rx="21.521" ry="21.5163" transform="matrix(0.695725 0.718309 -0.71161 0.702575 505.854 91.5918)" fill="#95E7E2"/>
<ellipse cx="21.5165" cy="21.5208" rx="21.5165" ry="21.5208" transform="matrix(-0.711148 -0.703042 0.696196 -0.717852 380.926 203.883)" fill="#95E7E2"/>
<ellipse cx="21.5314" cy="21.5059" rx="21.5314" ry="21.5059" transform="matrix(-0.65842 0.752651 -0.746355 -0.665548 499.584 210.555)" fill="#FFEB8D"/>
<ellipse cx="21.537" cy="21.5002" rx="21.537" ry="21.5002" transform="matrix(0.637307 -0.77061 0.764566 0.644545 298.754 111.004)" fill="#FFEB8D"/>
<ellipse cx="21.521" cy="21.5163" rx="21.521" ry="21.5163" transform="matrix(0.695725 0.718309 -0.71161 0.702575 488.756 0)" fill="#FFEB8D"/>
<ellipse cx="21.5165" cy="21.5208" rx="21.5165" ry="21.5208" transform="matrix(-0.711148 -0.703042 0.696196 -0.717852 399.99 295)" fill="#95E7E2"/>
<ellipse cx="21.5314" cy="21.5059" rx="21.5314" ry="21.5059" transform="matrix(-0.65842 0.752651 -0.746355 -0.665548 588.811 186.645)" fill="#FFEB8D"/>
</svg>
