<svg width="61" height="1635" viewBox="0 0 61 1635" fill="none" xmlns="http://www.w3.org/2000/svg">
<path d="M21.9032 12.1229C22.5061 18.1671 27.8945 22.5791 33.9389 21.9767C39.9839 21.3743 44.3954 15.9856 43.7931 9.94067C43.1903 3.89577 37.8019 -0.515586 31.7575 0.086815C25.7125 0.689215 21.3009 6.07796 21.9032 12.1229Z" fill="white"/>
<path d="M21.829 83.1229C22.4319 89.1671 27.8203 93.5791 33.8646 92.9767C39.9096 92.3743 44.3212 86.9856 43.7189 80.9407C43.116 74.8958 37.7277 70.4844 31.6833 71.0868C25.6383 71.6892 21.2267 77.078 21.829 83.1229Z" fill="white"/>
<path d="M21.7587 154.123C22.3616 160.167 27.75 164.579 33.7943 163.977C39.8393 163.374 44.2509 157.986 43.6486 151.941C43.0457 145.896 37.6573 141.484 31.613 142.087C25.568 142.689 21.1564 148.078 21.7587 154.123Z" fill="white"/>
<path d="M35.8837 30.1379C36.4866 36.1828 41.875 40.5947 47.9199 39.9923C53.9643 39.3899 58.3759 34.0012 57.7736 27.9563C57.1713 21.9114 51.7823 17.5 45.738 18.1024C39.693 18.7048 35.2814 24.0936 35.8837 30.1379Z" fill="white"/>
<path d="M35.8114 101.138C36.4143 107.183 41.8027 111.595 47.8477 110.992C53.8921 110.39 58.3036 105.001 57.7014 98.9563C57.0991 92.9114 51.7101 88.5 45.6657 89.1024C39.6207 89.7048 35.2091 95.0936 35.8114 101.138Z" fill="white"/>
<path d="M35.7391 172.138C36.342 178.183 41.7304 182.595 47.7754 181.992C53.8198 181.39 58.2314 176.001 57.6291 169.956C57.0268 163.911 51.6378 159.5 45.5934 160.102C39.5484 160.705 35.1369 166.094 35.7391 172.138Z" fill="white"/>
<path d="M22.8661 49.0818C23.4637 55.1284 28.6239 59.5609 34.3911 58.9814C40.1589 58.4019 44.3499 53.0294 43.7523 46.9828C43.1541 40.9356 37.9939 36.5031 32.2266 37.0832C26.4588 37.6627 22.2678 43.0346 22.8661 49.0818Z" fill="white"/>
<path d="M22.7938 120.082C23.3914 126.128 28.5516 130.561 34.3188 129.981C40.0867 129.402 44.2776 124.029 43.68 117.983C43.0818 111.936 37.9216 107.503 32.1544 108.083C26.3865 108.663 22.1956 114.035 22.7938 120.082Z" fill="white"/>
<path d="M22.7215 191.082C23.3192 197.128 28.4793 201.561 34.2466 200.981C40.0144 200.402 44.2054 195.029 43.6077 188.983C43.0095 182.936 37.8493 178.503 32.0821 179.083C26.3143 179.663 22.1233 185.035 22.7215 191.082Z" fill="white"/>
<path d="M0.895397 19.1014C1.49829 25.1463 6.88668 29.5576 12.9311 28.9552C18.976 28.3528 23.3876 22.9641 22.7853 16.9198C22.1824 10.8749 16.7941 6.46292 10.7497 7.06532C4.70469 7.66772 0.293116 13.0565 0.895397 19.1014Z" fill="white"/>
<path d="M0.823132 90.1014C1.42603 96.1463 6.81441 100.558 12.8588 99.9552C18.9038 99.3528 23.3154 93.9641 22.7131 87.9198C22.1102 81.8749 16.7218 77.4629 10.6774 78.0653C4.63243 78.6677 0.22085 84.0565 0.823132 90.1014Z" fill="white"/>
<path d="M0.750866 161.101C1.35376 167.146 6.74215 171.558 12.7865 170.955C18.8315 170.353 23.2431 164.964 22.6408 158.92C22.0379 152.875 16.6495 148.463 10.6052 149.065C4.56016 149.668 0.148585 155.056 0.750866 161.101Z" fill="white"/>
<path d="M1.86951 42.1024C2.44414 48.1466 7.58749 52.5584 13.3578 51.9557C19.1276 51.353 23.3396 45.9641 22.7644 39.9192C22.1897 33.8749 17.0464 29.4632 11.276 30.0659C5.50624 30.6686 1.29428 36.0575 1.86951 42.1024Z" fill="white"/>
<path d="M1.79724 113.102C2.37188 119.147 7.51523 123.558 13.2856 122.956C19.0553 122.353 23.2673 116.964 22.6921 110.919C22.1175 104.875 16.9741 100.463 11.2037 101.066C5.43398 101.669 1.22202 107.058 1.79724 113.102Z" fill="white"/>
<path d="M1.72498 184.102C2.29961 190.147 7.44296 194.558 13.2133 193.956C18.9831 193.353 23.195 187.964 22.6198 181.919C22.0452 175.875 16.9018 171.463 11.1315 172.066C5.36171 172.669 1.14975 178.058 1.72498 184.102Z" fill="white"/>
<path d="M22.6845 226.125C23.2874 232.169 28.6757 236.581 34.7201 235.979C40.7651 235.376 45.1767 229.988 44.5744 223.943C43.9715 217.898 38.5831 213.486 32.5387 214.089C26.4938 214.691 22.0822 220.08 22.6845 226.125Z" fill="white"/>
<path d="M22.6122 297.125C23.2151 303.169 28.6035 307.581 34.6478 306.979C40.6928 306.376 45.1044 300.988 44.5021 294.943C43.8992 288.898 38.5109 284.486 32.4665 285.089C26.4215 285.691 22.0099 291.08 22.6122 297.125Z" fill="white"/>
<path d="M22.5399 368.125C23.1428 374.169 28.5312 378.581 34.5756 377.979C40.6206 377.376 45.0321 371.988 44.4299 365.943C43.827 359.898 38.4386 355.486 32.3942 356.089C26.3492 356.691 21.9376 362.08 22.5399 368.125Z" fill="white"/>
<path d="M36.6669 244.138C37.2698 250.183 42.6582 254.595 48.7031 253.992C54.7475 253.39 59.1591 248.001 58.5568 241.956C57.9545 235.911 52.5655 231.5 46.5212 232.102C40.4762 232.705 36.0646 238.094 36.6669 244.138Z" fill="white"/>
<path d="M36.5946 315.138C37.1975 321.183 42.5859 325.595 48.6309 324.992C54.6753 324.39 59.0868 319.001 58.4846 312.956C57.8823 306.911 52.4933 302.5 46.4489 303.102C40.4039 303.705 35.9923 309.094 36.5946 315.138Z" fill="white"/>
<path d="M36.5204 386.138C37.1233 392.183 42.5117 396.595 48.5567 395.992C54.601 395.39 59.0126 390.001 58.4103 383.956C57.8081 377.911 52.4191 373.5 46.3747 374.102C40.3297 374.705 35.9181 380.094 36.5204 386.138Z" fill="white"/>
<path d="M23.6493 263.084C24.2469 269.13 29.4071 273.563 35.1743 272.983C40.9421 272.404 45.1331 267.031 44.5355 260.985C43.9373 254.938 38.7771 250.505 33.0098 251.085C27.242 251.665 23.0511 257.037 23.6493 263.084Z" fill="white"/>
<path d="M23.577 334.084C24.1746 340.13 29.3348 344.563 35.102 343.983C40.8699 343.404 45.0608 338.031 44.4632 331.985C43.865 325.938 38.7048 321.505 32.9376 322.085C27.1697 322.665 22.9788 328.037 23.577 334.084Z" fill="white"/>
<path d="M23.5047 405.084C24.1024 411.13 29.2625 415.563 35.0298 414.983C40.7976 414.404 44.9886 409.031 44.3909 402.985C43.7927 396.938 38.6325 392.505 32.8653 393.085C27.0975 393.665 22.9065 399.037 23.5047 405.084Z" fill="white"/>
<path d="M1.67665 233.103C2.27954 239.148 7.66793 243.56 13.7123 242.957C19.7573 242.355 24.1689 236.966 23.5666 230.922C22.9637 224.877 17.5753 220.465 11.5309 221.067C5.48594 221.67 1.07437 227.058 1.67665 233.103Z" fill="white"/>
<path d="M1.60438 304.103C2.20728 310.148 7.59566 314.56 13.64 313.957C19.685 313.355 24.0966 307.966 23.4943 301.922C22.8914 295.877 17.503 291.465 11.4587 292.067C5.41368 292.67 1.0021 298.058 1.60438 304.103Z" fill="white"/>
<path d="M1.53212 375.103C2.13501 381.148 7.5234 385.56 13.5678 384.957C19.6128 384.355 24.0243 378.966 23.4221 372.922C22.8192 366.877 17.4308 362.465 11.3864 363.067C5.34141 363.67 0.929835 369.058 1.53212 375.103Z" fill="white"/>
<path d="M2.65076 256.104C3.22539 262.149 8.36874 266.56 14.1391 265.958C19.9089 265.355 24.1208 259.966 23.5456 253.921C22.971 247.877 17.8276 243.465 12.0573 244.068C6.28749 244.671 2.07553 250.059 2.65076 256.104Z" fill="white"/>
<path d="M2.57849 327.104C3.15313 333.149 8.29648 337.56 14.0668 336.958C19.8366 336.355 24.0486 330.966 23.4733 324.921C22.8987 318.877 17.7554 314.465 11.985 315.068C6.21523 315.671 2.00327 321.059 2.57849 327.104Z" fill="white"/>
<path d="M2.50623 398.104C3.08086 404.149 8.22421 408.56 13.9946 407.958C19.7643 407.355 23.9763 401.966 23.4011 395.921C22.8264 389.877 17.6831 385.465 11.9127 386.068C6.14296 386.671 1.931 392.059 2.50623 398.104Z" fill="white"/>
<path d="M23.4657 440.125C24.0686 446.169 29.457 450.581 35.5014 449.979C41.5464 449.376 45.9579 443.988 45.3556 437.943C44.7528 431.898 39.3644 427.486 33.32 428.089C27.275 428.691 22.8634 434.08 23.4657 440.125Z" fill="#EDF399"/>
<path d="M23.3934 511.125C23.9963 517.169 29.3847 521.581 35.4291 520.979C41.4741 520.376 45.8857 514.988 45.2834 508.943C44.6805 502.898 39.2921 498.486 33.2477 499.089C27.2027 499.691 22.7912 505.08 23.3934 511.125Z" fill="#EDF399"/>
<path d="M23.3212 582.125C23.9241 588.169 29.3125 592.581 35.3568 591.979C41.4018 591.376 45.8134 585.988 45.2111 579.943C44.6082 573.898 39.2198 569.486 33.1755 570.089C27.1305 570.691 22.7189 576.08 23.3212 582.125Z" fill="#EDF399"/>
<path d="M37.4481 458.14C38.051 464.185 43.4394 468.597 49.4844 467.994C55.5288 467.392 59.9404 462.003 59.3381 455.958C58.7358 449.913 53.3468 445.502 47.3024 446.104C41.2574 446.707 36.8458 452.096 37.4481 458.14Z" fill="#EDF399"/>
<path d="M37.3759 529.14C37.9788 535.185 43.3671 539.597 49.4121 538.994C55.4565 538.392 59.8681 533.003 59.2658 526.958C58.6635 520.913 53.2745 516.502 47.2302 517.104C41.1852 517.707 36.7736 523.096 37.3759 529.14Z" fill="#EDF399"/>
<path d="M37.3036 600.14C37.9065 606.185 43.2949 610.597 49.3399 609.994C55.3842 609.392 59.7958 604.003 59.1935 597.958C58.5913 591.913 53.2023 587.502 47.1579 588.104C41.1129 588.707 36.7013 594.096 37.3036 600.14Z" fill="#EDF399"/>
<path d="M24.4305 477.084C25.0281 483.13 30.1883 487.563 35.9556 486.983C41.7234 486.404 45.9143 481.031 45.3167 474.985C44.7185 468.938 39.5583 464.505 33.7911 465.085C28.0233 465.665 23.8323 471.037 24.4305 477.084Z" fill="#EDF399"/>
<path d="M24.3583 548.084C24.9559 554.13 30.1161 558.563 35.8833 557.983C41.6511 557.404 45.8421 552.031 45.2445 545.985C44.6462 539.938 39.4861 535.505 33.7188 536.085C27.951 536.665 23.76 542.037 24.3583 548.084Z" fill="#EDF399"/>
<path d="M24.286 619.084C24.8836 625.13 30.0438 629.563 35.811 628.983C41.5789 628.404 45.7698 623.031 45.1722 616.985C44.574 610.938 39.4138 606.505 33.6466 607.085C27.8787 607.665 23.6878 613.037 24.286 619.084Z" fill="#EDF399"/>
<path d="M2.45985 447.103C3.06275 453.148 8.45113 457.56 14.4955 456.957C20.5405 456.355 24.9521 450.966 24.3498 444.922C23.7469 438.877 18.3585 434.465 12.3141 435.067C6.26915 435.67 1.85757 441.058 2.45985 447.103Z" fill="#EDF399"/>
<path d="M2.38758 518.103C2.99048 524.148 8.37886 528.56 14.4232 527.957C20.4682 527.355 24.8798 521.966 24.2775 515.922C23.6746 509.877 18.2862 505.465 12.2419 506.067C6.19688 506.67 1.7853 512.058 2.38758 518.103Z" fill="#EDF399"/>
<path d="M2.31532 589.103C2.91822 595.148 8.3066 599.56 14.351 598.957C20.396 598.355 24.8075 592.966 24.2053 586.922C23.6024 580.877 18.214 576.465 12.1696 577.067C6.12462 577.67 1.71304 583.058 2.31532 589.103Z" fill="#EDF399"/>
<path d="M3.43396 470.104C4.0086 476.149 9.15194 480.56 14.9223 479.958C20.6921 479.355 24.904 473.966 24.3288 467.921C23.7542 461.877 18.6108 457.465 12.8405 458.068C7.0707 458.671 2.85874 464.059 3.43396 470.104Z" fill="#EDF399"/>
<path d="M3.36169 541.104C3.93633 547.149 9.07968 551.56 14.85 550.958C20.6198 550.355 24.8318 544.966 24.2565 538.921C23.6819 532.877 18.5386 528.465 12.7682 529.068C6.99843 529.671 2.78647 535.059 3.36169 541.104Z" fill="#EDF399"/>
<path d="M3.28943 612.104C3.86407 618.149 9.00741 622.56 14.7778 621.958C20.5475 621.355 24.7595 615.966 24.1843 609.921C23.6096 603.877 18.4663 599.465 12.6959 600.068C6.92617 600.671 2.7142 606.059 3.28943 612.104Z" fill="#EDF399"/>
<path d="M24.2489 654.127C24.8518 660.171 30.2402 664.583 36.2846 663.981C42.3296 663.378 46.7411 657.989 46.1389 651.945C45.536 645.9 40.1476 641.488 34.1032 642.091C28.0582 642.693 23.6466 648.082 24.2489 654.127Z" fill="white"/>
<path d="M24.1766 725.127C24.7795 731.171 30.1679 735.583 36.2123 734.981C42.2573 734.378 46.6689 728.989 46.0666 722.945C45.4637 716.9 40.0753 712.488 34.0309 713.091C27.9859 713.693 23.5744 719.082 24.1766 725.127Z" fill="white"/>
<path d="M24.1044 796.127C24.7073 802.171 30.0957 806.583 36.14 805.981C42.185 805.378 46.5966 799.989 45.9943 793.945C45.3914 787.9 40.003 783.488 33.9587 784.091C27.9137 784.693 23.5021 790.082 24.1044 796.127Z" fill="white"/>
<path d="M38.2294 672.14C38.8323 678.185 44.2207 682.597 50.2656 681.994C56.31 681.392 60.7216 676.003 60.1193 669.958C59.517 663.913 54.128 659.502 48.0837 660.104C42.0387 660.707 37.6271 666.096 38.2294 672.14Z" fill="white"/>
<path d="M38.1571 743.14C38.76 749.185 44.1484 753.597 50.1934 752.994C56.2378 752.392 60.6493 747.003 60.0471 740.958C59.4448 734.913 54.0558 730.502 48.0114 731.104C41.9664 731.707 37.5548 737.096 38.1571 743.14Z" fill="white"/>
<path d="M38.0848 814.14C38.6877 820.185 44.0761 824.597 50.1211 823.994C56.1655 823.392 60.5771 818.003 59.9748 811.958C59.3725 805.913 53.9835 801.502 47.9391 802.104C41.8941 802.707 37.4826 808.096 38.0848 814.14Z" fill="white"/>
<path d="M25.2137 691.086C25.8113 697.132 30.9715 701.565 36.7388 700.985C42.5066 700.406 46.6975 695.033 46.0999 688.987C45.5017 682.94 40.3415 678.507 34.5743 679.087C28.8065 679.667 24.6155 685.039 25.2137 691.086Z" fill="white"/>
<path d="M25.1395 762.086C25.7371 768.132 30.8973 772.565 36.6645 771.985C42.4324 771.406 46.6233 766.033 46.0257 759.987C45.4275 753.94 40.2673 749.507 34.5001 750.087C28.7322 750.667 24.5413 756.039 25.1395 762.086Z" fill="white"/>
<path d="M25.0692 833.086C25.6668 839.132 30.827 843.565 36.5942 842.985C42.3621 842.406 46.553 837.033 45.9554 830.987C45.3572 824.94 40.197 820.507 34.4298 821.087C28.6619 821.667 24.471 827.039 25.0692 833.086Z" fill="white"/>
<path d="M3.2411 661.105C3.844 667.15 9.23238 671.562 15.2768 670.959C21.3217 670.357 25.7333 664.968 25.131 658.924C24.5281 652.879 19.1398 648.467 13.0954 649.069C7.0504 649.672 2.63882 655.06 3.2411 661.105Z" fill="white"/>
<path d="M3.16883 732.105C3.77173 738.15 9.16011 742.562 15.2045 741.959C21.2495 741.357 25.6611 735.968 25.0588 729.924C24.4559 723.879 19.0675 719.467 13.0231 720.069C6.97813 720.672 2.56655 726.06 3.16883 732.105Z" fill="white"/>
<path d="M3.09657 803.105C3.69947 809.15 9.08785 813.562 15.1322 812.959C21.1772 812.357 25.5888 806.968 24.9865 800.924C24.3836 794.879 18.9952 790.467 12.9509 791.069C6.90587 791.672 2.49429 797.06 3.09657 803.105Z" fill="white"/>
<path d="M4.21521 684.106C4.78985 690.151 9.93319 694.562 15.7035 693.96C21.4733 693.357 25.6853 687.968 25.1101 681.923C24.5354 675.879 19.3921 671.467 13.6217 672.07C7.85195 672.672 3.63999 678.061 4.21521 684.106Z" fill="white"/>
<path d="M4.14294 755.106C4.71758 761.151 9.86093 765.562 15.6313 764.96C21.4011 764.357 25.613 758.968 25.0378 752.923C24.4632 746.879 19.3198 742.467 13.5494 743.07C7.77968 743.672 3.56772 749.061 4.14294 755.106Z" fill="white"/>
<path d="M4.07068 826.106C4.64532 832.151 9.78866 836.562 15.559 835.96C21.3288 835.357 25.5407 829.968 24.9655 823.923C24.3909 817.879 19.2475 813.467 13.4772 814.07C7.70742 814.672 3.49545 820.061 4.07068 826.106Z" fill="white"/>
<path d="M24.1649 868.261C24.7285 874.309 30.088 878.756 36.1362 878.193C42.185 877.63 46.6315 872.27 46.0686 866.221C45.505 860.173 40.1455 855.726 34.0973 856.289C28.0485 856.852 23.602 862.212 24.1649 868.261Z" fill="white"/>
<path d="M23.6317 939.259C24.1953 945.307 29.5548 949.754 35.603 949.191C41.6518 948.628 46.0983 943.268 45.5354 937.219C44.9718 931.171 39.6123 926.724 33.5641 927.287C27.5153 927.85 23.0688 933.21 23.6317 939.259Z" fill="white"/>
<path d="M23.0965 1010.26C23.6601 1016.31 29.0197 1020.75 35.0678 1020.19C41.1166 1019.63 45.5632 1014.27 45.0002 1008.22C44.4367 1002.17 39.0771 997.722 33.0289 998.285C26.9802 998.848 22.5336 1004.21 23.0965 1010.26Z" fill="#FFEB8D"/>
<path d="M38.0301 886.366C38.5937 892.415 43.9532 896.861 50.002 896.298C56.0502 895.735 60.4967 890.375 59.9338 884.327C59.3709 878.278 54.0107 873.832 47.9625 874.395C41.9138 874.958 37.4672 880.318 38.0301 886.366Z" fill="white"/>
<path d="M37.495 957.364C38.0585 963.413 43.4181 967.86 49.4669 967.296C55.515 966.733 59.9616 961.373 59.3987 955.325C58.8357 949.276 53.4756 944.83 47.4274 945.393C41.3786 945.956 36.9321 951.316 37.495 957.364Z" fill="white"/>
<path d="M36.9598 1028.36C37.5234 1034.41 42.8829 1038.86 48.9317 1038.29C54.9799 1037.73 59.4264 1032.37 58.8635 1026.32C58.3006 1020.27 52.9404 1015.83 46.8922 1016.39C40.8434 1016.95 36.3969 1022.31 36.9598 1028.36Z" fill="#FFEB8D"/>
<path d="M24.8897 905.226C25.448 911.277 30.5792 915.743 36.3501 915.201C42.1216 914.659 46.3474 909.314 45.7892 903.263C45.2303 897.212 40.0991 892.746 34.3282 893.289C28.5567 893.831 24.3309 899.176 24.8897 905.226Z" fill="white"/>
<path d="M24.3546 976.225C24.9128 982.275 30.0441 986.741 35.8149 986.199C41.5864 985.657 45.8122 980.312 45.254 974.261C44.6951 968.211 39.5639 963.745 33.793 964.287C28.0215 964.829 23.7957 970.174 24.3546 976.225Z" fill="white"/>
<path d="M23.8194 1047.22C24.3777 1053.27 29.5089 1057.74 35.2798 1057.2C41.0513 1056.65 45.2771 1051.31 44.7188 1045.26C44.16 1039.21 39.0288 1034.74 33.2579 1035.29C27.4864 1035.83 23.2606 1041.17 23.8194 1047.22Z" fill="#FFEB8D"/>
<path d="M3.11412 875.103C3.67767 881.151 9.03723 885.598 15.0854 885.035C21.1342 884.472 25.5807 879.112 25.0178 873.064C24.4543 867.015 19.0947 862.568 13.0465 863.131C6.99775 863.694 2.55119 869.054 3.11412 875.103Z" fill="white"/>
<path d="M2.57897 946.101C3.14251 952.15 8.50207 956.596 14.5502 956.033C20.599 955.47 25.0456 950.11 24.4826 944.062C23.9191 938.013 18.5595 933.566 12.5114 934.129C6.46259 934.692 2.01604 940.052 2.57897 946.101Z" fill="white"/>
<path d="M2.04381 1017.1C2.60736 1023.15 7.96692 1027.59 14.0151 1027.03C20.0639 1026.47 24.5104 1021.11 23.9475 1015.06C23.3839 1009.01 18.0244 1004.56 11.9762 1005.13C5.92743 1005.69 1.48088 1011.05 2.04381 1017.1Z" fill="#FFEB8D"/>
<path d="M3.93781 898.11C4.4731 904.158 9.58763 908.603 15.3618 908.038C21.1354 907.473 25.3823 902.112 24.8464 896.063C24.3111 890.015 19.1966 885.57 13.4225 886.135C7.64888 886.7 3.40194 892.062 3.93781 898.11Z" fill="white"/>
<path d="M3.40266 969.108C3.93795 975.156 9.05248 979.601 14.8266 979.036C20.6002 978.471 24.8471 973.11 24.3113 967.061C23.776 961.013 18.6615 956.568 12.8873 957.133C7.11373 957.698 2.86678 963.06 3.40266 969.108Z" fill="white"/>
<path d="M2.86945 1040.11C3.40474 1046.16 8.51927 1050.6 14.2934 1050.04C20.067 1049.47 24.3139 1044.11 23.7781 1038.06C23.2428 1032.01 18.1282 1027.57 12.3541 1028.13C6.58052 1028.7 2.33358 1034.06 2.86945 1040.11Z" fill="#FFEB8D"/>
<path d="M23.5555 1082.26C24.1191 1088.31 29.4786 1092.76 35.5268 1092.2C41.5756 1091.63 46.0221 1086.27 45.4592 1080.23C44.8957 1074.18 39.5361 1069.73 33.4879 1070.29C27.4392 1070.86 22.9926 1076.22 23.5555 1082.26Z" fill="white"/>
<path d="M23.0204 1153.26C23.5839 1159.31 28.9435 1163.76 34.9916 1163.19C41.0404 1162.63 45.487 1157.27 44.9241 1151.22C44.3605 1145.17 39.0009 1140.73 32.9528 1141.29C26.904 1141.85 22.4574 1147.21 23.0204 1153.26Z" fill="white"/>
<path d="M22.4852 1224.26C23.0488 1230.31 28.4083 1234.76 34.4565 1234.19C40.5053 1233.63 44.9518 1228.27 44.3889 1222.22C43.8254 1216.17 38.4658 1211.73 32.4176 1212.29C26.3688 1212.85 21.9223 1218.21 22.4852 1224.26Z" fill="white"/>
<path d="M37.4188 1100.37C37.9824 1106.42 43.3419 1110.87 49.3907 1110.3C55.4389 1109.74 59.8854 1104.38 59.3225 1098.33C58.7596 1092.28 53.3994 1087.84 47.3512 1088.4C41.3024 1088.96 36.8559 1094.32 37.4188 1100.37Z" fill="white"/>
<path d="M36.8837 1171.37C37.4472 1177.41 42.8068 1181.86 48.8555 1181.3C54.9037 1180.74 59.3503 1175.38 58.7873 1169.33C58.2244 1163.28 52.8642 1158.83 46.8161 1159.39C40.7673 1159.96 36.3207 1165.32 36.8837 1171.37Z" fill="white"/>
<path d="M36.3505 1242.37C36.914 1248.41 42.2736 1252.86 48.3223 1252.3C54.3705 1251.74 58.8171 1246.38 58.2541 1240.33C57.6912 1234.28 52.331 1229.83 46.2829 1230.39C40.2341 1230.96 35.7875 1236.32 36.3505 1242.37Z" fill="white"/>
<path d="M24.2784 1119.23C24.8367 1125.28 29.9679 1129.75 35.7388 1129.2C41.5102 1128.66 45.7361 1123.32 45.1778 1117.27C44.619 1111.22 39.4877 1106.75 33.7169 1107.29C27.9454 1107.83 23.7195 1113.18 24.2784 1119.23Z" fill="white"/>
<path d="M23.7432 1190.23C24.3015 1196.28 29.4327 1200.74 35.2036 1200.2C40.9751 1199.66 45.2009 1194.31 44.6427 1188.26C44.0838 1182.21 38.9526 1177.75 33.1817 1178.29C27.4102 1178.83 23.1844 1184.18 23.7432 1190.23Z" fill="white"/>
<path d="M23.21 1261.22C23.7683 1267.27 28.8995 1271.74 34.6704 1271.2C40.4419 1270.65 44.6677 1265.31 44.1095 1259.26C43.5506 1253.21 38.4194 1248.74 32.6485 1249.29C26.877 1249.83 22.6512 1255.17 23.21 1261.22Z" fill="white"/>
<path d="M2.50279 1089.1C3.06634 1095.15 8.4259 1099.6 14.4741 1099.04C20.5229 1098.47 24.9694 1093.11 24.4065 1087.07C23.8429 1081.02 18.4834 1076.57 12.4352 1077.13C6.38642 1077.7 1.93987 1083.06 2.50279 1089.1Z" fill="white"/>
<path d="M1.96764 1160.1C2.53118 1166.15 7.89074 1170.6 13.9389 1170.04C19.9877 1169.47 24.4342 1164.11 23.8713 1158.07C23.3078 1152.02 17.9482 1147.57 11.9 1148.13C5.85126 1148.7 1.40471 1154.06 1.96764 1160.1Z" fill="white"/>
<path d="M1.43444 1231.1C1.99798 1237.15 7.35754 1241.6 13.4057 1241.03C19.4545 1240.47 23.901 1235.11 23.3381 1229.06C22.7746 1223.01 17.415 1218.57 11.3668 1219.13C5.31806 1219.69 0.871506 1225.05 1.43444 1231.1Z" fill="white"/>
<path d="M3.32649 1112.11C3.86178 1118.16 8.97631 1122.61 14.7505 1122.04C20.524 1121.47 24.771 1116.11 24.2351 1110.07C23.6998 1104.02 18.5853 1099.57 12.8111 1100.14C7.03756 1100.7 2.79061 1106.06 3.32649 1112.11Z" fill="white"/>
<path d="M2.79328 1183.11C3.32857 1189.16 8.4431 1193.61 14.2173 1193.04C19.9908 1192.47 24.2378 1187.11 23.7019 1181.07C23.1666 1175.02 18.0521 1170.57 12.2779 1171.14C6.50435 1171.7 2.25741 1177.06 2.79328 1183.11Z" fill="white"/>
<path d="M2.25813 1254.11C2.79342 1260.16 7.90795 1264.6 13.6821 1264.04C19.4557 1263.47 23.7026 1258.11 23.1667 1252.06C22.6315 1246.01 17.5169 1241.57 11.7428 1242.13C5.9692 1242.7 1.72225 1248.06 2.25813 1254.11Z" fill="white"/>
<path d="M22.9442 1296.26C23.5078 1302.31 28.8673 1306.76 34.9155 1306.2C40.9643 1305.63 45.4108 1300.27 44.8479 1294.23C44.2843 1288.18 38.9248 1283.73 32.8766 1284.29C26.8278 1284.86 22.3813 1290.22 22.9442 1296.26Z" fill="white"/>
<path d="M22.409 1367.26C22.9726 1373.31 28.3322 1377.76 34.3803 1377.2C40.4291 1376.63 44.8757 1371.27 44.3127 1365.23C43.7492 1359.18 38.3896 1354.73 32.3414 1355.29C26.2927 1355.86 21.8461 1361.22 22.409 1367.26Z" fill="white"/>
<path d="M36.8075 1314.37C37.371 1320.42 42.7306 1324.87 48.7794 1324.3C54.8275 1323.74 59.2741 1318.38 58.7112 1312.33C58.1482 1306.28 52.7881 1301.84 46.7399 1302.4C40.6911 1302.96 36.2446 1308.32 36.8075 1314.37Z" fill="white"/>
<path d="M36.2743 1385.37C36.8378 1391.41 42.1974 1395.86 48.2462 1395.3C54.2943 1394.74 58.7409 1389.38 58.178 1383.33C57.615 1377.28 52.2549 1372.83 46.2067 1373.39C40.1579 1373.96 35.7113 1379.32 36.2743 1385.37Z" fill="white"/>
<path d="M23.6671 1333.23C24.2253 1339.28 29.3566 1343.75 35.1274 1343.2C40.8989 1342.66 45.1247 1337.32 44.5665 1331.27C44.0076 1325.22 38.8764 1320.75 33.1055 1321.29C27.334 1321.83 23.1082 1327.18 23.6671 1333.23Z" fill="white"/>
<path d="M23.1339 1404.23C23.6921 1410.28 28.8234 1414.74 34.5942 1414.2C40.3657 1413.66 44.5915 1408.31 44.0333 1402.26C43.4744 1396.21 38.3432 1391.75 32.5723 1392.29C26.8008 1392.83 22.575 1398.18 23.1339 1404.23Z" fill="white"/>
<path d="M1.89147 1303.11C2.45501 1309.16 7.81457 1313.6 13.8627 1313.04C19.9115 1312.48 24.3581 1307.12 23.7951 1301.07C23.2316 1295.02 17.872 1290.57 11.8239 1291.14C5.77509 1291.7 1.32854 1297.06 1.89147 1303.11Z" fill="white"/>
<path d="M1.35826 1374.1C1.92181 1380.15 7.28137 1384.6 13.3295 1384.04C19.3783 1383.47 23.8249 1378.11 23.2619 1372.07C22.6984 1366.02 17.3388 1361.57 11.2907 1362.13C5.24189 1362.7 0.795334 1368.06 1.35826 1374.1Z" fill="white"/>
<path d="M2.71711 1326.11C3.2524 1332.16 8.36693 1336.61 14.1411 1336.04C19.9147 1335.47 24.1616 1330.11 23.6257 1324.07C23.0904 1318.02 17.9759 1313.57 12.2017 1314.14C6.42818 1314.7 2.18124 1320.06 2.71711 1326.11Z" fill="white"/>
<path d="M2.18195 1397.11C2.71724 1403.16 7.83177 1407.61 13.6059 1407.04C19.3795 1406.47 23.6264 1401.11 23.0906 1395.07C22.5553 1389.02 17.4407 1384.57 11.6666 1385.14C5.89302 1385.7 1.64608 1391.06 2.18195 1397.11Z" fill="white"/>
<path d="M21.9013 1445.12C22.5042 1451.17 27.8925 1455.58 33.9369 1454.98C39.9819 1454.37 44.3935 1448.99 43.7912 1442.94C43.1883 1436.9 37.7999 1432.48 31.7555 1433.09C25.7106 1433.69 21.299 1439.08 21.9013 1445.12Z" fill="#FEEC88"/>
<path d="M21.829 1516.12C22.4319 1522.17 27.8203 1526.58 33.8646 1525.98C39.9096 1525.37 44.3212 1519.99 43.7189 1513.94C43.116 1507.9 37.7277 1503.48 31.6833 1504.09C25.6383 1504.69 21.2267 1510.08 21.829 1516.12Z" fill="#FEEC88"/>
<path d="M21.7567 1587.12C22.3596 1593.17 27.748 1597.58 33.7924 1596.98C39.8374 1596.37 44.2489 1590.99 43.6467 1584.94C43.0438 1578.9 37.6554 1574.48 31.611 1575.09C25.566 1575.69 21.1544 1581.08 21.7567 1587.12Z" fill="white"/>
<path d="M35.8837 1463.14C36.4866 1469.18 41.875 1473.59 47.9199 1472.99C53.9643 1472.39 58.3759 1467 57.7736 1460.96C57.1713 1454.91 51.7823 1450.5 45.738 1451.1C39.693 1451.7 35.2814 1457.09 35.8837 1463.14Z" fill="#FEEC88"/>
<path d="M35.8114 1534.14C36.4143 1540.18 41.8027 1544.59 47.8477 1543.99C53.8921 1543.39 58.3036 1538 57.7014 1531.96C57.0991 1525.91 51.7101 1521.5 45.6657 1522.1C39.6207 1522.7 35.2091 1528.09 35.8114 1534.14Z" fill="#FEEC88"/>
<path d="M35.7391 1605.14C36.342 1611.18 41.7304 1615.59 47.7754 1614.99C53.8198 1614.39 58.2314 1609 57.6291 1602.96C57.0268 1596.91 51.6378 1592.5 45.5934 1593.1C39.5484 1593.7 35.1369 1599.09 35.7391 1605.14Z" fill="white"/>
<path d="M22.8661 1482.08C23.4637 1488.13 28.6239 1492.56 34.3911 1491.98C40.1589 1491.4 44.3499 1486.03 43.7523 1479.98C43.1541 1473.94 37.9939 1469.5 32.2266 1470.08C26.4588 1470.66 22.2678 1476.03 22.8661 1482.08Z" fill="#FEEC88"/>
<path d="M22.7938 1553.08C23.3914 1559.13 28.5516 1563.56 34.3188 1562.98C40.0867 1562.4 44.2776 1557.03 43.68 1550.98C43.0818 1544.94 37.9216 1540.5 32.1544 1541.08C26.3865 1541.66 22.1956 1547.03 22.7938 1553.08Z" fill="#FEEC88"/>
<path d="M22.7215 1624.08C23.3192 1630.13 28.4793 1634.56 34.2466 1633.98C40.0144 1633.4 44.2054 1628.03 43.6077 1621.98C43.0095 1615.94 37.8493 1611.5 32.0821 1612.08C26.3143 1612.66 22.1233 1618.03 22.7215 1624.08Z" fill="white"/>
<path d="M0.893444 1452.1C1.49634 1458.15 6.88472 1462.56 12.9291 1461.96C18.9741 1461.35 23.3857 1455.97 22.7834 1449.92C22.1805 1443.88 16.7921 1439.46 10.7477 1440.07C4.70274 1440.67 0.291163 1446.06 0.893444 1452.1Z" fill="#FEEC88"/>
<path d="M0.821178 1523.1C1.42408 1529.15 6.81246 1533.56 12.8568 1532.96C18.9018 1532.35 23.3134 1526.97 22.7111 1520.92C22.1082 1514.88 16.7198 1510.46 10.6755 1511.07C4.63047 1511.67 0.218897 1517.06 0.821178 1523.1Z" fill="#FEEC88"/>
<path d="M0.748913 1594.1C1.35181 1600.15 6.74019 1604.56 12.7846 1603.96C18.8296 1603.35 23.2411 1597.97 22.6389 1591.92C22.036 1585.88 16.6476 1581.46 10.6032 1582.07C4.55821 1582.67 0.146631 1588.06 0.748913 1594.1Z" fill="white"/>
<path d="M1.86755 1475.1C2.44219 1481.15 7.58554 1485.56 13.3559 1484.96C19.1257 1484.35 23.3376 1478.97 22.7624 1472.92C22.1878 1466.88 17.0444 1462.47 11.2741 1463.07C5.50429 1463.67 1.29233 1469.06 1.86755 1475.1Z" fill="#FEEC88"/>
<path d="M1.79529 1546.1C2.36992 1552.15 7.51327 1556.56 13.2836 1555.96C19.0534 1555.35 23.2654 1549.97 22.6901 1543.92C22.1155 1537.88 16.9721 1533.47 11.2018 1534.07C5.43203 1534.67 1.22006 1540.06 1.79529 1546.1Z" fill="#FEEC88"/>
<path d="M1.72302 1617.1C2.29766 1623.15 7.44101 1627.56 13.2114 1626.96C18.9811 1626.35 23.1931 1620.97 22.6179 1614.92C22.0432 1608.88 16.8999 1604.47 11.1295 1605.07C5.35976 1605.67 1.1478 1611.06 1.72302 1617.1Z" fill="white"/>
</svg>
