<svg width="67" height="1909" viewBox="0 0 67 1909" fill="none" xmlns="http://www.w3.org/2000/svg">
<path d="M28.6239 12.1248C29.2268 18.1691 34.6152 22.5811 40.6596 21.9787C46.7046 21.3763 51.1161 15.9875 50.5139 9.94262C49.911 3.89772 44.5226 -0.513633 38.4782 0.0887681C32.4332 0.691168 28.0216 6.07991 28.6239 12.1248Z" fill="white"/>
<path d="M28.5516 83.1248C29.1545 89.1691 34.5429 93.5811 40.5873 92.9787C46.6323 92.3763 51.0439 86.9875 50.4416 80.9426C49.8387 74.8977 44.4503 70.4864 38.4059 71.0888C32.3609 71.6912 27.9494 77.0799 28.5516 83.1248Z" fill="white"/>
<path d="M28.4794 154.125C29.0823 160.169 34.4707 164.581 40.515 163.979C46.56 163.376 50.9716 157.988 50.3693 151.943C49.7664 145.898 44.378 141.486 38.3337 142.089C32.2887 142.691 27.8771 148.08 28.4794 154.125Z" fill="white"/>
<path d="M42.6063 30.1379C43.2092 36.1828 48.5976 40.5947 54.6426 39.9923C60.687 39.3899 65.0986 34.0012 64.4963 27.9563C63.894 21.9114 58.505 17.5 52.4606 18.1024C46.4156 18.7048 42.0041 24.0936 42.6063 30.1379Z" fill="white"/>
<path d="M42.5341 101.138C43.137 107.183 48.5253 111.595 54.5703 110.992C60.6147 110.39 65.0263 105.001 64.424 98.9563C63.8217 92.9114 58.4327 88.5 52.3884 89.1024C46.3434 89.7048 41.9318 95.0936 42.5341 101.138Z" fill="white"/>
<path d="M42.4618 172.138C43.0647 178.183 48.4531 182.595 54.4981 181.992C60.5424 181.39 64.954 176.001 64.3517 169.956C63.7495 163.911 58.3605 159.5 52.3161 160.102C46.2711 160.705 41.8595 166.094 42.4618 172.138Z" fill="white"/>
<path d="M29.5887 49.0838C30.1863 55.1304 35.3465 59.5629 41.1138 58.9834C46.8816 58.4039 51.0725 53.0314 50.4749 46.9848C49.8767 40.9376 44.7165 36.5051 38.9493 37.0852C33.1815 37.6647 28.9905 43.0366 29.5887 49.0838Z" fill="white"/>
<path d="M29.5165 120.084C30.1141 126.13 35.2743 130.563 41.0415 129.983C46.8093 129.404 51.0003 124.031 50.4027 117.985C49.8044 111.938 44.6443 107.505 38.877 108.085C33.1092 108.665 28.9182 114.037 29.5165 120.084Z" fill="white"/>
<path d="M29.4442 191.084C30.0418 197.13 35.202 201.563 40.9692 200.983C46.7371 200.404 50.928 195.031 50.3304 188.985C49.7322 182.938 44.572 178.505 38.8048 179.085C33.0369 179.665 28.846 185.037 29.4442 191.084Z" fill="white"/>
<path d="M7.6161 19.1033C8.219 25.1482 13.6074 29.5596 19.6518 28.9572C25.6967 28.3548 30.1083 22.966 29.506 16.9218C28.9031 10.8769 23.5148 6.46488 17.4704 7.06728C11.4254 7.66968 7.01382 13.0584 7.6161 19.1033Z" fill="white"/>
<path d="M7.54384 90.1033C8.14673 96.1482 13.5351 100.56 19.5795 99.9572C25.6245 99.3548 30.0361 93.966 29.4338 87.9218C28.8309 81.8769 23.4425 77.4649 17.3981 78.0673C11.3531 78.6697 6.94155 84.0584 7.54384 90.1033Z" fill="white"/>
<path d="M7.47157 161.103C8.07447 167.148 13.4628 171.56 19.5072 170.957C25.5522 170.355 29.9638 164.966 29.3615 158.922C28.7586 152.877 23.3702 148.465 17.3259 149.067C11.2809 149.67 6.86929 155.058 7.47157 161.103Z" fill="white"/>
<path d="M8.59021 42.1043C9.16485 48.1486 14.3082 52.5603 20.0786 51.9576C25.8483 51.355 30.0603 45.966 29.4851 39.9211C28.9104 33.8769 23.7671 29.4652 17.9967 30.0678C12.2269 30.6705 8.01499 36.0595 8.59021 42.1043Z" fill="white"/>
<path d="M8.51794 113.104C9.09258 119.149 14.2359 123.56 20.0063 122.958C25.7761 122.355 29.988 116.966 29.4128 110.921C28.8382 104.877 23.6948 100.465 17.9244 101.068C12.1547 101.671 7.94272 107.059 8.51794 113.104Z" fill="white"/>
<path d="M8.44568 184.104C9.02031 190.149 14.1637 194.56 19.934 193.958C25.7038 193.355 29.9157 187.966 29.3405 181.921C28.7659 175.877 23.6225 171.465 17.8522 172.068C12.0824 172.671 7.87045 178.059 8.44568 184.104Z" fill="white"/>
<path d="M29.4071 226.125C30.01 232.169 35.3984 236.581 41.4428 235.979C47.4878 235.376 51.8993 229.988 51.2971 223.943C50.6942 217.898 45.3058 213.486 39.2614 214.089C33.2164 214.691 28.8048 220.08 29.4071 226.125Z" fill="white"/>
<path d="M29.3349 297.125C29.9377 303.169 35.3261 307.581 41.3705 306.979C47.4155 306.376 51.8271 300.988 51.2248 294.943C50.6219 288.898 45.2335 284.486 39.1891 285.089C33.1441 285.691 28.7326 291.08 29.3349 297.125Z" fill="white"/>
<path d="M29.2626 368.125C29.8655 374.169 35.2539 378.581 41.2982 377.979C47.3432 377.376 51.7548 371.988 51.1525 365.943C50.5496 359.898 45.1612 355.486 39.1169 356.089C33.0719 356.691 28.6603 362.08 29.2626 368.125Z" fill="white"/>
<path d="M43.3895 244.138C43.9924 250.183 49.3808 254.595 55.4258 253.992C61.4702 253.39 65.8818 248.001 65.2795 241.956C64.6772 235.911 59.2882 231.5 53.2438 232.102C47.1988 232.705 42.7873 238.094 43.3895 244.138Z" fill="white"/>
<path d="M43.3173 315.138C43.9202 321.183 49.3085 325.595 55.3535 324.992C61.3979 324.39 65.8095 319.001 65.2072 312.956C64.6049 306.911 59.2159 302.5 53.1716 303.102C47.1266 303.705 42.715 309.094 43.3173 315.138Z" fill="white"/>
<path d="M43.245 386.138C43.8479 392.183 49.2363 396.595 55.2813 395.992C61.3256 395.39 65.7372 390.001 65.1349 383.956C64.5327 377.911 59.1437 373.5 53.0993 374.102C47.0543 374.705 42.6427 380.094 43.245 386.138Z" fill="white"/>
<path d="M30.3719 263.084C30.9695 269.13 36.1297 273.563 41.897 272.983C47.6648 272.404 51.8557 267.031 51.2581 260.985C50.6599 254.938 45.4997 250.505 39.7325 251.085C33.9647 251.665 29.7737 257.037 30.3719 263.084Z" fill="white"/>
<path d="M30.2997 334.084C30.8973 340.13 36.0575 344.563 41.8247 343.983C47.5925 343.404 51.7835 338.031 51.1859 331.985C50.5876 325.938 45.4275 321.505 39.6602 322.085C33.8924 322.665 29.7014 328.037 30.2997 334.084Z" fill="white"/>
<path d="M30.2274 405.084C30.825 411.13 35.9852 415.563 41.7524 414.983C47.5203 414.404 51.7112 409.031 51.1136 402.985C50.5154 396.938 45.3552 392.505 39.588 393.085C33.8201 393.665 29.6292 399.037 30.2274 405.084Z" fill="white"/>
<path d="M8.3993 233.103C9.0022 239.148 14.3906 243.56 20.435 242.957C26.4799 242.355 30.8915 236.966 30.2892 230.922C29.6863 224.877 24.298 220.465 18.2536 221.067C12.2086 221.67 7.79702 227.058 8.3993 233.103Z" fill="white"/>
<path d="M8.32704 304.103C8.92993 310.148 14.3183 314.56 20.3627 313.957C26.4077 313.355 30.8193 307.966 30.217 301.922C29.6141 295.877 24.2257 291.465 18.1813 292.067C12.1363 292.67 7.72476 298.058 8.32704 304.103Z" fill="white"/>
<path d="M8.25477 375.103C8.85767 381.148 14.2461 385.56 20.2904 384.957C26.3354 384.355 30.747 378.966 30.1447 372.922C29.5418 366.877 24.1534 362.465 18.1091 363.067C12.0641 363.67 7.65249 369.058 8.25477 375.103Z" fill="white"/>
<path d="M9.37341 256.104C9.94805 262.149 15.0914 266.56 20.8618 265.958C26.6315 265.355 30.8435 259.966 30.2683 253.921C29.6936 247.877 24.5503 243.465 18.7799 244.068C13.0102 244.671 8.79819 250.059 9.37341 256.104Z" fill="white"/>
<path d="M9.30115 327.104C9.87578 333.149 15.0191 337.56 20.7895 336.958C26.5593 336.355 30.7712 330.966 30.196 324.921C29.6214 318.877 24.478 314.465 18.7077 315.068C12.9379 315.671 8.72592 321.059 9.30115 327.104Z" fill="white"/>
<path d="M9.22888 398.104C9.80352 404.149 14.9469 408.56 20.7172 407.958C26.487 407.355 30.699 401.966 30.1237 395.921C29.5491 389.877 24.4057 385.465 18.6354 386.068C12.8656 386.671 8.65366 392.059 9.22888 398.104Z" fill="white"/>
<path d="M30.1884 440.127C30.7913 446.171 36.1796 450.583 42.224 449.981C48.269 449.378 52.6806 443.989 52.0783 437.945C51.4754 431.9 46.087 427.488 40.0427 428.091C33.9977 428.693 29.5861 434.082 30.1884 440.127Z" fill="#FEEC88"/>
<path d="M30.1161 511.127C30.719 517.171 36.1074 521.583 42.1518 520.981C48.1967 520.378 52.6083 514.989 52.006 508.945C51.4031 502.9 46.0148 498.488 39.9704 499.091C33.9254 499.693 29.5138 505.082 30.1161 511.127Z" fill="white"/>
<path d="M30.0438 582.127C30.6467 588.171 36.0351 592.583 42.0795 591.981C48.1245 591.378 52.5361 585.989 51.9338 579.945C51.3309 573.9 45.9425 569.488 39.8981 570.091C33.8531 570.693 29.4416 576.082 30.0438 582.127Z" fill="white"/>
<path d="M44.1708 458.14C44.7737 464.185 50.1621 468.597 56.2071 467.994C62.2514 467.392 66.663 462.003 66.0607 455.958C65.4584 449.913 60.0695 445.502 54.0251 446.104C47.9801 446.707 43.5685 452.096 44.1708 458.14Z" fill="#FEEC88"/>
<path d="M44.0985 529.14C44.7014 535.185 50.0898 539.597 56.1348 538.994C62.1792 538.392 66.5907 533.003 65.9885 526.958C65.3862 520.913 59.9972 516.502 53.9528 517.104C47.9078 517.707 43.4962 523.096 44.0985 529.14Z" fill="white"/>
<path d="M44.0263 600.14C44.6292 606.185 50.0175 610.597 56.0625 609.994C62.1069 609.392 66.5185 604.003 65.9162 597.958C65.3139 591.913 59.9249 587.502 53.8805 588.104C47.8356 588.707 43.424 594.096 44.0263 600.14Z" fill="white"/>
<path d="M31.1532 477.086C31.7508 483.132 36.911 487.565 42.6782 486.985C48.446 486.406 52.637 481.033 52.0394 474.987C51.4412 468.94 46.281 464.507 40.5138 465.087C34.7459 465.667 30.555 471.039 31.1532 477.086Z" fill="#FEEC88"/>
<path d="M31.0809 548.086C31.6785 554.132 36.8387 558.565 42.6059 557.985C48.3738 557.406 52.5647 552.033 51.9671 545.987C51.3689 539.94 46.2087 535.507 40.4415 536.087C34.6736 536.667 30.4827 542.039 31.0809 548.086Z" fill="white"/>
<path d="M31.0086 619.086C31.6063 625.132 36.7664 629.565 42.5337 628.985C48.3015 628.406 52.4925 623.033 51.8949 616.987C51.2966 610.94 46.1364 606.507 40.3692 607.087C34.6014 607.667 30.4104 613.039 31.0086 619.086Z" fill="white"/>
<path d="M9.18055 447.105C9.78345 453.15 15.1718 457.562 21.2162 456.959C27.2612 456.357 31.6728 450.968 31.0705 444.924C30.4676 438.879 25.0792 434.467 19.0348 435.069C12.9898 435.672 8.57827 441.06 9.18055 447.105Z" fill="#FEEC88"/>
<path d="M9.10829 518.105C9.71118 524.15 15.0996 528.562 21.1439 527.959C27.1889 527.357 31.6005 521.968 30.9982 515.924C30.3953 509.879 25.0069 505.467 18.9626 506.069C12.9176 506.672 8.50601 512.06 9.10829 518.105Z" fill="white"/>
<path d="M9.03602 589.105C9.63892 595.15 15.0273 599.562 21.0717 598.959C27.1167 598.357 31.5282 592.968 30.926 586.924C30.3231 580.879 24.9347 576.467 18.8903 577.069C12.8453 577.672 8.43374 583.06 9.03602 589.105Z" fill="white"/>
<path d="M10.1547 470.106C10.7293 476.151 15.8726 480.562 21.643 479.96C27.4128 479.357 31.6247 473.968 31.0495 467.923C30.4749 461.879 25.3315 457.467 19.5612 458.07C13.7914 458.672 9.57944 464.061 10.1547 470.106Z" fill="#FEEC88"/>
<path d="M10.0824 541.106C10.657 547.151 15.8004 551.562 21.5707 550.96C27.3405 550.357 31.5525 544.968 30.9772 538.923C30.4026 532.879 25.2593 528.467 19.4889 529.07C13.7191 529.672 9.50717 535.061 10.0824 541.106Z" fill="white"/>
<path d="M10.0101 612.106C10.5848 618.151 15.7281 622.562 21.4985 621.96C27.2682 621.357 31.4802 615.968 30.905 609.923C30.3303 603.879 25.187 599.467 19.4166 600.07C13.6469 600.672 9.43491 606.061 10.0101 612.106Z" fill="white"/>
<path d="M28.8915 654.261C29.455 660.309 34.8146 664.756 40.8627 664.193C46.9115 663.63 51.3581 658.27 50.7951 652.221C50.2316 646.173 44.872 641.726 38.8239 642.289C32.7751 642.852 28.3285 648.212 28.8915 654.261Z" fill="white"/>
<path d="M28.3583 725.259C28.9218 731.307 34.2814 735.754 40.3295 735.191C46.3783 734.628 50.8249 729.268 50.2619 723.219C49.6984 717.171 44.3388 712.724 38.2907 713.287C32.2419 713.85 27.7953 719.21 28.3583 725.259Z" fill="white"/>
<path d="M27.8231 796.257C28.3867 802.305 33.7462 806.752 39.7944 806.189C45.8432 805.626 50.2897 800.266 49.7268 794.217C49.1632 788.169 43.8037 783.722 37.7555 784.285C31.7067 784.848 27.2602 790.208 27.8231 796.257Z" fill="white"/>
<path d="M42.7567 672.366C43.3202 678.415 48.6798 682.861 54.7286 682.298C60.7768 681.735 65.2233 676.375 64.6604 670.327C64.0975 664.278 58.7373 659.832 52.6891 660.395C46.6403 660.958 42.1938 666.318 42.7567 672.366Z" fill="white"/>
<path d="M42.2215 743.364C42.7851 749.413 48.1446 753.86 54.1934 753.296C60.2416 752.733 64.6882 747.373 64.1252 741.325C63.5623 735.276 58.2021 730.83 52.154 731.393C46.1052 731.956 41.6586 737.316 42.2215 743.364Z" fill="white"/>
<path d="M41.6864 814.362C42.2499 820.411 47.6095 824.858 53.6583 824.295C59.7064 823.731 64.153 818.372 63.5901 812.323C63.0271 806.274 57.667 801.828 51.6188 802.391C45.57 802.954 41.1235 808.314 41.6864 814.362Z" fill="white"/>
<path d="M29.6163 691.226C30.1745 697.277 35.3058 701.743 41.0767 701.201C46.8481 700.659 51.074 695.314 50.5157 689.263C49.9569 683.212 44.8256 678.746 39.0547 679.289C33.2833 679.831 29.0574 685.176 29.6163 691.226Z" fill="white"/>
<path d="M29.0811 762.223C29.6394 768.273 34.7706 772.739 40.5415 772.197C46.313 771.655 50.5388 766.31 49.9806 760.26C49.4217 754.209 44.2905 749.743 38.5196 750.285C32.7481 750.827 28.5223 756.172 29.0811 762.223Z" fill="white"/>
<path d="M28.546 833.221C29.1042 839.271 34.2355 843.737 40.0063 843.195C45.7778 842.653 50.0037 837.308 49.4454 831.258C48.8865 825.207 43.7553 820.741 37.9844 821.283C32.213 821.825 27.9871 827.17 28.546 833.221Z" fill="white"/>
<path d="M7.84069 661.103C8.40423 667.151 13.7638 671.598 19.812 671.035C25.8607 670.472 30.3073 665.112 29.7444 659.064C29.1808 653.015 23.8213 648.568 17.7731 649.131C11.7243 649.694 7.27776 655.054 7.84069 661.103Z" fill="white"/>
<path d="M7.30553 732.101C7.86907 738.15 13.2286 742.596 19.2768 742.033C25.3256 741.47 29.7721 736.11 29.2092 730.062C28.6457 724.013 23.2861 719.566 17.2379 720.129C11.1892 720.692 6.7426 726.052 7.30553 732.101Z" fill="white"/>
<path d="M6.77037 803.099C7.33392 809.148 12.6935 813.594 18.7416 813.031C24.7904 812.468 29.237 807.108 28.674 801.06C28.1105 795.011 22.7509 790.564 16.7028 791.127C10.654 791.69 6.20744 797.05 6.77037 803.099Z" fill="white"/>
<path d="M8.66438 684.11C9.19967 690.158 14.3142 694.603 20.0884 694.038C25.8619 693.473 30.1089 688.112 29.573 682.063C29.0377 676.015 23.9232 671.57 18.149 672.135C12.3754 672.7 8.1285 678.062 8.66438 684.11Z" fill="white"/>
<path d="M8.12922 755.108C8.66451 761.156 13.779 765.601 19.5532 765.036C25.3268 764.471 29.5737 759.11 29.0378 753.061C28.5025 747.013 23.388 742.568 17.6139 743.133C11.8403 743.698 7.59335 749.06 8.12922 755.108Z" fill="white"/>
<path d="M7.59602 826.106C8.13131 832.154 13.2458 836.599 19.02 836.034C24.7936 835.469 29.0405 830.108 28.5046 824.059C27.9693 818.011 22.8548 813.566 17.0807 814.131C11.3071 814.696 7.06014 820.058 7.59602 826.106Z" fill="white"/>
<path d="M28.2801 868.263C28.8437 874.311 34.2032 878.758 40.2514 878.195C46.3002 877.632 50.7467 872.272 50.1838 866.223C49.6203 860.175 44.2607 855.728 38.2125 856.291C32.1638 856.854 27.7172 862.214 28.2801 868.263Z" fill="white"/>
<path d="M27.7469 939.261C28.3105 945.309 33.67 949.756 39.7182 949.193C45.767 948.63 50.2135 943.27 49.6506 937.221C49.0871 931.173 43.7275 926.726 37.6793 927.289C31.6306 927.852 27.184 933.212 27.7469 939.261Z" fill="white"/>
<path d="M27.2118 1010.26C27.7753 1016.31 33.1349 1020.75 39.1831 1020.19C45.2318 1019.63 49.6784 1014.27 49.1155 1008.22C48.5519 1002.17 43.1924 997.724 37.1442 998.287C31.0954 998.85 26.6489 1004.21 27.2118 1010.26Z" fill="white"/>
<path d="M42.1454 886.368C42.7089 892.416 48.0685 896.863 54.1173 896.3C60.1654 895.737 64.612 890.377 64.0491 884.329C63.4861 878.28 58.1259 873.834 52.0778 874.397C46.029 874.96 41.5824 880.32 42.1454 886.368Z" fill="white"/>
<path d="M41.6102 957.366C42.1738 963.415 47.5333 967.861 53.5821 967.298C59.6303 966.735 64.0768 961.375 63.5139 955.327C62.951 949.278 57.5908 944.832 51.5426 945.395C45.4938 945.958 41.0473 951.318 41.6102 957.366Z" fill="white"/>
<path d="M41.0751 1028.36C41.6386 1034.41 46.9982 1038.86 53.0469 1038.3C59.0951 1037.73 63.5417 1032.37 62.9787 1026.32C62.4158 1020.28 57.0556 1015.83 51.0075 1016.39C44.9587 1016.96 40.5121 1022.32 41.0751 1028.36Z" fill="white"/>
<path d="M29.005 905.228C29.5632 911.279 34.6944 915.745 40.4653 915.203C46.2368 914.661 50.4626 909.316 49.9044 903.265C49.3455 897.214 44.2143 892.748 38.4434 893.291C32.6719 893.833 28.4461 899.177 29.005 905.228Z" fill="white"/>
<path d="M28.4698 976.225C29.0281 982.275 34.1593 986.741 39.9302 986.199C45.7017 985.657 49.9275 980.312 49.3692 974.261C48.8104 968.211 43.6791 963.745 37.9083 964.287C32.1368 964.829 27.911 970.174 28.4698 976.225Z" fill="white"/>
<path d="M27.9347 1047.22C28.4929 1053.27 33.6241 1057.74 39.395 1057.2C45.1665 1056.65 49.3923 1051.31 48.8341 1045.26C48.2752 1039.21 43.144 1034.74 37.3731 1035.29C31.6016 1035.83 27.3758 1041.17 27.9347 1047.22Z" fill="white"/>
<path d="M7.22936 875.105C7.7929 881.153 13.1525 885.6 19.2006 885.037C25.2494 884.474 29.696 879.114 29.133 873.066C28.5695 867.017 23.2099 862.57 17.1618 863.133C11.113 863.696 6.66643 869.056 7.22936 875.105Z" fill="white"/>
<path d="M6.6942 946.103C7.25775 952.151 12.6173 956.598 18.6655 956.035C24.7143 955.472 29.1608 950.112 28.5979 944.064C28.0343 938.015 22.6748 933.568 16.6266 934.131C10.5778 934.694 6.13127 940.054 6.6942 946.103Z" fill="white"/>
<path d="M6.15905 1017.1C6.72259 1023.15 12.0822 1027.6 18.1303 1027.03C24.1791 1026.47 28.6257 1021.11 28.0627 1015.06C27.4992 1009.01 22.1396 1004.57 16.0914 1005.13C10.0427 1005.69 5.59612 1011.05 6.15905 1017.1Z" fill="white"/>
<path d="M8.05305 898.112C8.58834 904.16 13.7029 908.605 19.477 908.04C25.2506 907.475 29.4975 902.114 28.9617 896.065C28.4264 890.017 23.3118 885.572 17.5377 886.137C11.7641 886.702 7.51718 892.064 8.05305 898.112Z" fill="white"/>
<path d="M7.51789 969.11C8.05318 975.158 13.1677 979.603 18.9419 979.038C24.7154 978.473 28.9624 973.112 28.4265 967.063C27.8912 961.015 22.7767 956.57 17.0025 957.135C11.229 957.7 6.98202 963.062 7.51789 969.11Z" fill="white"/>
<path d="M6.98469 1040.11C7.51998 1046.16 12.6345 1050.6 18.4087 1050.04C24.1822 1049.47 28.4292 1044.11 27.8933 1038.06C27.358 1032.01 22.2435 1027.57 16.4693 1028.13C10.6958 1028.7 6.44882 1034.06 6.98469 1040.11Z" fill="white"/>
<path d="M27.6708 1082.26C28.2343 1088.31 33.5939 1092.76 39.642 1092.2C45.6908 1091.63 50.1374 1086.27 49.5744 1080.23C49.0109 1074.18 43.6513 1069.73 37.6032 1070.29C31.5544 1070.86 27.1078 1076.22 27.6708 1082.26Z" fill="white"/>
<path d="M27.1376 1153.26C27.7011 1159.31 33.0607 1163.76 39.1088 1163.19C45.1576 1162.63 49.6042 1157.27 49.0412 1151.22C48.4777 1145.17 43.1181 1140.73 37.07 1141.29C31.0212 1141.85 26.5746 1147.21 27.1376 1153.26Z" fill="white"/>
<path d="M41.536 1100.37C42.0995 1106.42 47.4591 1110.87 53.5079 1110.3C59.5561 1109.74 64.0026 1104.38 63.4397 1098.33C62.8767 1092.28 57.5166 1087.84 51.4684 1088.4C45.4196 1088.96 40.9731 1094.32 41.536 1100.37Z" fill="white"/>
<path d="M41.0008 1171.37C41.5644 1177.42 46.9239 1181.86 52.9727 1181.3C59.0209 1180.74 63.4674 1175.38 62.9045 1169.33C62.3416 1163.28 56.9814 1158.83 50.9332 1159.4C44.8845 1159.96 40.4379 1165.32 41.0008 1171.37Z" fill="white"/>
<path d="M28.3956 1119.23C28.9538 1125.28 34.0851 1129.75 39.8559 1129.2C45.6274 1128.66 49.8533 1123.32 49.295 1117.27C48.7362 1111.22 43.6049 1106.75 37.834 1107.29C32.0626 1107.83 27.8367 1113.18 28.3956 1119.23Z" fill="white"/>
<path d="M27.8604 1190.23C28.4187 1196.28 33.5499 1200.74 39.3208 1200.2C45.0923 1199.66 49.3181 1194.31 48.7599 1188.26C48.201 1182.21 43.0698 1177.75 37.2989 1178.29C31.5274 1178.83 27.3016 1184.18 27.8604 1190.23Z" fill="white"/>
<path d="M6.61998 1089.11C7.18353 1095.16 12.5431 1099.6 18.5913 1099.04C24.64 1098.48 29.0866 1093.12 28.5237 1087.07C27.9601 1081.02 22.6006 1076.57 16.5524 1077.14C10.5036 1077.7 6.05705 1083.06 6.61998 1089.11Z" fill="white"/>
<path d="M6.08483 1160.1C6.64837 1166.15 12.0079 1170.6 18.0561 1170.04C24.1049 1169.47 28.5514 1164.11 27.9885 1158.07C27.425 1152.02 22.0654 1147.57 16.0172 1148.13C9.96845 1148.7 5.5219 1154.06 6.08483 1160.1Z" fill="white"/>
<path d="M7.44367 1112.11C7.97896 1118.16 13.0935 1122.61 18.8676 1122.04C24.6412 1121.48 28.8882 1116.12 28.3523 1110.07C27.817 1104.02 22.7025 1099.57 16.9283 1100.14C11.1547 1100.7 6.9078 1106.07 7.44367 1112.11Z" fill="white"/>
<path d="M6.90852 1183.11C7.44381 1189.16 12.5583 1193.61 18.3325 1193.04C24.1061 1192.47 28.353 1187.11 27.8171 1181.07C27.2818 1175.02 22.1673 1170.57 16.3932 1171.14C10.6196 1171.7 6.37264 1177.06 6.90852 1183.11Z" fill="white"/>
<path d="M25.1649 1224.3C25.7285 1230.34 31.088 1234.79 37.1362 1234.23C43.185 1233.67 47.6315 1228.31 47.0686 1222.26C46.505 1216.21 41.1455 1211.76 35.0973 1212.32C29.0485 1212.89 24.602 1218.25 25.1649 1224.3Z" fill="#EDF399"/>
<path d="M24.6317 1295.29C25.1953 1301.34 30.5548 1305.79 36.603 1305.23C42.6518 1304.66 47.0983 1299.3 46.5354 1293.25C45.9718 1287.21 40.6123 1282.76 34.5641 1283.32C28.5153 1283.89 24.0688 1289.25 24.6317 1295.29Z" fill="#EDF399"/>
<path d="M24.0965 1366.29C24.6601 1372.34 30.0197 1376.79 36.0678 1376.22C42.1166 1375.66 46.5632 1370.3 46.0002 1364.25C45.4367 1358.2 40.0771 1353.76 34.0289 1354.32C27.9802 1354.88 23.5336 1360.24 24.0965 1366.29Z" fill="#EDF399"/>
<path d="M39.0301 1242.4C39.5937 1248.45 44.9532 1252.9 51.002 1252.33C57.0502 1251.77 61.4967 1246.41 60.9338 1240.36C60.3709 1234.31 55.0107 1229.87 48.9625 1230.43C42.9138 1230.99 38.4672 1236.35 39.0301 1242.4Z" fill="#EDF399"/>
<path d="M38.495 1313.4C39.0585 1319.45 44.4181 1323.89 50.4669 1323.33C56.515 1322.77 60.9616 1317.41 60.3987 1311.36C59.8357 1305.31 54.4756 1300.86 48.4274 1301.43C42.3786 1301.99 37.9321 1307.35 38.495 1313.4Z" fill="#EDF399"/>
<path d="M37.9598 1384.4C38.5234 1390.45 43.8829 1394.89 49.9317 1394.33C55.9799 1393.77 60.4264 1388.41 59.8635 1382.36C59.3006 1376.31 53.9404 1371.86 47.8922 1372.43C41.8435 1372.99 37.3969 1378.35 37.9598 1384.4Z" fill="#EDF399"/>
<path d="M25.8897 1261.26C26.448 1267.31 31.5792 1271.78 37.3501 1271.24C43.1216 1270.69 47.3474 1265.35 46.7892 1259.3C46.2303 1253.25 41.0991 1248.78 35.3282 1249.32C29.5567 1249.87 25.3309 1255.21 25.8897 1261.26Z" fill="#EDF399"/>
<path d="M25.3546 1332.26C25.9128 1338.31 31.0441 1342.77 36.8149 1342.23C42.5864 1341.69 46.8122 1336.35 46.254 1330.29C45.6951 1324.24 40.5639 1319.78 34.793 1320.32C29.0215 1320.86 24.7957 1326.21 25.3546 1332.26Z" fill="#EDF399"/>
<path d="M24.8194 1403.26C25.3777 1409.31 30.5089 1413.77 36.2798 1413.23C42.0513 1412.69 46.2771 1407.34 45.7188 1401.29C45.16 1395.24 40.0288 1390.78 34.2579 1391.32C28.4864 1391.86 24.2606 1397.2 24.8194 1403.26Z" fill="#EDF399"/>
<path d="M4.11412 1231.14C4.67767 1237.19 10.0372 1241.63 16.0854 1241.07C22.1342 1240.51 26.5807 1235.15 26.0178 1229.1C25.4543 1223.05 20.0947 1218.6 14.0465 1219.17C7.99775 1219.73 3.55119 1225.09 4.11412 1231.14Z" fill="#EDF399"/>
<path d="M3.57897 1302.14C4.14251 1308.18 9.50207 1312.63 15.5502 1312.07C21.599 1311.5 26.0456 1306.14 25.4826 1300.1C24.9191 1294.05 19.5595 1289.6 13.5114 1290.16C7.46259 1290.73 3.01604 1296.09 3.57897 1302.14Z" fill="#EDF399"/>
<path d="M3.04381 1373.13C3.60736 1379.18 8.96692 1383.63 15.0151 1383.07C21.0639 1382.5 25.5104 1377.14 24.9475 1371.09C24.3839 1365.05 19.0244 1360.6 12.9762 1361.16C6.92743 1361.73 2.48088 1367.09 3.04381 1373.13Z" fill="#EDF399"/>
<path d="M4.93781 1254.15C5.4731 1260.19 10.5876 1264.64 16.3618 1264.07C22.1354 1263.51 26.3823 1258.15 25.8464 1252.1C25.3111 1246.05 20.1966 1241.61 14.4225 1242.17C8.64888 1242.74 4.40194 1248.1 4.93781 1254.15Z" fill="#EDF399"/>
<path d="M4.40266 1325.14C4.93795 1331.19 10.0525 1335.64 15.8266 1335.07C21.6002 1334.51 25.8471 1329.14 25.3113 1323.1C24.776 1317.05 19.6615 1312.6 13.8873 1313.17C8.11373 1313.73 3.86679 1319.09 4.40266 1325.14Z" fill="#EDF399"/>
<path d="M3.86945 1396.14C4.40474 1402.19 9.51927 1406.63 15.2934 1406.07C21.067 1405.5 25.3139 1400.14 24.7781 1394.09C24.2428 1388.05 19.1282 1383.6 13.3541 1384.17C7.58052 1384.73 3.33358 1390.09 3.86945 1396.14Z" fill="#EDF399"/>
<path d="M24.5536 1438.3C25.1171 1444.35 30.4767 1448.79 36.5248 1448.23C42.5736 1447.67 47.0202 1442.31 46.4573 1436.26C45.8937 1430.21 40.5341 1425.76 34.486 1426.33C28.4372 1426.89 23.9906 1432.25 24.5536 1438.3Z" fill="white"/>
<path d="M24.0204 1509.3C24.5839 1515.34 29.9435 1519.79 35.9916 1519.23C42.0404 1518.67 46.487 1513.31 45.9241 1507.26C45.3605 1501.21 40.0009 1496.76 33.9528 1497.32C27.904 1497.89 23.4574 1503.25 24.0204 1509.3Z" fill="white"/>
<path d="M23.4852 1580.29C24.0488 1586.34 29.4083 1590.79 35.4565 1590.23C41.5053 1589.66 45.9518 1584.3 45.3889 1578.25C44.8254 1572.21 39.4658 1567.76 33.4176 1568.32C27.3688 1568.89 22.9223 1574.25 23.4852 1580.29Z" fill="white"/>
<path d="M38.4188 1456.4C38.9824 1462.45 44.3419 1466.9 50.3907 1466.34C56.4389 1465.77 60.8854 1460.41 60.3225 1454.36C59.7596 1448.32 54.3994 1443.87 48.3512 1444.43C42.3024 1444.99 37.8559 1450.35 38.4188 1456.4Z" fill="white"/>
<path d="M37.8837 1527.4C38.4472 1533.45 43.8068 1537.9 49.8555 1537.33C55.9037 1536.77 60.3503 1531.41 59.7873 1525.36C59.2244 1519.31 53.8642 1514.87 47.8161 1515.43C41.7673 1515.99 37.3207 1521.35 37.8837 1527.4Z" fill="white"/>
<path d="M37.3485 1598.4C37.912 1604.45 43.2716 1608.89 49.3204 1608.33C55.3686 1607.77 59.8151 1602.41 59.2522 1596.36C58.6892 1590.31 53.3291 1585.86 47.2809 1586.43C41.2321 1586.99 36.7856 1592.35 37.3485 1598.4Z" fill="white"/>
<path d="M25.2784 1475.26C25.8367 1481.31 30.9679 1485.78 36.7388 1485.24C42.5102 1484.7 46.7361 1479.35 46.1778 1473.3C45.619 1467.25 40.4877 1462.78 34.7169 1463.33C28.9454 1463.87 24.7195 1469.21 25.2784 1475.26Z" fill="white"/>
<path d="M24.7432 1546.26C25.3015 1552.31 30.4327 1556.78 36.2036 1556.23C41.9751 1555.69 46.2009 1550.35 45.6427 1544.3C45.0838 1538.25 39.9526 1533.78 34.1817 1534.32C28.4102 1534.86 24.1844 1540.21 24.7432 1546.26Z" fill="white"/>
<path d="M24.2081 1617.26C24.7663 1623.31 29.8976 1627.77 35.6684 1627.23C41.4399 1626.69 45.6658 1621.35 45.1075 1615.29C44.5487 1609.24 39.4174 1604.78 33.6465 1605.32C27.8751 1605.86 23.6492 1611.21 24.2081 1617.26Z" fill="white"/>
<path d="M3.5028 1445.14C4.06634 1451.19 9.4259 1455.63 15.4741 1455.07C21.5229 1454.51 25.9694 1449.15 25.4065 1443.1C24.8429 1437.05 19.4834 1432.61 13.4352 1433.17C7.38642 1433.73 2.93987 1439.09 3.5028 1445.14Z" fill="white"/>
<path d="M2.96764 1516.14C3.53118 1522.19 8.89074 1526.63 14.9389 1526.07C20.9877 1525.51 25.4342 1520.15 24.8713 1514.1C24.3078 1508.05 18.9482 1503.6 12.9 1504.17C6.85126 1504.73 2.40471 1510.09 2.96764 1516.14Z" fill="white"/>
<path d="M2.43248 1587.14C2.99603 1593.18 8.35559 1597.63 14.4038 1597.07C20.4525 1596.5 24.8991 1591.14 24.3362 1585.1C23.7726 1579.05 18.4131 1574.6 12.3649 1575.16C6.31611 1575.73 1.86955 1581.09 2.43248 1587.14Z" fill="white"/>
<path d="M4.32649 1468.15C4.86177 1474.2 9.97631 1478.64 15.7505 1478.08C21.524 1477.51 25.771 1472.15 25.2351 1466.1C24.6998 1460.05 19.5853 1455.61 13.8111 1456.17C8.03756 1456.74 3.79061 1462.1 4.32649 1468.15Z" fill="white"/>
<path d="M3.79133 1539.15C4.32662 1545.19 9.44115 1549.64 15.2153 1549.07C20.9889 1548.51 25.2358 1543.15 24.6999 1537.1C24.1647 1531.05 19.0501 1526.61 13.276 1527.17C7.5024 1527.74 3.25546 1533.1 3.79133 1539.15Z" fill="white"/>
<path d="M3.25813 1610.14C3.79342 1616.19 8.90795 1620.64 14.6821 1620.07C20.4557 1619.51 24.7026 1614.14 24.1667 1608.1C23.6315 1602.05 18.5169 1597.6 12.7428 1598.17C6.9692 1598.73 2.72225 1604.09 3.25813 1610.14Z" fill="white"/>
<path d="M23.9442 1652.3C24.5078 1658.35 29.8673 1662.8 35.9155 1662.23C41.9643 1661.67 46.4108 1656.31 45.8479 1650.26C45.2843 1644.21 39.9248 1639.77 33.8766 1640.33C27.8278 1640.89 23.3813 1646.25 23.9442 1652.3Z" fill="white"/>
<path d="M23.411 1723.3C23.9745 1729.35 29.3341 1733.79 35.3823 1733.23C41.4311 1732.67 45.8776 1727.31 45.3147 1721.26C44.7511 1715.21 39.3916 1710.76 33.3434 1711.33C27.2946 1711.89 22.8481 1717.25 23.411 1723.3Z" fill="white"/>
<path d="M37.8094 1670.4C38.373 1676.45 43.7325 1680.9 49.7813 1680.34C55.8295 1679.77 60.276 1674.41 59.7131 1668.37C59.1502 1662.32 53.79 1657.87 47.7418 1658.43C41.6931 1659 37.2465 1664.36 37.8094 1670.4Z" fill="white"/>
<path d="M37.2743 1741.4C37.8378 1747.45 43.1974 1751.9 49.2462 1751.34C55.2943 1750.77 59.7409 1745.41 59.178 1739.36C58.615 1733.32 53.2549 1728.87 47.2067 1729.43C41.1579 1729.99 36.7113 1735.35 37.2743 1741.4Z" fill="white"/>
<path d="M24.669 1689.27C25.2273 1695.32 30.3585 1699.78 36.1294 1699.24C41.9009 1698.7 46.1267 1693.35 45.5684 1687.3C45.0096 1681.25 39.8784 1676.79 34.1075 1677.33C28.336 1677.87 24.1102 1683.21 24.669 1689.27Z" fill="white"/>
<path d="M24.1339 1760.26C24.6921 1766.31 29.8234 1770.78 35.5942 1770.24C41.3657 1769.69 45.5915 1764.35 45.0333 1758.3C44.4744 1752.25 39.3432 1747.78 33.5723 1748.32C27.8008 1748.87 23.575 1754.21 24.1339 1760.26Z" fill="white"/>
<path d="M2.89342 1659.14C3.45696 1665.19 8.81653 1669.64 14.8647 1669.07C20.9135 1668.51 25.36 1663.15 24.7971 1657.1C24.2335 1651.05 18.874 1646.61 12.8258 1647.17C6.77704 1647.73 2.33049 1653.09 2.89342 1659.14Z" fill="white"/>
<path d="M2.35826 1730.14C2.92181 1736.19 8.28137 1740.63 14.3295 1740.07C20.3783 1739.51 24.8249 1734.15 24.2619 1728.1C23.6984 1722.05 18.3388 1717.61 12.2907 1718.17C6.24189 1718.73 1.79534 1724.09 2.35826 1730.14Z" fill="white"/>
<path d="M3.71711 1682.15C4.2524 1688.2 9.36693 1692.64 15.1411 1692.08C20.9147 1691.51 25.1616 1686.15 24.6257 1680.1C24.0904 1674.05 18.9759 1669.61 13.2017 1670.17C7.42818 1670.74 3.18124 1676.1 3.71711 1682.15Z" fill="white"/>
<path d="M3.18195 1753.15C3.71724 1759.2 8.83177 1763.64 14.6059 1763.08C20.3795 1762.51 24.6264 1757.15 24.0906 1751.1C23.5553 1745.05 18.4407 1740.61 12.6666 1741.17C6.89302 1741.74 2.64608 1747.1 3.18195 1753.15Z" fill="white"/>
<path d="M25.9422 1790.26C26.5058 1796.31 31.8654 1800.76 37.9135 1800.19C43.9623 1799.63 48.4089 1794.27 47.8459 1788.22C47.2824 1782.17 41.9228 1777.73 35.8747 1778.29C29.8259 1778.85 25.3793 1784.21 25.9422 1790.26Z" fill="white"/>
<path d="M25.409 1861.26C25.9726 1867.31 31.3322 1871.75 37.3803 1871.19C43.4291 1870.63 47.8757 1865.27 47.3127 1859.22C46.7492 1853.17 41.3896 1848.72 35.3414 1849.29C29.2927 1849.85 24.8461 1855.21 25.409 1861.26Z" fill="white"/>
<path d="M39.8075 1808.37C40.371 1814.41 45.7306 1818.86 51.7794 1818.3C57.8275 1817.74 62.2741 1812.38 61.7112 1806.33C61.1482 1800.28 55.7881 1795.83 49.7399 1796.39C43.6911 1796.96 39.2446 1802.32 39.8075 1808.37Z" fill="white"/>
<path d="M39.2723 1879.36C39.8359 1885.41 45.1954 1889.86 51.2442 1889.3C57.2924 1888.73 61.7389 1883.37 61.176 1877.32C60.6131 1871.28 55.2529 1866.83 49.2047 1867.39C43.156 1867.96 38.7094 1873.32 39.2723 1879.36Z" fill="white"/>
<path d="M26.6671 1827.23C27.2253 1833.28 32.3566 1837.74 38.1274 1837.2C43.8989 1836.66 48.1247 1831.31 47.5665 1825.26C47.0076 1819.21 41.8764 1814.75 36.1055 1815.29C30.334 1815.83 26.1082 1821.18 26.6671 1827.23Z" fill="white"/>
<path d="M26.1319 1898.22C26.6902 1904.27 31.8214 1908.74 37.5923 1908.2C43.3638 1907.65 47.5896 1902.31 47.0313 1896.26C46.4725 1890.21 41.3413 1885.74 35.5704 1886.29C29.7989 1886.83 25.5731 1892.17 26.1319 1898.22Z" fill="white"/>
<path d="M4.89147 1797.1C5.45501 1803.15 10.8146 1807.6 16.8627 1807.03C22.9115 1806.47 27.3581 1801.11 26.7951 1795.06C26.2316 1789.01 20.872 1784.57 14.8239 1785.13C8.77509 1785.69 4.32854 1791.05 4.89147 1797.1Z" fill="white"/>
<path d="M4.35631 1868.1C4.91986 1874.15 10.2794 1878.6 16.3276 1878.03C22.3764 1877.47 26.8229 1872.11 26.26 1866.06C25.6964 1860.01 20.3369 1855.57 14.2887 1856.13C8.23993 1856.69 3.79338 1862.05 4.35631 1868.1Z" fill="white"/>
<path d="M5.71516 1820.11C6.25045 1826.16 11.365 1830.6 17.1391 1830.04C22.9127 1829.47 27.1596 1824.11 26.6238 1818.06C26.0885 1812.02 20.974 1807.57 15.1998 1808.14C9.42623 1808.7 5.17929 1814.06 5.71516 1820.11Z" fill="white"/>
<path d="M5.18 1891.11C5.71529 1897.16 10.8298 1901.6 16.604 1901.04C22.3775 1900.47 26.6245 1895.11 26.0886 1889.06C25.5533 1883.01 20.4388 1878.57 14.6646 1879.13C8.89107 1879.7 4.64413 1885.06 5.18 1891.11Z" fill="white"/>
</svg>
