<svg width="282" height="307" viewBox="0 0 282 307" fill="none" xmlns="http://www.w3.org/2000/svg">
<ellipse cx="21.0855" cy="21.1783" rx="21.0855" ry="21.1783" transform="matrix(-0.675143 0.737687 -0.761054 -0.648688 60.707 27.4766)" fill="#EDF399"/>
<ellipse cx="21.0855" cy="21.1783" rx="21.0855" ry="21.1783" transform="matrix(-0.675143 0.737687 -0.761054 -0.648688 68.0195 73.5508)" fill="#EDF399"/>
<ellipse cx="21.0855" cy="21.1783" rx="21.0855" ry="21.1783" transform="matrix(-0.675143 0.737687 -0.761054 -0.648688 113.611 85.1719)" fill="#9D96F1"/>
<ellipse cx="21.0855" cy="21.1783" rx="21.0855" ry="21.1783" transform="matrix(-0.675143 0.737687 -0.761054 -0.648688 106.729 132.076)" fill="#9D96F1"/>
<ellipse cx="21.0855" cy="21.1783" rx="21.0855" ry="21.1783" transform="matrix(-0.675143 0.737687 -0.761054 -0.648688 182.43 127.094)" fill="#9D96F1"/>
<ellipse cx="20.9247" cy="21.3372" rx="20.9247" ry="21.3372" transform="matrix(0.488074 -0.872802 0.886928 0.461908 87.2695 185.539)" fill="#9D96F1"/>
<ellipse cx="21.0974" cy="21.1665" rx="21.0974" ry="21.1665" transform="matrix(-0.686846 -0.726803 0.75067 -0.660677 174.359 207.648)" fill="#9D96F1"/>
<ellipse cx="21.0855" cy="21.1783" rx="21.0855" ry="21.1783" transform="matrix(-0.675143 0.737687 -0.761054 -0.648688 223.719 97.625)" fill="#9D96F1"/>
<ellipse cx="20.9247" cy="21.3372" rx="20.9247" ry="21.3372" transform="matrix(0.488074 -0.872802 0.886928 0.461908 53.9727 223.271)" fill="#9D96F1"/>
<ellipse cx="21.0974" cy="21.1665" rx="21.0974" ry="21.1665" transform="matrix(-0.686846 -0.726803 0.75067 -0.660677 200.273 250.438)" fill="#9D96F1"/>
<ellipse cx="21.0855" cy="21.1783" rx="21.0855" ry="21.1783" transform="matrix(-0.675143 0.737687 -0.761054 -0.648688 227.59 49.4746)" fill="#EDF399"/>
<ellipse cx="20.9247" cy="21.3372" rx="20.9247" ry="21.3372" transform="matrix(0.488074 -0.872802 0.886928 0.461908 61.5098 271.016)" fill="#EDF399"/>
<ellipse cx="21.0974" cy="21.1665" rx="21.0974" ry="21.1665" transform="matrix(-0.686846 -0.726803 0.75067 -0.660677 249.457 259.338)" fill="#EDF399"/>
<ellipse cx="21.0855" cy="21.1783" rx="21.0855" ry="21.1783" transform="matrix(-0.675143 0.737687 -0.761054 -0.648688 277.053 49.4746)" fill="#EDF399"/>
<ellipse cx="20.9247" cy="21.3372" rx="20.9247" ry="21.3372" transform="matrix(0.488074 -0.872802 0.886928 0.461908 13.332 281.832)" fill="#EDF399"/>
<ellipse cx="21.0974" cy="21.1665" rx="21.0974" ry="21.1665" transform="matrix(-0.686846 -0.726803 0.75067 -0.660677 244.129 306.795)" fill="#EDF399"/>
</svg>
