<svg width="323" height="308" viewBox="0 0 323 308" fill="none" xmlns="http://www.w3.org/2000/svg">
<ellipse cx="13.7465" cy="13.7269" rx="13.7465" ry="13.7269" transform="matrix(0.637903 -0.770117 0.765066 0.643951 0 23.5352)" fill="#FFC36E"/>
<ellipse cx="10.2586" cy="10.244" rx="10.2586" ry="10.244" transform="matrix(0.637903 -0.770117 0.765066 0.643951 182 184.801)" fill="#FFC36E"/>
<ellipse cx="13.738" cy="13.7355" rx="13.738" ry="13.7355" transform="matrix(0.69629 0.71776 -0.712163 0.702014 169.975 2.99609)" fill="#FFC36E"/>
<ellipse cx="10.2522" cy="10.2504" rx="10.2522" ry="10.2504" transform="matrix(0.69629 0.71776 -0.712163 0.702014 308.465 169.811)" fill="#FFC36E"/>
<ellipse cx="13.7465" cy="13.7269" rx="13.7465" ry="13.7269" transform="matrix(0.637903 -0.770117 0.765066 0.643951 45.7207 21.7656)" fill="#FFC36E"/>
<ellipse cx="10.2586" cy="10.244" rx="10.2586" ry="10.244" transform="matrix(0.637903 -0.770117 0.765066 0.643951 215.738 183.801)" fill="#FFC36E"/>
<ellipse cx="13.7356" cy="13.7379" rx="13.7356" ry="13.7379" transform="matrix(-0.711702 -0.702482 0.696761 -0.717303 19.5527 186.199)" fill="#95E7E2"/>
<ellipse cx="10.2504" cy="10.2522" rx="10.2504" ry="10.2522" transform="matrix(-0.711702 -0.702482 0.696761 -0.717303 196.207 306.527)" fill="#FFC36E"/>
<ellipse cx="13.7435" cy="13.7299" rx="13.7435" ry="13.7299" transform="matrix(-0.659008 0.752136 -0.746876 -0.664964 187.523 166.355)" fill="#FFC36E"/>
<ellipse cx="10.2564" cy="10.2462" rx="10.2564" ry="10.2462" transform="matrix(-0.659008 0.752136 -0.746876 -0.664964 321.559 291.719)" fill="#FFC36E"/>
<ellipse cx="13.738" cy="13.7355" rx="13.738" ry="13.7355" transform="matrix(0.69629 0.71776 -0.712163 0.702014 167.121 49.0273)" fill="#FFC36E"/>
<ellipse cx="10.2522" cy="10.2504" rx="10.2522" ry="10.2504" transform="matrix(0.69629 0.71776 -0.712163 0.702014 306.336 204.162)" fill="#D792F8"/>
<ellipse cx="13.7356" cy="13.7379" rx="13.7356" ry="13.7379" transform="matrix(-0.711702 -0.702482 0.696761 -0.717303 21.416 140.115)" fill="#95E7E2"/>
<ellipse cx="10.2504" cy="10.2522" rx="10.2504" ry="10.2522" transform="matrix(-0.711702 -0.702482 0.696761 -0.717303 197.596 272.139)" fill="#FFC36E"/>
<ellipse cx="13.7435" cy="13.7299" rx="13.7435" ry="13.7299" transform="matrix(-0.659008 0.752136 -0.746876 -0.664964 141.773 166.848)" fill="#FFC36E"/>
<ellipse cx="10.2564" cy="10.2462" rx="10.2564" ry="10.2462" transform="matrix(-0.659008 0.752136 -0.746876 -0.664964 287.418 292.086)" fill="#FFC36E"/>
<ellipse cx="13.7465" cy="13.7269" rx="13.7465" ry="13.7269" transform="matrix(0.637903 -0.770117 0.765066 0.643951 24.6211 46.875)" fill="#FFC36E"/>
<ellipse cx="10.2586" cy="10.244" rx="10.2586" ry="10.244" transform="matrix(0.637903 -0.770117 0.765066 0.643951 200.371 202.219)" fill="#FFC36E"/>
<ellipse cx="13.738" cy="13.7355" rx="13.738" ry="13.7355" transform="matrix(0.69629 0.71776 -0.712163 0.702014 144.459 25.3359)" fill="#FFC36E"/>
<ellipse cx="10.2522" cy="10.2504" rx="10.2522" ry="10.2504" transform="matrix(0.69629 0.71776 -0.712163 0.702014 289.424 186.482)" fill="#FFC36E"/>
<ellipse cx="13.7356" cy="13.7379" rx="13.7356" ry="13.7379" transform="matrix(-0.711702 -0.702482 0.696761 -0.717303 44.5781 163.307)" fill="#95E7E2"/>
<ellipse cx="10.2504" cy="10.2522" rx="10.2504" ry="10.2522" transform="matrix(-0.711702 -0.702482 0.696761 -0.717303 214.885 289.445)" fill="#FFC36E"/>
<ellipse cx="13.7435" cy="13.7299" rx="13.7435" ry="13.7299" transform="matrix(-0.659008 0.752136 -0.746876 -0.664964 163.559 142.336)" fill="#FFC36E"/>
<ellipse cx="10.2564" cy="10.2462" rx="10.2564" ry="10.2462" transform="matrix(-0.659008 0.752136 -0.746876 -0.664964 303.674 273.795)" fill="#FFC36E"/>
<ellipse cx="13.7465" cy="13.7269" rx="13.7465" ry="13.7269" transform="matrix(0.637903 -0.770117 0.765066 0.643951 35.4629 79.668)" fill="#FFC36E"/>
<ellipse cx="10.2586" cy="10.244" rx="10.2586" ry="10.244" transform="matrix(0.637903 -0.770117 0.765066 0.643951 208.082 227.027)" fill="#FFC36E"/>
<ellipse cx="13.738" cy="13.7355" rx="13.738" ry="13.7355" transform="matrix(0.69629 0.71776 -0.712163 0.702014 111.004 32.9102)" fill="#FFC36E"/>
<ellipse cx="10.2522" cy="10.2504" rx="10.2522" ry="10.2504" transform="matrix(0.69629 0.71776 -0.712163 0.702014 264.455 192.133)" fill="#FFC36E"/>
<ellipse cx="13.7356" cy="13.7379" rx="13.7356" ry="13.7379" transform="matrix(-0.711702 -0.702482 0.696761 -0.717303 77.8672 155.004)" fill="#FFC36E"/>
<ellipse cx="10.2504" cy="10.2522" rx="10.2504" ry="10.2522" transform="matrix(-0.711702 -0.702482 0.696761 -0.717303 239.725 283.248)" fill="#FFC36E"/>
<ellipse cx="13.7435" cy="13.7299" rx="13.7435" ry="13.7299" transform="matrix(-0.659008 0.752136 -0.746876 -0.664964 153.623 109.252)" fill="#FFC36E"/>
<ellipse cx="10.2564" cy="10.2462" rx="10.2564" ry="10.2462" transform="matrix(-0.659008 0.752136 -0.746876 -0.664964 296.26 249.105)" fill="#D792F8"/>
<ellipse cx="13.7465" cy="13.7269" rx="13.7465" ry="13.7269" transform="matrix(0.637903 -0.770117 0.765066 0.643951 58.3203 53.9648)" fill="#FFC36E"/>
<ellipse cx="10.2586" cy="10.244" rx="10.2586" ry="10.244" transform="matrix(0.637903 -0.770117 0.765066 0.643951 225.141 207.848)" fill="#FFC36E"/>
<ellipse cx="13.738" cy="13.7355" rx="13.738" ry="13.7355" transform="matrix(0.69629 0.71776 -0.712163 0.702014 134.072 58.4238)" fill="#FFC36E"/>
<ellipse cx="10.2522" cy="10.2504" rx="10.2522" ry="10.2504" transform="matrix(0.69629 0.71776 -0.712163 0.702014 281.67 211.174)" fill="#D792F8"/>
<ellipse cx="13.7356" cy="13.7379" rx="13.7356" ry="13.7379" transform="matrix(-0.711702 -0.702482 0.696761 -0.717303 54.2559 129.998)" fill="#95E7E2"/>
<ellipse cx="10.2504" cy="10.2522" rx="10.2504" ry="10.2522" transform="matrix(-0.711702 -0.702482 0.696761 -0.717303 222.105 264.588)" fill="#FFC36E"/>
<ellipse cx="13.7435" cy="13.7299" rx="13.7435" ry="13.7299" transform="matrix(-0.659008 0.752136 -0.746876 -0.664964 130.064 134.305)" fill="#FFC36E"/>
<ellipse cx="10.2564" cy="10.2462" rx="10.2564" ry="10.2462" transform="matrix(-0.659008 0.752136 -0.746876 -0.664964 278.68 267.803)" fill="#D792F8"/>
<ellipse cx="13.7465" cy="13.7269" rx="13.7465" ry="13.7269" transform="matrix(0.637903 -0.770117 0.765066 0.643951 1.75781 70.8047)" fill="#FFC36E"/>
<ellipse cx="10.2586" cy="10.244" rx="10.2586" ry="10.244" transform="matrix(0.637903 -0.770117 0.765066 0.643951 182.93 220.414)" fill="#FFC36E"/>
<ellipse cx="13.738" cy="13.7355" rx="13.738" ry="13.7355" transform="matrix(0.69629 0.71776 -0.712163 0.702014 123.145 0)" fill="#FFC36E"/>
<ellipse cx="10.2522" cy="10.2504" rx="10.2522" ry="10.2504" transform="matrix(0.69629 0.71776 -0.712163 0.702014 273.514 167.574)" fill="#FFC36E"/>
<ellipse cx="13.7356" cy="13.7379" rx="13.7356" ry="13.7379" transform="matrix(-0.711702 -0.702482 0.696761 -0.717303 66.4355 188.17)" fill="#95E7E2"/>
<ellipse cx="10.2504" cy="10.2522" rx="10.2504" ry="10.2522" transform="matrix(-0.711702 -0.702482 0.696761 -0.717303 231.197 308)" fill="#FFC36E"/>
<ellipse cx="13.7435" cy="13.7299" rx="13.7435" ry="13.7299" transform="matrix(-0.659008 0.752136 -0.746876 -0.664964 187.068 119.055)" fill="#FFC36E"/>
<ellipse cx="10.2564" cy="10.2462" rx="10.2564" ry="10.2462" transform="matrix(-0.659008 0.752136 -0.746876 -0.664964 321.219 256.422)" fill="#D792F8"/>
</svg>
