<svg width="379" height="216" viewBox="0 0 379 216" fill="none" xmlns="http://www.w3.org/2000/svg">
<circle cx="40.4496" cy="18.431" r="14.2865" transform="rotate(159.184 40.4496 18.431)" fill="#FEEC88"/>
<circle cx="229.45" cy="18.431" r="14.2865" transform="rotate(159.184 229.45 18.431)" fill="#FEEC88"/>
<circle cx="32.1733" cy="196.188" r="14.2865" transform="rotate(23.758 32.1733 196.188)" fill="#FEEC88"/>
<circle cx="221.173" cy="196.188" r="14.2865" transform="rotate(23.758 221.173 196.188)" fill="#FEEC88"/>
<circle cx="174.305" cy="105.886" r="14.2865" transform="rotate(-94.7033 174.305 105.886)" fill="#95E7E2"/>
<circle cx="363.305" cy="105.886" r="14.2865" transform="rotate(-94.7033 363.305 105.886)" fill="#95E7E2"/>
<circle cx="21.514" cy="44.097" r="14.2865" transform="rotate(159.184 21.514 44.097)" fill="#FEEC88"/>
<circle cx="210.514" cy="44.097" r="14.2865" transform="rotate(159.184 210.514 44.097)" fill="#FEEC88"/>
<circle cx="63.6733" cy="191.194" r="14.2865" transform="rotate(23.758 63.6733 191.194)" fill="#FEEC88"/>
<circle cx="252.673" cy="191.194" r="14.2865" transform="rotate(23.758 252.673 191.194)" fill="#FEEC88"/>
<circle cx="154.903" cy="80.5716" r="14.2865" transform="rotate(-94.7033 154.903 80.5716)" fill="#95E7E2"/>
<circle cx="343.903" cy="80.5716" r="14.2865" transform="rotate(-94.7033 343.903 80.5716)" fill="#95E7E2"/>
<circle cx="33.6234" cy="74.7064" r="14.2865" transform="rotate(159.184 33.6234 74.7064)" fill="#FEEC88"/>
<circle cx="222.623" cy="74.7064" r="14.2865" transform="rotate(159.184 222.623 74.7064)" fill="#FEEC88"/>
<circle cx="76.5307" cy="160.891" r="14.2865" transform="rotate(23.758 76.5307 160.891)" fill="#FEEC88"/>
<circle cx="265.531" cy="160.891" r="14.2865" transform="rotate(23.758 265.531 160.891)" fill="#FEEC88"/>
<circle cx="122.133" cy="83.7083" r="14.2865" transform="rotate(-94.7033 122.133 83.7083)" fill="#95E7E2"/>
<circle cx="311.133" cy="83.7083" r="14.2865" transform="rotate(-94.7033 311.133 83.7083)" fill="#95E7E2"/>
<circle cx="70.1917" cy="29.6126" r="14.2865" transform="rotate(159.184 70.1917 29.6126)" fill="#FEEC88"/>
<circle cx="259.192" cy="29.6126" r="14.2865" transform="rotate(159.184 259.192 29.6126)" fill="#FEEC88"/>
<circle cx="18.8315" cy="167.346" r="14.2865" transform="rotate(23.758 18.8315 167.346)" fill="#95E7E2"/>
<circle cx="207.831" cy="167.346" r="14.2865" transform="rotate(23.758 207.831 167.346)" fill="#95E7E2"/>
<circle cx="155.307" cy="131.357" r="14.2865" transform="rotate(-94.7033 155.307 131.357)" fill="#FEEC88"/>
<circle cx="344.307" cy="131.357" r="14.2865" transform="rotate(-94.7033 344.307 131.357)" fill="#FEEC88"/>
<circle cx="81.5296" cy="59.8157" r="14.2865" transform="rotate(159.184 81.5296 59.8157)" fill="#FEEC88"/>
<circle cx="270.53" cy="59.8157" r="14.2865" transform="rotate(159.184 270.53 59.8157)" fill="#FEEC88"/>
<circle cx="31.9565" cy="137.881" r="14.2865" transform="rotate(23.758 31.9565 137.881)" fill="#95E7E2"/>
<circle cx="220.956" cy="137.881" r="14.2865" transform="rotate(23.758 220.956 137.881)" fill="#95E7E2"/>
<circle cx="123.145" cy="133.863" r="14.2865" transform="rotate(-94.7033 123.145 133.863)" fill="#FEEC88"/>
<circle cx="312.145" cy="133.863" r="14.2865" transform="rotate(-94.7033 312.145 133.863)" fill="#FEEC88"/>
<circle cx="65.0199" cy="91.2103" r="14.2865" transform="rotate(159.184 65.0199 91.2103)" fill="#FEEC88"/>
<circle cx="254.02" cy="91.2103" r="14.2865" transform="rotate(159.184 254.02 91.2103)" fill="#FEEC88"/>
<circle cx="65.7475" cy="127.098" r="14.2865" transform="rotate(23.758 65.7475 127.098)" fill="#95E7E2"/>
<circle cx="254.747" cy="127.098" r="14.2865" transform="rotate(23.758 254.747 127.098)" fill="#95E7E2"/>
<circle cx="97.5647" cy="109.29" r="14.2865" transform="rotate(-94.7033 97.5647 109.29)" fill="#FEEC88"/>
<circle cx="286.565" cy="109.29" r="14.2865" transform="rotate(-94.7033 286.565 109.29)" fill="#FEEC88"/>
</svg>
