<svg width="1416" height="58" viewBox="0 0 1416 58" fill="none" xmlns="http://www.w3.org/2000/svg">
<path d="M12.1022 35.9439C18.1459 35.3348 22.5524 29.9419 21.9438 23.8982C21.3353 17.8538 15.942 13.4477 9.89776 14.0561C3.85348 14.6652 -0.552386 20.0581 0.0561696 26.1018C0.664725 32.1462 6.05796 36.5523 12.1022 35.9439Z" fill="white"/>
<path d="M83.1022 35.9439C89.1459 35.3348 93.5524 29.9419 92.9438 23.8982C92.3353 17.8538 86.942 13.4477 80.8978 14.0561C74.8535 14.6652 70.4476 20.0581 71.0562 26.1018C71.6647 32.1462 77.058 36.5523 83.1022 35.9439Z" fill="white"/>
<path d="M155.102 35.9439C161.146 35.3348 165.552 29.9419 164.944 23.8982C164.335 17.8538 158.942 13.4477 152.898 14.0561C146.853 14.6652 142.448 20.0581 143.056 26.1018C143.665 32.1462 149.058 36.5523 155.102 35.9439Z" fill="white"/>
<path d="M30.1016 21.9439C36.1459 21.3348 40.5524 15.9419 39.9438 9.89756C39.3353 3.8538 33.942 -0.55229 27.8978 0.0561465C21.8535 0.664583 17.4476 6.05807 18.0562 12.1018C18.6647 18.1462 24.058 22.5523 30.1016 21.9439Z" fill="white"/>
<path d="M101.102 21.9439C107.146 21.3348 111.552 15.9419 110.944 9.89756C110.335 3.8538 104.942 -0.55229 98.8978 0.0561465C92.8535 0.664583 88.4476 6.05807 89.0562 12.1018C89.6647 18.1462 95.058 22.5523 101.102 21.9439Z" fill="white"/>
<path d="M173.102 21.9439C179.146 21.3348 183.552 15.9419 182.944 9.89756C182.335 3.8538 176.942 -0.55229 170.898 0.0561465C164.853 0.664583 160.448 6.05807 161.056 12.1018C161.665 18.1462 167.058 22.5523 173.102 21.9439Z" fill="white"/>
<path d="M49.0602 34.942C55.1062 34.3382 59.5334 29.1735 58.948 23.4069C58.3627 17.6396 52.9859 13.4541 46.9399 14.0579C40.8934 14.6623 36.4661 19.827 37.0521 25.5936C37.6374 31.3609 43.0136 35.5464 49.0602 34.942Z" fill="white"/>
<path d="M120.06 34.942C126.106 34.3382 130.533 29.1735 129.948 23.4069C129.363 17.6396 123.986 13.4541 117.94 14.0579C111.893 14.6623 107.466 19.827 108.052 25.5936C108.637 31.3609 114.014 35.5464 120.06 34.942Z" fill="white"/>
<path d="M192.06 34.942C198.106 34.3382 202.533 29.1735 201.948 23.4069C201.363 17.6396 195.986 13.4541 189.94 14.0579C183.893 14.6623 179.466 19.827 180.052 25.5936C180.637 31.3609 186.014 35.5464 192.06 34.942Z" fill="white"/>
<path d="M19.1022 56.9439C25.1465 56.3348 29.5524 50.9419 28.9438 44.8982C28.3353 38.8538 22.942 34.4477 16.8984 35.0561C10.8541 35.6652 6.44761 41.0581 7.05616 47.1018C7.66472 53.1462 13.058 57.5523 19.1022 56.9439Z" fill="white"/>
<path d="M90.1022 56.9439C96.1465 56.3348 100.552 50.9419 99.9438 44.8982C99.3353 38.8538 93.942 34.4477 87.8984 35.0561C81.8541 35.6652 77.4476 41.0581 78.0562 47.1018C78.6647 53.1462 84.058 57.5523 90.1022 56.9439Z" fill="white"/>
<path d="M162.102 56.9439C168.147 56.3348 172.552 50.9419 171.944 44.8982C171.335 38.8538 165.942 34.4477 159.898 35.0561C153.854 35.6652 149.448 41.0581 150.056 47.1018C150.665 53.1462 156.058 57.5523 162.102 56.9439Z" fill="white"/>
<path d="M42.1022 55.9463C48.1459 55.3655 52.5524 50.2177 51.9438 44.4479C51.3353 38.6788 45.942 34.4723 39.8978 35.0537C33.8541 35.6345 29.4476 40.7823 30.0562 46.5521C30.6647 52.3212 36.058 56.5277 42.1022 55.9463Z" fill="white"/>
<path d="M113.102 55.9463C119.146 55.3655 123.552 50.2177 122.944 44.4479C122.335 38.6788 116.942 34.4723 110.898 35.0537C104.854 35.6345 100.448 40.7823 101.056 46.5521C101.665 52.3212 107.058 56.5277 113.102 55.9463Z" fill="white"/>
<path d="M185.102 55.9463C191.146 55.3655 195.552 50.2177 194.944 44.4479C194.335 38.6788 188.942 34.4723 182.898 35.0537C176.854 35.6345 172.448 40.7823 173.056 46.5521C173.665 52.3212 179.058 56.5277 185.102 55.9463Z" fill="white"/>
<path d="M226.102 35.9439C232.146 35.3348 236.552 29.9419 235.944 23.8982C235.335 17.8538 229.942 13.4477 223.898 14.0561C217.853 14.6652 213.448 20.0581 214.056 26.1018C214.665 32.1462 220.058 36.5523 226.102 35.9439Z" fill="#FFEB8D"/>
<path d="M298.102 35.9439C304.146 35.3348 308.552 29.9419 307.944 23.8982C307.335 17.8538 301.942 13.4477 295.898 14.0561C289.853 14.6652 285.448 20.0581 286.056 26.1018C286.665 32.1462 292.058 36.5523 298.102 35.9439Z" fill="white"/>
<path d="M369.102 35.9439C375.146 35.3348 379.552 29.9419 378.944 23.8982C378.335 17.8538 372.942 13.4477 366.898 14.0561C360.853 14.6652 356.448 20.0581 357.056 26.1018C357.665 32.1462 363.058 36.5523 369.102 35.9439Z" fill="white"/>
<path d="M244.102 21.9439C250.146 21.3348 254.552 15.9419 253.944 9.89756C253.335 3.8538 247.942 -0.55229 241.898 0.0561465C235.853 0.664583 231.448 6.05807 232.056 12.1018C232.665 18.1462 238.058 22.5523 244.102 21.9439Z" fill="#FFEB8D"/>
<path d="M316.102 21.9439C322.146 21.3348 326.552 15.9419 325.944 9.89756C325.335 3.8538 319.942 -0.55229 313.898 0.0561465C307.853 0.664583 303.448 6.05807 304.056 12.1018C304.665 18.1462 310.058 22.5523 316.102 21.9439Z" fill="white"/>
<path d="M387.102 21.9439C393.146 21.3348 397.552 15.9419 396.944 9.89756C396.335 3.8538 390.942 -0.55229 384.898 0.0561465C378.853 0.664583 374.448 6.05807 375.056 12.1018C375.665 18.1462 381.058 22.5523 387.102 21.9439Z" fill="white"/>
<path d="M263.06 34.942C269.106 34.3382 273.533 29.1735 272.948 23.4069C272.363 17.6396 266.986 13.4541 260.94 14.0579C254.893 14.6623 250.466 19.827 251.052 25.5936C251.637 31.3609 257.014 35.5464 263.06 34.942Z" fill="#FFEB8D"/>
<path d="M335.06 34.942C341.106 34.3382 345.533 29.1735 344.948 23.4069C344.363 17.6396 338.986 13.4541 332.94 14.0579C326.893 14.6623 322.466 19.827 323.052 25.5936C323.637 31.3609 329.014 35.5464 335.06 34.942Z" fill="white"/>
<path d="M406.06 34.942C412.106 34.3382 416.533 29.1735 415.948 23.4069C415.363 17.6396 409.986 13.4541 403.94 14.0579C397.893 14.6623 393.466 19.827 394.052 25.5936C394.637 31.3609 400.014 35.5464 406.06 34.942Z" fill="white"/>
<path d="M233.102 56.9439C239.147 56.3348 243.552 50.9419 242.944 44.8982C242.335 38.8538 236.942 34.4477 230.898 35.0561C224.854 35.6652 220.448 41.0581 221.056 47.1018C221.665 53.1462 227.058 57.5523 233.102 56.9439Z" fill="#FFEB8D"/>
<path d="M305.102 56.9439C311.147 56.3348 315.552 50.9419 314.944 44.8982C314.335 38.8538 308.942 34.4477 302.898 35.0561C296.854 35.6652 292.448 41.0581 293.056 47.1018C293.665 53.1462 299.058 57.5523 305.102 56.9439Z" fill="white"/>
<path d="M376.102 56.9439C382.147 56.3348 386.552 50.9419 385.944 44.8982C385.335 38.8538 379.942 34.4477 373.898 35.0561C367.854 35.6652 363.448 41.0581 364.056 47.1018C364.665 53.1462 370.058 57.5523 376.102 56.9439Z" fill="white"/>
<path d="M256.102 55.9463C262.146 55.3655 266.552 50.2177 265.944 44.4479C265.335 38.6788 259.942 34.4723 253.898 35.0537C247.854 35.6345 243.448 40.7823 244.056 46.5521C244.665 52.3212 250.058 56.5277 256.102 55.9463Z" fill="#FFEB8D"/>
<path d="M328.102 55.9463C334.146 55.3655 338.552 50.2177 337.944 44.4479C337.335 38.6788 331.942 34.4723 325.898 35.0537C319.854 35.6345 315.448 40.7823 316.056 46.5521C316.665 52.3212 322.058 56.5277 328.102 55.9463Z" fill="white"/>
<path d="M399.102 55.9463C405.146 55.3655 409.552 50.2177 408.944 44.4479C408.335 38.6788 402.942 34.4723 396.898 35.0537C390.854 35.6345 386.448 40.7823 387.056 46.5521C387.665 52.3212 393.058 56.5277 399.102 55.9463Z" fill="white"/>
<path d="M441.102 35.9439C447.146 35.3348 451.552 29.9419 450.944 23.8982C450.335 17.8538 444.942 13.4477 438.898 14.0561C432.853 14.6652 428.448 20.0581 429.056 26.1018C429.665 32.1462 435.058 36.5523 441.102 35.9439Z" fill="white"/>
<path d="M459.102 21.9439C465.146 21.3348 469.552 15.9419 468.944 9.89756C468.335 3.8538 462.942 -0.55229 456.898 0.0561465C450.853 0.664583 446.448 6.05807 447.056 12.1018C447.665 18.1462 453.058 22.5523 459.102 21.9439Z" fill="white"/>
<path d="M478.06 34.942C484.106 34.3382 488.533 29.1735 487.948 23.4069C487.363 17.6396 481.986 13.4541 475.94 14.0579C469.893 14.6623 465.466 19.827 466.052 25.5936C466.637 31.3609 472.014 35.5464 478.06 34.942Z" fill="white"/>
<path d="M448.102 56.9439C454.147 56.3348 458.552 50.9419 457.944 44.8982C457.335 38.8538 451.942 34.4477 445.898 35.0561C439.854 35.6652 435.448 41.0581 436.056 47.1018C436.665 53.1462 442.058 57.5523 448.102 56.9439Z" fill="white"/>
<path d="M471.102 55.9463C477.146 55.3655 481.552 50.2177 480.944 44.4479C480.335 38.6788 474.942 34.4723 468.898 35.0537C462.854 35.6345 458.448 40.7823 459.056 46.5521C459.665 52.3212 465.058 56.5277 471.102 55.9463Z" fill="white"/>
<path d="M512.102 35.9439C518.146 35.3348 522.552 29.9419 521.944 23.8982C521.335 17.8538 515.942 13.4477 509.898 14.0561C503.853 14.6652 499.448 20.0581 500.056 26.1018C500.665 32.1462 506.058 36.5523 512.102 35.9439Z" fill="white"/>
<path d="M583.102 35.9439C589.146 35.3348 593.552 29.9419 592.944 23.8982C592.335 17.8538 586.942 13.4477 580.898 14.0561C574.853 14.6652 570.448 20.0581 571.056 26.1018C571.665 32.1462 577.058 36.5523 583.102 35.9439Z" fill="#EDF399"/>
<path d="M530.102 21.9439C536.146 21.3348 540.552 15.9419 539.944 9.89756C539.335 3.8538 533.942 -0.55229 527.898 0.0561465C521.853 0.664583 517.448 6.05807 518.056 12.1018C518.665 18.1462 524.058 22.5523 530.102 21.9439Z" fill="white"/>
<path d="M601.102 21.9439C607.146 21.3348 611.552 15.9419 610.944 9.89756C610.335 3.8538 604.942 -0.55229 598.898 0.0561465C592.853 0.664583 588.448 6.05807 589.056 12.1018C589.665 18.1462 595.058 22.5523 601.102 21.9439Z" fill="#EDF399"/>
<path d="M549.06 34.942C555.106 34.3382 559.533 29.1735 558.948 23.4069C558.363 17.6396 552.986 13.4541 546.94 14.0579C540.893 14.6623 536.466 19.827 537.052 25.5936C537.637 31.3609 543.014 35.5464 549.06 34.942Z" fill="white"/>
<path d="M620.06 34.942C626.106 34.3382 630.533 29.1735 629.948 23.4069C629.363 17.6396 623.986 13.4541 617.94 14.0579C611.893 14.6623 607.466 19.827 608.052 25.5936C608.637 31.3609 614.014 35.5464 620.06 34.942Z" fill="#EDF399"/>
<path d="M519.102 56.9439C525.147 56.3348 529.552 50.9419 528.944 44.8982C528.335 38.8538 522.942 34.4477 516.898 35.0561C510.854 35.6652 506.448 41.0581 507.056 47.1018C507.665 53.1462 513.058 57.5523 519.102 56.9439Z" fill="white"/>
<path d="M590.102 56.9439C596.147 56.3348 600.552 50.9419 599.944 44.8982C599.335 38.8538 593.942 34.4477 587.898 35.0561C581.854 35.6652 577.448 41.0581 578.056 47.1018C578.665 53.1462 584.058 57.5523 590.102 56.9439Z" fill="#EDF399"/>
<path d="M542.102 55.9463C548.146 55.3655 552.552 50.2177 551.944 44.4479C551.335 38.6788 545.942 34.4723 539.898 35.0537C533.854 35.6345 529.448 40.7823 530.056 46.5521C530.665 52.3212 536.058 56.5277 542.102 55.9463Z" fill="white"/>
<path d="M613.102 55.9463C619.146 55.3655 623.552 50.2177 622.944 44.4479C622.335 38.6788 616.942 34.4723 610.898 35.0537C604.854 35.6345 600.448 40.7823 601.056 46.5521C601.665 52.3212 607.058 56.5277 613.102 55.9463Z" fill="#EDF399"/>
<path d="M655.102 35.9439C661.146 35.3348 665.552 29.9419 664.944 23.8982C664.335 17.8538 658.942 13.4477 652.898 14.0561C646.853 14.6652 642.448 20.0581 643.056 26.1018C643.665 32.1462 649.058 36.5523 655.102 35.9439Z" fill="#EDF399"/>
<path d="M726.102 35.9439C732.146 35.3348 736.552 29.9419 735.944 23.8982C735.335 17.8538 729.942 13.4477 723.898 14.0561C717.853 14.6652 713.448 20.0581 714.056 26.1018C714.665 32.1462 720.058 36.5523 726.102 35.9439Z" fill="white"/>
<path d="M797.102 35.9439C803.146 35.3348 807.552 29.9419 806.944 23.8982C806.335 17.8538 800.942 13.4477 794.898 14.0561C788.853 14.6652 784.448 20.0581 785.056 26.1018C785.665 32.1462 791.058 36.5523 797.102 35.9439Z" fill="white"/>
<path d="M673.102 21.9439C679.146 21.3348 683.552 15.9419 682.944 9.89756C682.335 3.8538 676.942 -0.55229 670.898 0.0561465C664.853 0.664583 660.448 6.05807 661.056 12.1018C661.665 18.1462 667.058 22.5523 673.102 21.9439Z" fill="#EDF399"/>
<path d="M744.102 21.9439C750.146 21.3348 754.552 15.9419 753.944 9.89756C753.335 3.8538 747.942 -0.55229 741.898 0.0561465C735.853 0.664583 731.448 6.05807 732.056 12.1018C732.665 18.1462 738.058 22.5523 744.102 21.9439Z" fill="white"/>
<path d="M815.102 21.9439C821.146 21.3348 825.552 15.9419 824.944 9.89756C824.335 3.8538 818.942 -0.55229 812.898 0.0561465C806.853 0.664583 802.448 6.05807 803.056 12.1018C803.665 18.1462 809.058 22.5523 815.102 21.9439Z" fill="white"/>
<path d="M692.06 34.942C698.106 34.3382 702.533 29.1735 701.948 23.4069C701.363 17.6396 695.986 13.4541 689.94 14.0579C683.893 14.6623 679.466 19.827 680.052 25.5936C680.637 31.3609 686.014 35.5464 692.06 34.942Z" fill="#EDF399"/>
<path d="M763.06 34.942C769.106 34.3382 773.533 29.1735 772.948 23.4069C772.363 17.6396 766.986 13.4541 760.94 14.0579C754.893 14.6623 750.466 19.827 751.052 25.5936C751.637 31.3609 757.014 35.5464 763.06 34.942Z" fill="white"/>
<path d="M834.06 34.942C840.106 34.3382 844.533 29.1735 843.948 23.4069C843.363 17.6396 837.986 13.4541 831.94 14.0579C825.893 14.6623 821.466 19.827 822.052 25.5936C822.637 31.3609 828.014 35.5464 834.06 34.942Z" fill="white"/>
<path d="M662.102 56.9439C668.147 56.3348 672.552 50.9419 671.944 44.8982C671.335 38.8538 665.942 34.4477 659.898 35.0561C653.854 35.6652 649.448 41.0581 650.056 47.1018C650.665 53.1462 656.058 57.5523 662.102 56.9439Z" fill="#EDF399"/>
<path d="M733.102 56.9439C739.147 56.3348 743.552 50.9419 742.944 44.8982C742.335 38.8538 736.942 34.4477 730.898 35.0561C724.854 35.6652 720.448 41.0581 721.056 47.1018C721.665 53.1462 727.058 57.5523 733.102 56.9439Z" fill="white"/>
<path d="M804.102 56.9439C810.147 56.3348 814.552 50.9419 813.944 44.8982C813.335 38.8538 807.942 34.4477 801.898 35.0561C795.854 35.6652 791.448 41.0581 792.056 47.1018C792.665 53.1462 798.058 57.5523 804.102 56.9439Z" fill="white"/>
<path d="M685.102 55.9463C691.146 55.3655 695.552 50.2177 694.944 44.4479C694.335 38.6788 688.942 34.4723 682.898 35.0537C676.854 35.6345 672.448 40.7823 673.056 46.5521C673.665 52.3212 679.058 56.5277 685.102 55.9463Z" fill="#EDF399"/>
<path d="M756.102 55.9463C762.146 55.3655 766.552 50.2177 765.944 44.4479C765.335 38.6788 759.942 34.4723 753.898 35.0537C747.854 35.6345 743.448 40.7823 744.056 46.5521C744.665 52.3212 750.058 56.5277 756.102 55.9463Z" fill="white"/>
<path d="M827.102 55.9463C833.146 55.3655 837.552 50.2177 836.944 44.4479C836.335 38.6788 830.942 34.4723 824.898 35.0537C818.854 35.6345 814.448 40.7823 815.056 46.5521C815.665 52.3212 821.058 56.5277 827.102 55.9463Z" fill="white"/>
<path d="M868.102 35.905C874.149 35.3353 878.591 29.9712 878.022 23.9236C877.452 17.8754 872.088 13.4343 866.04 14.0034C859.992 14.5731 855.551 19.9372 856.12 25.9848C856.689 32.033 862.054 36.474 868.102 35.905Z" fill="white"/>
<path d="M939.102 35.903C945.149 35.3333 949.591 29.9692 949.022 23.9216C948.452 17.8734 943.088 13.4323 937.04 14.0014C930.992 14.5711 926.551 19.9352 927.12 25.9828C927.689 32.031 933.054 36.4721 939.102 35.903Z" fill="white"/>
<path d="M886.191 22.0221C892.239 21.4524 896.681 16.0884 896.111 10.0402C895.542 3.99256 890.178 -0.448531 884.13 0.120558C878.081 0.689646 873.641 6.05434 874.21 12.1019C874.779 18.1501 880.143 22.5912 886.191 22.0221Z" fill="white"/>
<path d="M957.191 22.0221C963.239 21.4524 967.681 16.0884 967.111 10.0402C966.542 3.99256 961.178 -0.448531 955.13 0.120558C949.081 0.689646 944.641 6.05434 945.21 12.1019C945.779 18.1501 951.143 22.5912 957.191 22.0221Z" fill="white"/>
<path d="M905.064 35.1431C911.114 34.5787 915.575 29.4429 915.027 23.6726C914.479 17.9016 909.13 13.6812 903.08 14.2456C897.03 14.8107 892.569 19.9464 893.117 25.7168C893.665 31.4877 899.014 35.7081 905.064 35.1431Z" fill="white"/>
<path d="M976.066 35.1431C982.116 34.5787 986.577 29.4429 986.029 23.6726C985.481 17.9016 980.132 13.6812 974.082 14.2456C968.032 14.8107 963.571 19.9464 964.119 25.7168C964.667 31.4877 970.016 35.7081 976.066 35.1431Z" fill="white"/>
<path d="M874.965 56.9499C881.013 56.3802 885.454 51.0161 884.885 44.9685C884.316 38.9203 878.951 34.4792 872.904 35.0483C866.856 35.618 862.414 40.9821 862.983 47.0297C863.552 53.0779 868.917 57.519 874.965 56.9499Z" fill="white"/>
<path d="M945.965 56.9479C952.013 56.3782 956.454 51.0141 955.885 44.9665C955.316 38.9183 949.951 34.4773 943.904 35.0463C937.856 35.616 933.414 40.9801 933.983 47.0277C934.552 53.0759 939.917 57.517 945.965 56.9479Z" fill="white"/>
<path d="M897.97 56.1027C904.017 55.5613 908.457 50.4422 907.886 44.6687C907.315 38.8957 901.949 34.6542 895.901 35.1962C889.854 35.7377 885.414 40.8567 885.985 46.6303C886.556 52.4033 891.922 56.6448 897.97 56.1027Z" fill="white"/>
<path d="M968.972 56.1008C975.019 55.5593 979.459 50.4403 978.888 44.6667C978.317 38.8937 972.951 34.6522 966.903 35.1943C960.856 35.7357 956.416 40.8548 956.987 46.6284C957.558 52.4013 962.924 56.6428 968.972 56.1008Z" fill="white"/>
<path d="M1010.1 35.905C1016.15 35.3353 1020.59 29.9712 1020.02 23.9236C1019.45 17.8754 1014.09 13.4343 1008.04 14.0034C1001.99 14.5731 997.551 19.9372 998.12 25.9848C998.689 32.033 1004.05 36.474 1010.1 35.905Z" fill="white"/>
<path d="M1028.19 22.0221C1034.24 21.4524 1038.68 16.0884 1038.11 10.0402C1037.54 3.99256 1032.18 -0.448531 1026.13 0.120558C1020.08 0.689646 1015.64 6.05434 1016.21 12.1019C1016.78 18.1501 1022.15 22.5912 1028.19 22.0221Z" fill="white"/>
<path d="M1047.07 35.1431C1053.12 34.5787 1057.58 29.4429 1057.03 23.6726C1056.48 17.9016 1051.13 13.6812 1045.08 14.2456C1039.03 14.8107 1034.57 19.9464 1035.12 25.7168C1035.67 31.4877 1041.02 35.7081 1047.07 35.1431Z" fill="white"/>
<path d="M1016.97 56.9499C1023.01 56.3802 1027.45 51.0161 1026.88 44.9685C1026.32 38.9203 1020.95 34.4792 1014.9 35.0483C1008.86 35.618 1004.41 40.9821 1004.98 47.0297C1005.55 53.0779 1010.92 57.519 1016.97 56.9499Z" fill="white"/>
<path d="M1039.97 56.1027C1046.02 55.5613 1050.46 50.4422 1049.89 44.6687C1049.32 38.8957 1043.95 34.6542 1037.9 35.1962C1031.86 35.7377 1027.42 40.8567 1027.99 46.6303C1028.56 52.4033 1033.92 56.6448 1039.97 56.1027Z" fill="white"/>
<path d="M1082.1 35.905C1088.15 35.3353 1092.59 29.9712 1092.02 23.9236C1091.45 17.8754 1086.09 13.4343 1080.04 14.0034C1073.99 14.5731 1069.55 19.9372 1070.12 25.9848C1070.69 32.033 1076.05 36.474 1082.1 35.905Z" fill="#FFEB8D"/>
<path d="M1153.1 35.903C1159.15 35.3333 1163.59 29.9692 1163.02 23.9216C1162.45 17.8734 1157.09 13.4323 1151.04 14.0014C1144.99 14.5711 1140.55 19.9352 1141.12 25.9828C1141.69 32.031 1147.05 36.4721 1153.1 35.903Z" fill="white"/>
<path d="M1224.1 35.905C1230.15 35.3353 1234.59 29.9712 1234.02 23.9236C1233.45 17.8754 1228.09 13.4343 1222.04 14.0034C1215.99 14.5731 1211.55 19.9372 1212.12 25.9848C1212.69 32.033 1218.05 36.474 1224.1 35.905Z" fill="white"/>
<path d="M1100.19 22.0221C1106.24 21.4524 1110.68 16.0884 1110.11 10.0402C1109.54 3.99256 1104.18 -0.448531 1098.13 0.120558C1092.08 0.689646 1087.64 6.05434 1088.21 12.1019C1088.78 18.1501 1094.14 22.5912 1100.19 22.0221Z" fill="#FFEB8D"/>
<path d="M1171.19 22.0221C1177.24 21.4524 1181.68 16.0884 1181.11 10.0402C1180.54 3.99256 1175.18 -0.448531 1169.13 0.120558C1163.08 0.689646 1158.64 6.05434 1159.21 12.1019C1159.78 18.1501 1165.14 22.5912 1171.19 22.0221Z" fill="white"/>
<path d="M1242.19 22.0221C1248.24 21.4524 1252.68 16.0884 1252.11 10.0402C1251.54 3.99256 1246.18 -0.448531 1240.13 0.120558C1234.08 0.689646 1229.64 6.05434 1230.21 12.1019C1230.78 18.1501 1236.15 22.5912 1242.19 22.0221Z" fill="white"/>
<path d="M1119.06 35.1431C1125.11 34.5787 1129.57 29.4429 1129.03 23.6726C1128.48 17.9016 1123.13 13.6812 1117.08 14.2456C1111.03 14.8107 1106.57 19.9464 1107.12 25.7168C1107.67 31.4877 1113.01 35.7081 1119.06 35.1431Z" fill="#FFEB8D"/>
<path d="M1190.06 35.1431C1196.11 34.5787 1200.57 29.4429 1200.03 23.6726C1199.48 17.9016 1194.13 13.6812 1188.08 14.2456C1182.03 14.8107 1177.57 19.9464 1178.12 25.7168C1178.67 31.4877 1184.01 35.7081 1190.06 35.1431Z" fill="white"/>
<path d="M1261.07 35.1431C1267.12 34.5787 1271.58 29.4429 1271.03 23.6726C1270.48 17.9016 1265.13 13.6812 1259.08 14.2456C1253.03 14.8107 1248.57 19.9464 1249.12 25.7168C1249.67 31.4877 1255.02 35.7081 1261.07 35.1431Z" fill="white"/>
<path d="M1088.97 56.9499C1095.01 56.3802 1099.45 51.0161 1098.88 44.9685C1098.32 38.9203 1092.95 34.4792 1086.9 35.0483C1080.86 35.618 1076.41 40.9821 1076.98 47.0297C1077.55 53.0779 1082.92 57.519 1088.97 56.9499Z" fill="#FFEB8D"/>
<path d="M1159.97 56.9499C1166.01 56.3802 1170.45 51.0161 1169.88 44.9685C1169.32 38.9203 1163.95 34.4792 1157.9 35.0483C1151.86 35.618 1147.41 40.9821 1147.98 47.0297C1148.55 53.0779 1153.92 57.519 1159.97 56.9499Z" fill="white"/>
<path d="M1230.97 56.9499C1237.01 56.3802 1241.45 51.0161 1240.88 44.9685C1240.32 38.9203 1234.95 34.4792 1228.9 35.0483C1222.86 35.618 1218.41 40.9821 1218.98 47.0297C1219.55 53.0779 1224.92 57.519 1230.97 56.9499Z" fill="white"/>
<path d="M1111.97 56.1027C1118.02 55.5613 1122.46 50.4422 1121.89 44.6687C1121.31 38.8957 1115.95 34.6542 1109.9 35.1962C1103.85 35.7377 1099.41 40.8567 1099.98 46.6303C1100.56 52.4033 1105.92 56.6448 1111.97 56.1027Z" fill="#FFEB8D"/>
<path d="M1182.97 56.1008C1189.02 55.5593 1193.46 50.4403 1192.89 44.6667C1192.32 38.8937 1186.95 34.6522 1180.9 35.1943C1174.86 35.7357 1170.42 40.8548 1170.99 46.6284C1171.56 52.4013 1176.92 56.6428 1182.97 56.1008Z" fill="white"/>
<path d="M1253.97 56.1027C1260.02 55.5613 1264.46 50.4422 1263.89 44.6687C1263.32 38.8957 1257.95 34.6542 1251.9 35.1962C1245.86 35.7377 1241.42 40.8567 1241.99 46.6303C1242.56 52.4033 1247.92 56.6448 1253.97 56.1027Z" fill="white"/>
<path d="M1296.1 35.905C1302.15 35.3353 1306.59 29.9712 1306.02 23.9236C1305.45 17.8754 1300.09 13.4343 1294.04 14.0034C1287.99 14.5731 1283.55 19.9372 1284.12 25.9848C1284.69 32.033 1290.05 36.474 1296.1 35.905Z" fill="white"/>
<path d="M1368.1 35.905C1374.15 35.3353 1378.59 29.9712 1378.02 23.9236C1377.45 17.8754 1372.09 13.4343 1366.04 14.0034C1359.99 14.5731 1355.55 19.9372 1356.12 25.9848C1356.69 32.033 1362.05 36.474 1368.1 35.905Z" fill="white"/>
<path d="M1314.19 22.0221C1320.24 21.4524 1324.68 16.0884 1324.11 10.0402C1323.54 3.99256 1318.18 -0.448531 1312.13 0.120558C1306.08 0.689646 1301.64 6.05434 1302.21 12.1019C1302.78 18.1501 1308.14 22.5912 1314.19 22.0221Z" fill="white"/>
<path d="M1386.19 22.0221C1392.24 21.4524 1396.68 16.0884 1396.11 10.0402C1395.54 3.99256 1390.18 -0.448531 1384.13 0.120558C1378.08 0.689646 1373.64 6.05434 1374.21 12.1019C1374.78 18.1501 1380.14 22.5912 1386.19 22.0221Z" fill="white"/>
<path d="M1333.06 35.1431C1339.11 34.5787 1343.57 29.4429 1343.03 23.6726C1342.48 17.9016 1337.13 13.6812 1331.08 14.2456C1325.03 14.8107 1320.57 19.9464 1321.12 25.7168C1321.67 31.4877 1327.01 35.7081 1333.06 35.1431Z" fill="white"/>
<path d="M1405.07 35.1431C1411.12 34.5787 1415.58 29.4429 1415.03 23.6726C1414.48 17.9016 1409.13 13.6812 1403.08 14.2456C1397.03 14.8107 1392.57 19.9464 1393.12 25.7168C1393.67 31.4877 1399.02 35.7081 1405.07 35.1431Z" fill="white"/>
<path d="M1302.97 56.9499C1309.01 56.3802 1313.45 51.0161 1312.88 44.9685C1312.32 38.9203 1306.95 34.4792 1300.9 35.0483C1294.86 35.618 1290.41 40.9821 1290.98 47.0297C1291.55 53.0779 1296.92 57.519 1302.97 56.9499Z" fill="white"/>
<path d="M1374.97 56.9499C1381.01 56.3802 1385.45 51.0161 1384.88 44.9685C1384.32 38.9203 1378.95 34.4792 1372.9 35.0483C1366.86 35.618 1362.41 40.9821 1362.98 47.0297C1363.55 53.0779 1368.92 57.519 1374.97 56.9499Z" fill="white"/>
<path d="M1325.97 56.1027C1332.02 55.5613 1336.46 50.4422 1335.89 44.6687C1335.31 38.8957 1329.95 34.6542 1323.9 35.1962C1317.85 35.7377 1313.41 40.8567 1313.98 46.6303C1314.56 52.4033 1319.92 56.6448 1325.97 56.1027Z" fill="white"/>
<path d="M1397.97 56.1008C1404.02 55.5593 1408.46 50.4403 1407.89 44.6667C1407.32 38.8937 1401.95 34.6522 1395.9 35.1943C1389.86 35.7357 1385.42 40.8548 1385.99 46.6284C1386.56 52.4013 1391.92 56.6428 1397.97 56.1008Z" fill="white"/>
</svg>
