<svg width="448" height="218" viewBox="0 0 448 218" fill="none" xmlns="http://www.w3.org/2000/svg">
<circle cx="32.7615" cy="32.7614" r="23.2104" transform="rotate(131.452 32.7615 32.7614)" fill="#D792F8"/>
<circle cx="255.762" cy="32.7614" r="23.2104" transform="rotate(131.452 255.762 32.7614)" fill="#D792F8"/>
<circle cx="69.4568" cy="74.6306" r="23.2104" transform="rotate(131.452 69.4568 74.6306)" fill="#EDF399"/>
<circle cx="292.457" cy="74.6306" r="23.2104" transform="rotate(131.452 292.457 74.6306)" fill="#EDF399"/>
<circle cx="151.312" cy="73.6911" r="23.2104" transform="rotate(131.452 151.312 73.6911)" fill="#EDF399"/>
<circle cx="374.312" cy="73.6911" r="23.2104" transform="rotate(131.452 374.312 73.6911)" fill="#EDF399"/>
<circle cx="189.888" cy="32.7614" r="23.2104" transform="rotate(131.452 189.888 32.7614)" fill="#EDF399"/>
<circle cx="412.888" cy="32.7614" r="23.2104" transform="rotate(131.452 412.888 32.7614)" fill="#EDF399"/>
<circle cx="150.373" cy="144.258" r="23.2104" transform="rotate(131.452 150.373 144.258)" fill="#D792F8"/>
<circle cx="373.373" cy="144.258" r="23.2104" transform="rotate(131.452 373.373 144.258)" fill="#D792F8"/>
<circle cx="192.138" cy="185.127" r="23.2104" transform="rotate(131.452 192.138 185.127)" fill="#EDF399"/>
<circle cx="415.138" cy="185.127" r="23.2104" transform="rotate(131.452 415.138 185.127)" fill="#EDF399"/>
<circle cx="71.3377" cy="143.787" r="23.2104" transform="rotate(131.452 71.3377 143.787)" fill="#EDF399"/>
<circle cx="294.338" cy="143.787" r="23.2104" transform="rotate(131.452 294.338 143.787)" fill="#EDF399"/>
<circle cx="35.1151" cy="184.246" r="23.2104" transform="rotate(131.452 35.1151 184.246)" fill="#EDF399"/>
<circle cx="258.115" cy="184.246" r="23.2104" transform="rotate(131.452 258.115 184.246)" fill="#EDF399"/>
</svg>
